<svg xmlns="http://www.w3.org/2000/svg" width="48" height="48" viewBox="0 0 48 48">
  <path fill="#F44336" d="M10.3511736,6 C8.19520143,6.00017486 6.63563258,6.58994875 5.67522433,7.76719673 C4.71483471,8.93043688 4.23790958,10.9570695 4.23790958,13.8441676 L4.23790958,18.5327085 C4.23790958,21.2095939 3.48964815,22.5455657 2,22.5455657 L2,26.413783 C3.48959226,26.413783 4.23790958,27.7031888 4.23790958,30.2820003 L4.23790958,35.3269144 C4.23790958,38.1999476 4.71960415,40.197158 5.68979347,41.3183556 C6.65998279,42.4395532 8.21461453,43 10.3511736,43 L10.3511736,39.0686809 C9.51818009,39.0686809 8.91508843,38.7820618 8.54269968,38.2074362 C8.18011063,37.6328295 8.0005115,36.65937 8.0005115,35.2859362 L8.0005115,30.9760062 C8.0005115,27.5422791 7.2463628,25.3930161 5.73726428,24.5242258 L5.73726428,24.4388445 C7.24645595,23.5559132 8.0005115,21.432195 8.0005115,18.0686022 L8.0005115,13.5916045 C8.0005115,11.1530615 8.78318367,9.93131909 10.3511363,9.93131909 L10.3511736,6 Z M37.6635819,6.00015966 L37.6636191,9.93149395 C39.231609,9.93149395 40.014244,11.1531603 40.014244,13.5917793 L40.014244,17.9017093 C40.014244,21.4053806 40.7636232,23.5968382 42.2629593,24.4796934 L42.2629593,24.5650747 C40.7635673,25.4059634 40.014244,27.5002594 40.014244,30.8497874 L40.014244,35.3267851 C40.014244,36.6862301 39.8299052,37.6469172 39.4575053,38.207421 C39.0851165,38.7820276 38.4867757,39.0686657 37.6635819,39.0686657 L37.6635819,42.9999848 C39.8098288,42.9999848 41.3597098,42.439538 42.3102438,41.3183404 C43.2706334,40.1971428 43.7475585,38.1577378 43.7475585,35.2005055 L43.7475585,30.3448968 C43.7475585,27.7240808 44.5005894,26.4135777 46,26.4135777 L46,22.5453605 C44.500608,22.5453605 43.7475585,21.222085 43.7475585,18.5733673 L43.7475585,13.7586228 C43.7475585,10.9275941 43.2706334,8.93038366 42.3102438,7.76718153 C41.3498542,6.58993354 39.7999546,6.00015966 37.6635819,6.00015966 Z M31.9725249,14.4752047 C31.1249996,14.4752047 30.3219455,14.5854105 29.5635863,14.805596 C28.805283,15.016968 28.1348603,15.3499251 27.5550196,15.8078885 C26.9825753,16.2658708 26.528659,16.8503799 26.194109,17.5637725 C25.859559,18.2683461 25.691958,19.1165143 25.691958,20.1028603 C25.691958,21.3622927 25.9993073,22.4355367 26.6089383,23.3250442 C27.2259843,24.2145897 28.1581858,24.9655583 29.4072568,25.5820745 C29.8979313,25.8198657 30.3553316,26.0546919 30.7790849,26.283683 C31.2028383,26.5126742 31.5659117,26.7498192 31.8707272,26.9964294 C32.1829764,27.2430397 32.4273355,27.5113364 32.6057609,27.8019849 C32.7841863,28.0926334 32.8750292,28.4232337 32.8750292,28.7931396 C32.8750292,29.066169 32.8191616,29.323765 32.7076462,29.5615752 C32.5961308,29.7905664 32.4250384,29.9905155 32.1945776,30.1666684 C31.9715505,30.3340061 31.6887192,30.4669912 31.3467356,30.5638677 C31.0121856,30.660748 30.6176264,30.7086446 30.16412,30.7086446 C29.3909494,30.7086446 28.6263489,30.5505422 27.8680829,30.2334803 C27.1097795,29.9076127 26.4080201,29.4249408 25.7611465,28.7820055 L25.7611465,33.006596 C26.3410244,33.3588828 27.0253829,33.6248607 27.8134952,33.8010136 C28.6089666,33.9771589 29.443376,34.0645778 30.3206171,34.0645778 C31.1755761,34.0645778 31.985598,33.9687846 32.7513536,33.7750317 C33.5245242,33.5812787 34.2019147,33.2650664 34.7817181,32.8247031 C35.361596,32.3755398 35.8189963,31.7933496 36.1535463,31.0799569 C36.4955298,30.3577643 36.6666148,29.4677436 36.6666148,28.4108642 C36.6666148,27.6446333 36.568804,26.9750318 36.3755114,26.40263 C36.1822188,25.821352 35.9028713,25.3075094 35.5385869,24.8583461 C35.1743025,24.4091828 34.7379548,24.0078781 34.2249794,23.6555913 C33.7194377,23.2944854 33.1468257,22.9555033 32.5074602,22.6384356 C32.0390865,22.4094445 31.6201585,22.1890443 31.2484404,21.9776532 C30.8767224,21.7574811 30.5589214,21.5370619 30.2987075,21.3168708 C30.0385124,21.0878796 29.839556,20.8507346 29.6982987,20.6041244 C29.5570469,20.3487141 29.4836181,20.0599472 29.4836181,19.7428986 C29.4836181,19.4522502 29.5464499,19.1960416 29.6728306,18.9670504 C29.7992151,18.7292592 29.9809065,18.5255848 30.2113672,18.3582509 C30.4418279,18.1909133 30.7246593,18.0639722 31.0592093,17.9758958 C31.3937593,17.8790155 31.7637819,17.8274069 32.1726867,17.8274069 C32.4700686,17.8274069 32.7807527,17.8562323 33.1078504,17.9090763 C33.4424004,17.9619202 33.7776211,18.0433007 34.1121524,18.1577962 C34.4467024,18.2634842 34.7714713,18.4025058 35.0837018,18.5698587 C35.4033845,18.7371964 35.696649,18.9287788 35.9642965,19.1489699 L35.9642965,15.1992144 C35.4215866,14.9526042 34.8280711,14.7717187 34.1812906,14.6572231 C33.5419252,14.5339217 32.8051961,14.4753245 31.9726311,14.4753245 L31.9725249,14.4752047 Z M15.6271404,14.7907518 L9.80879907,33.7342207 L13.7096774,33.7342207 L14.8377053,29.5208441 L20.5250734,29.5208441 L21.6603859,33.7342207 L25.5866019,33.7342207 L19.8992338,14.7907518 L15.6272336,14.7907518 L15.6271404,14.7907518 Z M17.6249013,18.172591 L17.7122324,18.172591 C17.7642733,18.8331453 17.855118,19.4009096 17.9815006,19.876492 L19.6990199,26.2429329 L15.6053146,26.2429329 L17.3446503,19.824414 C17.4933375,19.2783552 17.5876681,18.7273357 17.6248361,18.1724769 L17.6249013,18.172591 Z"/>
</svg>
