<svg xmlns="http://www.w3.org/2000/svg" width="48" height="48" viewBox="0 0 48 48">
  <path fill="#8BC34A" d="M30.3497946,11.1702473 L28.3998356,11.1702473 L28.3998356,9.33710751 L30.3497946,9.33710751 L30.3497946,11.1702473 Z M20.5998973,11.1702473 L18.6499384,11.1702473 L18.6499384,9.33710751 L20.5998973,9.33710751 L20.5998973,11.1702473 Z M31.3831711,5.96419981 L33.937645,3.56276061 C34.3081403,3.21446115 34.3081403,2.62785255 33.937645,2.26122459 C33.5476532,1.91292514 32.9236623,1.91292514 32.553167,2.26122459 L29.6673141,4.97419038 C28.1073469,4.25926296 26.3522915,3.8376495 24.4998151,3.8376495 C22.6278422,3.8376495 20.8729306,4.25928227 19.3130045,4.99253819 L16.4076346,2.26122459 C16.0371393,1.91292514 15.4131483,1.91292514 15.0426531,2.26122459 C14.6526613,2.62785255 14.6526613,3.21446115 15.0426531,3.56276061 L17.597127,5.96419981 C14.691757,7.98072119 12.8002465,11.1703439 12.8002465,14.8366235 L36.2001644,14.8366235 C36.2001644,11.1703439 34.2502054,7.96237337 31.3837669,5.96419981 L31.3831711,5.96419981 Z M41.075113,16.6698598 C39.4597425,16.6698598 38.150226,17.9009252 38.150226,19.4195212 L38.150226,32.2515964 C38.150226,33.7701924 39.4597425,35.0012578 41.075113,35.0012578 C42.6904835,35.0012578 44,33.7701924 44,32.2515964 L44,19.4195212 C44,17.9009252 42.6904835,16.6698598 41.075113,16.6698598 Z M7.92488701,16.6698598 C6.30951652,16.6698598 5,17.9009252 5,19.4195212 L5,32.2515964 C5,33.7701924 6.30951652,35.0012578 7.92488701,35.0012578 C9.5402575,35.0012578 10.849774,33.7701924 10.849774,32.2515964 L10.849774,19.4195212 C10.849774,17.9009252 9.5402575,16.6698598 7.92488701,16.6698598 Z M12.7998356,35.0012578 C12.7998356,36.0136729 13.672862,36.8343976 14.7497946,36.8343976 L16.6997535,36.8343976 L16.6997535,43.2503386 C16.6997535,43.9795941 17.0079103,44.6789813 17.556433,45.1946428 C18.1049558,45.7103044 18.8489122,46 19.6246405,46 C21.240011,46 22.5495275,44.7689347 22.5495275,43.2503386 L22.5495275,36.8343976 L26.4494453,36.8343976 L26.4494453,43.2503386 C26.4494453,44.7689347 27.7589618,46 29.3743323,46 C30.9897028,46 32.2992193,44.7689347 32.2992193,43.2503386 L32.2992193,36.8343976 L34.2491782,36.8343976 C35.3261108,36.8343976 36.1991371,36.0136729 36.1991371,35.0012578 L36.1991371,16.6698598 L12.7992193,16.6698598 L12.7998356,35.0012578 Z"/>
</svg>
