<svg xmlns="http://www.w3.org/2000/svg" width="48" height="48" viewBox="0 0 48 48">
  <path fill="#42A5F5" d="M24.0006777,4 C19.455969,4 15.7717547,7.64271639 15.7717547,12.1362348 C15.773418,14.2841203 16.63401,16.3442194 18.1658301,17.8672113 L11.7663635,27.874043 C11.2597011,27.7772523 10.7449537,27.7277981 10.228923,27.7263338 C5.68421432,27.7263338 2,31.3690502 2,35.8625686 C2,40.356087 5.68421432,43.9988034 10.228923,43.9988034 C14.7736317,43.9988034 18.457846,40.356087 18.457846,35.8625686 C18.454899,33.2497201 17.1829944,30.7972422 15.0388103,29.270007 L21.1269934,19.7499709 C22.0456127,20.092241 23.018762,20.2692297 24.0004357,20.2725701 C25.0195933,20.2724075 26.0298529,20.0850575 26.9798015,19.7200547 L33.0491042,29.21185 C30.8546698,30.7320843 29.5462501,33.2135122 29.542154,35.8628079 C29.5418971,38.0208374 30.4087571,40.0905665 31.9520073,41.6166136 C33.4952576,43.1426606 35.5884631,44 37.7710769,44 C39.9536908,44 42.0468963,43.1426606 43.5901465,41.6166136 C45.1333968,40.0905665 46.0002568,38.0208374 45.9999999,35.8628079 C45.9999999,31.3692895 42.3157856,27.7265731 37.7710769,27.7265731 C37.292384,27.7271922 36.8146585,27.7691093 36.3433361,27.8518476 L29.9080452,17.7880556 C31.3937535,16.2731228 32.226062,14.2467246 32.2293103,12.1365363 C32.2293103,7.64301795 28.5450959,4.00030155 24.0003873,4.00030155 L24.0006777,4 Z"/>
</svg>
