<svg xmlns="http://www.w3.org/2000/svg" width="48" height="48" viewBox="0 0 48 48">
  <path fill="#78909C" d="M38.9158974,40.6224997 C37.131516,43.2883225 35.2396417,45.8896496 32.3588332,45.9326468 C29.4780246,45.9971425 28.5535861,44.2342596 25.2858032,44.2342596 C21.9965218,44.2342596 20.986089,45.8896496 18.2557704,45.9971425 C15.4394576,46.1046353 13.3110991,43.1593311 11.5052191,40.5580039 C7.82896339,35.2478568 5.01265056,25.4660069 8.7963991,18.8874441 C10.6667748,15.6196613 14.0205519,13.5557985 17.6538104,13.4913028 C20.4056276,13.4483056 23.0284533,15.3616785 24.7268404,15.3616785 C26.4037289,15.3616785 29.5855175,13.0613313 32.917796,13.4053085 C34.3152031,13.4698042 38.2279431,13.9642713 40.7432759,17.6620256 C40.5497888,17.791017 36.078086,20.4138427 36.1210831,25.8529812 C36.1855788,32.3455497 41.8182045,34.5169054 41.8827002,34.538404 C41.8182045,34.688894 40.9797602,37.6341983 38.9158974,40.6224997 Z M26.6402132,6.22478568 C28.2096089,4.44040427 30.810936,3.08599428 32.9607932,3 C33.2402746,5.51533283 32.2298417,8.05216424 30.7249418,9.85804422 C29.2415403,11.6854228 26.7907032,13.1043285 24.3828632,12.9108413 C24.0603847,10.4385056 25.2643047,7.8586771 26.6402132,6.22478568 Z"/>
</svg>
