<svg xmlns="http://www.w3.org/2000/svg" width="48" height="48" viewBox="0 0 48 48">
  <path fill="#00B3E0" d="M23.9295313,2 C36.1754531,2 46,11.8252344 46,23.9295313 C46,36.1754531 36.1747656,46 23.9295313,46 C11.8259219,46 2,36.1747656 2,23.9295313 C2,11.8259219 11.8252344,2 23.9295313,2 Z M18.0851236,42.0160534 L18.0852425,42.0158158 C19.3516658,42.5782165 22.1656154,43 23.5726242,43 L33.1403448,29.3622087 C36.2356689,24.7226579 35.3914433,18.5362508 31.170485,15.1620167 C27.3715546,12.2094981 22.0247923,12.3500135 18.0852425,15.1620167 L5,25.4255739 C5.28139156,28.7999777 6.26630448,30.627695 6.26630448,30.627695 L13.7233761,22.4730553 C13.3013482,25.9879745 14.5676017,29.784094 17.5223065,32.0336966 C20.0548136,34.1426956 23.2909269,34.7050827 26.3864209,34.0020988 L18.0851236,42.0160534 Z M29.3254384,28.2194567 C26.9169281,31.3518264 22.5248684,31.9211763 19.5496298,29.5008463 C16.5743911,27.2227592 16.1494303,22.8090513 18.5578721,19.6768534 C21.10815,16.68695 25.5000387,16.1174283 28.4754484,18.3954638 C31.4506871,20.8158454 31.8756479,25.2295533 29.3255239,28.2194567 L29.3254384,28.2194567 Z"/>
</svg>
