<svg xmlns="http://www.w3.org/2000/svg" width="48" height="48" viewBox="0 0 48 48">
  <path fill="#FF6E40" d="M2,2.00149791 L2,46.7334593 L9.23877147,46.7334593 L9.23877147,42.2656128 L5.61938574,42.2656128 L5.61938574,6.47191221 L9.23877147,6.47191221 L9.23877147,2 L2,2.00149791 Z M38.8465194,2.00149791 L46.0852909,2.00278184 L46.0852909,46.7390229 L38.8465194,46.7390229 L38.8465194,42.2671107 L42.4701849,42.2671107 L42.4701849,6.47341012 L38.8465194,6.47341012 L38.8465194,2.00149791 Z M30.815138,7.267304 L30.8151808,7.26709001 C31.9305054,7.26709001 32.8645612,7.43536984 33.6211998,7.76803491 C34.3778384,8.09417337 34.9974822,8.58337035 35.480174,9.23564725 C35.9563391,9.87489232 36.3020361,10.6641427 36.5172862,11.6034197 C36.7325363,12.5361915 36.8421193,13.6176419 36.8421193,14.8438335 C36.8421193,16.070025 36.7312309,17.1671393 36.5094542,18.139028 C36.2876775,19.1044543 35.9419806,19.8989046 35.4723421,20.5185698 C34.9896717,21.1512668 34.3700065,21.6287373 33.6133679,21.9548757 C32.856665,22.2744876 31.9239146,22.4362622 30.8150524,22.4362622 C29.7257701,22.4362622 28.794325,22.2692877 28.0246545,21.9431492 C27.2549626,21.6170108 26.6340135,21.134319 26.1578484,20.4950953 C25.6751566,19.8559787 25.3242384,19.065423 25.1089883,18.1196193 C24.8937382,17.1673747 24.7880712,16.0780923 24.7880712,14.8518152 C24.7880712,13.5864853 24.8989595,12.489371 25.1207362,11.5566206 C25.3425129,10.623913 25.6947579,9.83074668 26.1774282,9.1849964 C26.66012,8.54577273 27.2862904,8.06830227 28.0559823,7.74869044 C28.8256956,7.4290679 29.7454142,7.267304 30.815138,7.267304 Z M16.2329552,7.5256084 L19.4694529,7.52551852 L19.4694529,19.5873558 L22.4751223,19.5873558 L22.4751223,22.13124 L12.7498153,22.13124 L12.7498153,19.5873558 L15.8220348,19.5873558 L15.8220348,11.8853012 L12.7498153,11.8853012 L12.7498153,9.50982524 C13.2194538,9.50982524 13.6695125,9.48373374 14.1000127,9.43155287 C14.5305129,9.37283468 14.889263,9.27500385 15.1762631,9.13802612 C15.5154548,8.9749676 15.7698368,8.7649388 15.9394284,8.50402376 C16.1090221,8.24310871 16.2068636,7.91697026 16.2329552,7.5256084 Z M30.815138,9.95993098 L30.8151808,9.96014496 C30.0128772,9.96014496 29.438877,10.3371697 29.0931801,11.0872817 C28.7474617,11.8308885 28.5726553,13.0859042 28.5726553,14.8600965 C28.5726553,16.5885383 28.7487671,17.8382899 29.1009906,18.6014552 C29.4532141,19.3646204 30.0259091,19.7442344 30.8151594,19.7442344 C31.6044098,19.7442344 32.1731887,19.3646204 32.5254123,18.6014552 C32.8776358,17.8381615 33.0537476,16.5858207 33.0537476,14.8442614 C33.0537476,13.0830153 32.8828357,11.8306531 32.5371388,11.0870677 C32.1914419,10.3369343 31.6174416,9.95993098 30.815138,9.95993098 Z M17.2699389,26.3072973 L17.2698961,26.3072973 C18.3853705,26.3072973 19.3233422,26.4716611 20.0799809,26.8043262 C20.8366195,27.1304647 21.4523687,27.6196617 21.9350391,28.2719386 C22.4112042,28.9111836 22.7608171,29.700434 22.9760672,30.639711 C23.1913173,31.5724828 23.2969844,32.6539332 23.2969844,33.8801248 C23.2969844,35.1063163 23.186096,36.2034306 22.9643193,37.1753193 C22.7425426,38.1407456 22.3968457,38.9351959 21.9272072,39.5548611 C21.4445368,40.1875795 20.8248716,40.6650286 20.0682329,40.9911671 C19.3115301,41.3107789 18.3787797,41.4725535 17.2699175,41.4725535 C16.1805924,41.4725535 15.2530633,41.309495 14.4833714,40.9833565 C13.7136795,40.6572181 13.0888144,40.1745263 12.6126493,39.5353026 C12.1299575,38.8960148 11.7790393,38.1015645 11.5637892,37.1557609 C11.3485391,36.2035162 11.242872,35.1142339 11.242872,33.8879567 C11.242872,32.6226268 11.3537604,31.5255339 11.5755371,30.5927621 C11.7973138,29.6599903 12.1495374,28.87074 12.6322291,28.2249897 C13.1149209,27.585766 13.7410913,27.1043796 14.5107832,26.7847678 C15.2804965,26.4651559 16.2002151,26.3072973 17.2699389,26.3072973 Z M29.7779403,26.5616857 L29.7778761,26.5618141 L33.014438,26.5618141 L33.014438,38.6236514 L36.0201074,38.6236514 L36.0201074,41.1675356 L26.2948004,41.1675356 L26.2948004,38.6236514 L29.3670199,38.6236514 L29.3670199,30.9254486 L26.2948004,30.9254486 L26.2948004,28.5459068 C26.7644389,28.5459068 27.2144976,28.5198004 27.6449978,28.4676302 C28.075498,28.408912 28.4342481,28.3110769 28.7212483,28.1741034 C29.06044,28.0110449 29.314807,27.8010161 29.4844135,27.5401011 C29.6539987,27.279186 29.7518552,26.9530476 29.7779403,26.5616857 Z M17.2699389,28.9960083 L17.2699817,28.9962223 C16.4676781,28.9962223 15.8936779,29.373247 15.5479809,30.123359 C15.2022669,30.8669658 15.0313722,32.1258333 15.0313722,33.9000256 C15.0313722,35.6285316 15.203568,36.8743672 15.5557915,37.6375325 C15.908015,38.4006977 16.48071,38.7803117 17.2699603,38.7803117 C18.0592107,38.7803117 18.6319056,38.4006977 18.9841291,37.6375325 C19.3363505,36.8742388 19.5085485,35.621898 19.5085485,33.8803387 C19.5085485,32.1190927 19.3376366,30.8667304 18.9919397,30.123145 C18.6462428,29.3730116 18.0722425,28.9960083 17.2699389,28.9960083 Z"/>
</svg>
