<svg xmlns="http://www.w3.org/2000/svg" width="48" height="48" viewBox="0 0 48 48">
  <path fill="#EF5350" d="M32.8,17.4 L32.8,13 L24,13 L24,25.1 C23.076,24.418 21.954,24 20.7,24 C17.6624339,24 15.2,26.4624339 15.2,29.5 C15.2,32.5375661 17.6624339,35 20.7,35 C23.7375661,35 26.2,32.5375661 26.2,29.5 L26.2,17.4 L32.8,17.4 Z M24,2 C29.8347628,2 35.4305489,4.31785049 39.5563492,8.44365081 C43.6821495,12.5694511 46,18.1652372 46,24 C46,36.1502645 36.1502645,46 24,46 C18.1652372,46 12.5694511,43.6821495 8.44365081,39.5563492 C4.31785049,35.4305489 2,29.8347628 2,24 C2,18.1652372 4.31785049,12.5694511 8.44365081,8.44365081 C12.5694511,4.31785049 18.1652372,2 24,2 Z"/>
</svg>
