<svg xmlns="http://www.w3.org/2000/svg" width="48" height="48" viewBox="0 0 48 48">
  <defs>
    <linearGradient id="aurelia-a" x1="-388.14%" x2="237.678%" y1="-144.168%" y2="430.394%">
      <stop offset="0%" stop-color="#C06FBB"/>
      <stop offset="100%" stop-color="#6E4D9B"/>
    </linearGradient>
    <linearGradient id="aurelia-b" x1="72.948%" x2="-97.051%" y1="84.424%" y2="-147.694%">
      <stop offset="0%" stop-color="#6E4D9B"/>
      <stop offset="14%" stop-color="#77327A"/>
      <stop offset="29%" stop-color="#B31777"/>
      <stop offset="84%" stop-color="#CD0F7E"/>
      <stop offset="100%" stop-color="#ED2C89"/>
    </linearGradient>
    <linearGradient id="aurelia-c" x1="-283.88%" x2="287.525%" y1="-693.605%" y2="101.712%">
      <stop offset="0%" stop-color="#C06FBB"/>
      <stop offset="100%" stop-color="#6E4D9B"/>
    </linearGradient>
    <linearGradient id="aurelia-d" x1="-821.191%" x2="101.986%" y1="-469.036%" y2="288.223%">
      <stop offset="0%" stop-color="#C06FBB"/>
      <stop offset="100%" stop-color="#6E4D9B"/>
    </linearGradient>
    <linearGradient id="aurelia-e" x1="-140.352%" x2="418.99%" y1="-230.93%" y2="261.976%">
      <stop offset="0%" stop-color="#C06FBB"/>
      <stop offset="100%" stop-color="#6E4D9B"/>
    </linearGradient>
    <linearGradient id="aurelia-f" x1="191.082%" x2="20.358%" y1="253.95%" y2="20.403%">
      <stop offset="0%" stop-color="#6E4D9B"/>
      <stop offset="14%" stop-color="#77327A"/>
      <stop offset="29%" stop-color="#B31777"/>
      <stop offset="84%" stop-color="#CD0F7E"/>
      <stop offset="100%" stop-color="#ED2C89"/>
    </linearGradient>
    <linearGradient id="aurelia-g" x1="-388.098%" x2="237.673%" y1="-173.853%" y2="518.992%">
      <stop offset="0%" stop-color="#C06FBB"/>
      <stop offset="100%" stop-color="#6E4D9B"/>
    </linearGradient>
    <linearGradient id="aurelia-h" x1="11.188%" x2="90.142%" y1="89.652%" y2="11.577%">
      <stop offset="0%" stop-color="#6E4D9B"/>
      <stop offset="14%" stop-color="#77327A"/>
      <stop offset="53%" stop-color="#B31777"/>
      <stop offset="79%" stop-color="#CD0F7E"/>
      <stop offset="100%" stop-color="#ED2C89"/>
    </linearGradient>
  </defs>
  <g fill="none" transform="rotate(11 7.422 33.385)">
    <polygon fill="url(#aurelia-a)" points="26.358 7.659 22.251 10.399 18.02 4.06 22.127 1.319" transform="rotate(-11.284 22.19 5.859)"/>
    <polygon fill="url(#aurelia-b)" points="35.05 24.947 42.066 35.462 33.708 41.039 26.692 30.525 25.467 28.691 33.826 23.113" transform="rotate(-11.284 33.767 32.076)"/>
    <polygon fill="url(#aurelia-c)" points="25.202 34.327 26.746 36.642 20.384 40.888 17.616 36.739 19.005 35.811 23.978 32.493" transform="rotate(-11.284 22.18 36.69)"/>
    <path fill="url(#aurelia-d)" d="M36.4863271,19.0159725 L38.2707798,17.8252449 L41.0394884,21.9743433 L36.9324667,24.7151417 L35.3876819,22.4002903 L37.7102509,20.8503252 L36.4863271,19.0159725 Z M35.3876819,22.4001846 L34.1637582,20.5659376 L36.4863271,19.0159725 L37.7102509,20.8502195 L35.3876819,22.4001846 Z" transform="rotate(-11.284 37.602 21.27)"/>
    <polygon fill="url(#aurelia-e)" points="7.093 25.645 5.703 26.572 1.473 20.232 7.835 15.987 10.8 20.431 5.828 23.749 10.8 20.431 12.065 22.327" transform="rotate(-11.284 6.77 21.28)"/>
    <polygon fill="url(#aurelia-f)" points="19.354 12.111 20.619 14.007 12.26 19.585 10.995 17.689 4.045 7.273 12.403 1.695" transform="rotate(-11.284 12.332 10.64)"/>
    <polygon fill="url(#aurelia-g)" points="24.574 8.85 22.252 10.4 20.987 8.504 18.021 4.06 22.128 1.319 26.359 7.659" transform="rotate(-11.284 22.19 5.86)"/>
    <polygon fill="#714896" points="19.914 37.693 18.69 35.859 23.662 32.541 24.886 34.375" transform="rotate(-11.284 21.788 35.117)"/>
    <polygon fill="#6F4795" points="35.309 22.738 34.085 20.904 36.408 19.354 37.632 21.188" transform="rotate(-11.284 35.858 21.046)"/>
    <polygon fill="#88519F" points="7.395 25.185 6.13 23.289 11.102 19.971 12.368 21.867" transform="rotate(-11.284 9.249 22.578)"/>
    <polygon fill="#85509E" points="22.791 10.23 21.526 8.334 23.848 6.784 25.114 8.68" transform="rotate(-11.284 23.32 8.507)"/>
    <polygon fill="#8D166A" points="34.089 25.735 25.73 31.313 24.506 29.479 32.865 23.901" transform="rotate(-11.284 29.298 27.607)"/>
    <polygon fill="#A70D6F" points="20.306 11.331 21.571 13.227 13.212 18.805 11.947 16.909" transform="rotate(-11.284 16.76 15.068)"/>
    <rect width="2.842" height="2.842" x="1.504" y="13.061" fill="#9E61AD" transform="rotate(45 2.925 14.482)"/>
    <rect width="2.842" height="2.842" x="15.404" y="39.188" fill="#8053A3" transform="rotate(45 16.825 40.609)"/>
    <polygon fill="url(#aurelia-h)" points="11.192 42.151 2.359 33.251 33.791 1.751 42.922 10.422"/>
  </g>
</svg>
