<svg xmlns="http://www.w3.org/2000/svg" width="48" height="48" viewBox="0 0 48 48">
  <path fill="#1976D2" d="M23.9999999,2.00000014 C11.8500148,2.00067444 2.00067431,11.8500149 2,24 C2.00067431,36.1499851 11.8500148,45.9993256 23.9999999,45.9999999 C29.835298,46.0006476 35.431837,43.683122 39.5583594,39.5572866 C43.6848818,35.4314512 46.0033391,29.8352982 46.0036629,24 C46.0033391,18.1647018 43.6848818,12.5685488 39.5583594,8.44271337 C35.431837,4.31687796 29.835298,1.99935241 23.9999999,2.00000014 Z M24.3061707,11.7209303 C25.2475416,11.7209303 26.0317854,11.9389522 26.6628338,12.3695255 C27.2938945,12.8005873 27.8292844,13.3359894 28.270249,13.9769407 L40.8313857,32.1537736 L17.45402,32.1537736 L21.208685,26.9851107 L28.1377631,26.9851107 C28.7885074,26.9851107 29.3529831,27.0055306 29.8338279,27.0455463 C29.5530309,26.6849402 29.2293499,26.2311177 28.8589264,25.6799027 C28.4879779,25.1291274 28.131731,24.6137386 27.791358,24.1329305 L24.1857855,18.8152971 L14.7469223,32.1542547 L7.38680687,32.1542547 L20.2776321,13.9774218 C20.698327,13.3965959 21.2274895,12.8753949 21.8689292,12.4143314 C22.5097951,11.9537076 23.3244434,11.7214236 24.3061829,11.7214236 L24.3061707,11.7209303 Z"/>
</svg>
