<svg xmlns="http://www.w3.org/2000/svg" width="48" height="48" viewBox="0 0 48 48">
  <path fill="#4CAF50" d="M6.88888889,2 C4.17555556,2 2,4.17555556 2,6.88888889 L2,41.1111111 C2,43.8111699 4.18883011,46 6.88888889,46 L41.1111111,46 C43.8111699,46 46,43.8111699 46,41.1111111 L46,6.88888889 C46,4.17555556 43.8,2 41.1111111,2 L6.88888889,2 Z M15.8551111,10.4267333 C16.4896889,10.4267333 17.0230178,10.6364056 17.44972,11.0521689 C17.8764222,11.4679322 18.08948,11.9781733 18.08948,12.5799467 C18.08948,13.4114733 18.0548667,14.6633222 17.9892187,16.3373022 C17.934512,18.0003556 17.9080558,19.2439911 17.9080558,20.0755911 C17.9080558,20.3491244 17.8700593,20.8742889 17.7934724,21.6511089 C17.7278244,22.3732222 17.7013682,22.9296267 17.7123096,23.3125733 L24.0143318,22.1285333 C26.4761318,21.69088 28.5949762,21.4398356 30.3784429,21.3742022 C30.4222082,20.6411378 30.4948156,18.6740689 30.5932876,15.4684244 C30.6151678,14.6259467 30.8743742,13.6549889 31.3667342,12.5607578 C31.9794342,11.2149933 32.6715053,10.5412311 33.4483253,10.5412311 C34.0281964,10.5412311 34.5418476,10.7359824 34.9904276,11.1189267 C35.4718364,11.5346778 35.7113431,12.0517022 35.7113431,12.6753533 C35.7113431,12.8394709 35.6930416,13.0029822 35.6492762,13.1671022 C35.4304544,13.9658 35.3198384,14.6626622 35.3198384,15.2534844 C35.3198384,15.5598467 35.2852251,16.0354867 35.2195796,16.6809911 C35.1648729,17.3155689 35.1384167,17.7878356 35.1384167,18.0941733 C35.1384167,19.1335756 35.0854993,20.6745289 34.9760884,22.7205289 C34.8666776,24.7665289 34.8089887,26.3075067 34.8089887,27.3468844 C34.8089887,28.1455822 34.8700607,29.34116 34.9904129,30.9275067 C35.1107651,32.5139756 35.1718347,33.70464 35.1718347,34.5034844 C35.1718347,35.1052578 34.9587818,35.6155111 34.5320747,36.0312622 C34.1053724,36.4470133 33.5768102,36.6519311 32.9422324,36.6519311 C32.2967036,36.6519311 31.7369258,36.4470353 31.2664436,36.0312622 C30.7959858,35.6264378 30.5598524,35.1277222 30.5598524,34.5369 C30.5598524,33.7382022 30.521856,32.5392511 30.4452691,30.9418556 C30.3796211,29.34446 30.3450078,28.1454111 30.3450078,27.3468111 C30.3450078,26.72316 30.3565456,26.1715222 30.3784282,25.6901133 C28.6606682,25.7667027 26.5416282,26.0374444 24.0143171,26.4969756 C21.9136104,26.8799222 19.812806,27.2680267 17.7122949,27.6619 C17.6904127,28.4058911 17.6096478,29.6462267 17.4783542,31.3857667 C17.3689433,32.9175289 17.3160284,34.1695 17.3160284,35.1431222 C17.3160284,35.7448956 17.1029756,36.2551489 16.6762684,36.6709 C16.2495662,37.0866511 15.721004,37.2915689 15.0864262,37.2915689 C14.4518484,37.2915689 13.9185196,37.0866707 13.4918173,36.6709 C13.0651151,36.2551489 12.8520573,35.7448956 12.8520573,35.1431222 C12.8520573,34.0380622 12.9429687,32.3865222 13.128964,30.1875 C13.3259031,27.9883311 13.4249618,26.3367667 13.4249618,25.2318778 C13.4249618,23.8314067 13.4595751,21.7226333 13.5252231,18.9107889 C13.5908687,16.0879444 13.6254844,13.9805889 13.6254844,12.5801667 C13.6254844,11.9783933 13.8385373,11.46814 14.2652444,11.0523889 C14.6919467,10.6366378 15.2205089,10.4269533 15.8550867,10.4269533 L15.8551111,10.4267333 Z"/>
</svg>
