<svg xmlns="http://www.w3.org/2000/svg" width="48" height="48" viewBox="0 0 48 48">
  <path fill="#FDD835" d="M37.6092233,22.262 C37.5436893,21.91 36.5825243,20.7 34.7257282,18.632 C34.6820388,18.214 35.3592233,17.642 36.6917476,16.872 L40.4927184,13.462 C41.3446602,12.362 41.8470874,10.646 42,8.226 L41.9563107,7.654 C41.8033981,5.938 40.5800971,4.574 38.2645631,3.496 C36.8883495,2.572 34.4199029,2.066 30.881068,2 C27.9320388,2.242 24.0873786,3.298 19.3470874,5.146 C18.0364078,6.092 16.5509709,7.038 14.8907767,7.962 L14.9126214,8.27 L15.3713592,8.094 C15.5461165,8.072 15.6553398,8.16 15.6771845,8.336 L15.961165,8.182 L16.1140777,8.16 L16.1359223,8.292 C16.1359223,8.446 15.1092233,9.26 12.2912621,11.262 L12.1601942,11.526 C11.4830097,11.57 10.8276699,12.076 10.1723301,13 L10.3470874,13.264 L10.8932039,13.066 L11.2864078,13.594 C11.9854369,12.868 12.7281553,12.23 13.5364078,11.68 C13.9514563,11.79 14.1699029,11.922 14.4975728,12.032 C16.7257282,10.382 18.9320388,9.172 21.1383495,8.424 L21.1601942,8.732 C20.723301,9.326 20.461165,9.656 20.3300971,9.656 L20.5485437,10.162 C20.5703883,10.58 14.9781553,25.562 6,41.93 L6.17475728,42.348 C6.93932039,42.172 7.44174757,41.974 7.8131068,41.776 L7.83495146,42.062 L8.70873786,41.996 L7.24514563,45.868 L7.55097087,46 C8.7961165,44.592 9.73543689,43.162 10.3907767,41.864 C14.038835,40.786 16.8131068,39.73 18.7354369,38.696 C20.657767,38.52 22.1432039,38.014 23.1480583,37.156 L25.157767,36.122 C27.9320388,33.966 30.0072816,32.448 31.4271845,31.546 C34.3325243,29.39 36.2330097,27.3 37.1067961,25.276 L37.6092233,22.262 Z M30.0509709,27.344 L26.184466,30.402 C23.3665049,32.272 21.815534,33.262 21.618932,33.262 C17.0970874,35.748 14.2791262,37.046 13.1868932,37.134 L13.0776699,37.156 C13.1650485,36.65 15.1747573,32.492 19.0849515,24.682 C20.788835,24.55 23.4975728,23.736 27.1893204,22.262 L28.0849515,22.196 C29.9417476,22.02 31.3398058,22.394 32.2572816,23.274 L32.3228155,23.846 C31.6456311,25.826 30.8592233,27.014 30.0509709,27.344 Z M32.4320388,14.628 C32.038835,15.112 30.9466019,15.926 29.1553398,17.07 C28.565534,17.136 26.381068,17.994 22.5800971,19.666 L21.9684466,19.556 L21.9466019,19.292 C21.9029126,18.742 22.1432039,18.038 22.6893204,17.202 C22.973301,15.662 23.3009709,14.738 23.6504854,14.562 L26.8179612,7.346 C26.7742718,6.862 27.4514563,6.576 28.8495146,6.334 L29.3082524,6.29 L29.3300971,6.686 L31.8640777,6.334 C34.3762136,6.114 35.6868932,6.642 35.7961165,7.874 L36.0800971,7.83 L36.0145631,7.126 L36.342233,7.082 C37.1067961,7.5 37.4781553,7.962 37.5218447,8.578 C37.565534,8.974 37.3470874,9.48 36.8883495,10.074 C36.6917476,10.096 36.5825243,9.942 36.5606796,9.678 L36.2548544,9.7 L36.1893204,10.58 C34.9223301,12.494 33.9830097,13.462 33.4150485,13.528 L32.4320388,14.628 Z"/>
</svg>
