<svg xmlns="http://www.w3.org/2000/svg" width="48" height="48" viewBox="0 0 48 48">
  <path fill="#E53935" d="M43.8646385,22.2311444 C44.5256591,28.7890879 42.7397438,35.1041447 39.0751382,40.5633146 C37.9502434,42.2288241 36.6977833,43.8018053 35.5033074,45.4210506 C35.062627,46.0109185 34.0537008,46.3463336 33.8449574,45.4441827 C33.717392,44.9121449 33.8449574,44.2644468 34.0189102,43.7555411 C34.4479938,42.4832769 34.4943812,41.3266731 34.5639623,39.9734467 C34.8074962,35.1504088 31.3748277,30.639654 26.4461651,30.026654 C23.0946746,29.6102766 20.1258802,31.9581824 18.4443365,34.595239 C16.4380809,37.7643334 16.5540494,41.280409 17.8413001,44.6692581 C18.4211428,46.1959751 17.4122166,46.149711 16.8787613,45.7333336 C16.0901753,45.1203336 15.3711704,44.2528807 14.7913278,43.431692 C13.6316425,41.7777486 12.9358313,39.7999561 12.3791823,37.8684278 C11.7413554,35.6940126 11.8109365,33.6005598 11.9269051,31.3683144 C11.9732925,30.5239936 11.8921145,29.6218427 11.4050467,28.8931823 C10.98756,28.2570502 10.2801519,27.8638049 9.72350296,27.3664653 C9.09727289,26.8228615 8.51743024,26.2329936 7.97237814,25.5968615 C6.66193374,24.0585784 5.65300752,22.3352388 4.93400263,20.4615406 C4.4469348,19.1892764 4.06423865,17.83605 4.00625438,16.4712575 C3.97146382,15.6616348 4.08743235,14.8751442 4.21499774,14.0770876 C4.29617571,13.591314 4.78324354,13.0130121 5.16593969,13.6144461 C5.33989249,13.892031 5.29350508,14.3315405 5.30510193,14.6438235 C5.32829563,15.1527292 5.33989249,15.6732009 5.45586102,16.1705405 C5.69939493,17.2693141 6.08209109,18.3565217 6.53436836,19.3974651 C7.53169772,21.6412765 9.15525716,24.3592954 11.3586593,25.5737294 C11.4282404,25.6084275 11.5210152,25.6546917 11.61379,25.7125218 C11.9732925,25.9091445 12.7038942,26.2214275 13.434496,26.1404653 L13.4808834,26.1404653 C13.666433,25.8166162 13.8635795,25.5043332 14.0839197,25.2267482 C15.9742068,22.7978803 19.0009854,21.7800689 21.9697798,21.4330878 C23.9528417,21.201767 25.9475005,21.4215218 27.9305623,21.2595972 C31.5371837,20.9588802 34.2392504,18.4953141 35.062627,14.9792386 C35.6772602,12.3190499 35.1322081,9.624163 34.274041,7.07963465 C34.1348788,6.66325728 32.9983871,4.36161572 33.6014235,4.02620062 C33.8333606,3.8989742 34.4479938,4.26908741 34.6103497,4.40787987 C38.2865522,7.7042007 41.1973623,12.4809744 42.7629375,17.1420877 C43.3079896,18.7728991 43.6906857,20.5193708 43.8646385,22.2311444 Z M15.4150164,8.80516554 C15.3816427,8.79366237 15.348269,8.77065602 15.3037707,8.75915284 C15.1591513,8.57510204 15.0256565,8.33353537 15.0034073,8.04595599 C14.9811582,7.83889884 15.0701547,7.67785439 15.2036496,7.56282264 C15.2815216,7.40177819 15.4595147,7.30975279 15.8043764,7.27524326 C16.0268678,7.22923056 16.2382346,7.20622421 16.3494803,7.20622421 C17.1393248,7.17171469 17.9847921,6.78060673 18.6967646,6.43551148 C19.3753633,6.1019194 20.0205884,5.72231463 20.6213152,5.26218762 C21.066298,4.91709237 21.4779071,4.54899077 21.9006407,4.18088917 C23.3468348,2.90403674 25.1490152,1.33960493 27.1514378,2.29436846 C27.3405555,2.37489068 27.5296732,2.46691608 27.7187909,2.57044466 C29.7434626,3.03057166 29.8547083,3.81278757 29.8547083,3.81278757 C29.8547083,3.81278757 34.883014,13.8550594 29.5432204,18.1112342 C24.8709009,21.8382629 18.841384,20.1127866 25.2268872,12.3711498 C23.9809353,11.6234434 22.7238589,12.11808 21.3666614,12.2331117 C20.7770592,12.2791244 19.5311073,12.5897101 18.9526297,12.3481435 C18.5076469,12.1640927 17.7845498,11.922526 17.3840653,11.6694561 C16.7277157,11.266845 16.0268678,10.8412275 15.7376289,10.0590116 C15.6708815,9.9324767 15.6375078,9.7944386 15.6263832,9.66790367 C15.5707604,9.35731795 15.4928884,9.06973857 15.4150164,8.80516554 Z"/>
</svg>
