<svg xmlns="http://www.w3.org/2000/svg" width="48" height="48" viewBox="0 0 48 48">
  <g fill="#F9A825" transform="translate(2 2)">
    <path d="M22.6205128,0.188034188 C34.6735043,0.526495726 44.1504274,10.5675214 43.8119658,22.6205128 C43.4735043,34.6735043 33.4324786,44.1504274 21.3794872,43.8119658 C9.34529915,43.4735043 -0.131623932,33.4700855 0.188034188,21.4358974 C0.507692308,9.38290598 10.5299145,-0.131623932 22.582906,0.188034188 L22.6205128,0.188034188 Z M22.5076923,2.44444444 C11.7145299,2.16239316 2.72649573,10.6991453 2.46324786,21.5111111 C2.18119658,32.3042735 10.7179487,41.2923077 21.5111111,41.5555556 C32.3042735,41.8376068 41.2923077,33.3008547 41.5555556,22.5076923 C41.8564103,11.6957265 33.3196581,2.72649573 22.5076923,2.44444444 C22.5264957,2.44444444 22.5076923,2.44444444 22.5076923,2.44444444 Z"/>
    <path d="M23.51885,14.4343735 C22.6729659,15.2447453 23.0039587,17.0496356 24.3095789,18.4309907 C25.6151991,19.8123458 27.4172371,20.2359219 28.226317,19.4071293 C29.0354174,18.5783366 28.7779921,16.754903 27.4539801,15.3735479 C26.1299884,13.9922132 24.3094158,13.5870375 23.4636336,14.3974094 L23.51885,14.4343735 Z M34.165959,9.29574887 C35.8393354,11.0454381 37.1082533,13.1265382 37.9173333,15.3919687 C37.9173333,15.3919687 38.4690084,16.9022285 36.7220644,16.9022285 L32.4558396,16.9022285 C32.4558396,16.9022285 31.0950642,16.7917221 31.0399089,17.9520297 C30.9479638,19.3886064 30.9847414,20.604256 30.9847414,20.604256 C31.0399089,21.4330487 31.352518,22.2434409 31.8674093,22.8880665 L36.2622958,27.5294114 C36.9794571,28.1924578 37.0713961,29.2791006 36.4829577,30.0525696 C34.2579878,33.846599 30.6905324,36.6460691 26.4793609,37.9169403 C25.192153,38.3037157 25.0634302,37.2539144 25.1001936,36.5356056 C25.1001936,36.0751676 25.6334768,25.835005 25.6334768,25.835005 C25.7805874,24.7299414 25.4311986,23.6065386 24.6588698,22.795983 C23.2797025,21.3225648 22.4153449,20.3833086 22.4153449,20.3833086 C22.4153449,20.3833086 21.4407379,19.4071701 20.0431583,17.9522544 C19.2708214,17.1602829 18.2042754,16.7551072 17.100864,16.8287699 L6.41705286,16.8287699 C5.71828345,16.8287699 4.65171705,16.6630114 5.11145308,15.3921933 C6.60095135,11.2481281 9.57994788,7.82251446 13.496686,5.81501586 C14.2874149,5.26249425 15.3723528,5.40981973 15.9975342,6.16494962 L20.3924207,10.8062946 C21.017643,11.3588162 21.8083514,11.6903496 22.6359456,11.7824331 C22.6359456,11.7824331 23.8312144,11.8745207 25.2840105,11.856104 C26.4241241,11.856104 26.4057322,10.4747693 26.4057322,10.4747693 C26.4057322,10.4747693 26.5896205,7.63853937 26.6447859,6.20184022 C26.5896184,5.59405623 27.0309544,5.05993498 27.6193929,5.00469303 C27.821669,4.98627633 28.0055614,5.02311178 28.1894395,5.09678065 C30.4329644,6.0544984 32.4740154,7.47269507 34.1474325,9.24084592 L34.165959,9.29574887 Z"/>
  </g>
</svg>
