<svg xmlns="http://www.w3.org/2000/svg" width="48" height="48" viewBox="0 0 48 48">
  <g fill="none" transform="translate(2 5)">
    <path fill="#543729" d="M43.1606002,18.5604991 C40.8974976,16.4242183 29.58042,15.090604 26.009571,14.7024339 C26.182519,14.301139 26.3297835,13.886114 26.4513547,13.4587522 C26.9381384,13.2493228 27.4636332,13.0544691 28.0069382,12.8917643 C28.0731481,13.0836299 28.3849827,13.8187415 28.562684,14.1676334 C35.7430148,14.3622085 36.1116406,8.92570323 36.4036854,7.43634054 C36.6892653,5.98002996 36.674712,4.57291322 39.1376197,2.00051742 C35.4683792,0.950056014 30.1917188,3.62862211 28.4240948,7.6152447 C27.7598934,7.37076477 27.0942445,7.19021762 26.4359212,7.07853223 C25.9640722,5.20887811 23.5072577,0 17.0600708,0 C8.8971942,0 0,6.61551444 0,17.8145111 C0,27.2282134 6.54225304,35.4781739 10.2381942,35.4781739 C11.8524605,35.4781739 13.2410914,34.2906039 13.5670744,33.2261145 C13.8403798,33.9559897 14.678918,36.2250171 14.954336,36.8026603 C15.3613991,37.6568364 17.2439436,38.3959835 18.0677525,37.5095527 C19.1269772,38.0876572 21.0706497,38.4358766 22.1299722,36.894159 C24.1700801,37.3180715 25.9735984,36.1229783 26.0130137,34.6969623 C27.0140446,34.6444402 27.505122,33.2636152 27.2865285,32.16396 C27.1253757,31.3543658 25.4039839,28.4493447 24.7325548,27.4465398 C26.0617204,28.5086271 29.428451,28.8092668 29.8373724,27.4472124 C31.9803708,29.0996258 35.3200095,28.2323249 35.5848646,26.8884492 C38.1888165,27.5530945 41.1753803,26.0933346 40.6849876,24.3253733 C44.8681917,24.0411828 44.3327111,19.668869 43.1590549,18.5608546 L43.1606002,18.5604991 Z"/>
    <path fill="#00ACEE" d="M2.92241379,6.28009259 C3.90217241,4.54018519 5.13331034,2.64037037 6.68834483,1.465 C4.9767931,2.08240741 3.28696552,3.92805556 2.28786207,5.90074074 C1.77858621,5.61101852 1.26155172,5.35259259 0.740172414,5.12657407 C2.13393103,2.4637963 5.37248276,0.24 8.94155172,0.0662962963 C6.55096552,2.00685185 7.39955172,6.04018519 5.43403448,8.17537037 C4.87158621,7.66972222 3.58013793,6.69388889 2.92241379,6.28009259 Z M1.37710345,9.11333333 C1.37813793,9.04675926 1.40596552,8.53314815 1.4582069,8.2987037 C1.32113793,8.26981481 0.469137931,8.12064815 0.0249310345,8.13 C-0.00744827586,8.62935185 0.259344828,9.47888889 0.523034483,9.99027778 C2.33906897,9.9562037 3.6507931,9.46944444 4.42282759,9.02194444 C3.76551724,8.74768519 2.64393103,8.50388889 1.79110345,8.35805556 C1.69593103,8.53425926 1.46172414,8.98324074 1.37710345,9.11333333 Z" transform="translate(29 3)"/>
    <g transform="translate(2 2)">
      <path fill="#2BAF2B" d="M21.9353117,24.0527469 C21.9357007,24.0550719 21.9367317,24.0582293 21.9370234,24.0605639 C21.7265401,23.6149772 21.5030147,23.0737306 21.2360544,22.3662799 C22.2755357,23.8547583 25.5332514,23.0870491 25.3623711,21.7532741 C26.9568973,22.9335704 30.2391217,21.5566346 29.4929671,19.9015981 C31.0902165,20.6338105 32.9132963,19.1605451 32.5044284,18.518558 C35.2276204,19.0352438 37.8372165,19.5502648 38.6565082,19.7564531 C38.112288,20.6293806 36.8729147,21.2457926 35.0046105,20.8174377 C36.0141367,22.1703389 34.0540998,23.7935333 31.3240219,22.8995086 C31.9250012,24.2277247 29.4942314,25.4234253 26.7315531,24.0390457 C26.7666483,25.3678358 23.3042214,25.5208265 21.9353312,24.0526331 L21.9353117,24.0527469 Z M27.3372494,17.3366543 C30.4978055,17.5753639 35.7244863,18.0389957 38.9604165,18.4845154 C38.7559923,17.4485031 38.1975823,17.1525679 36.4409776,16.688429 C34.5517631,16.8866568 29.7588479,17.3498293 27.3373466,17.3367022 L27.3372494,17.3366543 Z"/>
      <path fill="#FFCC2F" d="M25.3626434,21.7535802 C26.9571696,22.9338765 30.239394,21.5569407 29.4932394,19.9019043 C31.0904888,20.6341167 32.9135686,19.1608417 32.5047007,18.5188642 C29.285207,17.9081833 25.9067955,17.295321 25.1405087,17.1881605 C25.6053576,17.2124505 26.3758653,17.2643784 27.3375411,17.3370562 C29.7591397,17.3501776 34.5520549,16.8870012 36.4411721,16.688783 C33.3822494,15.925762 27.1369975,14.8122306 22.8242394,14.5379188 C22.6243571,14.8253003 22.2569401,15.3126701 21.61699,15.8305423 C19.7299152,19.7584528 16.3109476,22.3693417 12.5279476,22.3693417 C11.4255411,22.3693417 10.1920324,22.1863843 8.80952618,21.7515901 C7.94736359,22.6602537 4.27142394,23.3488556 1.28875062,21.9085898 C3.65462095,27.358562 9.14126933,30.9965651 15.2149601,30.9965651 C20.3297955,30.9965651 22.5979227,25.8582194 22.1015237,24.4986207 C21.9811002,24.1685281 21.5038608,23.0740559 21.236813,22.3666052 C22.2763915,23.854988 25.5341072,23.0872787 25.3633242,21.7535133 L25.3626434,21.7535802 Z"/>
      <path fill="#CECECE" d="M22.2630673,11.4116358 C22.7146796,11.1699506 24.2753117,10.2392809 25.7624663,9.88957407 C25.739007,9.72755123 25.721317,9.56413148 25.7103435,9.39978364 C24.7346627,9.62965247 22.8952437,10.4052744 21.8410766,9.33640873 C24.0649519,9.99659392 25.1753335,8.74815503 26.8099295,8.74815503 C27.7838597,8.74815503 29.1737574,9.0158075 30.2692587,9.4389575 C29.3880824,8.63815287 26.498513,6.22127231 22.9208223,6.21294824 C22.122042,7.16563373 21.2586053,9.22932478 22.2629963,11.4115717 L22.2630673,11.4116358 Z"/>
      <path fill="#EF5734" d="M8.80952618,21.7507099 C10.1920324,22.1854944 11.4255411,22.3684614 12.5279476,22.3684614 C16.3108504,22.3684614 19.729818,19.7574769 21.61699,15.829662 C20.2212569,16.9758009 17.7956708,17.9565108 14.0075162,17.9565108 C17.3817456,17.2038231 20.286419,15.5496096 21.7640424,13.1317052 C20.7253392,11.5053534 19.598813,7.90734414 22.4516678,5.06299846 C22.0128254,3.67603549 19.8767925,0.0144953704 15.1481641,0.0144953704 C6.89582244,0.0144953704 0.0568174564,6.80780093 0.0568174564,15.9115633 C0.0568174564,18.066733 0.49906384,20.0879522 1.28896459,21.9071929 C4.27154065,23.3475448 7.94746085,22.6589525 8.80964289,21.7502889 L8.80952618,21.7507099 Z"/>
      <path fill="#FFCC2F" d="M11.2847132,7.88873457 C11.2847132,9.95961111 12.991182,11.6384907 15.0962095,11.6384907 C17.2012369,11.6384907 18.9079002,9.95951543 18.9079002,7.88873457 C18.9079002,5.81785802 17.2012369,4.1389784 15.0962095,4.1389784 C12.991182,4.1389784 11.2847132,5.81785802 11.2847132,7.88873457 Z"/>
      <path fill="#543729" d="M12.8145636,7.88873457 C12.8145636,9.12854321 13.8364414,10.1336512 15.0965012,10.1336512 C16.3569501,10.1336512 17.3785362,9.12844753 17.3785362,7.88873457 C17.3785362,6.64883025 16.3569501,5.64372222 15.0965012,5.64372222 C13.8363441,5.64372222 12.8145636,6.64892593 12.8145636,7.88873457 Z"/>
      <ellipse cx="15.096" cy="6.893" fill="#FFF" rx="1.33" ry="1"/>
    </g>
  </g>
</svg>
