<svg xmlns="http://www.w3.org/2000/svg" width="48" height="48" viewBox="0 0 48 48">
  <g fill="none" transform="translate(2 2)">
    <circle cx="22" cy="22" r="22" fill="#FFCA28"/>
    <path fill="#37474F" d="M20.4604198,4.00018619 C18.6708372,5.29009656 17.2178237,7.16843545 16.145911,9.31101233 C15.3417021,8.46192064 14.6144818,7.43069985 13.9096921,6.08180512 C12.6958409,7.93463626 12.0011871,10.2114547 11.7534989,12.5968952 C10.7264109,12.099736 9.7042628,11.4125534 8.59531953,10.4317151 C8.11483599,12.6029277 8.26827165,14.98066 8.87618889,17.2968385 C7.71865205,17.2139253 6.49839731,16.9429957 5.08567105,16.4197069 C5.40193175,18.6238376 6.38353646,20.7902837 7.76856291,22.7318521 C6.67886679,23.0614867 5.46812585,23.2467736 4,23.2729516 C5.07498632,25.2213716 6.76116117,26.8902118 8.74628892,28.1994857 C7.82985375,28.9287841 6.74195061,29.5599241 5.34371461,30.1348354 C7.02564484,31.555487 9.17631272,32.4962576 11.4786525,32.9967309 C10.8859062,33.9822984 10.1089213,34.9434753 9.03660621,35.9611788 C11.1041381,36.672901 13.4385687,36.76741 15.7610339,36.3968215 C15.5573727,37.5503305 15.1659822,38.74778 14.5124939,40.1111229 L14.5132257,40.1111229 C16.7001924,40.021451 18.9195792,39.2544347 20.9617532,38.0557937 C21.1812219,39.2126541 21.239611,40.4794772 21.1089756,42 C25.5171586,40.0672197 28.937736,35.0596566 30.1452569,30.1022152 C30.4745039,29.2057201 30.6519766,27.9121232 30.6519766,26.1181647 C30.6519766,25.6363102 30.640538,25.1751598 30.6241048,24.7232071 C34.188926,24.1069993 36.7857545,22.8609176 38.2768599,21.9711252 C38.8236107,21.6449462 39.3781555,21.165378 39.5561368,20.7725214 C39.5562392,20.7722998 39.556038,20.7720001 39.5561368,20.7717766 C40.0187724,20.2152258 40.1296814,19.4391861 39.8419979,18.7715821 C39.5543144,18.1039782 38.918235,17.6612972 38.2025425,17.6305991 C37.3127416,17.5941073 36.5202897,18.1990953 36.3057833,19.0786576 C33.4072941,17.5437238 30.0925394,14.4325225 30.8979193,9.93645502 C31.5002527,9.08058608 32.3420045,8.22266907 33.5064937,7.32401413 C31.3287115,7.06414039 29.0148819,7.47001158 26.8098756,8.3320359 C26.7748831,7.16445103 26.912321,5.9144966 27.2715511,4.44815449 C25.1580602,4.99673877 23.1506116,6.21046102 21.4019018,7.80679959 C20.9553021,6.72649965 20.6422614,5.50570225 20.4606576,4 L20.4604198,4.00018619 Z M30.1443714,11.2827431 C30.1387326,13.5606787 31.1132056,15.6127309 32.856573,17.3453964 C34.4542695,18.9337288 36.6716072,20.1570211 38.4397105,20.6204058 C38.5488375,20.7425191 38.5608066,20.8915402 38.4268303,21.0989834 C38.2835269,21.2120628 38.1248367,21.3234665 37.9601418,21.4219041 C36.2722837,22.4288832 34.2073132,23.2907474 31.7867827,23.844545 C31.3948873,23.9341908 30.9986375,24.0152012 30.5975576,24.0860085 C30.5006266,22.2446465 30.2874919,20.6442118 30.0772625,19.1985738 C30.5751625,19.2930638 31.0799184,19.0727011 31.3557548,18.6404189 C31.6315912,18.2081368 31.6240699,17.6492489 31.3367042,17.224816 C31.0493385,16.8003832 30.538842,16.5941701 30.0436714,16.7025004 C30.4012791,16.803299 30.640076,17.1459251 30.6153232,17.5227071 C30.5905705,17.8994891 30.3090814,18.2067174 29.9414713,18.2581755 C29.5350856,15.4893367 29.2680405,13.3361099 30.1444409,11.2828288 L30.1443714,11.2827431 Z"/>
  </g>
</svg>
