<svg xmlns="http://www.w3.org/2000/svg" width="48" height="48" viewBox="0 0 48 48">
  <path fill="#26A69A" d="M3,3 L3,45.50025 L45.50025,45.50025 L45.50025,3 L3,3 Z M36.292374,23.9151 C37.2973075,23.9151 38.2890665,24.0273652 39.2667541,24.2566177 C40.2511941,24.4779609 41.1038906,24.7596983 41.8218216,25.0996342 L41.8218216,29.1676266 L41.3981649,29.1676266 C40.7828899,28.5984382 40.0284107,28.1247756 39.1328621,27.7453167 C38.2441368,27.3579484 37.3347292,27.1617026 36.4049698,27.1617026 C36.0768153,27.1617026 35.7517773,27.1884999 35.4236228,27.2438416 C35.1023151,27.2912739 34.7906403,27.3868706 34.4898261,27.5291677 C34.2231991,27.6477368 33.9938757,27.828825 33.8024463,28.0738726 C33.611017,28.3110344 33.5127996,28.5869637 33.5127996,28.8952623 C33.5127996,29.3616766 33.667728,29.7187534 33.9753655,29.9717102 C34.283003,30.2167814 34.8630284,30.4449006 35.7175901,30.6504487 C36.2781609,30.7848365 36.8173882,30.9130385 37.3301017,31.0395405 C37.849662,31.166019 38.4040705,31.3412755 38.9988285,31.5626423 C40.167851,32.0053523 41.0302984,32.6115138 41.5841167,33.378341 C42.1447111,34.1372589 42.4271332,35.1222419 42.4271332,36.3397356 C42.4271332,38.0789145 41.7860762,39.4940233 40.5076688,40.5850386 C39.2361084,41.6680737 37.507554,42.2105356 35.3198571,42.2105356 C34.0551435,42.2105356 32.9517803,42.0830656 32.0083271,41.8301087 C31.0717445,41.5692189 30.1915896,41.2440392 29.3713331,40.8487616 L29.3713331,36.6121943 L29.8036547,36.6121943 C30.6171823,37.3632028 31.5265899,37.9425907 32.531547,38.345754 C33.5433273,38.7489173 34.5112639,38.9509948 35.4409997,38.9509948 C35.6802628,38.9509948 35.9980998,38.9249294 36.3877582,38.877497 C36.7774166,38.8300647 37.0927273,38.7504047 37.3388373,38.6397213 C37.639628,38.4974242 37.8866824,38.3214358 38.0780881,38.1079783 C38.2763408,37.8945209 38.3763761,37.5802017 38.3763761,37.1612198 C38.3763761,36.7738515 38.2311986,36.4392751 37.9440545,36.1625902 C37.6637573,35.877996 37.2502292,35.6600055 36.7033286,35.509799 C36.1290877,35.3516833 35.521604,35.2075446 34.8789651,35.0731568 C34.2431967,34.9308597 33.6454639,34.7505506 33.0848695,34.5370932 C31.7996389,34.0548602 30.8725238,33.4052091 30.3050353,32.5830402 C29.7444646,31.752962 29.4620189,30.7260005 29.4620189,29.5007628 C29.4620189,27.8564486 30.1012816,26.5159944 31.372842,25.4802264 C32.6512494,24.4367143 34.2893777,23.9152652 36.2924449,23.9152652 L36.292374,23.9151 Z M15.0875329,24.2350146 L21.0146191,24.2350146 C22.245169,24.2350146 23.1448257,24.2828012 23.7122906,24.3776659 C24.2865315,24.4725306 24.8550116,24.6803925 25.415606,25.0045097 C25.9966938,25.3444456 26.4279293,25.8021715 26.7082029,26.3792692 C26.9953234,26.9484576 27.1362039,27.6024293 27.1362039,28.3376428 C27.1362039,29.1914254 26.9422482,29.9468018 26.5525898,30.6029455 C26.1629078,31.25118 25.6121351,31.756716 24.901169,32.1203563 L24.901169,32.2154571 C25.8992792,32.4447096 26.6891497,32.9183722 27.2701903,33.637767 C27.8581249,34.3571618 28.1521159,35.3044634 28.1521159,36.4822924 C28.1521159,37.336075 28.0033025,38.10158 27.7025118,38.7735425 C27.4085445,39.4455049 27.0029494,39.9995593 26.4833891,40.4422693 C25.8817842,40.9640253 25.2150868,41.3362832 24.490427,41.5576264 C23.772614,41.7789696 22.8613884,41.8905029 21.753799,41.8905029 L15.0875329,41.8905029 L15.0875329,24.2350146 Z M19.0042328,27.4731177 L19.0042328,31.2082099 L19.6224354,31.2082099 C20.2445573,31.2082099 20.7714839,31.1930996 21.2090233,31.1693007 C21.646539,31.1455964 21.9936288,31.0659128 22.246562,30.9315251 C22.6020569,30.7497049 22.8331982,30.5200983 22.942583,30.2355041 C23.0519678,29.9430006 23.106861,29.6076686 23.106861,29.2282097 C23.106861,28.9357061 23.0422169,28.6431082 22.9123151,28.3506283 C22.7892601,28.0581247 22.5678697,27.8401342 22.246562,27.6978371 C21.9594416,27.5713586 21.6008066,27.5025593 21.1701141,27.4946499 C20.7462685,27.4788313 20.1485357,27.4729288 19.3760185,27.4729288 L19.0042328,27.4731177 Z M19.0042328,34.2560169 L19.0042328,38.6526596 L19.2938795,38.6526596 C20.4013745,38.6526596 21.1930394,38.6477015 21.6716364,38.6396741 C22.1501863,38.6318828 22.5911727,38.5303601 22.9945013,38.3327449 C23.4046767,38.1351061 23.6870988,37.8743816 23.8375177,37.5502643 C23.9947599,37.2182378 24.0709728,36.8401718 24.0709728,36.4132805 C24.0709728,35.8520015 23.9770761,35.4210729 23.7856467,35.1206836 C23.6010642,34.8123851 23.2814328,34.5835103 22.8302469,34.4333039 C22.5226094,34.3305298 22.0993304,34.2726147 21.5592531,34.2647053 C21.0191758,34.256914 20.4568343,34.2559696 19.8689232,34.2559696 L19.0042328,34.2560169 Z"/>
</svg>
