<svg xmlns="http://www.w3.org/2000/svg" width="48" height="48" viewBox="0 0 48 48">
  <path fill="#0277BD" d="M37.6374206,36.2594841 L38.9490873,43.8796429 C38.1371032,44.3168651 36.8254365,44.7228571 35.0765476,45.097619 C33.2964286,45.5036111 31.2040079,45.7222222 28.7992857,45.7222222 C21.8974206,45.5973016 16.7132143,43.5361111 13.2466667,39.6011111 C9.68642857,35.634881 8,30.6068254 8,24.5169444 C8.12492063,17.3027778 10.2485714,11.7750397 14.3709524,7.9025 C18.3684127,3.99873016 23.4901587,2 29.6737302,2 C32.0159921,2 34.0459524,2.21861111 35.732381,2.59337302 C37.4188095,2.96813492 38.6680159,3.37412698 39.48,3.84257937 L37.6061905,11.6188889 L34.358254,10.5570635 C33.1090476,10.2447619 31.6412302,10.0886111 29.9860317,10.0886111 C26.3945635,10.057381 23.3964683,11.2128968 21.0542063,13.5239286 C18.6807143,15.8037302 17.4939683,19.3015079 17.3690476,23.9548016 C17.4002778,28.2021032 18.5245635,31.5125 20.7419048,33.9484524 C22.959246,36.3531746 26.0510317,37.602381 30.0797222,37.6336111 L34.2333333,37.2588492 C35.5762302,37.0090079 36.7005159,36.6654762 37.6374206,36.2594841 Z"/>
</svg>
