<svg xmlns="http://www.w3.org/2000/svg" width="48" height="48" viewBox="0 0 48 48">
  <g fill="none" transform="translate(-1 5)">
    <path fill="#2D9BBD" d="M27.0487641,0.0852222195 L15.8583815,1.95175607 C13.9477889,2.39890081 13.5581131,3.30075298 14.4704268,4.61870868 L26.9869471,20.9634789 C27.9087165,22.1102308 29.6913507,22.1102308 31.5078806,21.8786758 L42.6913656,19.64085 C44.1852162,18.9065419 44.3553371,18.1626683 43.4296522,17.0868097 L30.9509264,1.42488112 C30.0901693,0.301934483 29.061817,-0.218056058 27.0487641,0.0852222195 Z"/>
    <path fill="#6564E0" d="M27.4260882,17.8043068 L35.0169417,25.4365017 C35.3758741,25.7973889 35.5837064,26.2815494 35.5980936,26.7903373 L35.992309,40.7313442 C36.0235309,41.8354723 35.1537685,42.7558554 34.0496404,42.7870773 C33.5026716,42.8025441 32.9732512,42.5932312 32.5847389,42.2079102 L24.8828173,34.5692542 C24.5141627,34.2036278 24.3021477,33.708964 24.2915994,33.1898516 L24.008452,19.2553058 C23.986012,18.1509642 24.8630665,17.2375273 25.967408,17.2150873 C26.5137094,17.2039866 27.0407657,17.4168858 27.4260882,17.8043068 Z" transform="scale(-1 1) rotate(-35.989 0 122.365)"/>
    <path fill="#4E77E1" d="M11.7597667,24.9991668 C11.2439538,24.7991081 5.85086022,24.9265935 5.5501434,24.4588651 C5.24940338,23.991146 7.65829595,19.3330553 7.68753231,18.7763807 C7.71676867,18.2197061 4.67989446,13.0245819 5.0277607,12.5915087 C5.37562695,12.1584355 10.5944203,14.5860289 11.1283319,14.4420145 C11.662197,14.2979884 14.7614994,10.8083539 15.2773123,11.0082698 C15.7931251,11.2083309 16.7354407,16.9610019 17.0361807,17.4287209 C17.3369207,17.8964399 22.0291003,21.6111782 21.9998639,22.1680869 C21.9706647,22.7248317 18.1207269,23.6138844 17.7729071,24.0469575 C17.4249248,24.4800541 16.5967702,29.8524791 16.062905,29.9966808 C15.5290399,30.1407069 12.5781706,25.5507355 12.0623578,25.3505855 L11.7597667,24.9991668 Z" transform="scale(1 -1) rotate(40.17 69.564 0)"/>
  </g>
</svg>
