<svg xmlns="http://www.w3.org/2000/svg" width="48" height="48" viewBox="0 0 48 48">
  <path fill="#FF7043" d="M24.0344845,14.0221991 C26.258638,14.0221991 28.0419063,12.2188481 28.0419063,10.0147772 C28.0419063,9.25336927 27.8415242,8.55205382 27.4608202,7.95095163 L24.0343736,2 L20.6079271,7.95095163 C20.2272231,8.55207599 20.026841,9.25336927 20.026841,10.0147772 C20.026841,12.2280152 21.8210248,14.0221991 24.0342628,14.0221991 L24.0344845,14.0221991 Z M33.2513996,34.0593083 L31.1074211,31.8952917 L28.9434045,34.0593083 C26.3386578,36.6441054 21.7699886,36.6640549 19.1452924,34.0593083 L17.0213522,31.8952917 L14.8172591,34.0593083 C13.5148414,35.3416878 11.7716273,36.0630414 9.92828863,36.0630414 C8.46556524,36.0630414 7.12315983,35.6021846 6.00088665,34.8407766 L6.00088665,44.077863 C6.00088077,44.609284 6.21198282,45.1189414 6.58775215,45.4947149 C6.96352148,45.8704884 7.47317655,46.0815961 8.00459757,46.0815961 L40.0635291,46.0815961 C40.5949501,46.0815961 41.1046052,45.8704884 41.4803745,45.4947149 C41.8561438,45.1189414 42.0672459,44.609284 42.06724,44.077863 L42.06724,34.8407766 C40.9451663,35.6021846 39.6025836,36.0630414 38.139838,36.0630414 C36.2964107,36.0630414 34.5531301,35.3417099 33.2508676,34.0593083 L33.2513996,34.0593083 Z M36.0559964,20.033221 L26.0373309,20.033221 L26.0373309,16.0257992 L22.0299091,16.0257992 L22.0299091,20.033221 L12.0112436,20.033221 C8.69132544,20.033221 6,22.7245464 6,26.0444646 L6,29.1302171 C6,31.2942338 7.76327448,33.0576191 9.92740198,33.0576191 C11.0094214,33.0576191 12.0112658,32.6568769 12.6926317,31.9155072 L17.0205763,27.6476329 L21.2483299,31.9155072 C22.7310915,33.3982688 25.3158221,33.3982688 26.7987389,31.9155072 L31.0466637,27.6476329 L35.3546588,31.9155072 C36.0559521,32.6568769 37.0578186,33.0576191 38.1198885,33.0576191 C40.2839051,33.0576191 42.06724,31.2943446 42.06724,29.1302171 L42.06724,26.0444646 C42.06724,22.7245464 39.3759146,20.033221 36.0559964,20.033221 Z"/>
</svg>
