<svg xmlns="http://www.w3.org/2000/svg" width="48" height="48" viewBox="0 0 48 48">
  <path d="M13.0406779,19.3687468 C14.8894592,15.3524268 18.9695318,12.6111288 23.6233616,12.6111288 C30.0622222,12.6111288 35.2898158,17.8387198 35.2898158,24.2775829 C35.2898158,30.7164461 30.0622221,35.9440344 23.6233616,35.9440344 C18.9057806,35.9440344 14.8894605,33.1389852 13.0406772,29.1864164 C12.9080777,28.8410093 12.6255687,28.4824995 12.0844106,28.4851541 L3.0955039,28.4851541 C2.27442159,28.5093379 1.85198734,29.2433915 2.07548616,29.8239288 C4.56177941,39.5140958 13.2956822,46.6542213 23.6871129,46.6542213 C35.9910754,46.6542213 46,36.6452967 46,24.3413329 C46,12.037369 35.9910754,2.0284444 23.6871129,2.0284444 C13.2956822,2.0284444 4.52990378,9.29607036 2.04361057,18.8587383 C1.8265206,19.5257583 2.4579928,20.0700091 3.0955039,20.0700091 L12.0844113,20.0700091 C12.5306693,20.0700091 12.8298466,19.8147714 13.0406779,19.3687468 Z M21.035455,28.9205457 C17.5158599,26.8914622 17.5158586,21.7912048 21.0354537,19.7621187 C24.5550487,17.7330325 28.9784285,20.2831605 28.9784285,24.3413329 C28.9784285,28.3995052 24.5550487,30.9496319 21.035455,28.9205457 Z"/>
</svg>
