<svg xmlns="http://www.w3.org/2000/svg" width="48" height="48" viewBox="0 0 48 48">
  <g fill="none" transform="translate(2 2)">
    <path fill="#64DD17" d="M21.3018964 22.610025C21.0838996 23.0824146 20.8433449 23.6131894 20.5942599 24.1780854 19.7137424 26.1730405 18.7386333 28.6005769 18.3824455 30.1557471 18.2544908 30.7096485 18.1752537 31.3960541 18.1767702 32.1571472 18.1767702 32.4581724 18.192883 32.7745521 18.218474 33.0968082 19.4633304 33.5542223 20.8078967 33.8057717 22.2119857 33.808236 23.4902051 33.8057717 24.7181905 33.5945991 25.8675075 33.2124413 25.5973811 32.9654414 25.3395762 32.7021392 25.1048979 32.405474 23.5466947 30.4184806 22.6773614 27.5064226 21.3018964 22.610025M15.5486767 12.7385615C12.5727361 14.8358802 10.6253613 18.2950154 10.6179683 22.2151665 10.6253613 26.0767427 12.5141613 29.4911412 15.4152248 31.5971798 16.1268421 28.6329921 17.9106246 25.9188372 20.58554 20.4783955 20.4266867 20.0420228 20.2456546 19.5643255 20.0430123 19.0625537 19.3020128 17.2037045 18.2325016 15.0449676 17.2780547 14.0673941 16.791448 13.556713 16.200961 13.1154116 15.5486767 12.7385615"/>
    <path fill="#7CB342" d="M32.3097867,35.5135396 C30.774331,35.3211337 29.5071062,35.0889198 28.3985451,34.6978525 C26.5340091,35.6236754 24.434226,36.1466781 22.2108483,36.1466781 C14.5176466,36.1466781 8.28123228,29.9112116 8.28028447,22.2157352 C8.28028447,18.0402435 10.1197983,14.2971438 13.0299607,11.7443066 C12.2516174,11.5562606 11.439911,11.446504 10.610765,11.4480205 C6.52341987,11.4865017 2.20878942,13.7485501 0.412495833,19.8575786 C0.244543521,20.7468159 0.284541194,21.4191938 0.284541194,22.2161143 C0.284541194,34.3263101 10.102169,44.1446961 22.2112274,44.1446961 C29.6272888,44.1446961 36.1785663,40.4597921 40.1459184,34.824101 C38.0000717,35.3588567 35.9364951,35.6145764 34.1693941,35.6200737 C33.507063,35.6200737 32.8852982,35.5846255 32.3095972,35.5142978"/>
    <path fill="#29B6F6" d="M28.1905951,31.2635499 C28.3259427,31.330655 28.6328443,31.4402221 29.0599284,31.5613525 C31.9331262,29.4520914 33.8003161,26.0545639 33.807709,22.2145978 L33.8065717,22.2145978 C33.7957666,15.812885 28.615215,10.6330916 22.2119857,10.6203909 C20.9392635,10.6228552 19.7165858,10.8328904 18.5718183,11.2122048 C20.9259941,13.8956506 22.058061,17.7304985 23.1531631,21.9253255 C23.1537318,21.9272212 23.1546796,21.9287377 23.1550587,21.9302542 C23.1571439,21.9336663 23.5053701,23.0951153 24.10325,24.6360683 C24.6969595,26.1749361 25.5427871,28.0800385 26.4651979,29.4683937 C27.0708499,30.3987661 27.7369722,31.0673528 28.1905951,31.2635499"/>
    <path fill="#1E88E5" d="M22.2117961,0.287342895 C14.8673893,0.287342895 8.37070575,3.90286711 4.39141123,9.44662036 C6.46238077,8.14963422 8.57694967,7.68179414 10.4223399,7.69847564 C12.9711963,7.70586857 14.9750608,8.49615434 15.9365214,9.03678639 C16.1687354,9.17061746 16.3891965,9.31468491 16.6051081,9.46273317 C18.3206481,8.70713732 20.2162724,8.28460267 22.2112274,8.28460267 C29.9053769,8.28555048 36.142739,14.521017 36.1438764,22.2151665 L36.142739,22.2151665 C36.142739,26.094372 34.5561015,29.6018457 31.9983356,32.1275755 C32.6261664,32.1979031 33.2957009,32.2416921 33.9794526,32.2382799 C36.4079369,32.2394173 39.0328078,31.7035243 41.0006554,30.0484548 C42.2838035,28.9675698 43.358812,27.3849131 43.9549859,25.0119706 C44.0715668,24.0954362 44.1386719,23.1637369 44.1386719,22.2155456 C44.1386719,10.1059185 34.3219919,0.28696377 22.2119857,0.28696377"/>
  </g>
</svg>
