<svg xmlns="http://www.w3.org/2000/svg" width="48" height="48" viewBox="0 0 48 48">
  <g fill="none" transform="translate(9 2)">
    <path fill="#0288D1" d="M18.9656308,17.2719304 C20.2313418,16.177107 21.0143191,14.6258359 20.9998016,12.907945 C20.973234,9.63615558 18.063395,7 14.5002625,7 C10.93713,7 8.02760766,9.6359271 8.00018571,12.907945 C7.98614997,14.6253218 8.76864544,16.1770499 10.0343565,17.2719304 C11.6003109,18.6266508 12.8835505,21.3664224 12.9587727,24.3582657 C13.0424849,27.6784931 12.8289432,31.5211421 12.6976136,33.4757963 C11.0233693,33.7287418 9.84739795,34.3224894 9.84739795,35.0153006 C9.84739795,35.9371068 11.9301755,37 14.4991817,37 C17.068188,37 19.1509655,35.9349934 19.1509655,35.0153006 C19.1509655,34.3230035 17.9749941,33.7287246 16.3007499,33.4757963 C16.1694149,31.5203995 15.9563786,27.6780933 16.0395908,24.3582657 C16.1162862,21.3665938 17.3995043,18.6268221 18.9655125,17.2719304 L18.9656308,17.2719304 Z"/>
    <path fill="#78909C" d="M28.2198448 36.9239353C28.4861834 36.8184065 28.7628172 36.7396216 29.0454749 36.688797 29.3594277 36.6226179 29.6789532 36.5848431 30 36.5759514 30 36.5759514 29.984422 36.4709819 29.9634721 36.3135193 29.953803 36.1592094 29.8791344 35.9545176 29.807692 35.7513965 29.7711641 35.6516742 29.7346362 35.5519518 29.7002604 35.4601 29.6578236 35.3677246 29.6041049 35.2832199 29.5654307 35.2102677L29.4316727 34.9730294C29.0991293 34.9194517 28.7701524 34.8465427 28.4464941 34.7546907 28.1442084 34.6727183 27.8473201 34.5728105 27.5574824 34.4555236 27.0536169 34.2392792 26.5798519 33.9967995 26.3300713 33.7259451 26.0281795 33.4682422 25.9723174 33.2110572 25.981986 32.9775065 26.0019096 32.8548649 26.057899 32.7405293 26.1431363 32.6484221 26.2407047 32.5332918 26.3627914 32.440332 26.5008901 32.3760195 26.5008901 32.3760195 26.3794916 32.3104143 26.2027609 32.2122627 26.1125172 32.165025 26.0142126 32.1072932 25.8987258 32.0506058 25.7832332 31.993924 25.6505527 31.9340894 25.5227065 31.8758256 25.2723842 31.7593093 25.0226036 31.6427873 24.8125459 31.5656351L24.4794992 31.4338955C24.2229347 31.4662603 23.9646374 31.4837863 23.7059571 31.4863819 23.4287784 31.4921548 23.1462238 31.4863819 22.8712231 31.4638128 22.330291 31.4186751 21.780255 31.3451965 21.3048363 31.2082042 21.0859317 31.1543087 20.872226 31.0819559 20.6661238 30.9919598 20.4996016 30.9242877 20.3397556 30.8418914 20.188579 30.7457982 19.9387926 30.5673473 19.7674379 30.3867965 19.7690512 30.2041457L19.3935678 30.1443112C19.1588259 30.1086204 18.658746 30.0430124 18.3412624 30.0015482 18.3353536 30.0540341 18.3009749 30.102847 18.2875455 30.1894461L18.2069703 30.5694416C18.0415216 31.3289148 18.4916684 32.0999293 19.2555305 32.3161737 21.1259755 32.8483792 22.5397858 33.72438 22.9480201 34.7998031 23.7736503 36.9748015 20.3062225 39.1036347 15.0339783 39.1036347 9.76173419 39.1036347 6.29597738 36.9727184 7.1176318 34.79772 7.51620911 33.7480256 8.87416302 32.8893536 10.6774813 32.3534436 11.4753723 32.1113885 11.9526775 31.3147672 11.7781295 30.5164643L11.6674712 30C11.4579723 30.0246685 11.2135618 30.0524858 10.9632453 30.0845048 10.6495358 30.1180955 10.3513836 30.1726802 10.1225765 30.2083738 9.89374052 30.2440639 9.73957372 30.2703083 9.73957372 30.2703083 9.75515173 30.4471884 9.62623035 30.646104 9.37967064 30.8172134 9.23839589 30.9149863 9.08909081 31.0011808 8.93328066 31.0749164 8.73294742 31.1622633 8.52736608 31.2376327 8.31767365 31.3006077 8.07085847 31.3722697 7.81968075 31.4287154 7.56562361 31.4696116 7.29777857 31.5191192 7.02734397 31.5541622 6.75555071 31.5745811 6.19581736 31.6176194 5.63392904 31.6270669 5.12365052 31.5672329L5.03125761 31.6029236C4.97754066 31.6275916 4.88514602 31.6590836 4.79436646 31.702646 4.6079673 31.7892451 4.35550159 31.9073378 4.10195263 32.0259598 3.84840943 32.1445761 3.62870619 32.279992 3.44768292 32.3776145L3.23281395 32.4962308C3.18500588 32.5282474 3.15760895 32.5450426 3.15760895 32.5450426 3.50945682 32.7024995 3.7060604 32.9208439 3.74417571 33.1502003 3.83280607 33.3926856 3.71140864 33.6446179 3.48257155 33.9191317 3.33103217 34.0670237 3.1653674 34.2004193 2.98783878 34.3174976 2.76363282 34.4605121 2.52668263 34.5834774 2.27986768 34.6848991 1.68317726 34.9509408 1.05402326 35.1410943.407809312 35.2507038.362554844 35.3279551.326509196 35.4100188.300377708 35.4952891.246660753 35.6438227.175216576 35.8448438.10216078 36.0500649.0715423407 36.2531859.0425360956 36.4615541.019436428 36.6216121.000745125174 36.7094205-.00450474092 36.7994532.00385841327 36.8887676.732803024 36.8961158 1.38171411 37.0168309 1.8662367 37.2063051 2.43026271 37.3884323 2.77080562 37.6613585 3.03406923 37.99359 3.24195472 38.3525917 3.32467907 38.7284043 3.14150084 39.1629761 3.01258291 39.5860122 2.65804997 40.0578483 2.08112872 40.4866776L2.16975907 40.5617298C2.23314631 40.606868 2.32553922 40.6708991 2.43834672 40.7480569 2.66718267 40.9023667 2.9556433 41.1201819 3.29457287 41.317521 3.65232673 41.5090952 4.01596932 41.7027693 4.29104493 41.8513029 4.42748797 41.9263607 4.56607445 41.9735955 4.65256135 42.0129598 4.73904826 42.0523246 4.79491039 42.0733179 4.79491039 42.0733179 5.60872856 41.7332102 6.48218294 41.55843 7.35615589 41.4681602 7.77976535 41.422797 8.20656079 41.4127884 8.6319098 41.4382429 9.04928835 41.4587127 9.47471059 41.4907288 9.87274627 41.5831058 10.2670309 41.6844046 10.6521656 41.7804506 10.9890093 41.9274135 11.3149956 42.0738906 11.6278331 42.2468261 11.9242318 42.4444014 12.4995397 42.8280733 12.942196 43.3692246 13.1323404 43.9391955L13.873097 43.9675381C14.319487 43.979085 14.914109 44.0200239 15.5066106 43.9880073 16.0974988 43.9691128 16.6937456 43.9596652 17.1342469 43.9318479 17.569355 43.8903837 17.8594462 43.8641428 17.8594462 43.8641428 17.9254523 43.5641872 18.0552046 43.2811228 18.2402998 43.0332825 18.3328878 42.9069422 18.436598 42.788749 18.5502467 42.6800514 18.897699 42.3093169 19.3219952 42.0151571 19.7948861 41.817157 20.1362537 41.6536213 20.4951316 41.5275837 20.8649383 41.4413557 21.2726483 41.3626272 21.655651 41.2838987 22.0714335 41.2550286 22.4872045 41.2261613 22.9276597 41.241907 23.3413102 41.2587049 24.2273121 41.3119047 25.1003656 41.4930204 25.9320569 41.7961575L26.3822037 41.5515722C26.6400453 41.4009387 27.0112361 41.2224878 27.2954156 41.0004728 27.5860254 40.7905283 27.8916624 40.5905599 28.0764482 40.4231268 28.261234 40.2556936 28.3745774 40.1486242 28.3745774 40.1486242 27.7686505 39.7408113 27.4200524 39.3025632 27.1971224 38.8700744 27.1063714 38.6832185 27.0590435 38.4790627 27.0585302 38.2722356 27.0404587 38.0798921 27.0892858 37.887213 27.1971224 37.7253304 27.3550518 37.3794464 27.759005 37.1238322 28.2177371 36.9207055M10.3594415 27C10.3594415 27 11.1501308 24.0033707 7.71611194 20.1376722L7.60222056 20.0182844C6.15526163 18.3027323 5.3606178 16.130772 5.35859872 13.8859048 5.35859872 8.63283917 9.63432484 4.35932442 14.8902685 4.35932442L15.1093718 4.35932442C20.3650827 4.35932442 24.6416233 8.63342127 24.6416233 13.8859048 24.639104 16.1292587 23.8448974 18.2996506 22.3991067 20.0142097 22.3822947 20.033746 22.3448736 20.0739036 22.2846743 20.1325149 19.2357035 23.1872374 19.639716 26.997171 19.639716 26.997171 25.2067696 25.0766622 28.9677797 19.8385565 28.9997749 13.9628812 29.0420767 6.61916014 23.1161431.357555275 15.7927259.00596939275 15.7016151.00162800562 15.6110454 0 15.5215576 0 15.4130938 0 14.9987497.00814002811 15.0009196.00814002811 14.9889883.00814002811 14.5920031 0 14.4819104 0 14.3913407 0 14.3007709 0 14.2107421.00596939275 6.88557977.357619306.960063261 6.61916014 1.00020273 13.9652095 1.03111536 19.841467 4.79274272 25.0791652 10.35968 26.9994994L10.3594415 27z"/>
    <path d="M18.9656308,17.2719304 C20.2313418,16.177107 21.0143191,14.6258359 20.9998016,12.907945 C20.973234,9.63615558 18.063395,7 14.5002625,7 C10.93713,7 8.02760766,9.6359271 8.00018571,12.907945 C7.98614997,14.6253218 8.76864544,16.1770499 10.0343565,17.2719304 C11.6003109,18.6266508 12.8835505,21.3664224 12.9587727,24.3582657 C13.0424849,27.6784931 12.8289432,31.5211421 12.6976136,33.4757963 C11.0233693,33.7287418 9.84739795,34.3224894 9.84739795,35.0153006 C9.84739795,35.9371068 11.9301755,37 14.4991817,37 C17.068188,37 19.1509655,35.9349934 19.1509655,35.0153006 C19.1509655,34.3230035 17.9749941,33.7287246 16.3007499,33.4757963 C16.1694149,31.5203995 15.9563786,27.6780933 16.0395908,24.3582657 C16.1162862,21.3665938 17.3995043,18.6268221 18.9655125,17.2719304 L18.9656308,17.2719304 Z"/>
  </g>
</svg>
