<svg xmlns="http://www.w3.org/2000/svg" width="48" height="48" viewBox="0 0 48 48">
  <path fill="#42A5F5" d="M0,40 L39.6,40 L39.6,35.5555556 L0,35.5555556 L0,40 Z M39.6,11.1111111 L35.2,11.1111111 L35.2,4.44444444 L39.6,4.44444444 L39.6,11.1111111 Z M39.6,0 L4.4,0 L4.4,22.2222222 C4.4,27.13142 8.3398942,31.1111111 13.2,31.1111111 L26.4,31.1111111 C31.2601058,31.1111111 35.2,27.13142 35.2,22.2222222 L35.2,15.5555556 L39.6,15.5555556 C42.0300529,15.5555556 44,13.56571 44,11.1111111 L44,4.44444444 C44,1.97777778 42.02,0 39.6,0 Z" transform="translate(2 4)"/>
</svg>
