<svg xmlns="http://www.w3.org/2000/svg" width="48" height="48" viewBox="0 0 48 48">
  <g fill="none" transform="translate(3 3)">
    <rect width="43" height="43" fill="#0D3858" stroke="#4DD0E1" stroke-width=".7" transform="rotate(90 21.5 21.5)"/>
    <path fill="#4DD0E1" d="M12.4791429 19.0414737C11.2735194 19.6842358 9.77216698 20.0056168 7.97508571 20.0056168 5.6547873 20.0056168 3.79704444 19.2519011 2.40185714 17.7444695 1.00666984 16.2370379.30907619 14.2589853.30907619 11.8103116.30907619 9.17801684 1.09385079 7.05075368 2.6634 5.42852211 4.23294921 3.80629053 6.2233619 2.99517474 8.6346381 2.99517474 10.1814063 2.99517474 11.4628349 3.22090632 12.4789238 3.67236947L12.4789238 5.72692105C11.3112102 5.06884737 10.0221879 4.73981053 8.61185714 4.73981053 6.739 4.73981053 5.21873651 5.37109263 4.05106667 6.63365684 2.89094667 7.89622105 2.31088667 9.58344211 2.31088667 11.69532 2.31088667 13.70012 2.85303683 15.2993621 3.93733714 16.4930463 5.02921651 17.6790968 6.45850222 18.2721221 8.22519429 18.2721221 9.86308635 18.2721221 11.2810546 17.9048284 12.479099 17.1702411L12.4791429 19.0414737zM22.1741905 2.19063158C21.768821 1.96051579 21.3085508 1.84545789 20.79338 1.84545789 19.3407876 1.84545789 18.6144914 2.77019474 18.6144914 4.61966842L18.6144914 6.63953684 21.6548724 6.63953684 21.6548724 8.42928947 18.6144914 8.42928947 18.6144914 19.7303842 16.5496171 19.7303842 16.5496171 8.42928947 14.3326362 8.42928947 14.3326362 6.63953684 16.5496171 6.63953684 16.5496171 4.51740947C16.5496171 3.14526211 16.9423257 2.06291474 17.7277429 1.27036737 18.51316.469243158 19.492814.0686810526 20.6667048.0686810526 21.3001029.0686810526 21.8025981.145386316 22.1741905.298796842L22.1741905 2.19063158z" transform="translate(10 11)"/>
  </g>
</svg>
