<svg xmlns="http://www.w3.org/2000/svg" width="48" height="48" viewBox="0 0 48 48">
  <path fill="#CDDC39" d="M15.5555556,35.2 L6.66666667,26.4 L9.8,23.298 L15.5555556,28.974 L30.2,14.476 L33.3333333,17.6 L15.5555556,35.2 Z M20,4.4 C21.2272994,4.4 22.2222222,5.38497355 22.2222222,6.6 C22.2222222,7.81502645 21.2272994,8.8 20,8.8 C18.7727006,8.8 17.7777778,7.81502645 17.7777778,6.6 C17.7777778,5.38497355 18.7727006,4.4 20,4.4 Z M35.5555556,4.4 L26.2666667,4.4 C25.3333333,1.848 22.8888889,0 20,0 C17.1111111,0 14.6666667,1.848 13.7333333,4.4 L4.44444444,4.4 C1.98984556,4.4 0,6.3699471 0,8.8 L0,39.6 C0,42.0300529 1.98984556,44 4.44444444,44 L35.5555556,44 C38.0101544,44 40,42.0300529 40,39.6 L40,8.8 C40,6.3699471 38.0101544,4.4 35.5555556,4.4 Z" transform="translate(4 2)"/>
</svg>
