<svg xmlns="http://www.w3.org/2000/svg" width="48" height="48" viewBox="0 0 48 48">
  <path fill="#FF7043" d="M41,40 L41,13 L6,13 L6,40 L41,40 Z M41.6,4 C44.0300529,4 46,5.98984556 46,8.44444444 L46,39.5555556 C46,42.0101544 44.0300529,44 41.6,44 L6.4,44 C3.9699471,44 2,42.0101544 2,39.5555556 L2,8.44444444 C2,5.97777778 3.98,4 6.4,4 L41.6,4 Z M27,35 L27,31 L38,31 L38,35 L27,35 Z M18.7411444,25.5 L10,17 L16.1689373,17 L23.3623978,24.0125 C24.2125341,24.84125 24.2125341,26.20125 23.3623978,27.03 L16.2125341,34 L10.0435967,34 L18.7411444,25.5 Z"/>
</svg>
