<svg xmlns="http://www.w3.org/2000/svg" width="48" height="48" viewBox="0 0 48 48">
  <path fill="#FF7043" d="M39,36 L39,9 L4,9 L4,36 L39,36 Z M39.6,0 C42.0300529,0 44,1.98984556 44,4.44444444 L44,35.5555556 C44,38.0101544 42.0300529,40 39.6,40 L4.4,40 C1.9699471,40 0,38.0101544 0,35.5555556 L0,4.44444444 C0,1.97777778 1.98,0 4.4,0 L39.6,0 Z M25,31 L25,27 L36,27 L36,31 L25,31 Z M16.7411444,21.5 L8,13 L14.1689373,13 L21.3623978,20.0125 C22.2125341,20.84125 22.2125341,22.20125 21.3623978,23.03 L14.2125341,30 L8.0435967,30 L16.7411444,21.5 Z" transform="translate(2 4)"/>
</svg>
