<svg xmlns="http://www.w3.org/2000/svg" width="48" height="48" viewBox="0 0 48 48">
  <path fill="#0277BD" d="M19.9673913,31.7476087 L20.7428261,36.3623913 C20.251087,36.6271739 19.4567391,36.8730435 18.3976087,37.1 C17.3195652,37.3458696 16.0523913,37.4782609 14.596087,37.4782609 C10.4163043,37.4026087 7.27673913,36.1543478 5.1773913,33.7713043 C3.05913043,31.3693478 2,28.3243478 2,24.6363043 C2.09456522,20.2673913 3.36173913,16.9197826 5.7826087,14.5745652 C8.27913043,12.2104348 11.3808696,11 15.1256522,11 C16.5441304,11 17.7734783,11.1323913 18.7947826,11.3593478 C19.816087,11.5863043 20.5726087,11.8321739 21.0643478,12.1158696 L19.9673913,16.8252174 L17.9626087,16.1821739 C17.206087,15.9930435 16.336087,15.8984783 15.3336957,15.8984783 C13.1397826,15.8795652 11.3241304,16.5793478 9.90565217,17.978913 C8.46826087,19.3595652 7.73065217,21.4778261 7.67391304,24.2958696 C7.67391304,26.8680435 8.37369565,28.8728261 9.71652174,30.3480435 C11.0593478,31.8043478 12.9506522,32.5608696 15.3715217,32.5797826 L17.8869565,32.3528261 C18.7002174,32.2015217 19.381087,31.9934783 19.9673913,31.7476087 Z M20.9130435,22.3478261 L24.6956522,22.3478261 L24.6956522,18.5652174 L28.4782609,18.5652174 L28.4782609,22.3478261 L32.2608696,22.3478261 L32.2608696,26.1304348 L28.4782609,26.1304348 L28.4782609,29.9130435 L24.6956522,29.9130435 L24.6956522,26.1304348 L20.9130435,26.1304348 L20.9130435,22.3478261 Z M34.1521739,22.3478261 L37.9347826,22.3478261 L37.9347826,18.5652174 L41.7173913,18.5652174 L41.7173913,22.3478261 L45.5,22.3478261 L45.5,26.1304348 L41.7173913,26.1304348 L41.7173913,29.9130435 L37.9347826,29.9130435 L37.9347826,26.1304348 L34.1521739,26.1304348 L34.1521739,22.3478261 Z"/>
</svg>
