<svg xmlns="http://www.w3.org/2000/svg" width="48" height="48" viewBox="0 0 48 48">
  <path fill="#37474F" d="M43.9333637,27.9993632 L28.008437,43.923655 C27.9447378,43.987479 27.8491877,44.0193951 27.7854885,43.987479 L6.03204351,38.1475382 C5.93649339,38.1156276 5.87279425,38.0518009 5.87279425,37.9879768 L0.0124941469,16.2240211 C-0.0193540456,16.1282837 0.0124941469,16.0644597 0.076193305,16.0006357 L16.0011201,0.076343814 C16.0648192,0.0125198288 16.1603693,-0.0193935554 16.2240685,0.0125198288 L37.9775135,5.85246063 C38.0730608,5.88437124 38.13676,5.948198 38.13676,6.012022 L43.9652783,27.7759777 C44.0289774,27.8717124 43.9971293,27.9355391 43.9334273,27.9993632 L43.9333637,27.9993632 Z M22.5939121,10.6711595 L1.22267859,16.3834468 C1.1908304,16.3834468 1.15897943,16.4472707 1.1908304,16.4791841 L16.8291677,32.1160479 C16.8610158,32.1479613 16.9247178,32.1479613 16.9247178,32.0841373 L22.657614,10.7028651 C22.689465,10.7028651 22.6257658,10.6390412 22.5939149,10.6709517 L22.5939121,10.6711595 Z" transform="translate(2 2)"/>
</svg>
