<svg xmlns="http://www.w3.org/2000/svg" width="48" height="48" viewBox="0 0 48 48">
  <path fill="#0277BD" d="M20.9,23.5071429 L21.802,28.7357143 C21.23,29.0357143 20.306,29.3142857 19.074,29.5714286 C17.82,29.85 16.346,30 14.652,30 C9.79,29.9142857 6.138,28.5 3.696,25.8 C1.232,23.0785714 0,19.6285714 0,15.45 C0.11,10.5 1.584,6.70714286 4.4,4.05 C7.304,1.37142857 10.912,0 15.268,0 C16.918,0 18.348,0.15 19.536,0.407142857 C20.724,0.664285714 21.604,0.942857143 22.176,1.26428571 L20.9,6.6 L18.568,5.87142857 C17.688,5.65714286 16.676,5.55 15.51,5.55 C12.958,5.52857143 10.846,6.32142857 9.196,7.90714286 C7.524,9.47142857 6.666,11.8714286 6.6,15.0642857 C6.6,17.9785714 7.414,20.25 8.976,21.9214286 C10.538,23.5714286 12.738,24.4285714 15.554,24.45 L18.48,24.1928571 C19.426,24.0214286 20.218,23.7857143 20.9,23.5071429 Z M26.158,30 L27.5,21.4285714 L24.2,21.4285714 L24.948,17.1428571 L28.248,17.1428571 L28.952,12.8571429 L25.652,12.8571429 L26.4,8.57142857 L29.7,8.57142857 L31.042,0 L35.442,0 L34.1,8.57142857 L36.3,8.57142857 L37.642,0 L42.042,0 L40.7,8.57142857 L44,8.57142857 L43.252,12.8571429 L39.952,12.8571429 L39.248,17.1428571 L42.548,17.1428571 L41.8,21.4285714 L38.5,21.4285714 L37.158,30 L32.758,30 L34.1,21.4285714 L31.9,21.4285714 L30.558,30 L26.158,30 Z M32.648,17.1428571 L34.848,17.1428571 L35.552,12.8571429 L33.352,12.8571429 L32.648,17.1428571 Z" transform="translate(2 9)"/>
</svg>
