<svg xmlns="http://www.w3.org/2000/svg" width="48" height="48" viewBox="0 0 48 48">
  <path fill="#4CAF50" fill-rule="evenodd" d="M19.706274,0.0015412277 C8.81295447,0.0015412277 0,8.68024974 0,19.4083161 C0,28.8514507 6.87394639,36.6979605 15.9460553,38.4441734 L15.9460553,44 C27.7395953,42.2484447 38.1818745,33.0292345 38.9599577,20.9252622 C39.4292876,13.6415397 35.7420723,6.20471824 29.5215918,2.59307988 C28.7995644,2.16598534 28.045183,1.79433333 27.2651505,1.48142611 L26.8884777,1.33328498 C26.5430987,1.20766145 26.1941082,1.06663644 25.8354925,0.963527457 C23.85761,0.323014633 21.7885337,-0.00225489282 19.70646,1.17650212e-05 L19.706274,0.0015412277 Z M23.7678062,7.18574185 C23.0546311,7.10818789 22.3491572,7.38600853 21.8869218,7.92644749 C21.5259036,8.4005046 21.299655,8.85914497 21.0589762,9.33437742 C20.3369243,10.9935849 20.5776031,12.7712418 21.6606887,14.0749485 C23.3455023,13.7194019 24.7751914,12.6599055 25.4971658,11.0007591 C25.7378446,10.5267019 25.8738386,9.9187329 25.8738386,9.44473685 C25.948454,8.1861356 24.8906484,7.29967308 23.7678992,7.18595555 L23.7678062,7.18574185 Z M15.0044506,7.29713924 C13.9057259,7.40024823 12.861157,8.25946433 12.861157,9.44464526 C12.861157,9.91870237 12.997151,10.5266714 13.2378298,11.0006675 C13.9598817,12.659875 15.5003159,13.7181349 17.1849745,14.0748569 C18.1477052,12.7712113 18.3968158,10.9934933 17.6747639,9.33428583 C17.4340851,8.86022872 17.2090455,8.39328468 16.8468183,8.0377533 C16.3966622,7.50426113 15.7063132,7.22653791 15.0056131,7.29704766 L15.0044506,7.29713924 Z M9.10047325,12.998738 C7.20269428,13.0947339 6.3554826,15.4435886 7.93435597,16.6654797 C8.41572906,17.0210111 8.88265646,17.2805618 9.36401406,17.5175828 C11.0488276,18.2286455 12.9971355,17.9845115 14.4399993,17.0364126 C14.0789656,15.4958071 12.8539186,14.0806725 11.169105,13.3696708 C10.5673925,13.1326499 10.0788121,12.9987227 9.47716161,12.9987227 C9.34118305,12.9845271 9.22685752,12.9927697 9.10048875,12.9987227 L9.10047325,12.998738 Z M27.6396225,20.1841597 C26.5323811,20.1645726 25.4448866,20.4743454 24.5192299,21.0730034 C24.8802481,22.6136089 26.1053106,24.0275224 27.7901242,24.7386767 C28.3918367,24.9756976 28.8816261,25.1096248 29.4833076,25.1096248 C31.6493858,25.2281506 32.7084779,22.5912012 31.0236798,21.4060966 C30.5423067,21.0505652 30.0765883,20.8277552 29.5952152,20.5907342 C28.9761853,20.3319418 28.3120496,20.1938864 27.6396225,20.1842208 L27.6396225,20.1841597 Z M11.2053277,20.2943665 C10.5434456,20.3074936 9.88156337,20.4365821 9.24973503,20.7020553 C8.64802254,20.9390762 8.18109513,21.198627 7.82007694,21.5541584 C6.25569576,22.857804 7.30861899,25.3395022 9.47482116,25.2209001 C10.0765337,25.2209001 10.6866625,25.0869729 11.1680046,24.849952 C12.8528181,24.1388892 14.0489273,22.7250368 14.2896371,21.1844314 C13.3773172,20.5858981 12.301246,20.2758058 11.2052038,20.2955876 L11.2053277,20.2943665 Z M17.298246,23.9244744 C15.6134324,24.2800211 14.1837434,25.3395174 13.461769,26.9986639 C13.2210902,27.472721 13.0850961,28.0427587 13.0850961,28.5168158 C12.9647412,30.5315242 15.7566184,31.6135962 16.9601673,30.0728381 C17.3211855,29.5987809 17.5462252,29.13895 17.7869195,28.6649081 C18.5089713,27.1243027 18.2610697,25.3464931 17.298339,23.924337 L17.298246,23.9244744 Z M21.7725343,24.0358718 C20.8098036,25.3395174 20.561902,27.1172354 21.2839539,28.7764429 C21.5246327,29.2504847 21.7496723,29.7162534 22.1118995,30.0717848 C23.4356638,31.4939409 26.2179157,30.442733 26.0976383,28.6650302 C26.0976383,28.1909731 25.9616442,27.5830041 25.7209654,27.109008 C24.9989135,25.4498005 23.4584793,24.3915406 21.7738208,24.0360397 L21.7725343,24.0358718 Z" transform="translate(5 2)"/>
</svg>
