<svg xmlns="http://www.w3.org/2000/svg" width="48" height="48" viewBox="0 0 48 48">
  <path fill="#8BC34A" d="M18.4052216,18.65011 L18.4052216,16.0358673 C18.6643473,16.0197332 18.9234495,16.003592 19.1825753,16.003592 C26.3730971,15.7776628 31.0857448,22.1682797 31.0857448,22.1682797 C31.0857448,22.1682797 26.0005165,29.204303 20.5429443,29.204303 C19.814187,29.204303 19.1016206,29.091336 18.4214361,28.8654162 L18.4214361,20.925506 C21.2231287,21.2643928 21.7898111,22.4908673 23.4579023,25.2826559 L27.1988579,22.151839 C27.1988579,22.151839 24.4620236,18.5853543 19.8627598,18.5853543 C19.3769137,18.5692202 18.8910913,18.6014884 18.4052452,18.6499048 L18.4052216,18.65011 Z M18.4052452,10 L18.4052452,13.9054423 C18.664371,13.8893035 18.9234731,13.873167 19.1825989,13.8570282 C29.1748133,13.5181414 35.7011285,22.0226742 35.7011285,22.0226742 C35.7011285,22.0226742 28.2192174,31.0922071 20.4295841,31.0922071 C19.7493996,31.0922071 19.0854297,31.0276518 18.4214361,30.9146895 L18.4214361,33.3352759 C18.9720459,33.3998288 19.5388703,33.4482405 20.08948,33.4482405 C27.3446235,33.4482405 32.591761,29.7527302 37.6769893,25.3955804 C38.5191068,26.0733776 41.968531,27.7032989 42.6810263,28.4134114 C37.8549948,32.4478793 26.599699,35.6916821 20.2189601,35.6916821 C19.603563,35.6916821 19.0205477,35.6594068 18.4375561,35.5948563 L18.4375561,39 L46,39 L46,10.0010827 L18.4052452,10 Z M18.4052452,28.8651001 L18.4052452,30.9307364 C11.7006878,29.7365301 9.83825818,22.7811301 9.83825818,22.7811301 C9.83825818,22.7811301 13.0610568,19.230921 18.4052452,18.649952 L18.4052452,20.9092446 L18.3890496,20.9092446 C15.587357,20.5703578 13.3850126,23.1846712 13.3850126,23.1846712 C13.3850126,23.1846712 14.6319978,27.5904121 18.4053825,28.8651001 L18.4052452,28.8651001 Z M6.50221302,22.4907163 C6.50221302,22.4907163 10.4699362,16.6487106 18.4214788,16.0356621 L18.4214788,13.9054659 C9.61162785,14.6155313 2,22.0390324 2,22.0390324 C2,22.0390324 6.30787459,34.465118 18.4051458,35.5947407 L18.4051458,33.3354481 C9.53043653,32.23807 6.50197631,22.4909286 6.50197631,22.4909286 L6.50221302,22.4907163 Z"/>
</svg>
