<svg xmlns="http://www.w3.org/2000/svg" width="24" height="24" viewBox="0 0 24 24">
  <g fill="#F44336" transform="translate(1 4)">
    <circle cx="14.5" cy="5.5" r="3.5"/>
    <circle cx="21" cy="1" r="1"/>
    <path d="M0.4490086,1.00908686 C0.19773769,1.04603666 0.00081913,1.28460199 0,1.57332394 L0.01586905,16.3162821 C0.01586905,16.5395594 0.06664558,17 0.59470955,17 L5.34156089,16.9774791 C6.69841623,16.9746016 7.60717661,16.9469989 8.1484002,16.8656107 C8.1515529,16.865637 8.15808955,16.8656262 8.16124257,16.865588 C8.679184,16.7800167 9.2278113,16.622344 9.8243576,16.3919605 C10.8614061,16.0062786 11.7809727,15.4364804 12.571684,14.6753731 C13.3458552,13.9380753 13.9457411,13.0651462 14.3674033,12.0831592 C14.7890341,11.1012055 15.0015666,10.0629414 14.9999913,8.9865486 C14.9977608,7.4882767 14.616702,6.08534301 13.8521713,4.8230357 C13.0875461,3.56082829 12.0438815,2.59419267 10.7594876,1.95403133 C9.4537648,1.29558824 7.7512371,0.99555424 5.6389875,1.00004975 L0.51313157,1.00896286 C0.49109543,1.00909606 0.47019347,1.00593588 0.44889927,1.00906276 L0.4490086,1.00908686 Z M3.20786587,4.04272698 L5.41746578,4.03888448 C6.45010363,4.03670998 7.18476764,4.07400278 7.60148366,4.14207486 C8.02393358,4.21110267 8.48658383,4.356774 8.97654886,4.58190273 C9.4621662,4.8019865 9.8854983,5.07154757 10.2492545,5.40704618 C11.2500093,6.33252287 11.7217645,7.4278301 11.7239068,8.8779168 C11.7261153,10.362802 11.270204,11.5194148 10.2954092,12.4893138 C9.9955388,12.7837201 9.6620966,13.0333377 9.2941818,13.2399649 C8.94646163,13.4325827 8.49288482,13.5986071 7.92015627,13.7416311 C7.38000384,13.8701529 6.5599299,13.9432899 5.49238455,13.945561 L3.21854604,13.9495134 L3.20786587,4.04272698 Z"/>
  </g>
</svg>
