<svg xmlns="http://www.w3.org/2000/svg" width="48" height="48" viewBox="0 0 48 48">
  <g fill="none" transform="translate(2 2)">
    <path fill="#66C3FA" d="M23.0818553,2.16483377e-05 C22.5583461,2.16483377e-05 22.0334947,0.207408394 21.628624,0.608989389 C21.622446,0.615115869 21.6147768,0.617973449 21.6085988,0.62420817 L8,8.61699095 L21.5736613,22.4104458 L21.5736613,22.4206205 L37.8888545,39 L41,33.3060542 L29.7837707,5.9425553 L24.5501695,0.62420817 C24.1429128,0.210356898 23.6134386,0 23.0819405,0 L23.0818553,2.16483377e-05 Z"/>
    <path fill="#215896" d="M8.61590702,8 L0.625534065,21.561248 C0.619298859,21.5674099 0.616549307,21.5750591 0.610314101,21.581221 C0.208619626,21.9849732 8.66317132e-05,22.5130043 3.16324316e-08,23.0351285 C-9.39294552e-05,23.5652419 0.209139227,24.088811 0.622957713,24.4950705 L7.24548239,31.0009594 L33.1454015,41 L39,37.8072933 L38.8428209,37.6528 L38.8022054,37.6578994 L22.5655563,21.6950034 L22.5452053,21.6949758 L8.61579877,8.0002911 L8.61590702,8 Z"/>
    <path fill="#235997" d="M8,8 L21.8934729,21.9471683 L21.9135089,21.9471833 L37.9043672,38 L43.9908346,36.8357053 L44,18.7770614 L37.5727075,12.4601163 C36.1652638,11.076429 34.0018236,10.1847507 31.8281309,9.89169986 L31.8332465,9.82154935 L8.00106574,8.00016672 L8,8 Z"/>
    <path fill="#58B6F0" d="M8,8.00042622 L21.9472615,21.8987598 L21.9472615,21.9187924 L38,37.9152168 L36.8318826,44 L18.7637032,44 L12.4468445,37.5704011 C11.0631536,36.16224 10.1722021,33.9986384 9.88006587,31.8251058 L9.80988901,31.8302205 L8,8 L8,8.00042622 Z"/>
  </g>
</svg>
