<svg xmlns="http://www.w3.org/2000/svg" width="48" height="48" viewBox="0 0 48 48">
  <path fill="#FFCA28" d="M24.5,2 C13.72625,2 5,6.37555556 5,11.7777778 C5,17.18 13.72625,21.5555556 24.5,21.5555556 C35.27375,21.5555556 44,17.18 44,11.7777778 C44,6.37555556 35.27375,2 24.5,2 Z M5,16.6666667 L5,24 C5,29.4022222 13.72625,33.7777778 24.5,33.7777778 C35.27375,33.7777778 44,29.4022222 44,24 L44,16.6666667 C44,22.0688889 35.27375,26.4444444 24.5,26.4444444 C13.72625,26.4444444 5,22.0688889 5,16.6666667 Z M5,28.8888889 L5,36.2222222 C5,41.6244444 13.72625,46 24.5,46 C35.27375,46 44,41.6244444 44,36.2222222 L44,28.8888889 C44,34.2911111 35.27375,38.6666667 24.5,38.6666667 C13.72625,38.6666667 5,34.2911111 5,28.8888889 Z"/>
</svg>
