<svg xmlns="http://www.w3.org/2000/svg" width="48" height="48" viewBox="0 0 48 48">
  <path fill="#42A5F5" d="M6.19047619,2 C3.8647619,2 2,3.8647619 2,6.19047619 L2,29.2380952 C2,31.5638095 3.8647619,33.4285714 6.19047619,33.4285714 L10.3809524,33.4285714 L10.3809524,29.2380952 L6.19047619,29.2380952 L6.19047619,6.19047619 L29.2380952,6.19047619 L29.2380952,10.3809524 L33.4285714,10.3809524 L33.4285714,6.19047619 C33.4285714,3.8647619 31.5638095,2 29.2380952,2 L6.19047619,2 Z M18.7619048,14.5714286 C16.4361905,14.5714286 14.5714286,16.4361905 14.5714286,18.7619048 L14.5714286,22.952381 L18.7619048,22.952381 L18.7619048,18.7619048 L22.952381,18.7619048 L22.952381,14.5714286 L18.7619048,14.5714286 Z M27.1428571,14.5714286 L27.1428571,18.7619048 L29.2380952,18.7619048 L29.2380952,20.8571429 L33.4285714,20.8571429 L33.4285714,14.5714286 L27.1428571,14.5714286 Z M37.6190476,14.5714286 L37.6190476,18.7619048 L41.8095238,18.7619048 L41.8095238,41.8095238 L18.7619048,41.8095238 L18.7619048,37.6190476 L14.5714286,37.6190476 L14.5714286,41.8095238 C14.5714286,44.1352381 16.4361905,46 18.7619048,46 L41.8095238,46 C44.1352381,46 46,44.1352381 46,41.8095238 L46,18.7619048 C46,16.4361905 44.1352381,14.5714286 41.8095238,14.5714286 L37.6190476,14.5714286 Z M29.2380952,25.047619 L29.2380952,29.2380952 L25.047619,29.2380952 L25.047619,33.4285714 L29.2380952,33.4285714 C31.5638095,33.4285714 33.4285714,31.5638095 33.4285714,29.2380952 L33.4285714,25.047619 L29.2380952,25.047619 Z M14.5714286,27.1428571 L14.5714286,33.4285714 L20.8571429,33.4285714 L20.8571429,29.2380952 L18.7619048,29.2380952 L18.7619048,27.1428571 L14.5714286,27.1428571 Z"/>
</svg>
