<svg xmlns="http://www.w3.org/2000/svg" width="48" height="48" viewBox="0 0 48 48">
  <path fill="#43A047" d="M22.7119232,2 L30,2 L30,35.998486 C26.2612696,36.713848 23.5164488,37 20.5350761,37 C11.63777,36.9996922 7,32.9462999 7,25.1716553 C7,17.6834856 11.9220239,12.8191531 19.5409886,12.8191531 C20.724015,12.8191531 21.6231437,12.914228 22.7117452,13.2003781 L22.7119232,2 Z M22.7119232,19.1133307 C21.8601405,18.8274836 21.1503246,18.7321056 20.2511782,18.7321056 C16.5597938,18.7321056 14.4301148,21.0215726 14.4301148,25.0275568 C14.4301148,28.9388268 16.4652799,31.0849666 20.2038323,31.0849666 C21.0079841,31.0849666 21.6707922,31.0372758 22.7119232,30.8945155 L22.7119232,19.1133307 Z M42,13.0818202 L42,29.774368 C42,35.5257859 41.557408,38.2843702 40.2296689,40.669246 C38.999963,42.9609145 37.3769036,44.4100242 34.0328627,46 L27,42.8204001 C30.3442259,41.3242295 31.9671373,40.015388 32.999815,38.0040448 C34.0820088,35.9468015 34.4265491,33.5621016 34.4265491,27.2964608 L34.4265491,13.081996 L42,13.0818202 Z M34.4266601,2 L42,2 L42,9.3878215 L34.4266601,9.3878215 L34.4266601,2 Z"/>
</svg>
