<svg xmlns="http://www.w3.org/2000/svg" width="24" height="24" viewBox="0 0 24 24">
  <path fill="#0087C9" d="M4.77074001,16.7712083 C4.09447532,16.7712083 3.47968923,16.2179008 3.47968923,15.5416361 C3.47968923,14.8653714 4.03299671,14.3120639 4.77074001,14.3120639 C5.50848331,14.3120639 6.06179079,14.8653714 6.06179079,15.5416361 C6.06179079,16.2179008 5.4470047,16.7712083 4.77074001,16.7712083 Z M20.632221,10.07004 C20.5092638,9.08638223 19.8944777,8.28716032 19.0952558,7.67237424 L18.7878627,7.4264598 L18.5419483,7.73385285 C18.0501194,8.28716032 17.8656836,9.27081805 17.9271622,10.0085614 C17.9886408,10.5618688 18.1730766,11.1151763 18.4804697,11.5455266 C18.2345552,11.6684838 17.9271622,11.791441 17.6812478,11.9143982 C17.1279403,12.098834 16.5746328,12.1603126 16.0213253,12.1603126 L0.0983657734,12.1603126 L0.036887165,12.5291843 C-0.0860700517,13.6972779 0.0983657734,14.92685 0.59019464,16.033465 L0.836109074,16.4638152 L0.836109074,16.5252938 C2.31159568,18.9844382 4.95517584,20.0910531 7.84467043,20.0910531 C13.3777452,20.0910531 17.9271622,17.6933874 20.0789135,12.5291843 C21.4929215,12.5906629 22.9069295,12.2217913 23.5831942,10.8692619 L23.76763,10.5618688 L23.460237,10.377433 C22.661015,9.88560414 21.5544001,9.82412553 20.632221,10.07004 Z M12.7014805,9.08638223 L10.3038148,9.08638223 L10.3038148,11.484048 L12.7014805,11.484048 L12.7014805,9.08638223 Z M12.7014805,6.07393042 L10.3038148,6.07393042 L10.3038148,8.47159615 L12.7014805,8.47159615 L12.7014805,6.07393042 Z M12.7014805,3 L10.3038148,3 L10.3038148,5.39766573 L12.7014805,5.39766573 L12.7014805,3 Z M15.6524537,9.08638223 L13.254788,9.08638223 L13.254788,11.484048 L15.6524537,11.484048 L15.6524537,9.08638223 Z M6.73805548,9.08638223 L4.34038975,9.08638223 L4.34038975,11.484048 L6.73805548,11.484048 L6.73805548,9.08638223 Z M9.75050729,9.08638223 L7.35284156,9.08638223 L7.35284156,11.484048 L9.75050729,11.484048 L9.75050729,9.08638223 Z M3.78708228,9.08638223 L1.38941655,9.08638223 L1.38941655,11.484048 L3.78708228,11.484048 L3.78708228,9.08638223 Z M9.75050729,6.07393042 L7.35284156,6.07393042 L7.35284156,8.47159615 L9.75050729,8.47159615 L9.75050729,6.07393042 Z M6.73805548,6.07393042 L4.34038975,6.07393042 L4.34038975,8.47159615 L6.73805548,8.47159615 L6.73805548,6.07393042 Z"/>
</svg>
