<svg xmlns="http://www.w3.org/2000/svg" width="48" height="48" viewBox="0 0 48 48">
  <path fill="#424242" d="M24.0386189,5.00017241 C7.46612228,5.00017241 2,19.4551824 2,24.7404511 L15.4352303,24.7404511 C15.4352303,24.7404511 17.3389339,17.8533611 24.0386189,17.8533611 C30.7383038,17.8533611 32.6426971,24.7404511 32.6426971,24.7404511 L46,24.7404511 C46,19.4544927 40.6111155,5 24.0389637,5 M41.0760936,28.1799445 L41.0760936,28.1795997 C41.0760936,32.1628607 34.5884676,42.4389292 24.1210288,42.4389292 C13.6532451,42.4389292 7.14889582,29.946758 7.14889582,28.1795997 L15.4355751,28.1795997 C15.4355751,28.1795997 16.9091265,35.0668621 24.0389637,35.0668621 C31.1689732,35.0668621 32.6430419,28.1799445 32.6430419,28.1799445 L41.0760936,28.1799445 Z M24.0006896,32.2618215 C20.8806179,32.2618215 18.3513001,29.7325037 18.3513001,26.612432 C18.3513001,23.4923603 20.8806179,20.9630425 24.0006896,20.9630425 C27.1207613,20.9630425 29.6500791,23.4923603 29.6500791,26.612432 C29.6500791,29.7325037 27.1207613,32.2618215 24.0006896,32.2618215 Z"/>
</svg>
