<svg xmlns="http://www.w3.org/2000/svg" width="48" height="48" viewBox="0 0 48 48">
  <g fill="none" fill-rule="evenodd" transform="translate(2 3)">
    <path fill="#E3E3F8" d="M0 2.39393939C.639696587 1.93939394 1.16814159.803030303.8482933 0-.0278128951.409090909.0139064475 1.34848485 0 2.39393939zM9.90139064 5C10.596713 4.75757576 11.2642225 3.90909091 10.8887484 3.03030303 10.346397 3.43939394 9.99873578 4 9.90139064 5z" transform="translate(11 23)"/>
    <g fill="#FDFDFD" transform="translate(1 11)">
      <path d="M.0425028958 28.166362C.0425028958 29.058958.269185007 30.0223949.892560811 30.3624314 3.18771718 31.6517367 11.2349321 30.6457952 13.9692851 30.0365631 15.4002159 29.7106947 16.5619617 28.6480804 17.9078868 28.0671846 20.93976 26.749543 23.1357429 25.6869287 25.558408 23.9159049 27.3151944 22.6265996 30.1062178 18.999543 30.4037381 16.8318099L28.0094083 16.2934186C27.9527378 18.7303473 27.4002001 19.2829068 25.2325525 19.8496344 23.7732864 20.2463437 20.9255924 20.3313528 19.437991 20.0763254 17.4686902 19.750457 16.5761294 18.7161792 15.6835685 17.5402194 13.9551174 15.2449726 16.0660946 13.6439671 13.3317416 13.488117 10.4557124 17.0159963 5.38370013 14.4798903 3.15938192 14.1256856 2.21015058 15.5-.0141676319 24.4259598.0141676319 26.4661792 1.38842793 25.9986289 2.25265348 26.5086837 3.48523745 26.9904022 7.84886809 28.6764168 4.0377751 30.1640768 2.29515637 29.7248629 1.10507529 29.4414991.73671686 28.6622486.0425028958 28.166362zM5.75205856 7.80667276C7.52301255 8.14670932 9.0956197 8.88345521 10.5973887 9.63436929 13.048389 10.8528336 13.4875856 10.6828154 13.7142677 12.3829982 13.742603 12.6946984 13.6859324 12.8647166 14.5784933 13.1480804 16.0802622 13.6156307 13.7142677 12.7797075 17.7378752 12.7938757 20.132205 12.8080439 25.6150785 13.7714808 27.3860325 14.8907678 28.1227494 15.3583181 27.9810731 15.9533821 30.4745763 15.8825411 30.446241 12.9497258 29.6670213 8.57175503 28.5194431 5.8797989 27.1168475 2.62111517 25.2608877 2.12522852 21.47813.906764168 19.2679794.198354662 12.779204-.580895795 10.7674003.665904936 8.88310522 1.84186472 8.52891442 3.24451554 6.77212806 5.70978062 6.26209331 6.43235832 6.0779141 6.98491773 5.75205856 7.80667276z"/>
      <path d="M21.3506213 13.8281536C22.7673845 14.4090494 21.2797832 18.1636197 19.3104823 17.2568556 18.6729389 15.4574954 20.1888755 14.4373857 20.5997368 13.6297989 19.7496789 13.5022852 17.3270138 13.1197441 16.6044646 13.3889397 15.6694009 13.7431444 15.4568864 15.7408592 15.9385859 16.6759598 18.205407 21.1247715 28.2219228 20.1755027 27.1593504 16.7184644 26.7343214 15.3158135 26.3376277 15.0891225 24.9066969 14.607404 23.7591187 14.2248629 22.6115406 13.8281536 21.3506213 13.8281536zM3.54190798 13.3322669C4.67531854 14.4232176 7.23965991 14.5932358 8.89727285 14.678245 9.10978733 12.4821755 9.29396654 10.8386654 11.0507529 10.9661792 11.9149784 12.1421389 11.4616142 13.5306216 10.5548858 14.4232176 12.0991577 14.4090494 12.9917185 13.2472578 12.7650364 11.5612431 11.4616142 10.6261426 7.50884492 8.7559415 5.52537645 8.48674589 4.97283881 9.08180987 3.61274614 12.3404936 3.54190798 13.3322669z"/>
    </g>
    <path fill="#020202" d="M1.97392435,38.3377231 C2.89973186,38.2543909 5.31244235,38.9488264 5.50882576,39.7265943 C4.0078954,39.9071475 2.10017083,39.7682604 1.97392435,38.3377231 Z M1.14630854,39.1293797 C1.83365048,39.6154846 2.19836253,40.3793637 3.376663,40.6571379 C5.10203155,41.087688 8.87539853,39.6293733 4.55496347,37.9766166 C3.33458084,37.5044005 2.47891026,37.0044069 1.11825377,37.4627343 C1.090199,35.4627599 3.29249868,26.7128718 4.23233358,25.3656669 C6.43463327,25.7128846 11.4564377,28.1989639 14.3039971,24.7406748 C17.0112827,24.8934507 14.9212021,26.462875 16.6325433,28.7128463 C17.5162686,29.8656093 18.399994,30.8794852 20.3498007,31.1989256 C21.8226763,31.4489224 24.642181,31.3655901 26.0870018,30.9767062 C28.233192,30.4211577 28.78026,29.879498 28.8363696,27.4906397 L31.2069979,28.0184107 C30.9124228,30.1433835 28.1490276,33.6988936 26.4096317,34.9627663 C24.0109486,36.6988552 21.8367037,37.7405086 18.834843,39.0321587 C17.5022413,39.6015959 16.3519956,40.6432492 14.9352295,40.9626896 C12.2279439,41.5599041 4.26038836,42.5460026 1.98795174,41.2821299 C1.37074673,40.9488008 1.14630854,40.0043685 1.14630854,39.1293797 Z M20.7706223,27.6295268 C20.868814,26.7128718 21.2194987,26.1989895 21.7665668,25.8239943 C22.1453062,26.6295396 21.4719916,27.4073074 20.7706223,27.6295268 Z M22.2434979,25.0740039 C23.4919353,25.0740039 24.6281536,25.4628878 25.7643719,25.837883 C27.181138,26.3100992 27.5739048,26.5323186 27.9947264,27.907301 C29.0467804,31.2961465 19.1294181,32.2266902 16.8850362,27.8656349 C16.4081051,26.9489799 16.6185159,24.9906717 17.5443234,24.6434539 C18.2597201,24.3795684 20.6584032,24.7545636 21.5000464,24.879562 C21.0932522,25.6712185 19.5923218,26.6712057 20.2235542,28.435072 C22.173361,29.3239496 23.6462366,25.6434411 22.2434979,25.0740039 Z M10.7831231,25.2406685 C10.7971505,24.2823474 10.7550683,23.4212473 11.6387937,23.0462521 C11.9614236,23.7823538 11.4283829,24.8240071 10.7831231,25.2406685 Z M4.61107302,24.587899 C4.68120995,23.6156892 6.02783906,20.4212857 6.57490714,19.8379598 C8.53874125,20.1018453 12.4523821,21.9351552 13.7429017,22.8518101 C13.9673398,24.5045668 13.0836145,25.6434411 11.5546294,25.6573298 C12.4523821,24.782341 12.9012585,23.4212473 12.0455879,22.2684843 C10.306192,22.1434858 10.1238359,23.7545764 9.91342513,25.9073266 C8.27222091,25.8239943 5.73326394,25.6573298 4.61107302,24.587899 Z M3.20833436,23.4768021 C2.68932106,22.0601536 2.68932106,19.8518485 4.89162075,19.6712953 L3.76942983,22.7684779 C3.47485471,23.435136 3.47485471,23.2823602 3.20833436,23.4768021 Z M6.79934532,19.1713016 C7.12197521,18.3657564 7.30433124,17.8240967 7.80931715,17.1157724 C9.54871308,14.6991366 9.89939775,13.3241542 11.7650402,12.1713912 C13.756929,10.9491846 20.1814721,11.7130637 22.3697444,12.4074993 C26.1150566,13.6019284 27.9526442,14.0880333 29.3413555,17.2824369 C30.4775738,19.9212921 31.2490801,24.2129038 31.2771348,27.087867 C28.8083148,27.1573106 28.9485887,26.5739847 28.2191646,26.1156573 C26.4657413,25.0184491 21.0371427,24.0740167 18.6665143,24.060128 C14.6827366,24.0462393 17.0253101,24.8656732 15.5384071,24.4073458 C14.6546818,24.1295716 14.7107913,23.962907 14.6827366,23.6573554 C14.4582984,21.99071 14.0234494,22.1573746 11.5967115,20.9629454 C10.1098085,20.2268437 8.55276864,19.5046307 6.79934532,19.1713016 Z M31.6278195,18.4907548 C31.3612992,17.615766 31.8522577,17.6713208 32.7079283,17.0741063 C33.1988868,16.7268885 33.5916536,16.365782 34.1948312,16.0324529 C36.4532405,14.7824689 40.6614564,14.5741382 42.4569619,16.0602303 C43.186386,16.6574449 44.3787139,17.8240967 44.1963578,19.3518549 C43.8176184,22.3934827 41.7135104,24.060128 39.9881419,25.4489991 C38.2347186,26.8656477 35.3170222,28.3239623 32.3011341,27.3517526 C32.0486411,26.7406493 32.2450245,22.8656988 31.9504494,21.4351616 C31.683929,20.1574001 31.8242029,20.018513 32.5676544,19.2546339 C34.7559267,17.0046627 39.4971834,15.3657948 42.1904416,17.2963256 C43.3266599,18.1296483 43.00403,18.4490887 43.5931802,19.0879694 C44.3226043,18.3102016 42.9619478,15.6991238 37.9401434,15.8657884 C34.5314885,15.9768981 33.0586129,18.6157532 31.6278195,18.4907548 Z M11.2039447,10.5880781 C11.2740816,8.65754725 13.0695871,4.65759842 14.8650926,3.2687273 C17.0393375,1.60208195 19.3117741,0.032657583 22.6502921,1.9076336 C23.4779079,2.36596107 23.4358258,2.60206916 23.5199901,3.74094348 C23.590127,4.83815167 23.4919353,5.24092429 23.2113876,6.12980181 C20.9950605,13.2130445 19.1434455,9.14365215 12.0455879,10.8241862 C12.3121082,8.51866014 14.3320519,6.46313088 15.4542428,5.39370012 C17.3759948,3.54650152 18.764706,2.35207236 21.6543477,2.74095627 C22.4539087,4.06038384 22.538073,4.89370651 21.5701834,6.43535346 C20.2796638,8.49088272 19.9570339,8.36588432 20.1534173,9.76864415 C21.1633891,9.51864735 21.4719916,8.54643756 21.9348954,7.57422778 C24.7544001,1.74096906 20.6584032,1.03264479 18.147501,2.10207556 C16.4642146,2.81039983 13.4623539,6.08813568 12.4804369,8.06033267 C12.2840535,8.44921658 12.0736427,8.94921019 11.8912866,9.37976024 L11.2039447,10.5880781 Z M22.3136348,10.879741 C22.60821,9.14365215 24.3476059,8.7131021 24.3476059,3.36594828 C24.3476059,1.06042221 21.486019,-1.00899576 17.7407068,0.532651187 C14.5284353,1.83819004 14.0374768,2.83817725 12.3261356,5.39370012 C10.7129862,7.81033587 10.7690957,10.4630797 9.38038444,12.6991622 C8.97359023,13.3380429 8.60887818,13.5602623 8.16000181,14.199143 C7.83737192,14.6713592 7.59890635,15.2685738 7.27627646,15.8241222 C6.6169893,16.893553 5.94367474,17.6713208 5.41063405,18.9490823 C3.72734767,18.9907484 2.31058163,19.0185258 2.14225299,20.740726 C1.9178148,23.1018069 3.04000573,23.6851328 3.04000573,24.5740103 C3.02597834,25.5323314 -0.901689893,35.1988744 0.192446258,40.9626896 C0.501048762,42.5460026 1.55310275,42.5598913 3.23638914,42.7543333 C7.29030385,43.2404382 12.5505738,43.0737737 16.1836669,41.6293477 L22.7765386,38.5043877 C24.4457976,37.573844 27.2512749,35.8099777 28.4997123,34.5183275 C29.3834377,33.6155613 29.8463414,32.8516822 30.6038203,31.7822514 C31.6418469,30.2822706 31.6699017,30.310048 31.8943398,28.2684075 C33.2690237,28.5184043 35.8360355,29.1156189 36.691706,29.8517206 C36.5935143,30.8100417 36.1165832,30.3517142 36.1165832,31.2128143 C36.6636513,31.226703 37.5754314,30.5461561 37.7998696,29.7961657 C37.2247467,28.9628431 36.6215691,29.1017302 35.7939533,28.435072 C36.4532405,27.9211897 37.6455683,27.6850816 38.5573485,27.3100864 C40.5211826,26.5045412 43.873728,24.060128 44.7013438,21.8379342 C45.3606309,20.0462905 44.8696724,17.0602175 43.803591,15.8935658 C42.6814001,14.6713592 40.0723062,14.0463672 37.9401434,14.0463672 C35.4011865,14.0463672 32.7780652,15.8518997 30.7300668,16.6296675 C29.9445331,15.9491206 29.8884236,15.1713528 29.3133007,14.4213624 C28.6540136,13.5324849 24.3616333,11.3102911 22.3136348,10.879741 Z"/>
    <path fill="#FDF2F2" d="M32.0688457,18.293742 C33.42506,18.4123379 34.821163,15.9086455 38.0521442,15.8032269 C42.8121905,15.6450989 44.1019237,18.1224367 43.4105203,18.8603671 C42.8520791,18.25421 43.1578922,17.9511314 42.0808985,17.1604917 C39.5280244,15.3288431 35.0339025,16.8837678 32.9596924,19.018495 C32.2549928,19.7432481 32.1220306,19.8750214 32.3746588,21.0873356 C32.6538794,22.4446004 32.4677323,26.121075 32.7070642,26.7008775 C35.5657513,27.6232905 38.3313648,26.239671 39.9933921,24.8955835 C41.628827,23.5778506 43.6232598,21.9965712 43.9822577,19.1107363 C44.1551086,17.6612302 43.02493,16.5543346 42.3335266,15.9877095 C40.6316106,14.5777353 36.642745,14.7753953 34.5020538,15.9613548 C33.9303164,16.2776107 33.5580222,16.6202212 33.0926546,16.9496545 C32.2815852,17.5162796 31.8162176,17.4635703 32.0688457,18.293742 Z"/>
    <path fill="#FEF3F3" d="M11,10.7582877 L11.668521,9.52128957 C11.8458837,9.08052012 12.0505329,8.56865882 12.2415389,8.17054447 C13.1965689,6.151536 16.1162318,2.7960008 17.753426,2.07086396 C20.195574,0.976049509 24.1794132,1.70118635 21.437113,7.67290154 C20.9868846,8.6681874 20.6867323,9.66347327 19.7044158,9.91940392 C19.5134098,8.4833486 19.8272053,8.61131393 21.0823876,6.50699524 C22.0237742,4.92875623 21.9419145,4.07565406 21.1642473,2.72490896 C18.3537306,2.32679461 17.0030454,3.54957439 15.1339153,5.44061753 C14.0424525,6.53543198 12.0778195,8.63975066 11.8185971,11 C18.7220993,9.27957729 20.5230129,13.4455596 22.6786519,6.19419111 C22.9515176,5.28421546 23.0470206,4.87188275 22.9788042,3.74863156 C22.8969444,2.58272526 22.9378743,2.34101298 22.1329205,1.87180679 C18.8858187,-0.0476730941 16.6756065,1.55900266 14.5608974,3.265207 C12.8145569,4.68704395 11.0682164,8.78193436 11,10.7582877 Z"/>
    <path fill="#EFEFEF" d="M3.28855035,23 C3.55952988,22.7956204 3.55952988,22.9562044 3.85903357,22.2554745 L5,19 C2.76085337,19.189781 2.76085337,21.5109489 3.28855035,23 Z"/>
    <path fill="#FAF1F1" d="M6,39.9142758 C5.77777778,38.8475098 3.04761905,37.8950401 2,38.0093365 C2.14285714,39.971424 4.3015873,40.1619179 6,39.9142758 Z"/>
  </g>
</svg>
