<svg xmlns="http://www.w3.org/2000/svg" width="48" height="48" viewBox="0 0 48 48">
  <path fill="#F8CA50" fill-rule="evenodd" d="M23.4533121,15.4274515 C23.4533121,13.6683445 23.9838815,12.139764 25.0450362,10.8416644 C26.1253108,9.54356469 27.3728659,8.89452458 28.7877388,8.89452458 C30.2408516,8.89452458 31.4931865,9.54963048 32.5447813,10.8598619 C33.596376,12.1579616 34.1221655,13.7108052 34.1221655,15.5184393 C34.1221655,17.3382052 33.596376,18.8971146 32.5447813,20.1952143 C31.4931865,21.493314 30.2265119,22.1423541 28.7447193,22.1423541 C27.2916065,22.1423541 26.0440514,21.4811824 25.0020166,20.1588192 C23.9695418,18.8364559 23.4533121,17.2593492 23.4533121,15.4274515 Z M25.9484472,15.4820442 C25.9484472,16.5011131 26.2256816,17.362456 26.7801589,18.0660988 C27.3346361,18.7697417 28.0086026,19.1215578 28.8020787,19.1215578 C29.5764348,19.1215578 30.2408415,18.7697417 30.7953188,18.0660988 C31.349796,17.362456 31.6270305,16.5132447 31.6270305,15.5184393 C31.6270305,14.5357657 31.349796,13.6926202 30.7953188,12.9889774 C30.2408415,12.2853346 29.5716549,11.9335184 28.7877388,11.9335184 C28.0038227,11.9335184 27.3346361,12.2853346 26.7801589,12.9889774 C26.2256816,13.6926202 25.9484472,14.5236342 25.9484472,15.4820442 Z M41.3129883,8 L44.0336923,9.36761935 L29.4300503,38.0863422 L26.5791016,36.5205078 L41.3129883,8 Z M35.2909443,32.8060908 C35.2909443,31.0591156 35.8208015,29.536601 36.8805318,28.2385013 C37.9593564,26.9404016 39.2052369,26.2913615 40.6182107,26.2913615 C42.0789201,26.2913615 43.3343475,26.9464674 44.3845308,28.2566988 C45.434714,29.5547985 45.9597977,31.1076421 45.9597977,32.9152763 C45.9597977,34.7471739 45.4299405,36.3060833 44.3702101,37.5920512 C43.329574,38.8780191 42.0645996,39.5209934 40.5752489,39.5209934 C39.1240866,39.5209934 37.8782061,38.8658875 36.83757,37.5556561 C35.806481,36.2454246 35.2909443,34.6622521 35.2909443,32.8060908 Z M37.7970508,32.8788811 C37.7970508,31.9083393 38.0739131,31.0712595 38.6276461,30.3676167 C39.1813791,29.6639739 39.844894,29.3121578 40.6182107,29.3121578 C41.4106217,29.3121578 42.07891,29.6639739 42.6230959,30.3676167 C43.1768289,31.0712595 43.4536912,31.9204709 43.4536912,32.9152763 C43.4536912,33.9100816 43.1768289,34.759293 42.6230959,35.4629358 C42.07891,36.1665786 41.4153952,36.5183947 40.6325313,36.5183947 C39.8401203,36.5183947 39.1670585,36.1665786 38.6133255,35.4629358 C38.0691396,34.759293 37.7970508,33.89795 37.7970508,32.8788811 Z M16.1580021,9.40432396 L21.5328819,14.741914 L12.7126681,23.5621277 L21.5328819,32.3823415 L16.1580021,37.7203282 L2,23.5623261 L16.1580021,9.40432396 Z"/>
</svg>
