<svg xmlns="http://www.w3.org/2000/svg" width="48" height="48" viewBox="0 0 48 48">
  <path fill="#F44336" d="M8.04221473,7 C7.96471568,7.08447308 7.8844822,7.16525558 7.80811081,7.25122129 C3.9359283,11.6179052 2,17.547587 2,25.041415 C2,32.2885488 3.88329321,37.9367631 7.63684308,42 L39.2749306,42 C43.435058,40.1123958 46,36.3739291 46,36.3739291 L40.8720714,32.2404893 L38.5030036,34.5073202 C37.0908189,35.7741703 37.1259524,36.034577 34.7312025,37.426316 C32.2940187,38.5314371 29.7764972,39.0106045 27.1799415,39.0106045 C23.0801081,39.0106045 19.9718677,37.5207783 17.8535906,35.6339778 C15.7581275,33.7471938 14.6190586,28.2346285 14.4368727,24.6765897 L42.8858931,24.7868148 L42.5884641,22.372033 C42.5884641,22.372033 41.2082515,10.6798112 38.4472397,7.00006561 L8.04221473,7 Z M21.9364994,8 C24.4946627,8 27.1992401,8.8562769 28.4097718,10.3564551 C29.6203035,11.8565532 29.9314827,13.0261646 30,16 L14,16 C14.1827236,12.8682562 14.7127561,11.4991292 16.2431113,10.0779533 C17.7734175,8.65682542 19.5611251,8 21.936434,8 L21.9364994,8 Z"/>
</svg>
