<svg xmlns="http://www.w3.org/2000/svg" width="48" height="48" viewBox="0 0 48 48">
  <g fill="none" transform="translate(2 5)">
    <path fill="#7986CB" d="M12.3742085,13.2363621 L21.625696,8.09650332 C21.8572124,7.96783223 22.1425965,7.96783223 22.374113,8.09650332 L31.6257915,13.2363621 C31.8571169,13.3650332 32,13.6027071 32,13.8600493 L32,24.1397669 C32,24.3969253 31.8571169,24.634783 31.6257915,24.7636379 L22.374113,29.9034967 C22.1425965,30.0321678 21.8572124,30.0321678 21.625696,29.9034967 L12.3742085,24.7636379 C12.142692,24.6349668 12,24.3971091 12,24.1397669 L12,13.8600493 C12.000191,13.6027071 12.1428831,13.3650332 12.3742085,13.2363621"/>
    <path fill="#3F51B5" d="M43.7277031,18.1509375 L33.7430684,1.07299107 C33.3803798,0.455491071 32.7103894,0 31.9851847,0 L12.01488,0 C11.2895028,0 10.6193398,0.455491071 10.2566512,1.07299107 L0.272016462,18.1136161 C-0.0906721541,18.7312857 -0.0906721541,19.5107946 0.272016462,20.1284643 L10.2566512,37.0667946 C10.6193398,37.6842946 11.2895028,38 12.01488,38 L31.9851847,38 C32.7103894,38 33.3805524,37.6937946 33.7430684,37.076125 L43.7277031,20.1101429 C44.0907369,19.4928125 44.0907369,18.7687768 43.7278757,18.1512768 L43.7277031,18.1509375 Z M35.4600591,26.3636875 C35.4600591,26.6147589 35.3063219,26.847 35.0849473,26.9727054 L22.3666895,34.1871071 C22.1454874,34.3126429 21.8683809,34.3126429 21.6471788,34.1871071 L8.91908592,26.9727054 C8.69788383,26.847 8.54311138,26.6149286 8.54311138,26.3636875 L8.54311138,11.9347143 C8.54311138,11.6834732 8.69564075,11.4514018 8.91701539,11.3256964 L21.6347556,4.11129464 C21.8559577,3.98558929 22.1327191,3.98558929 22.3539212,4.11129464 L35.0828768,11.3256964 C35.3042514,11.4514018 35.4600591,11.6834732 35.4600591,11.9347143 L35.4600591,26.3636875 Z"/>
  </g>
</svg>
