<svg xmlns="http://www.w3.org/2000/svg" width="48" height="48" viewBox="0 0 48 48">
  <g fill="none" transform="translate(2 2)">
    <path fill="#0A7BFF" d="M37.1047162,10.8997914 C35.2399626,10.8997914 33.5494689,11.6213815 32.308391,12.7916971 L24.4384724,7.30744315 C24.4876136,7.10716163 24.5163665,6.89924873 24.5163665,6.6842132 C24.5163665,5.20185867 23.2815619,4 21.7581832,4 C20.2349788,4 19,5.20185867 19,6.6842132 C19,8.16673733 20.2349788,9.36842641 21.7581832,9.36842641 C22.2915923,9.36842641 22.7878841,9.21851205 23.2099412,8.96345414 L32.8437169,15.7862533 C33.5947764,14.2616718 35.2512895,13.0745671 37.1047162,13.0745671 C39.6787069,13.0745671 41.7654673,15.1051944 41.7654673,17.6101548 C41.7654673,19.6119524 40.432903,21.3108688 38.5840071,21.9125613 L39.2163958,24 C41.9916564,23.1320569 44,20.5994539 44,17.6101548 C44,13.9041837 40.9129886,10.8997914 37.1047162,10.8997914"/>
    <path fill="#EB3D00" d="M15.5324242,4.60613939 C14.9680071,6.30806627 15.1627843,8.06621095 15.9329839,9.54778414 L8.18032795,15.0969492 C7.99900174,14.9925447 7.80404987,14.9043698 7.59355076,14.8402882 C6.14189301,14.3985769 4.59118712,15.1677234 4.13018534,16.55811 C3.66900887,17.9484966 4.47204987,19.4337507 5.92353294,19.8752946 C7.37519069,20.3170059 8.92589658,19.5480267 9.38707305,18.1576402 C9.54848481,17.6707539 9.55197857,17.1731594 9.42987162,16.7120397 L19.0275829,9.95134761 C17.7619679,8.8115987 17.1009483,6.94587056 17.6618716,5.25414989 C18.4411551,2.90471446 21.0614759,1.60501253 23.5144456,2.35140417 C25.4746203,2.94771438 26.73482,4.67022099 26.7645169,6.53712033 L29,6.5817934 C28.9902175,3.79014476 27.1180856,1.20228563 24.1908378,0.311668565 C20.5618681,-0.792442277 16.6851907,1.13017292 15.5324242,4.60613939"/>
    <path fill="#00BCD4" d="M2.76051055,23.095105 C4.22188216,24.168704 5.96738107,24.5617133 7.62224439,24.3353058 L10.5938697,33.2760974 C10.4387369,33.4088662 10.2951457,33.5595767 10.1697155,33.73233 C9.305792,34.9243444 9.57328581,36.6016399 10.7671636,37.4785634 C11.9610414,38.3556577 13.6291436,38.1002016 14.4930672,36.9081872 C15.3571604,35.7161728 15.0896666,34.0390481 13.8957888,33.1619538 C13.4777449,32.8548939 13.0014837,32.6896591 12.5221674,32.651896 L8.94783234,21.6190986 C7.47067588,22.4126357 5.48059666,22.4134901 4.02788126,21.3463843 C2.01064531,19.8643973 1.55865546,17.0302874 3.0184995,15.0160291 C4.18522057,13.4063995 6.21959921,12.8074874 8.01924185,13.3879451 L8.74025307,11.3454927 C6.0593745,10.4455013 3.00916437,11.3258422 1.26706006,13.7293506 C-0.892748736,16.7093867 -0.224183956,20.9026255 2.76051055,23.095105"/>
    <path fill="#86C351" d="M37.8670605,33.2074932 C37.3106827,31.4801407 36.1178838,30.1369486 34.6313652,29.3489403 L37.5149724,20.3629409 C37.7206274,20.3465063 37.9276477,20.3088435 38.13262,20.24242 C39.5467753,19.7841323 40.3246803,18.2685474 39.8703619,16.8575623 C39.415873,15.4462348 37.9010235,14.6738052 36.4868681,15.1320929 C35.0727128,15.5902094 34.2946372,17.1057943 34.7491262,18.5169506 C34.9083595,19.0110179 35.1993485,19.4244527 35.5685034,19.7365402 L31.9342983,30.7707107 C33.6128184,30.9951467 35.2394555,32.1626932 35.7924199,33.879774 C36.5604261,36.2643422 35.2457702,38.8252408 32.856247,39.5995535 C30.9466424,40.2184216 28.9283222,39.5091628 27.8027665,37.982279 L26,39.2135099 C27.655992,41.5160759 30.6713548,42.5939165 33.5228764,41.6698086 C37.0582647,40.524175 39.0031977,36.7354695 37.8670605,33.2074932"/>
    <path fill="#9032E9" d="M16.7113748,40.6628206 C18.1810817,39.5565104 19.0861226,37.9524399 19.3708526,36.2409265 L28.8239582,36.1417619 C28.9040867,36.3376251 29.0045897,36.5280282 29.1319735,36.7071585 C30.010476,37.9424002 31.6959135,38.2110076 32.8966421,37.3074299 C34.0973708,36.4036761 34.3584732,34.6697934 33.4801418,33.4345517 C32.6016392,32.19931 30.9162018,31.9305265 29.7154731,32.8342802 C29.2951411,33.1507966 28.9926047,33.5698241 28.8111171,34.0328857 L17.1743394,34.0633572 C17.4857789,35.779274 16.8836168,37.7511165 15.4226418,38.8507335 C13.3937477,40.3778326 10.5455913,39.923754 9.06115995,37.8365424 C7.87498456,36.1685346 7.9186443,33.9624313 9.01921235,32.3641733 L7.28378023,31 C5.61067025,33.3695575 5.5284872,36.6714028 7.29970319,39.1621419 C9.49587405,42.2503343 13.7096388,42.922117 16.7113748,40.6628206"/>
  </g>
</svg>
