<svg xmlns="http://www.w3.org/2000/svg" width="48" height="48" viewBox="0 0 48 48">
  <path fill="#D92F3C" d="M46,2 L46,46 L2,46 L2,2 L46,2 Z M35.7900031,11.0000765 C35.7796223,11.0009381 35.7703697,11.0029337 35.7601243,11.0037886 C34.797434,11.0854321 33.8859034,11.2122956 33.0942718,11.4355609 C31.8437156,11.8090197 30.717504,12.345518 29.7227459,13.0509502 C28.7564224,13.7771251 27.8789004,14.6727063 27.0830713,15.7308545 C26.3156994,16.8097455 25.5430919,18.0532733 24.7758102,19.4640926 C24.5025451,19.9785659 24.249297,20.4203496 23.9842915,20.8970945 L23.9842915,20.9009191 C23.9840658,20.9013308 23.97707,20.9005074 23.9768443,20.9009191 L20.9526262,26.2868249 L20.9413427,26.2830003 C20.4046517,27.2785154 19.8998932,28.188585 19.4404269,28.977753 C18.9572651,29.8076639 18.4206419,30.5109588 17.823787,31.0918897 C17.2269321,31.6728206 16.5451572,32.1168991 15.7777853,32.4281073 C15.6154262,32.489548 15.4135522,32.5224844 15.2326768,32.5695492 C15.231516,32.5698506 15.2301042,32.5692477 15.2289532,32.5695492 L13,32.5695492 L13,38 L15.2326768,38 L15.2326768,37.9961754 C16.199542,37.9145544 17.1112531,37.7885458 17.9059764,37.5644031 C19.1565327,37.1909443 20.2827442,36.654446 21.2775023,35.9490138 C22.2438259,35.2228389 23.1250714,34.3272577 23.9207876,33.2691095 C24.6881821,32.1902185 25.4570209,30.9466907 26.224438,29.5358714 C26.4971389,29.0225005 26.7552841,28.5784445 27.0197029,28.1028695 L27.0345972,28.1066941 L27.0420443,28.0954453 L27.1241886,27.9465567 L32.8327642,27.9465567 L32.8327642,27.9503813 L35.3715638,27.9503813 L35.3715638,22.5347788 L34.6248408,22.5347788 L34.6248408,22.5309543 L30.1594872,22.5309543 C30.6553994,21.6150128 31.1316556,20.7573174 31.5595731,20.022256 C32.0427349,19.1923451 32.5793581,18.4890502 33.176213,17.9081193 C33.7730679,17.3271884 34.4548428,16.8831099 35.2222147,16.5719017 C35.3812225,16.5117119 35.5817313,16.4794122 35.7598535,16.4341854 L38,16.4341854 L38,16.4267387 L37.9961636,16.4267387 L37.9961636,11.0037121 L35.7896195,11.0037121 L35.7896195,11 L35.7900031,11.0000765 Z"/>
</svg>
