<svg xmlns="http://www.w3.org/2000/svg" width="48" height="48" viewBox="0 0 48 48">
  <polygon fill="#FBC02D" fill-opacity=".976" points="3.059 2 17.627 16.667 6.009 16.667 17.509 28.245 3 28.245 20.578 45.942 20.578 31.335 20.58 31.333 20.58 16.667 20.578 16.667 20.578 8.352 29.359 8.352 33.195 12.213 24.654 12.213 24.654 26.702 28.801 26.702 33.404 31.335 30.431 31.335 30.429 31.333 30.429 31.335 24.474 31.335 24.472 31.333 24.472 31.335 24.413 31.335 24.472 31.395 24.472 46 45 46 37.627 38.579 37.627 35.586 39.22 37.189 39.22 22.542 36.27 22.542 36.273 15.311 41.932 21.007 41.932 6.342 29.731 6.342 25.417 2 17.157 2"/>
</svg>
