<svg xmlns="http://www.w3.org/2000/svg" width="48" height="48" viewBox="0 0 48 48">
  <g fill="none" transform="translate(3 2)">
    <path fill="#FBC02D" d="M14.9825868,43.9045262 C15.2456124,43.8306384 15.7298186,43.7617099 16.0586005,43.7513487 L16.6563859,43.732513 L16.6563859,42.9532443 C16.6563859,41.4654424 15.678696,39.1298969 14.5266758,37.8654778 C14.3390828,37.6595918 13.6842767,37.2381559 13.0715865,36.9289289 C11.9853706,36.3807327 11.9237429,36.3691106 10.6007403,36.4630584 C9.85448095,36.5160456 8.81344169,36.6768092 8.28739056,36.8203181 C5.03368458,37.7078951 0.0071862722,35.2642165 1.28476189e-05,32.791435 C-0.00261581397,31.876156 0.397579979,31.5120186 1.70680967,31.2384379 C3.28317769,30.9090394 4.36623727,30.3966169 4.4849973,29.9240439 C4.66632554,29.2024557 4.43824252,26.9484719 4.12524209,26.3689597 C3.90460349,25.9604036 3.8289956,25.4789787 3.8267798,24.4685101 C3.82395029,23.1772488 3.85127466,23.0714878 4.42327397,22.1600139 C4.7529805,21.634632 5.36071303,20.7866656 5.77382259,20.2756441 C6.47418794,19.4092416 6.52889726,19.2748394 6.58389351,18.2855612 C6.64756483,17.1401013 6.21683735,15.1112993 5.63194819,13.8016655 C4.97188154,12.3237822 5.06848366,8.31970343 5.8372516,5.29127481 C6.62204019,2.19964116 8.1823238,-0.280957432 9.14914202,0.0256745481 C9.46950716,0.127227685 9.48992751,0.181435952 10.5933915,3.86175843 C10.9197345,4.9501746 10.9631895,5.00791884 11.9365435,5.64710164 C13.5451441,6.70335807 15.0206379,8.41602345 16.5112755,10.9572798 L16.9243053,11.661403 L18.493739,11.8593764 C21.155239,12.1950954 24.2731281,13.4007036 25.9757803,14.7524794 C26.3233088,15.0283845 26.7178472,15.2199738 26.8525322,15.1782457 C26.9872124,15.1365129 27.9175466,14.7308432 28.9199131,14.276754 C31.0856497,13.2956591 33.2673273,12.5638498 36.2361686,11.822743 C39.3727086,11.0397647 41.1227054,10.7217813 41.6155994,10.8453416 C42.0434065,10.9525768 42.0456223,10.9604957 41.9468044,12.0225154 C41.8344861,13.2294928 41.1712137,15.3198441 40.4456935,16.7534998 C39.3331591,18.9518251 36.5991439,21.977388 34.0017265,23.8850019 C32.8314381,24.744447 32.7716914,24.819099 32.6755676,25.5423429 C31.8705021,31.599041 30.2340526,34.9414251 25.9841971,39.2095958 C23.9925356,41.2098679 23.8356767,41.3294321 22.075956,42.1904216 C19.6773222,43.3641088 18.4356821,43.6899412 15.301055,43.9682821 C14.6801871,44.0234249 14.6097122,44.0093781 14.9822361,43.9047332 L14.9825868,43.9045262 Z M2.61512463,35.2495759 C2.57859277,35.2247986 2.40523023,35.0994233 2.22987985,34.9709643 C1.93497239,34.7549209 1.92746421,34.7582961 2.12984086,35.016015 C2.25016948,35.1692514 2.42352087,35.2946266 2.51508564,35.2946266 C2.60665042,35.2946266 2.6516549,35.2743532 2.61512463,35.2495759 Z"/>
    <path fill="#FF9800" d="M14.9826226,43.9045421 C15.2456481,43.8306543 15.729854,43.7617258 16.0586359,43.7513647 L16.656421,43.7325289 L16.6545241,42.9762974 C16.6523242,42.095232 16.3690219,40.9456168 15.8846087,39.8518672 C15.6339852,39.2860309 15.6069016,39.1315208 15.7840309,39.2783571 C16.2371839,39.6539574 16.2105944,39.2995523 15.7338456,38.6092912 C15.1789576,37.8059027 14.3704173,37.1283193 13.1372263,36.4332549 C12.6513625,36.1594036 12.0971439,35.7553531 11.9056136,35.5353454 C11.6951454,35.2935902 11.3878519,35.1353547 11.1288276,35.1353547 C10.713072,35.1353547 10.7201817,35.1506385 11.3668896,35.6470448 C11.7335312,35.9284744 12.0335077,36.2044432 12.0335077,36.2603088 C12.0335077,36.3161744 11.4058333,36.4063379 10.6386757,36.4606862 C9.87151807,36.5150251 8.81343835,36.6768889 8.28738741,36.8203977 C5.03368267,37.7079747 0.00718626947,35.2642961 1.2847614e-05,32.7915146 C-0.00261581297,31.8762356 0.397579828,31.5120982 1.70680902,31.2385175 C3.2885326,30.9080046 4.36623562,30.3969672 4.48595206,29.9207005 C4.67666943,29.1617625 4.41984658,26.812987 4.0572046,25.9997595 C3.7843914,25.3879443 3.72340137,24.9981428 3.77069813,24.1688832 C3.83724677,23.0021055 4.30529341,22.0925103 5.77383634,20.2756441 C6.47420142,19.4092416 6.52891072,19.2748394 6.58390695,18.2855612 C6.64757825,17.1401013 6.21685093,15.1112993 5.63196199,13.8016655 C4.97189559,12.3237822 5.06849768,8.31970343 5.83726533,5.29127481 C6.62205362,2.19964116 8.18233663,-0.280957432 9.14915449,0.0256745481 C9.46951951,0.127227685 9.48993985,0.181435952 10.5934034,3.86175843 C10.9197463,4.9501746 10.9632013,5.00791884 11.9365549,5.64710164 C13.5451549,6.70335807 15.0206481,8.41602345 16.5112852,10.9572798 L16.9243149,11.661403 L18.493748,11.8593764 C21.1552469,12.1950954 24.2731348,13.4007036 25.9757864,14.7524794 C26.3233148,15.0283845 26.717853,15.2199738 26.8525379,15.1782457 C26.9872181,15.1365129 27.917552,14.7308432 28.9199181,14.276754 C31.0856539,13.2956591 33.2673306,12.5638498 36.2361708,11.822743 C39.3727096,11.0397647 41.1227057,10.7217813 41.6155995,10.8453416 C42.0434065,10.9525768 42.0456222,10.9604957 41.9468044,12.0225154 C41.8344861,13.2294928 41.171214,15.3198441 40.4456941,16.7534998 C39.3331602,18.9518251 36.5991459,21.977388 34.0017296,23.8850019 C32.8314416,24.744447 32.7716949,24.819099 32.6755711,25.5423429 C31.8705059,31.599041 30.2340571,34.9414251 25.9842032,39.2095958 C23.9925425,41.2098679 23.8356836,41.3294321 22.0759636,42.1904216 C19.6773307,43.3641088 18.4356911,43.6899412 15.3010651,43.9682821 C14.6801975,44.0234249 14.6097226,44.0093781 14.9822464,43.9047332 L14.9826226,43.9045421 Z M19.3649457,41.176218 C21.7053941,40.2747901 23.9179963,38.5122134 25.329088,36.4251736 C26.9933219,33.963839 28.195428,30.196214 28.6271086,26.0894788 L28.8332727,24.1282123 L29.920094,23.1659037 C31.0938093,22.1266505 32.419633,20.2616563 33.3228465,18.3793562 C34.0164367,16.9339351 34.0337485,16.4403786 33.4023232,16.1143234 C32.406732,15.6001337 29.1825977,15.9517416 26.2854917,16.890408 C24.2892081,17.5372327 24.015024,17.5662083 23.2630899,17.209872 L22.7279527,16.9562558 L21.5652048,17.7261951 C20.9256862,18.1496688 19.6181787,19.2667899 18.6594907,20.2087041 C16.9385071,21.899797 16.4969431,22.1916228 16.4969431,21.6382842 C16.4969431,21.2445662 18.7018936,18.8200083 20.2864228,17.4713689 C21.3233967,16.588791 21.7149858,16.3485164 22.1196306,16.3466059 C22.4928398,16.3448387 22.5708866,16.3041757 22.4037778,16.1985835 C22.2770569,16.1185121 21.8433263,16.0920376 21.4399409,16.1397519 C20.8217035,16.2128803 20.5324074,16.1402295 19.5979655,15.6774954 C18.9882885,15.3755441 17.7362235,14.8125576 16.8156343,14.4264019 C15.2994758,13.790451 15.0202065,13.6042748 13.8510982,12.4495331 C13.1411526,11.7484189 12.1092319,10.4941572 11.5578349,9.66230254 C10.3856659,7.89367603 10.0376593,7.48435577 9.44438544,7.17613172 C8.41236914,6.63990785 7.70060629,7.48911605 7.1669037,9.89347058 C6.83939714,11.3690136 6.91524412,14.4155759 7.33350244,16.5844479 C7.71935283,18.5853568 7.50556892,19.4487344 6.20922,21.1251803 C4.78067289,22.9726141 4.55391306,24.1470815 5.24182827,26.1363684 C5.75622638,27.6240589 5.99175373,29.1745086 5.7865301,29.7223386 C5.42728514,30.6812084 3.89992016,31.7920249 2.94075395,31.7920249 C2.47370042,31.7920249 2.44974119,31.8203828 2.54621575,32.2590257 C2.66825159,32.8139404 2.1749832,34.3393788 1.87349225,34.3393788 C1.5703275,34.3393788 1.63023354,34.6067186 2.01324963,34.9631027 C2.55852534,35.4704624 3.7147853,35.9448981 4.59998555,36.0245174 C5.30172156,36.0876348 5.36126096,36.0726328 5.01932785,35.9188631 C4.80013996,35.8202935 4.40560176,35.6406017 4.14257629,35.5195569 L3.66434817,35.2994697 L4.30198567,35.4164531 C5.36228118,35.6109718 7.57976123,35.5252199 8.7968518,35.2426154 C9.42788975,35.0960943 10.339807,34.9762149 10.8232638,34.9762149 C12.4847877,34.9762149 14.656581,36.1020446 15.9297837,37.6233436 C16.5734468,38.3924072 17.6070891,40.5422381 17.6105961,41.1188845 C17.6145654,41.7967227 17.7425727,41.8009098 19.3645775,41.1761941 L19.3649457,41.176218 Z M18.4896607,34.5834712 C13.2447735,33.6637345 12.614947,33.5356528 12.3799776,33.3408794 C11.943164,32.9788116 12.7877309,32.9779042 17.2684255,33.3356096 C19.6930421,33.5291731 21.7197729,33.6371948 21.7722186,33.5756455 C21.8246244,33.514093 21.9442691,32.6877182 22.0380974,31.7391969 C22.1319274,30.7907393 22.2518654,29.9716849 22.304614,29.9189875 C22.5674163,29.6565194 22.7317992,30.3359815 22.8897102,32.3374955 C23.0846838,34.8087009 23.0459313,34.9362254 22.0653565,35.050695 C21.7645669,35.0858191 20.1554727,34.8755517 18.4896448,34.5834394 L18.4896607,34.5834712 Z M10.3398564,30.0086686 C10.2109006,29.800283 10.6575434,29.4375148 12.0920843,28.5854409 C13.587663,27.6971474 15.4130598,27.0598114 17.1067844,26.8346455 C19.1698605,26.5603006 19.7399084,26.9021698 18.0482721,27.3993673 C17.4012932,27.5895237 17.1250686,27.7765119 16.816213,28.2333713 C16.3072986,28.9861799 15.3408314,29.6856861 14.6241747,29.819961 C14.3162117,29.8776606 13.5843951,29.8344488 12.9978802,29.7239164 C12.0150736,29.5387113 11.8733109,29.5486776 11.1885838,29.8512132 C10.6891383,30.0718577 10.4109371,30.1234884 10.3399043,30.0087036 L10.3398564,30.0086686 Z M7.41740437,26.8977709 C6.78279565,25.9985718 6.63556516,25.1054226 6.98449634,24.2713391 C7.1525457,23.8696766 7.2016119,23.4152372 7.14063622,22.8252493 C7.04525681,21.9022966 7.23498904,21.5775628 7.66255846,21.9319567 C7.79342718,22.040429 8.1564884,22.5863597 8.46937712,23.1451272 C9.13843421,24.3400049 9.23208722,25.4542603 8.77816902,26.8189796 C8.42592213,27.8781335 8.1217531,27.8957259 7.41740278,26.8977295 L7.41740437,26.8977709 Z"/>
    <path fill="#263238" d="M15.0019101,43.904789 C15.2647432,43.8309087 15.7485951,43.7619872 16.0771365,43.7516271 C16.4378709,43.7402609 16.6750738,43.6539717 16.6759818,43.5338068 C16.6767782,43.4217479 17.4944759,43.0627463 18.547672,42.7120179 C20.9133293,41.924232 22.4254957,41.2293019 23.796688,40.2998047 C28.256249,37.2767778 31.1641389,31.6428681 31.1689176,26.0156443 C31.1702971,24.4097309 31.2180196,24.3334787 32.8359167,23.3563676 C34.1357936,22.5713357 37.5419036,19.1475309 37.5419036,18.6258637 C37.5419036,18.5434477 37.7658533,18.138136 38.0395661,17.7251641 C38.6529548,16.7997103 39.6350427,14.1416275 39.7296626,13.1509853 C39.7965528,12.4502766 39.7794878,12.4136469 39.3477741,12.3312181 C37.7590993,12.0278806 33.1570191,13.1897482 29.0993539,14.9185407 C26.1256761,16.1855217 26.2303314,16.1751265 24.7791741,15.3474794 C22.3875522,13.9835673 19.9266379,13.0255273 17.7594595,12.6146567 C17.0435977,12.4789468 16.4473807,12.3509418 16.4345417,12.3302152 C16.2475319,12.0282945 14.383647,9.56444002 13.9373086,9.02908249 C13.6087832,8.63508609 12.8033829,7.85034077 12.1474948,7.28515094 C10.8717826,6.18587711 10.3759997,5.43472098 9.83822727,3.78598533 C9.43147313,2.53895091 9.10979727,2.02231417 8.74590882,2.0318656 C8.59460935,2.03580875 8.17000167,2.38310344 7.80235391,2.80363689 C7.05214859,3.66175309 6.6314404,4.9555736 6.30374328,7.41236004 C6.04618277,9.34318119 6.21254338,13.5677778 6.64010593,15.9538836 C7.12110644,18.6383124 6.9046594,19.5815159 5.50759792,20.888788 L4.82713098,21.5255499 L5.49477485,20.706706 C6.45446612,19.5296835 6.63692008,19.1012702 6.63757318,18.0233915 C6.63817945,17.0242803 6.03066765,14.4710563 5.58945848,13.6184322 C5.23813823,12.9395007 5.10798009,9.84705085 5.35273347,7.99439222 C5.93059992,3.62047501 7.85347097,-0.388259284 9.17273385,0.0300932584 C9.49286457,0.13163608 9.51326998,0.185838842 10.6159265,3.86578751 C10.9420307,4.95409313 10.9854539,5.01183151 11.9580957,5.65094939 C13.5655193,6.70709853 15.0399333,8.41958995 16.5294802,10.9605882 L16.9422078,11.6646398 L18.5041533,11.8617972 C21.2051218,12.2027195 24.4394026,13.4877686 26.2650573,14.9454757 L26.6965018,15.2899639 L28.1412396,14.6191512 C28.9358398,14.2501954 30.2110901,13.7073241 30.9752176,13.412774 C33.892665,12.288157 40.7508568,10.6318758 41.604029,10.8458277 C42.0454134,10.9565383 42.0457798,10.9577769 41.9464607,12.0257634 C41.8342246,13.2326181 41.1714376,15.3227571 40.4464483,16.7562673 C39.334728,18.9543692 36.6027133,21.9796248 34.0071966,23.8870449 C32.8377645,24.7464028 32.7780615,24.8210472 32.682008,25.5442177 C31.8775316,31.6003005 30.2422796,34.9423452 25.9955339,39.2100823 C24.0053297,41.2101513 23.8485856,41.3297034 22.0901525,42.1906054 C19.6932739,43.3641734 18.4525424,43.6899726 15.320209,43.9682853 C14.6997954,44.0234225 14.6293721,44.0093772 15.0016234,43.9047429 L15.0019101,43.904789 Z M4.88681799,36.7910447 C3.6170633,36.4508229 1.7141835,35.4681242 1.06076447,34.8151727 C-0.0523416824,33.7027815 -0.326022624,32.3945225 0.414306545,31.7249674 C0.579349804,31.5756977 1.18557037,31.3550406 1.7614616,31.2346289 C3.1111494,30.952416 4.03648122,30.5351938 4.70455518,29.9077445 C4.99856188,29.631565 5.33905021,29.40561 5.46119593,29.40561 C6.23468985,29.40561 4.50448343,31.1890208 3.45315102,31.4754045 C3.05890137,31.5827864 2.64752774,31.6957241 2.53900156,31.7263842 C2.3942984,31.7672531 2.38339799,31.8918149 2.4981334,32.1933853 C2.6814794,32.6753026 2.37413989,33.5542887 1.81280803,34.1534975 L1.46199752,34.5279612 L1.93987589,34.9153512 C3.63777774,36.2917757 5.57509664,36.5556498 8.79376675,35.8487964 C10.7760062,35.4135219 10.8317587,35.4100197 11.3486638,35.6881732 C12.2960895,36.1980602 12.153188,36.355818 10.6475207,36.4621891 C9.88845866,36.5158156 8.87315827,36.6684362 8.39129759,36.8013603 C7.30324819,37.101482 6.03137491,37.0977729 4.88685622,36.7911084 L4.88681799,36.7910447 Z M20.8160969,34.7277771 C20.6846804,34.6984351 18.9805661,34.4173398 17.0292295,34.1031137 C13.2589284,33.4959613 12.9645553,33.429547 13.0966091,33.2158657 C13.1851281,33.0727312 13.2564435,33.0761872 18.4056785,33.4731175 C20.1902356,33.6106819 21.7396765,33.6889797 21.8487921,33.6471126 C21.9778941,33.5976044 22.0870941,33.0102393 22.1610697,31.967494 C22.2719056,30.4051351 22.4725986,29.8165125 22.643233,30.5532619 C22.6896876,30.7538419 22.7949865,31.6650003 22.8772341,32.5780054 C23.0662828,34.6766133 23.0003356,34.824342 21.8855091,34.7996675 C21.4286255,34.7895112 20.9473064,34.7571939 20.8158899,34.7278535 L20.8160969,34.7277771 Z M11.1557857,29.3455475 C12.6616601,27.972864 16.2161991,26.7306849 18.3166338,26.8430734 C18.721349,26.864736 18.5161321,27.1203513 17.9901473,27.2497254 C17.7483886,27.3091878 17.1159325,27.8122249 16.5846751,28.3675768 C15.3793385,29.6276012 14.7443655,29.8497355 13.2159512,29.5461275 C12.3866889,29.3813972 12.0989265,29.38162 11.6866608,29.5472418 C10.6337832,29.9702427 10.5184712,29.9264335 11.155722,29.3455475 L11.1557857,29.3455475 Z M7.54127303,26.585344 C6.90144168,25.5778276 6.83135286,25.0808349 7.2035086,24.1906419 C7.38010059,23.7682618 7.41927068,23.3615461 7.34249952,22.7474529 C7.2461911,21.9771144 7.2642119,21.8979012 7.5243641,21.9479666 C7.68318698,21.9785343 8.06554542,22.4332746 8.37403184,22.9584917 C9.07742101,24.1560338 9.21140218,25.4103433 8.76370979,26.6065004 C8.60258514,27.0369833 8.39293989,27.4151243 8.2978421,27.4468032 C8.20273475,27.4784853 7.8622719,27.0908374 7.54126507,26.585344 L7.54127303,26.585344 Z M16.6744844,21.5310468 C16.6744844,21.2215964 18.6474849,18.998804 19.7983753,18.0118231 C21.2091041,16.8018801 21.6437823,16.5111346 22.0416957,16.5111346 C22.6901288,16.5111346 22.440756,16.9382267 21.3337507,17.7235451 C20.7423762,18.1430757 19.5109633,19.2238993 18.5971006,20.1254109 C17.6833494,21.0268905 16.8768978,21.7644359 16.8050567,21.7644359 C16.7332157,21.7644359 16.6743825,21.6594355 16.6743825,21.5310945 L16.6744844,21.5310468 Z"/>
  </g>
</svg>
