<svg xmlns="http://www.w3.org/2000/svg" width="48" height="48" viewBox="0 0 48 48">
  <path fill="#5E3994" d="M24,2 C36.1,2 46,11.9 46,24 C46,36.1 36.1,46 24,46 C11.9,46 2,36.1 2,24 C2,11.9 11.9,2 24,2 Z M41,23.5 L29.8636364,23.5 L29.8636364,26.6818182 L37.5,26.6818182 C36.3863636,31.4545455 32.8863636,35.4318182 28.2727273,37.0227273 L9.97727273,18.7272727 C11.8863636,13.1590909 17.2954545,9.18181818 23.5,9.18181818 C28.2727273,9.18181818 32.5681818,11.5681818 35.2727273,15.2272727 L37.6590909,13.1590909 C34.4772727,8.86363636 29.3863636,6 23.5,6 C15.2272727,6 8.22727273,11.8863636 6.47727273,19.6818182 L27.4772727,40.6818182 C35.1136364,38.7727273 41,31.7727273 41,23.5 Z M6,23.6590909 C6,28.1136364 7.75,32.4090909 11.0909091,35.75 C14.4318182,39.0909091 18.8863636,40.8409091 23.1818182,40.8409091 L6,23.6590909 Z"/>
</svg>
