<svg xmlns="http://www.w3.org/2000/svg" width="48" height="48" viewBox="0 0 48 48">
  <path fill="#E64A19" d="M3.30447836,20.8956718 L16.0300225,8.14811108 L19.7508131,11.8909182 C19.2224168,13.7623217 20.0810608,15.8098574 21.7983488,16.8006005 L21.7983488,28.9977483 C20.477358,29.7463097 19.5966975,31.177383 19.5966975,32.806605 C19.5966975,35.2384818 21.5681232,37.2099074 24,37.2099074 C26.4318768,37.2099074 28.4033025,35.2384818 28.4033025,32.806605 C28.4033025,31.177383 27.522642,29.7463097 26.2016512,28.9977483 L26.2016512,18.2977233 L30.7590693,22.8991744 C30.6049537,23.2294221 30.6049537,23.6037028 30.6049537,24 C30.6049537,26.4318768 32.5763794,28.4033025 35.0082562,28.4033025 C37.440133,28.4033025 39.4115587,26.4318768 39.4115587,24 C39.4115587,21.5681232 37.440133,19.5966975 35.0082562,19.5966975 C34.611959,19.5966975 34.2376783,19.5966975 33.9074306,19.7508131 L28.2491869,14.0925694 C28.8216162,12.0450338 27.7648236,9.79934951 25.717288,8.94070553 C24.7705779,8.58844133 23.7798349,8.50037528 22.8991744,8.74255692 L19.1563673,5.02176632 L20.8956718,3.30447836 C22.6129597,1.56517388 25.3870403,1.56517388 27.1043282,3.30447836 L44.6955216,20.8956718 C46.4348261,22.6129597 46.4348261,25.3870403 44.6955216,27.1043282 L27.1043282,44.6955216 C25.3870403,46.4348261 22.6129597,46.4348261 20.8956718,44.6955216 L3.30447836,27.1043282 C1.56517388,25.3870403 1.56517388,22.6129597 3.30447836,20.8956718 Z"/>
</svg>
