<svg xmlns="http://www.w3.org/2000/svg" width="48" height="48" viewBox="0 0 48 48">
  <path fill="#00ACC1" d="M5.42984947,20.56 C5.34204459,20.56 5.32009337,20.52 5.36399581,20.46 L5.82497142,19.92 C5.86887386,19.86 5.97862995,19.82 6.06643483,19.82 L13.9030202,19.82 C13.9908251,19.82 14.0127763,19.88 13.9688739,19.94 L13.5957031,20.46 C13.5518007,20.52 13.4420446,20.58 13.3761909,20.58 L5.42984947,20.56 Z M2.47406461,22.4290576 C2.3877901,22.4290576 2.36622147,22.3890576 2.40935872,22.3290576 L2.8622999,21.7890576 C2.90543716,21.7290576 3.01328029,21.6890576 3.0995548,21.6890576 L12.9348489,21.6890576 C13.0211234,21.6890576 13.0642607,21.7490576 13.0426921,21.8090576 L12.870143,22.2890576 C12.8485744,22.3690576 12.7622999,22.4090576 12.6760254,22.4090576 L2.47406461,22.4290576 Z M7.66552734,24.1975146 C7.58219401,24.1975146 7.56136068,24.1375146 7.60302734,24.0775146 L7.89469401,23.5775146 C7.93636068,23.5175146 8.01969401,23.4575146 8.10302734,23.4575146 L12.269694,23.4575146 C12.3530273,23.4575146 12.394694,23.5175146 12.394694,23.5975146 L12.3530273,24.0775146 C12.3530273,24.1575146 12.269694,24.2175146 12.207194,24.2175146 L7.66552734,24.1975146 Z M26.0631579,20.8534615 C25.7473684,20.9411538 25.7263158,20.9630769 25.4526316,20.6342308 C25.1368421,20.2615385 24.9052632,20.0203846 24.4631579,19.8011538 C23.1368421,19.1215385 21.8526316,19.3188462 20.6526316,20.13 C19.2210526,21.0946154 18.4842105,22.5196154 18.5052632,24.2953846 C18.5263158,26.0492308 19.6842105,27.4961538 21.3473684,27.7373077 C22.7789474,27.9346154 23.9789474,27.4084615 24.9263158,26.2903846 C25.1157895,26.0492308 25.2842105,25.7861538 25.4947368,25.4792308 L21.4315789,25.4792308 C20.9894737,25.4792308 20.8842105,25.1942308 21.0315789,24.8215385 C21.3052632,24.1419231 21.8105263,23.0019231 22.1052632,22.4319231 C22.1684211,22.3003846 22.3157895,22.0811538 22.6315789,22.0811538 L30.2947368,22.0811538 C30.2526316,22.6730769 30.2526316,23.265 30.1684211,23.8569231 C29.9368421,25.4353846 29.3684211,26.8823077 28.4421053,28.1538462 C26.9263158,30.2365385 24.9473684,31.53 22.4421053,31.8807692 C20.3789474,32.1657692 18.4631579,31.7492308 16.7789474,30.4338462 C15.2210526,29.2061538 14.3368421,27.5838462 14.1052632,25.5669231 C13.8315789,23.1773077 14.5052632,21.0288462 15.8947368,19.1434615 C17.3894737,17.1046154 19.3684211,15.8111538 21.7894737,15.3507692 C23.7684211,14.9780769 25.6631579,15.2192308 27.3684211,16.425 C28.4842105,17.1923077 29.2842105,18.2446154 29.8105263,19.5161538 C29.9368421,19.7134615 29.8526316,19.8230769 29.6,19.8888462 C28.2736842,20.2396154 27.3684211,20.5026923 26.0631579,20.8534615 Z M36.5684211,32.0123077 C34.6526316,31.9684615 32.9052632,31.3984615 31.4315789,30.0830769 C30.1894737,28.965 29.4105263,27.54 29.1578947,25.8519231 C28.7789474,23.3746154 29.4315789,21.1823077 30.8631579,19.2311538 C32.4,17.1265385 34.2526316,16.0303846 36.7578947,15.57 C38.9052632,15.1753846 40.9263158,15.3946154 42.7578947,16.6880769 C44.4210526,17.8719231 45.4526316,19.4723077 45.7263158,21.5769231 C46.0842105,24.5365385 45.2631579,26.9480769 43.3052632,29.0088462 C41.9157895,30.4776923 40.2105263,31.3984615 38.2526316,31.815 C37.6842105,31.9246154 37.1157895,31.9465385 36.5684211,32.0123077 Z M41.5789474,23.1553846 C41.5578947,22.8703846 41.5578947,22.6511538 41.5157895,22.4319231 C41.1368421,20.2615385 39.2210526,19.0338462 37.2210526,19.5161538 C35.2631579,19.9765385 34,21.27 33.5368421,23.3307692 C33.1578947,25.0407692 33.9578947,26.7726923 35.4736842,27.4742308 C36.6315789,28.0003846 37.7894737,27.9346154 38.9052632,27.3426923 C40.5684211,26.4438462 41.4736842,25.0407692 41.5789474,23.1553846 Z"/>
</svg>
