<svg xmlns="http://www.w3.org/2000/svg" width="48" height="48" viewBox="0 0 48 48">
  <path fill="#6DC2F2" d="M19.5248147,4 C17.51484,4.42972698 15.5265336,5.02801243 13.6625467,5.93035609 C13.7051776,7.51334475 13.8115974,9.03012477 14.0273217,10.5708895 C13.3034046,11.016936 12.542552,11.3997743 11.8663809,11.9219198 C11.1793519,12.4302035 10.4776246,12.9165088 9.85555279,13.5110187 C8.61273682,12.7204819 7.29733001,11.9775497 5.94223767,11.3217557 C4.48155433,12.8335656 3.11574643,14.4652987 2,16.2910525 C2.83941759,17.5969406 3.71567587,18.8210255 4.66186981,19.9826407 L4.68835527,19.9826407 L4.68835527,31.1893213 C4.70967071,31.1895037 4.73094964,31.1902744 4.75207021,31.1921712 L11.8959388,31.8545769 C12.2701443,31.8893119 12.5633857,32.1789856 12.5894634,32.5395994 L12.8097726,35.5723386 L19.0413957,36 L19.4707153,33.2008606 C19.5263746,32.8379487 19.8500416,32.5690057 20.2317575,32.5690057 L27.7686882,32.5690057 C28.1501955,32.5690057 28.4738767,32.8379669 28.5295408,33.2008606 L28.9588604,36 L35.1904834,35.5723386 L35.4106077,32.5395994 C35.436857,32.1789674 35.7299221,31.8894596 36.1041324,31.8545769 L43.2451561,31.1921712 C43.2662743,31.1902744 43.2873678,31.1895129 43.3086814,31.1893213 L43.3086814,30.2950942 L43.3116447,30.294205 L43.3116447,19.9830739 L43.3381302,19.9830739 C44.2845138,18.8214586 45.1602031,17.5973738 46,16.2914856 C44.8846803,14.4655495 43.5181138,12.8338163 42.0574304,11.3221889 C40.7027174,11.9779829 39.3868364,12.7208695 38.1440205,13.5114519 C37.5221384,12.9169875 36.8216438,12.4306823 36.1336666,11.922353 C35.457685,11.4002075 34.6959316,11.0173647 33.9733895,10.5713226 C34.1885164,9.03064915 34.2948707,7.51391473 34.3376998,5.93078927 C32.473381,5.02844561 30.4853591,4.43015104 28.4744836,4.00043318 C27.6715748,5.29815923 26.9373689,6.70345153 26.2978962,8.07728105 C25.539604,7.9554243 24.7778031,7.91030027 24.0150065,7.90156821 L24.0150065,7.90041001 C24.0096777,7.90041001 24.0047291,7.90156821 24.0001897,7.90156821 C23.995453,7.90156821 23.9904802,7.90041001 23.9857436,7.90041001 L23.9857436,7.90156821 C23.2215246,7.91029936 22.4603875,7.9554243 21.7019056,8.07728105 C21.0628122,6.70345153 20.3289856,5.29815923 19.5249389,4.00043318 L19.5248147,4 Z M13.8730649,20.3934809 C16.2509248,20.3934809 18.1782094,22.2455448 18.1782094,24.5316128 C18.1782094,26.8191856 16.2509248,28.6723438 13.8730649,28.6723438 C11.4963904,28.6723438 9.56848943,26.8191856 9.56848943,24.5316128 C9.56848943,22.2455904 11.4963904,20.3934809 13.8730649,20.3934809 Z M34.1273807,20.3934809 C36.5038656,20.3934809 38.431577,22.2455448 38.431577,24.5316128 C38.431577,26.8191856 36.5038656,28.6723438 34.1273807,28.6723438 C31.7491415,28.6723438 29.821857,26.8191856 29.821857,24.5316128 C29.821857,22.2455904 31.7490941,20.3934809 34.1273807,20.3934809 Z M23.9997487,22.8151581 C24.765153,22.8151581 25.3867981,23.358142 25.3867981,24.0262931 L25.3867981,27.8378504 C25.3867981,28.5065486 24.765153,29.0490309 23.9997487,29.0490309 C23.2343444,29.0490309 22.6139795,28.506503 22.6139795,27.8378504 L22.6139795,24.0262931 C22.6139795,23.3581876 23.2343444,22.8151581 23.9997487,22.8151581 Z M36.685997,34.583245 L43,34 C42.9968949,34.6505655 42.9877731,35.3598779 42.9877731,35.5043071 C42.9877731,41.8935934 34.5280013,44.9646831 24.0140133,45 L23.9882013,45 C13.4742133,44.9647233 5.01164413,41.8938613 5.01164413,35.5043071 C5.01164413,35.3624857 5.00290928,34.6502083 5,34 L11.3165052,34.5832718 L11.5340629,37.569023 C11.5602651,37.9288815 11.8591289,38.2153196 12.2348556,38.2411565 L19.7174059,38.7524905 C20.1117633,38.780176 20.4618705,38.5104742 20.5195107,38.1353709 L20.948607,35.3483303 L27.0539093,35.3483303 L27.4830055,38.1353709 C27.5379276,38.4929788 27.8587136,38.7543213 28.2305612,38.7543213 C28.2486104,38.7543213 28.2668531,38.7537631 28.2850963,38.7524637 L35.7676467,38.2411297 C36.1433641,38.2152749 36.4422395,37.9288547 36.4684394,37.5689963 L36.685997,34.583245 Z"/>
</svg>
