<svg xmlns="http://www.w3.org/2000/svg" width="48" height="48" viewBox="0 0 48 48">
  <path fill="#0097A7" d="M44.678584,10.6801404 C43.1209375,7.87817831 40.3359473,7.04129496 38.3689521,7.00126085 C35.955406,6.953205 33.9722267,8.28961401 34.347653,9.16757492 C34.4277426,9.35577146 34.8802132,10.338807 35.1585142,10.7452384 C35.5609422,11.331866 36.2796824,10.8813864 36.532962,10.7472416 C37.2857524,10.3468153 38.0896076,10.2166832 39.0025132,10.3237957 C39.8744264,10.4248967 41.0346491,10.9624676 41.8115026,12.4560382 C43.6414236,15.9726518 37.9925036,23.2094568 30.9220105,18.1981653 C23.8525822,13.1868737 16.9773619,14.8476506 13.8640706,15.8576602 C10.7507794,16.8667329 9.31934688,17.8827902 10.5506088,20.2311743 C12.2223738,23.4226172 11.6677949,22.443485 13.2884738,25.0863754 C15.863221,29.2808006 21.4980226,23.1543461 21.4980226,23.1543461 C17.3006161,29.3428109 13.7018047,27.8472812 12.3212666,25.6839484 C11.076951,23.7348833 10.1108724,21.4865419 10.1108724,21.4865419 C-0.522230942,25.2365459 2.35468866,41.7908651 2.35468866,41.7908651 L7.63514576,41.7908651 C8.98156968,35.6954583 13.7946498,35.9207566 14.6196081,41.7908651 L18.6487862,41.7908651 C22.2124612,29.8883822 31.2431352,41.7908651 31.2431352,41.7908651 L36.4956962,41.7908651 C35.0241444,33.6722449 39.4497028,31.1207089 42.2386751,26.3615471 C45.0276474,21.6015335 47.6703249,15.7793382 44.6782007,10.6800993 L44.678584,10.6801404 Z M31.1312952,26.3566904 C28.3544609,25.4497474 29.3484143,22.6867546 29.3484143,22.6867546 C29.3484143,22.6867546 31.7730336,23.4705715 35.0534885,24.5407174 C34.8643061,25.3976178 33.2325752,27.0413589 31.131423,26.3556257 L31.1312952,26.3566904 Z"/>
</svg>
