<svg xmlns="http://www.w3.org/2000/svg" width="48" height="48" viewBox="0 0 48 48">
  <path fill="#27AE60" d="M41.3742358,16.8665443 C39.1866696,15.6345445 36.4372176,17.2420066 35.9964876,17.5183949 L26.5513063,22.8752489 C25.1567986,21.7676517 23.1700712,21.814701 21.8295424,22.9870744 C20.4890286,24.1594434 20.1777067,26.1222403 21.089621,27.6518681 C22.0015353,29.181496 23.8762013,29.8410878 25.5450228,29.2193759 C27.2138444,28.597679 28.2000755,26.8723231 27.8889189,25.118873 L37.3080954,19.7737436 L37.3654579,19.7385438 C37.9847047,19.3474335 39.4213463,18.7620683 40.0928132,19.1414539 C40.5764738,19.4139188 40.8528621,20.3265096 40.8750188,21.6706911 L40.8632791,21.6706911 L40.8632791,33.486074 C40.8613249,34.5882298 40.2734043,35.6061478 39.3196717,36.1587139 L25.7795492,43.9809204 C24.8242834,44.5302846 23.6489532,44.5302846 22.6936874,43.9809204 L9.1535649,36.1587139 C8.19987741,35.606238 7.61191168,34.5883501 7.60995756,33.486074 L7.60995756,17.8485756 C7.61191274,16.7464198 8.19983232,15.7285018 9.1535649,15.1759358 L21.4081747,8.10336116 C22.5741101,9.44094374 24.5280082,9.75700069 26.0561329,8.85517264 C27.5842575,7.95334459 28.2521169,6.09008773 27.6448354,4.42276933 C27.0375388,2.75545094 25.3276957,1.75839695 23.5775525,2.05061359 C21.8274094,2.34295048 20.5345311,3.84164304 20.5020626,5.61583696 L7.85632745,12.9165931 C6.09295637,13.9337144 5.00465983,15.8127546 5,17.8485005 L5,33.4829925 C5.00192631,35.5176862 6.08664305,37.3975531 7.84730842,38.4174553 L21.3874309,46.2396618 C23.1497498,47.2534461 25.3182257,47.2534461 27.0806949,46.2396618 L40.6208174,38.4174553 C42.3802803,37.3982445 43.4648189,35.5202415 43.4681258,33.4869008 L43.4681258,22.1212669 L43.4772501,22.1212669 C43.5437384,19.455241 42.8306156,17.6887133 41.3744628,16.8673801 L41.3742358,16.8665443 Z"/>
</svg>
