<svg xmlns="http://www.w3.org/2000/svg" width="48" height="48" viewBox="0 0 48 48">
  <path fill="#26C6DA" d="M24,2 C11.8497355,2 2,11.8497355 2,24 C2,36.1502645 11.8497355,46 24,46 C36.1502645,46 46,36.1502645 46,24 C46,18.1652372 43.6821495,12.5694511 39.5563492,8.44365081 C35.4305489,4.31785049 29.8347628,2 24,2 Z M31.5372665,8.95981816 C32.779324,10.0868643 33.4014073,11.5437691 33.4014073,13.3378595 C33.4014073,15.2699417 32.7080126,16.9740883 31.3164621,18.4461903 C29.9248898,19.9182488 28.3237751,20.6542346 26.5181619,20.6542346 C25.4601225,20.6542346 24.5827098,20.3946872 23.8811622,19.8771578 C23.1911375,19.3596284 22.8450598,18.7210871 22.8450598,17.9620555 C22.8450598,17.5020318 22.975464,17.0956221 23.2399684,16.7391086 C23.5159739,16.3825951 23.8346358,16.2040775 24.1911493,16.2040775 C24.5361617,16.2040775 24.7092005,16.4045408 24.7092005,16.8070501 C24.7092005,17.1635636 24.8396047,17.4395691 25.1041091,17.6350884 C25.3686135,17.8305969 25.6720565,17.9280957 26.0170689,17.9280957 C26.9371163,17.9280957 27.8187687,17.3005119 28.6581994,16.046975 C29.50924,14.7819152 29.9363475,13.4334559 29.9363475,11.9959225 C29.9363475,10.9838877 29.6067279,10.1613282 28.9512066,9.52872221 C28.2956853,8.88470205 27.4511889,8.56056132 26.4161735,8.56056132 C24.8636071,8.56056132 23.3586975,9.25271667 21.8981184,10.6327661 C20.4490622,12.0128372 19.2639451,13.8267773 18.3438541,16.0809131 C17.4353078,18.323526 16.9807847,20.4602589 16.9807847,22.484372 C16.9807847,24.3474474 17.3817156,25.8305722 18.1867517,26.9345943 C18.9917877,28.0271371 20.062937,28.5736911 21.3970689,28.5736911 C23.6512047,28.5736911 25.8057654,26.9779464 27.8642297,23.792349 L31.1084633,23.329499 C31.5109813,23.2719933 31.7114359,23.3694812 31.7114359,23.6224844 C31.7114359,23.7374958 31.5548552,24.2304141 31.2443463,25.104457 C30.9338373,25.9784999 30.5109695,27.4396877 29.9704378,29.4866291 C31.7530052,28.4515921 33.1331416,27.3048918 34.1106295,26.0512897 L34.1106295,28.038573 C33.3285957,28.9471193 31.834535,29.9701334 29.6264908,31.108659 C29.166467,34.1678743 28.1446922,36.5283249 26.5692321,38.195881 C24.9936634,39.87496 23.2236842,40.7183042 21.2569681,40.7183042 C20.3139184,40.7183042 19.5724103,40.4971302 19.0319656,40.0601087 C18.5029351,39.6230873 18.2379089,39.0217017 18.2379089,38.2511691 C18.2379089,36.1120664 20.3156142,34.0344481 24.4672201,32.0218579 C24.9042415,30.4692914 25.3271094,29.0728708 25.7411286,27.8307916 C25.0166005,28.8773298 23.9661488,29.802856 22.5860342,30.6078051 C21.2059848,31.4128412 19.9233798,31.8137721 18.7389149,31.8137721 C16.8068327,31.8137721 15.1987825,30.980255 13.9108291,29.3126554 C12.6342682,27.6335764 11.9957269,25.5120625 11.9957269,22.9474612 C11.9957269,20.2448028 12.7207985,17.6852021 14.1698547,15.2699634 C15.618911,12.8434193 17.5193161,10.9058365 19.8769404,9.45678031 C22.2345647,7.99622295 24.5182686,7.26569424 26.7263129,7.26569424 C28.7042257,7.26552031 30.3067101,7.83275027 31.5372665,8.95981816 Z M19.583694,38.1798794 C19.583694,38.9504121 19.9517087,39.3391244 20.6877379,39.3391244 C22.1367941,39.3391244 23.262775,37.4783319 24.0678545,33.7635735 C21.0777547,35.2588517 19.583694,36.7308232 19.583694,38.1798794 Z"/>
</svg>
