<svg xmlns="http://www.w3.org/2000/svg" width="48" height="48" viewBox="0 0 48 48">
  <path fill="#D34A47" d="M34.7489797,0.999496279 L34.9304144,1.15197081 L29.7295531,6.55153404 L28.7903953,10.2142334 C32.4503981,10.4417641 35,10.9514915 35,11.5437058 C35,12.1996707 31.8730157,12.7543401 27.5737177,12.9366113 C27.4872594,12.9612187 27.3110367,12.9963965 27.0041964,12.9993627 C26.7946062,13.0013228 26.6117827,13.000204 26.4613037,12.97464 C25.8259406,12.9912895 25.1703456,13 24.5000824,13 C18.7010655,13 14,12.3479948 14,11.5437058 C14,10.7394983 18.7010655,10.0874117 24.5000824,10.0874117 C25.3483832,10.0874117 26.1729392,10.1014849 26.9630322,10.1278417 L28.0534808,5.75188196 L33.1757872,0.400987554 C33.0022619,0.250592121 32.9471993,0.116160114 33.0558845,0.0465920725 C33.142885,-0.00902576541 33.3187228,-0.0131329679 33.535588,0.025130312 L33.5596448,0 L33.6056592,0.038669723 C33.8271172,0.0850438719 34.0834257,0.171528355 34.3289989,0.289408213 C34.8502137,0.539838133 35.1256394,0.83715625 34.9441582,0.953393295 C34.8999861,0.981682738 34.8328285,0.996648912 34.7489797,0.999496279 Z M30.3167119,44.7184921 C30.3167119,45.4262825 27.75533,46 24.595825,46 C21.4361551,46 18.8748557,45.4262825 18.8748557,44.7184921 L18.3849275,38.116457 L17,36.0193895 C17,36.0193895 19.7699374,37.0485338 24.4787239,37.0485338 C29.1874278,37.0485338 32,36 32,36 L30.7642528,37.9224121 L30.3167119,44.7184921 Z M27.5737177,12.9366113 C27.6213184,12.9230634 27.6417098,12.9127196 27.6417098,12.9127196 C27.7823378,12.8695464 27.9990818,12.8109436 27.9999997,12.4255006 C28.0001963,12.1988043 27.9159507,12.0678012 27.8194452,12 L27.7477216,12.2539948 C27.8069231,12.2860409 27.8409491,12.3266919 27.8409491,12.3698651 C27.8405558,12.5125888 27.3905463,12.5820219 27.0180953,12.5924072 C26.6457099,12.6030893 26.1588553,12.5039838 26.1591175,12.3591831 C26.1591831,12.3283239 26.1770812,12.2993934 26.2084193,12.2749138 L26.1363679,12.0191386 C26.0601863,12.0894619 26.0003948,12.2017716 26.0000015,12.392416 C25.9998048,12.49256 26.0196041,12.6404763 26.0557937,12.7149538 C26.1311135,12.8702062 26.2700977,12.9421571 26.4613037,12.97464 C26.8396752,12.9647249 27.2108715,12.9519944 27.5737177,12.9366113 Z M29.3211615,27.0022545 C29.4691329,28.4317148 31.7801909,27.1635692 32.5104216,26.4494383 L31.6178998,34.5077397 C31.6178998,34.5077397 29.6368337,36 23.8821002,36 C18.1273667,36 16.2170247,34.4840898 16.2170247,34.4840898 L15.4982498,27.5267069 C16.8820207,28.208399 17.9636436,26.8311124 18.5507558,26.287085 C18.5875895,26.6573336 17.5700875,28.7704835 18.1947494,28.9689508 C18.8193317,29.167578 19.0813047,27.4408961 19.579634,25.8040199 C20.0232299,24.3462757 20.6886237,22.6974947 20.076611,22.5298681 C19.4646778,22.3622415 19.2756563,23.9598876 18.9958632,24.4991211 C18.598568,25.2646266 16.2505171,27.8430242 15.9694511,25.9295401 C15.7488465,24.4286508 17.4184566,21.4181633 18.1947494,20.6551347 C18.5840095,20.2724219 19.1863166,19.9191916 19.618934,20.0292914 C20.2184566,20.1818172 20.2698488,21.2204151 20.7761337,21.1914919 C21.9722355,21.1229391 20.575895,19.1001542 19.5299125,19.0459832 C17.2304694,18.9269348 15.7716786,22.4737795 15.1573588,24.2273071 L14,13.0236499 C14,13.0236499 15.2264121,14.1369526 23.9292761,14.1369526 C32.6320605,14.1369526 34,13 34,13 L32.6405728,25.2744541 C32.1466985,25.9434424 30.9899761,26.6792258 30.2759745,26.7724671 C29.5436754,26.8681053 32.4807478,24.9928126 31.9914877,23.6945454 C31.5784407,22.5979414 29.8675418,23.7051719 29.4101034,24.2309026 C29.5228321,23.9013221 29.6008751,23.4685131 29.1359586,23.4397497 C28.6712013,23.4110663 28.7033413,24.7609478 28.0060461,25.5804645 C27.308751,26.3999812 26.9379475,26.4148423 26.2258552,26.6681199 C25.5137629,26.9214774 27.0237072,23.5747778 27.8968974,21.5490367 C28.0829753,21.1174262 28.5105012,19.9596201 27.9918059,19.7878388 C27.4731106,19.6159776 26.7990453,21.8718258 26.0427208,23.6831998 C25.2863962,25.4946538 25.3644391,26.0405988 25.1375497,26.287085 C24.7868735,26.6681199 24.2104216,26.8409399 24.0695306,26.734036 C23.3709626,26.2043902 25.2392999,23.5355478 24.7046142,23.3034433 C24.1699284,23.0713387 23.5065235,25.0926855 23.2736675,25.4016522 C23.2459825,25.4384054 22.0009547,27.1099574 21.5434368,26.7604823 C21.2763723,26.556502 21.6761337,25.5600106 22.0221957,24.7673397 C22.1795545,24.4071582 22.78035,23.479619 22.2804296,23.2742804 C21.7805887,23.0688619 19.7704057,27.1405585 21.0431185,27.6280179 C22.0122514,27.9993052 22.81965,27.1058027 23.1793954,26.4658174 C23.0163882,27.9809286 24.4613365,27.6684464 25.1375497,27.0916607 C25.5581543,28.2843024 27.1902148,27.0108036 27.6352426,26.6830609 C27.2495625,27.9793307 25.8735084,30.1620719 26.4727128,30.4886961 C27.0720764,30.8154801 27.9859189,28.1610993 28.2529833,27.5386117 C28.981782,25.840134 29.7027049,24.2184384 31.1512331,24.1352643 C31.824105,24.1885565 29.2022275,25.8529976 29.3211615,27.0022545 Z"/>
</svg>
