<svg xmlns="http://www.w3.org/2000/svg" width="48" height="48" viewBox="0 0 48 48">
  <path fill="#F4511E" d="M10.0884881,2.0020065 C7.81175841,1.94433999 5,3.14881495 5,3.14881495 L14.2975053,22.2287955 L9.36737068,43.5515837 C13.8672336,47.4011366 18.8303507,45.559873 18.8303507,45.559873 L21.1142017,29.0601641 C21.4026861,29.3365811 21.7087113,29.5898497 22.017079,29.8238183 C23.0081657,30.5340281 24.0818586,31.0767952 25.1552892,31.4945679 C26.2289634,31.9123406 27.3443155,32.2465815 28.459349,32.4972337 C29.2026546,32.664339 29.904245,32.7897277 30.6474382,32.8732785 C30.3170885,33.6252542 30.1107792,34.4188062 30.1520635,35.2961933 C30.1520635,35.3797479 30.193494,35.4631678 30.276089,35.504947 L30.3170885,35.504947 C31.1016785,35.9227197 31.9275341,36.2572639 32.8359397,36.4661692 C33.703136,36.6332726 34.6530883,36.7169542 35.5616813,36.5916413 C36.5114649,36.4663133 37.4611736,36.0901472 38.2045918,35.4634882 C38.9478975,34.8368291 39.4847439,34.0012458 39.8150937,33.1239914 L39.8564511,33.0821648 L39.8564511,33.0407136 L39.9804766,31.9129586 L39.9804766,31.8707643 C40.3934325,31.620112 40.8063135,31.3695925 41.2192694,31.0354084 C41.714794,30.6176357 42.1690531,30.1579075 42.4994028,29.5730523 C42.8297526,28.9881781 43.0360619,28.2779114 42.9947588,27.5677964 C42.9534726,26.8993714 42.7054123,26.2313446 42.4163281,25.6465273 C42.1272627,25.0616531 41.7558535,24.5181846 41.3428976,24.0168801 C40.5169857,23.056018 39.5259364,22.2625229 38.4522435,21.6358638 C37.4198724,20.9674389 36.2635921,20.4240083 35.1073304,20.0480204 L34.6529402,19.9225483 L34.281962,19.7974478 C34.034181,19.7138951 33.8273095,19.5885994 33.6208502,19.5050486 C33.2078943,19.2543774 32.9185291,19.0035166 32.7120698,18.6693136 C32.2991139,18.0426546 32.2579233,17.0821906 32.4644012,16.0795627 C32.5056874,15.8289104 32.588526,15.5781255 32.6711228,15.3274732 C32.7537046,15.076802 32.8362134,14.8259981 32.9187914,14.533561 C32.9780793,14.2635709 33.0150141,13.9926898 33.0317453,13.691854 L38.5508799,8.80621117 C38.1207394,7.19946599 33.3557609,5.52560721 33.3557609,5.52560721 L19.1940859,17.7101389 L11.0215463,2.11153439 C10.7278896,2.04458951 10.4132815,2.01073127 10.0880103,2.00249184 L10.0884881,2.0020065 Z M29.9200389,16 C29.8362383,16.4427693 29.7992069,16.9090945 29.7992069,17.3760402 C29.8400397,18.0802938 30.0443219,18.867999 30.4935727,19.5308557 C30.9428421,20.1936749 31.555194,20.690606 32.1677868,20.9805905 C32.4945079,21.1462887 32.8215997,21.2706315 33.1075085,21.3534815 L33.597794,21.4775329 L34.0059545,21.5604807 C35.0678352,21.8504653 36.0886441,22.2646779 37.0279581,22.8032126 C37.9672905,23.3417473 38.8658478,24.0045852 39.6010629,24.750292 C40.336204,25.4959612 40.9081142,26.4488402 40.9898131,27.4016063 C41.0306458,28.0644255 40.9486968,28.5615069 40.7444757,28.9757571 C40.5402657,29.4314418 40.2136002,29.8456544 39.8460482,30.218489 C39.6826784,30.3841929 39.4785889,30.5496824 39.3152283,30.6739669 C39.3152283,30.3011323 39.274605,29.9284857 39.1929303,29.5556699 C39.1520994,29.3485354 39.1110591,29.1829105 39.0293807,28.9757759 C38.9476986,28.8100721 38.8663204,28.6031105 38.6621252,28.4788261 C38.6212925,28.4788261 38.5799835,28.4786381 38.5799835,28.5199277 C38.3349426,29.1413313 37.926708,29.6801292 37.4774758,30.0529638 C37.0282249,30.4257984 36.4564445,30.5914233 35.884664,30.6328577 C35.3128835,30.6742827 34.7000126,30.5500885 34.0874198,30.3843828 C33.4747899,30.218677 32.8626233,30.0112662 32.250012,29.8041316 L32.1678646,29.7626577 C32.0453424,29.7212327 31.8826416,29.7630337 31.8009613,29.845974 C31.4742402,30.260243 31.2289214,30.6326077 30.9430496,31.0468579 C30.7388397,31.3782769 30.5756089,31.6686186 30.4122298,32 C29.6770887,31.7100154 28.982482,31.4612397 28.2474336,31.171274 C27.2263838,30.7570049 26.2051486,30.3430931 25.2658346,29.845974 C24.2856342,29.3902894 23.3468021,28.8513599 22.5299993,28.2299939 C21.9410562,27.7819608 21.3968361,27.3113304 21,26.7736041 L21.4493991,23.5178812 L29.9200389,16 Z"/>
</svg>
