<svg xmlns="http://www.w3.org/2000/svg" width="48" height="48" viewBox="0 0 48 48">
  <path fill="#FF7043" fill-rule="evenodd" d="M17.6164146,19 C12.5522769,19.0000038 9.88901236,25.5697409 6.9631724,25.5697409 C5.16230613,25.5697409 4.89217343,24.2927572 4.89217343,23.8428181 C4.89217343,23.2150832 5.32654446,22.510095 5.93070687,22.510095 C7.0162391,22.510095 6.69210193,23.9648368 6.69210193,23.9648368 C6.69210193,23.9648368 8.1586075,22.9156086 7.19156517,21.5121864 C6.41768491,20.3890104 4.78315316,20.3351031 3.6616915,21.1899514 C2.52551973,22.0560949 1.71738332,23.3558768 2.0932449,25.5104693 C2.2749717,26.5519721 2.95310572,28.0605835 4.35915276,28.9205694 C5.76516302,29.7805553 7.89987513,29.9905181 8.65340028,29.9905181 C12.6870951,29.9905181 16.6371261,26.905864 20.8600296,25.6044576 C21.9453596,25.2699641 22.9034471,25.200115 23.6132097,25.1852499 C23.7910365,25.1758058 25.4723832,25.0958514 27.1430834,25.6107286 C31.3659869,26.9121349 35.316018,30 39.3497127,30 C40.1032747,30 42.2378581,29.7900561 43.6439603,28.9300702 C45.0499889,28.0700843 45.7250724,26.5584508 45.9067422,25.516948 C46.2826406,23.3625444 45.4744674,22.0626492 44.3382956,21.1964301 C43.2169259,20.3415629 41.5854833,20.3986246 40.8115479,21.5217817 C39.8445239,22.9252795 41.3079771,23.9714099 41.3079771,23.9714099 C41.3079771,23.9714099 40.9838216,22.5166681 42.0693722,22.5166681 C42.6735346,22.5166681 43.1079056,23.2216563 43.1079056,23.8493913 C43.1079056,24.2993303 42.8377913,25.576314 41.0369067,25.576314 C38.1110667,25.576314 35.4476182,19.0065731 30.3836645,19.0065731 C25.667053,19.0065731 24.7287322,21.2293525 24.018418,22.2508337 C24.0116145,22.2604667 24.0095919,22.2724041 24.0031562,22.2821127 C23.9948818,22.2702131 23.9902849,22.2565568 23.9818266,22.2445627 C23.2714572,21.2231571 22.3332467,19.0003022 17.6165801,19.0003022 L17.6164146,19 Z"/>
</svg>
