<svg xmlns="http://www.w3.org/2000/svg" width="48" height="48" viewBox="0 0 48 48">
  <g fill="none" transform="translate(1 2)">
    <rect width="20" height="20" x="13.038" y="12.297" fill="#F68712" transform="rotate(-47 23.038 22.297)"/>
    <polygon fill="#FAB20B" points="9.091 23 6.475 13.188 4.047 3.375 13.5 5.679 23 8.359 16.045 15.679"/>
    <polygon fill="#FBC707" points="24 5.993 14 6 4 5.993 8.964 4.493 14 3 19.036 4.493" transform="rotate(15 14 4.5)"/>
    <polygon fill="#FFF200" points="15.022 15.113 5.148 14.971 -4.852 14.964 .112 13.464 5.148 11.971 10.183 13.464" transform="rotate(-105 5.085 13.542)"/>
    <polygon fill="#F47216" points="28.587 22.512 26.042 12.512 23.203 2.903 32.703 5.582 42.203 8.262 35.542 15.191" transform="rotate(90 32.703 12.707)"/>
    <polygon fill="#F1471D" points="51.196 14.79 41.196 14.797 31.25 14.407 36.214 12.907 41.25 11.414 46.286 12.907" transform="rotate(105 41.223 13.105)"/>
    <polygon fill="#FBC707" points="43 5.993 33 6 23 5.993 27.964 4.493 33 3 38.036 4.493" transform="rotate(-15 33 4.5)"/>
    <polygon fill="#F25C19" points="28.258 41.589 25.44 31.795 23 22 32.667 24.269 42.167 26.948 35.213 34.269" transform="rotate(180 32.584 31.795)"/>
    <polygon fill="#F68712" points="42.268 41.934 32.268 41.941 22.268 41.934 27.233 40.434 32.268 38.941 37.304 40.434" transform="rotate(-165 32.268 40.44)"/>
    <polygon fill="#F1471D" points="51 32.993 41 33 31 32.993 35.964 31.493 41 30 46.036 31.493" transform="rotate(75 41 31.5)"/>
    <polygon fill="#F89C0E" points="9.789 41.974 7.244 31.974 4.517 22.698 14.198 24.653 23.207 27.649 16.744 34.653" transform="rotate(-90 13.862 32.336)"/>
    <polygon fill="#FFF200" points="15 33.993 5 34 -5 33.993 -.036 32.493 5 31 10.036 32.493" transform="rotate(-75 5 32.5)"/>
    <polygon fill="#F25C19" points="23.968 41.749 14.032 42.004 3.968 41.749 8.932 40.249 13.968 38.757 19.004 40.249" transform="rotate(165 13.968 40.38)"/>
  </g>
</svg>
