<svg xmlns="http://www.w3.org/2000/svg" width="48" height="48" viewBox="0 0 48 48">
  <path fill="#00ACC1" d="M24.1904265,45.8434196 C23.8817144,45.6234123 23.516318,44.8932308 23.3082843,44.0806674 C23.1232021,43.3577205 23.053007,41.4521375 23.1770302,40.5174592 C23.2231417,40.1699418 23.2493426,39.8737534 23.2352605,39.8592277 C23.2211784,39.8447371 22.9338989,39.7986767 22.5968618,39.7569037 C20.6550886,39.5162262 18.5825847,38.8375601 17.0047165,37.9257081 C16.6700293,37.7322974 16.3565695,37.574051 16.3081355,37.574051 C16.2597014,37.574051 16.0892383,37.8330668 15.9293171,38.1496299 C15.1859439,39.6213041 13.8876659,41.0824973 12.9007544,41.55826 C12.5404408,41.7319572 12.0604447,41.7742331 11.838387,41.6518263 C11.5035869,41.4672788 11.4043963,40.7366329 11.6042961,39.9277274 C11.7412145,39.3737085 12.2914708,38.2082359 12.7377753,37.5270726 C12.9348018,37.2263471 13.3240458,36.7163029 13.6027466,36.3936411 L14.109491,35.8069832 L13.8453306,35.5474469 C13.149331,34.8636106 11.8421256,33.2818149 11.8421256,33.1234032 C11.8421256,33.0666929 13.6255989,31.7926956 13.755543,31.7565747 C13.8216643,31.7381941 13.9815444,31.9008616 14.197777,32.2065216 C14.6665198,32.8691144 15.9197843,34.1433016 16.6570348,34.7068871 C22.2785963,39.004121 30.2021417,37.9247479 34.4681663,32.2807683 C34.6948006,31.9809326 34.9154969,31.7356126 34.958595,31.7356126 C35.0440899,31.7356126 36.8093149,32.9661873 36.8708152,33.0686414 C36.9258131,33.1602944 36.1542927,34.1883913 35.4952343,34.9017011 C35.1824005,35.2402815 34.9267845,35.544809 34.9271949,35.578468 C34.9276054,35.6121059 35.1733909,35.9057056 35.4733774,36.2308963 C36.4256395,37.263175 37.362783,38.8748312 37.6230133,39.9277555 C37.8229267,40.7366963 37.7237225,41.4673104 37.3889223,41.6518544 C37.3166544,41.6916895 37.1248885,41.7239733 36.9627645,41.7235969 C35.9367569,41.7211349 34.2351357,40.0268261 33.2252044,38.0021178 C33.0306132,37.611927 32.8426235,37.2927119 32.8074268,37.2927119 C32.77223,37.2927119 32.5741636,37.4042508 32.367245,37.5405749 C30.8999268,38.5073294 28.709382,39.3413122 26.8144353,39.6545129 C26.4114683,39.7211239 26.0485552,39.8019723 26.0080225,39.8341716 C25.9556002,39.8757969 25.962342,40.0710154 26.0313502,40.5095316 C26.1544362,41.2917422 26.1069668,43.1496328 25.9446957,43.9008574 C25.7771879,44.6763502 25.5199061,45.277358 25.2026907,45.6341361 C24.8380673,46.044269 24.5543384,46.1029348 24.1902965,45.8435075 L24.1904265,45.8434196 Z M4.01984688,30.03109 C4.00163624,29.9819416 3.99467898,27.4093834 4.00438289,24.3143409 L4.02202915,18.686927 L6.89047918,18.686927 L6.90860773,20.7585539 C6.92216994,22.3083437 6.94797405,22.8440735 7.01105115,22.8853295 C7.05742604,22.9156683 7.77542616,22.9409741 8.60660317,22.9415685 C9.78383031,22.9424126 10.1345665,22.9219112 10.193433,22.8488322 C10.2438748,22.7862343 10.2750628,22.0782282 10.2871678,20.7209663 L10.3053067,18.6869024 L13.1737567,18.6869024 L13.1737567,30.0824155 L10.3053067,30.0824155 L10.2872294,27.9077718 C10.2750799,26.4464027 10.2443366,25.7023179 10.1934945,25.6392206 C10.1345528,25.5660747 9.78201061,25.5453307 8.5978741,25.5453307 C7.4137376,25.5453307 7.06122277,25.5660747 7.00225367,25.6392206 C6.95141163,25.7023144 6.92066835,26.4464027 6.9085188,27.9077718 L6.89044155,30.0824155 L5.47166001,30.1014327 C4.37378805,30.1161484 4.04538762,30.1002369 4.01976821,30.03109 L4.01984688,30.03109 Z M15.6299874,30.0302811 C15.6119443,29.9815793 15.6051205,27.4093834 15.6148278,24.3142354 L15.6324741,18.6868215 L22.735446,18.6868215 L22.7540911,19.934384 L22.7727361,21.1819465 L20.6710554,21.2005521 L18.5693748,21.2191578 L18.5500319,22.0576776 C18.5356488,22.6812302 18.5531446,22.9108639 18.6183287,22.9534564 C18.6665301,22.9849558 19.4826844,23.0112148 20.432039,23.0118092 L22.1581166,23.0128995 L22.1394647,24.2614819 L22.1208163,25.5100644 L20.3451075,25.5452357 L18.5693987,25.5804071 L18.5693987,27.5500019 L20.7548812,27.5851732 L22.9403637,27.6203446 L22.9403637,30.0823382 L19.3016554,30.1005428 C16.4270485,30.1149244 15.6561062,30.1001208 15.6301105,30.0302002 L15.6299874,30.0302811 Z M25.1916015,30.0302972 C25.173555,29.9815885 25.1667277,27.4093996 25.1764351,24.3142516 L25.1940813,18.6868377 L28.0625313,18.6868377 L28.096678,23.1184261 L28.1308247,27.5500146 L30.2138637,27.5851859 L32.2969028,27.6203572 L32.2969028,30.0823508 L28.760809,30.1005696 C25.9681568,30.1149582 25.2175321,30.1001475 25.1918785,30.0302269 L25.1916015,30.0302972 Z M34.2746902,30.0296642 C34.2567737,29.9813036 34.2500559,27.4093996 34.2597598,24.3143219 L34.2774061,18.686908 L35.779921,18.669646 C36.6063093,18.6601532 37.3164013,18.6759768 37.3578917,18.7048173 C37.4591585,18.7752022 38.9760531,23.0235057 39.3106104,24.1736084 C39.6586444,25.3701373 39.6315713,25.2993726 39.7103963,25.2181971 C39.7473717,25.1801136 39.9088903,24.7079314 40.0693417,24.1688955 C40.4228826,22.9810188 41.8214149,18.8629476 41.9136653,18.7384411 C41.964244,18.6700399 42.3324349,18.6536078 43.4898232,18.6680984 L45,18.687003 L45,30.0825161 L43.7211162,30.1016458 L42.4422323,30.120779 L42.3968836,29.9346804 C42.3026596,29.5480068 42.4290703,25.4770652 42.5714239,24.3143008 C42.7954244,22.4845824 42.7614214,22.4562694 42.2333606,24.0329301 C41.662277,25.7380014 40.5270192,28.8732095 40.4185899,29.0448456 C40.3254742,29.1921537 40.2695664,29.2031166 39.6113563,29.2031166 C39.1267425,29.2031166 38.88317,29.1754438 38.8374381,29.1151883 C38.7528907,29.0038007 37.3586955,25.1021388 36.9776539,23.9105339 C36.7088725,23.0700093 36.5626127,22.7672896 36.5674356,23.0615682 C36.5685985,23.1315556 36.631337,23.7111124 36.7068817,24.3494722 C36.8483768,25.5451218 36.9733578,29.5534232 36.8809637,29.9325702 L36.8359228,30.1173955 L35.571576,30.1173955 C34.6230081,30.1173955 34.2991227,30.0954346 34.2746663,30.0294672 L34.2746902,30.0296642 Z M35.1781762,17.0373724 C34.9091074,16.5682219 34.2321394,15.6924204 33.6595166,15.0727366 C31.8151587,13.0766578 29.5939322,11.8150267 26.8671244,11.214441 C26.0863652,11.042513 25.8791525,11.0261442 24.4425844,11.0229331 C22.7511905,11.0191486 22.3787343,11.0624551 21.068724,11.415199 C19.2953754,11.8927202 17.6784796,12.7401032 16.2468712,13.9421892 C15.5586361,14.5201246 14.4623718,15.7089158 13.9939368,16.3852254 C13.7054603,16.8017244 13.560254,16.9559507 13.4844561,16.9263013 C13.235493,16.8290138 11.5686444,15.6767692 11.5697048,15.6026632 C11.5720307,15.4361656 12.6947011,13.9882988 13.4564766,13.1693342 L14.2444871,12.3221974 L13.723411,11.7411318 C12.7712515,10.6793795 11.8582566,9.09702101 11.6038754,8.06783736 C11.4039619,7.25889661 11.5031661,6.52828243 11.8379663,6.34370326 C11.9102342,6.3038682 12.1020001,6.27158443 12.2641241,6.27196076 C13.2901317,6.27435241 14.9917529,7.96873156 16.0016843,9.99343991 C16.1962755,10.3836307 16.3796133,10.7028458 16.409132,10.7028458 C16.4386337,10.7028458 16.7055475,10.5603491 17.0022777,10.3861877 C18.5275389,9.49093647 20.9765352,8.69314504 22.6436779,8.54845016 C22.9314772,8.52347147 23.2029951,8.4800806 23.2470851,8.45202794 C23.3075626,8.41352939 23.2986181,8.22491606 23.2106091,7.6828308 C23.048444,6.68396484 23.0987833,4.72777026 23.3075763,3.91492549 C23.6383642,2.62695114 24.1695718,1.90551668 24.7102816,2.00997555 C25.2145974,2.10742125 25.7037604,2.95383354 25.9582101,4.16935494 C26.1242676,4.96264444 26.128615,7.19377336 25.9655265,7.92459857 C25.9050763,8.19541786 25.8757422,8.43880351 25.9003355,8.46542822 C25.9249288,8.4920705 26.2523715,8.56358087 26.6280087,8.62434287 C28.8044954,8.97640795 30.4551855,9.60101572 32.4784004,10.8381675 C32.6159585,10.9222762 32.7454476,10.9628569 32.7661552,10.9283468 C32.7868628,10.8938367 32.9734432,10.516596 33.180786,10.0900028 C33.9812471,8.44314014 35.2698793,6.94670527 36.326124,6.43745949 C36.6864375,6.26376232 37.1664337,6.2214899 37.3884914,6.34389318 C37.7232915,6.5284407 37.8224821,7.25908654 37.6225823,8.06802728 C37.4766303,8.65862437 36.9150215,9.82511693 36.4118002,10.5828834 C36.1768542,10.9366719 35.6997586,11.5222043 35.3515878,11.884047 L34.718525,12.541962 L35.3413947,13.2228087 C35.9709002,13.9109359 37.0828303,15.3705464 37.2864174,15.7760016 C37.3785754,15.9595573 37.381753,16.0106964 37.3054831,16.0829594 C37.1493245,16.2309147 35.4699159,17.2449149 35.3810176,17.2449149 C35.3347795,17.2449149 35.2434048,17.1515631 35.1779675,17.0374673 L35.1781762,17.0373724 Z"/>
</svg>
