<svg xmlns="http://www.w3.org/2000/svg" width="48" height="48" viewBox="0 0 48 48">
  <path fill="#0277BD" d="M25.8324861,22.0340462 L25.8324861,25.3673796 L22.2940245,25.3673796 L22.2940245,28.7007129 L25.8324861,28.7007129 L25.8324861,32.0340462 L29.3709476,32.0340462 L29.3709476,28.7007129 L32.9094092,28.7007129 L32.9094092,25.3673796 L29.3709476,25.3673796 L29.3709476,22.0340462 L25.8324861,22.0340462 Z M38.2171015,22.0340462 L41.755563,22.0340462 L41.755563,25.3673796 L45.2940245,25.3673796 L45.2940245,28.7007129 L41.755563,28.7007129 L41.755563,32.0340462 L38.2171015,32.0340462 L38.2171015,28.7007129 L34.6786399,28.7007129 L34.6786399,25.3673796 L38.2171015,25.3673796 L38.2171015,22.0340462 Z M19.8536045,37.7041713 L14.6603518,37.7041713 L14.6603518,27.0423213 C14.6603518,24.1652796 13.6604336,22.7267588 11.6605973,22.7267588 C10.6606676,22.7267588 9.83278576,23.127285 9.17695182,23.9283375 C8.53183848,24.72939 8.20928182,25.7673483 8.20928182,27.0422125 L8.20928182,37.7040625 L3,37.7041713 L3,10 L8.20928182,10 L8.20928182,21.79575 L8.27379545,21.79575 C9.63926212,19.6182125 11.4778288,18.5294438 13.7894955,18.5294438 C17.8322348,18.5294438 19.8536045,21.0905667 19.8536045,26.2128125 L19.8536045,37.7041713 Z"/>
</svg>
