<svg xmlns="http://www.w3.org/2000/svg" width="48" height="48" viewBox="0 0 48 48">
  <path fill="#E53935" d="M33,28 C33.1758333,26.6800129 33.3076905,25.3599828 33.3076905,24 C33.3076905,22.6400172 33.1758096,21.3201164 33,20 L40.4285714,20 C40.780238,21.2799914 41,22.6199763 41,24 C41,25.3799806 40.7802143,26.7199655 40.4285714,28 L33,28 Z M29,39 C30.2470824,36.8173729 31.203205,34.457839 31.8683903,32 L38,32 C36.0046458,35.2444915 32.8246697,37.7612288 29.000224,39 L29,39 Z M29.6480127,28 L19.3519873,28 C19.1319887,26.6800129 19,25.3599828 19,24 C19,22.6400172 19.1319982,21.3000754 19.3519873,20 L29.6480127,20 C29.8460159,21.2999892 30,22.6400172 30,24 C30,25.3599828 29.8459922,26.6798836 29.6480127,28 Z M24.0001128,40 C22.2618791,37.575751 20.8588272,34.888768 20,32 L28,32 C27.1413533,34.8889856 25.7383014,37.575751 23.9998872,40 L24.0001128,40 Z M15.0832045,15 L9,15 C10.9791515,11.7360169 14.1873348,9.2190678 18,8 C16.7500249,10.1826271 15.8125156,12.542161 15.0834289,15 L15.0832045,15 Z M9.00022447,32 L15.0834289,32 C15.8125829,34.457839 16.7500698,36.8173729 18,39 C14.1875592,37.7612288 10.9791739,35.2442797 9,32 L9.00022447,32 Z M7.57142857,28 C7.21978568,26.7200086 7,25.3800237 7,24 C7,22.6200194 7.21978332,21.2800345 7.57142857,20 L15,20 C14.8241738,21.3199871 14.6923095,22.6400172 14.6923095,24 C14.6923095,25.3599828 14.8241786,26.6798836 15,28 L7.57142857,28 Z M23.9998872,7 C25.7381209,9.41813 27.1411728,12.1185235 28,15 L20,15 C20.8586467,12.1183064 22.2616986,9.41813 24.0001128,7 L23.9998872,7 Z M38,15 L31.8683903,15 C31.2032722,12.542161 30.247172,10.1826271 29,8 C32.8244457,9.23877119 36.0045786,11.7360169 37.999776,15 L38,15 Z M24,3 C12.3870853,3 3,12.4499887 3,24 C3,35.5979797 12.4020203,45 24,45 C35.5979797,45 45,35.5979797 45,24 C45,12.4020203 35.5979797,3 24,3 Z"/>
</svg>
