<svg xmlns="http://www.w3.org/2000/svg" width="48" height="48" viewBox="0 0 48 48">
  <path fill="#26A69A" d="M27,17 L39,17 L27,5 L27,17 Z M11.3744396,2.00045085 L28.8746638,2.00045085 L42,15.2005861 L42,41.5999549 C42,44.0300327 40.0411956,46 37.6248879,46 L11.3751121,46 C8.94693496,46 7,44.019991 7,41.5999549 L7,6.40004508 C7,3.95803021 8.94691254,2 11.3751121,2 L11.3744396,2.00045085 Z M11.0009222,41.9997823 L38,41.9997823 L38,25 L29,33.5 L24.5,29.25 L11,42 L11.0009222,41.9997823 Z M15.5,17 C13.0147186,17 11,19.0147186 11,21.5 C11,23.9852814 13.0147186,26 15.5,26 C17.9852814,26 20,23.9852814 20,21.5 C20,19.0147186 17.9852814,17 15.5,17 Z"/>
</svg>
