<svg xmlns="http://www.w3.org/2000/svg" width="48" height="48" viewBox="0 0 48 48">
  <path fill="#4F8FF7" d="M23.9955072,34.3797981 C29.7307719,34.3797981 34.3801226,29.7304474 34.3801226,23.9951827 C34.3801226,18.259918 29.7307719,13.6105673 23.9955072,13.6105673 C18.2602425,13.6105673 13.6108918,18.259918 13.6108918,23.9951827 C13.6108918,29.7304474 18.2602425,34.3797981 23.9955072,34.3797981 Z M42.1242332,10.6682596 C42.4935361,10.1176587 42.7092332,9.45520673 42.7092332,8.74234615 C42.7092332,6.83038702 41.159113,5.28080769 39.2476947,5.28080769 C38.5348341,5.28080769 37.8723822,5.49650481 37.3216731,5.86591587 C33.5912163,3.11896875 28.9831514,1.49475 23.99475,1.49475 C11.5678269,1.49475 1.49475,11.5683678 1.49475,23.99475 C1.49475,36.4216731 11.5683678,46.49475 23.99475,46.49475 C36.4205913,46.49475 46.49475,36.4213486 46.49475,23.99475 C46.49475,19.0067812 44.8704231,14.3987163 42.1236923,10.6678269 L42.1242332,10.6682596 Z M38.6884399,38.6883317 C36.7796178,40.5971538 34.5572019,42.0956755 32.0829591,43.14225 C29.5222861,44.2252788 26.8013005,44.7744736 23.9952909,44.7744736 C21.1892813,44.7744736 18.4681875,44.2252788 15.9075144,43.14225 C13.4332716,42.0956755 11.2109639,40.597262 9.30203365,38.6883317 C7.39310337,36.7794014 5.89458173,34.5570937 4.84811538,32.082851 C3.76497837,29.5221779 3.21578365,26.800976 3.21578365,23.9949663 C3.21578365,21.1889567 3.76497837,18.467863 4.84800721,15.9071899 C5.89447356,13.4329471 7.39299519,11.2106394 9.30192548,9.30170913 C11.2108558,7.39277885 13.4331635,5.89425721 15.9074063,4.84779087 C18.4681875,3.76465385 21.1892813,3.21545913 23.9952909,3.21545913 C26.8011923,3.21545913 29.5222861,3.76465385 32.0829591,4.84768269 C33.5374543,5.46286298 34.904113,6.23554327 36.1721178,7.1546899 C35.926024,7.6304351 35.7861563,8.1700024 35.7861563,8.7425625 C35.7861563,10.6545216 37.3359519,12.204101 39.2476947,12.204101 C39.8202548,12.204101 40.3597139,12.0642332 40.8354591,11.8181394 C41.7547139,13.0860361 42.5273942,14.4526947 43.1424663,15.9071899 C44.2256034,18.467863 44.7747981,21.1889567 44.7747981,23.9949663 C44.7747981,26.8008678 44.2256034,29.5221779 43.1424663,32.082851 C42.0958918,34.5570937 40.5974784,36.7795096 38.6884399,38.6883317 Z"/>
</svg>
