<svg xmlns="http://www.w3.org/2000/svg" width="48" height="48" viewBox="0 0 48 48">
  <path d="M42.3526322,29.0238518 C42.617369,29.2918518 42.7056146,29.7831851 42.3526322,30.0511851 C41.5584219,30.5871851 40.4994747,30.5425184 39.4846504,30.4085184 C37.8079841,30.1851851 35.8665811,30.1405185 35.0282479,28.5771852 C35.0282479,28.5771852 35.0282479,28.5771852 34.9400023,28.4878518 C33.8810552,27.8625185 35.6900899,27.4605185 36.2195634,27.4158519 C37.3667562,27.2818519 38.6463173,27.5498519 39.7493872,27.8178519 C40.7200887,27.9965185 41.6025446,28.2645185 42.3526322,29.0238518 Z M43.9410529,19.2865188 C43.4557021,16.2491856 43.1468425,13.0778524 42.1320182,10.0851858 C41.6466674,8.87918585 41.4701763,7.49451923 40.0582468,7.31585257 C38.2050893,6.95851925 38.7786857,8.61118586 39.0434224,10.0851858 C39.3964048,12.3631857 39.572896,14.730519 40.1906152,16.9638522 C40.5877203,18.5271855 41.3378079,20.4031855 39.2640364,19.1971855 C35.7783355,17.1425189 34.58702,12.4525191 33.2633361,9.01318585 C32.6456169,7.44985257 30.8365822,3.74251936 29.5570211,2.80451939 C28.939302,2.31318607 26.0271974,1.73251943 25.4977238,2.13451941 C24.3064083,2.93851939 28.056846,8.83451918 28.5863196,9.90651915 C29.7335123,12.2738524 30.9248278,14.5518523 32.3808801,16.6511856 C33.4398272,18.1251855 35.1164935,19.5098522 32.7338625,20.4478521 C30.3071087,21.3858521 29.1157932,19.9565188 27.4391269,18.7505188 C26.115443,17.7231855 24.4387767,17.5891856 22.7621104,17.4105189 C18.2174624,16.8745189 13.8934283,17.4105189 10.2753589,20.4478521 C8.55456986,21.9218521 7.40737714,23.9765187 6.48079841,26.0758519 C6.21606163,26.6118519 4.76000934,31.2125184 4.93650053,31.2125184 C4.00992179,31.0785184 4.58351815,28.8451852 3.39220264,30.1405185 C2.33325552,31.2571851 3.70106222,34.5178516 4.18641298,35.5898516 C5.2453601,38.0911849 6.30430723,40.5478514 7.18676316,43.1831847 C7.9809735,45.8185179 8.20158749,45.7738513 10.5842185,45.9525179 C13.5845687,46.2205179 16.5849189,45.2825179 19.5411463,44.9251846 C19.5411463,44.9251846 14.2464106,41.6198514 24.7035135,45.2825179 C27.0420217,46.0865179 29.4246527,45.9078513 31.9396522,45.9525179 C33.6604412,45.5505179 33.7486868,42.5131847 34.6311428,41.1731847 C34.9841251,40.6371848 36.6166686,38.0018515 37.190265,37.7785182 C37.9403525,37.5105182 38.9992996,38.2698515 39.7493872,38.4038515 C44.0734213,39.0738515 45.441228,35.5005183 44.779386,31.9718517 C44.1616669,28.8451852 44.5146492,25.405852 45,23.0385187 C45,22.0558521 44.0734213,20.0905188 43.9410529,19.2865188 Z"/>
</svg>
