<svg xmlns="http://www.w3.org/2000/svg" width="48" height="48" viewBox="0 0 48 48">
  <path fill="#8A4182" d="M24.0011617,46.7426511 C11.3184198,46.7426511 1,36.4842522 1,23.8750517 C1,11.2612626 11.3184198,1 24.0011617,1 C36.6826602,1 47,11.2612626 47,23.8750517 C47,36.4842522 36.6826602,46.7426511 24.0011617,46.7426511 Z M22.2185522,27.8021662 L25.7814805,27.8021662 L26.6667309,29.0140135 L26.6667309,38.5047573 L21.3339562,38.5047573 L21.3339562,29.0130372 L22.2185522,27.8021662 Z M19.9220391,23.5691611 L21.0227277,26.9381879 L20.1374447,28.1497099 L11.0595536,31.0823547 L9.41187513,26.0397156 L18.490748,23.1064201 L19.9220391,23.5691611 Z M23.2612168,20.0888419 L20.3790639,22.1715014 L18.9464964,21.708435 L13.3363325,14.0299304 L17.6503655,10.913491 L23.2612168,18.592256 L23.2612168,20.0888419 Z M27.6216887,22.1718268 L24.7388159,20.0894928 L24.7394704,18.5919306 L30.3497652,10.913491 L34.6640928,14.0299304 L29.0528162,21.7090858 L27.6216887,22.1718268 Z M26.9766503,26.9388388 L28.0778953,23.5694863 L29.5103319,23.107071 L38.5883211,26.0397156 L36.9402173,31.0826799 L27.8619007,28.1493844 L26.9766503,26.9388388 Z M24.0011617,42.1123138 C34.1293427,42.1123138 42.3426992,33.948289 42.3426992,23.8750517 C42.3426992,13.7985599 34.1293427,5.63095575 24.0011617,5.63095575 C13.8695445,5.63095575 5.65726801,13.7985599 5.65726801,23.8750517 C5.65726801,33.948289 13.8695445,42.1123138 24.0011617,42.1123138 Z M37.9318287,18.7920611 L38.3880353,20.1897207 L31.4873366,22.419468 L31.03113,21.0218083 L37.9318287,18.7920611 Z M29.1307051,29.8080275 L33.3952884,35.6450056 L32.1994641,36.5086584 L27.9348808,30.6716803 L29.1307051,29.8080275 Z M18.9434529,29.8610702 L20.1393755,30.7250484 L15.8753485,36.5620265 L14.6794259,35.6983737 L18.9434529,29.8610702 Z M10.0401902,18.8792724 L16.9402344,21.1080434 L16.4837004,22.5057031 L9.58368898,20.2769321 L10.0401902,18.8792724 Z M23.2157271,9.29415828 L24.6936599,9.29415828 L24.6936599,16.5092387 L23.2157271,16.5092387 L23.2157271,9.29415828 Z"/>
</svg>
