<svg xmlns="http://www.w3.org/2000/svg" width="48" height="48" viewBox="0 0 48 48">
  <path fill="#FFCA28" d="M0,0 L42,0 L42,42 L0,42 L0,0 Z M11.0366667,35.0933333 C11.97,37.0766667 13.8133333,38.71 16.9633333,38.71 C20.4633333,38.71 22.8666667,36.8433333 22.8666667,32.76 L22.8666667,19.2733333 L18.9,19.2733333 L18.9,32.6666667 C18.9,34.6733333 18.0833333,35.1866667 16.8,35.1866667 C15.4466667,35.1866667 14.8866667,34.2533333 14.2566667,33.1566667 L11.0366667,35.0933333 Z M24.99,34.6733333 C26.1566667,36.96 28.5133333,38.71 32.2,38.71 C35.9333333,38.71 38.7333333,36.7733333 38.7333333,33.2033333 C38.7333333,29.9133333 36.8433333,28.4433333 33.4833333,26.9966667 L32.5033333,26.5766667 C30.8,25.8533333 30.0766667,25.3633333 30.0766667,24.1966667 C30.0766667,23.24 30.8,22.4933333 31.9666667,22.4933333 C33.0866667,22.4933333 33.8333333,22.9833333 34.51,24.1966667 L37.5666667,22.1666667 C36.2833333,19.9266667 34.4633333,19.0633333 31.9666667,19.0633333 C28.4433333,19.0633333 26.18,21.3033333 26.18,24.2666667 C26.18,27.4866667 28.07,29.0033333 30.9166667,30.2166667 L31.8966667,30.6366667 C33.7166667,31.43 34.79,31.92 34.79,33.2733333 C34.79,34.3933333 33.74,35.21 32.1066667,35.21 C30.17,35.21 29.05,34.2066667 28.21,32.8066667 L24.99,34.6733333 Z" transform="translate(3 3)"/>
</svg>
