<svg xmlns="http://www.w3.org/2000/svg" width="48" height="48" viewBox="0 0 48 48">
  <g fill="none" transform="translate(8)">
    <path fill="#5382A1" d="M11.1373706,37 C4.30068689,39.0802187 15.2958029,43.3778149 24,39.3155157 C22.5743476,38.7118085 21.553525,38.0147918 21.553525,38.0147918 C17.6707316,38.8150364 15.8699706,38.8778085 12.3465864,38.4401011 C9.43823649,38.0759976 11.1373706,37 11.1373706,37 Z M9.65783205,33 C1.29315076,35.7769444 14.3117541,38.926003 26,35.5073446 C24.7576231,35.069195 23.9675278,34.2679845 23.9675278,34.2679845 C18.2551762,35.3682178 14.9539728,35.3329368 10.7737618,34.9015772 C7.54123918,34.5671403 9.65783205,33 9.65783205,33 Z M33.0545608,41.318121 C33.0545608,41.318121 34.4410805,42.1945296 31.5275655,42.8725424 C25.9874334,44.1600369 8.46894481,44.5488196 3.60238229,42.9238394 C1.85297819,42.3400064 5.13360642,41.5297972 6.16556718,41.3597872 C7.24179824,41.1807545 7.85682518,41.2141078 7.85682518,41.2141078 C5.91131023,40.1627215 -4.71818951,43.2785594 2.45756527,44.1708843 C22.0268926,46.6054653 38.1305814,43.0745878 33.0545608,41.318121 Z M12.3886645,27.0073979 C12.3886645,27.0073979 3.70605745,28.9694022 9.31393666,29.6818783 C11.6817565,29.9834801 16.4019448,29.9152461 20.7986807,29.5647657 C24.3919365,29.2763942 28,28.6632679 28,28.6632679 C28,28.6632679 26.7329737,29.1794945 25.816311,29.7749804 C16.9992755,31.9811326 -0.0336017295,30.9548045 4.86994475,28.6981812 C9.01688079,26.7910581 12.3886645,27.0073979 12.3886645,27.0073979 Z M28.1660863,34.750347 C28.1278591,34.8682575 28,35.0001367 28,34.9999999 C39.0366023,31.653173 34.9790647,23.2029109 29.7031259,25.3425576 C29.2396515,25.5323649 28.9969922,25.9708665 28.9969922,25.9708665 C28.9969922,25.9708665 29.2884445,25.8348789 29.9421049,25.6779386 C32.608982,25.0366198 36.4297965,29.7968679 28.1660863,34.750347 Z M12.0155595,47.8672935 C20.9520285,48.3539481 34.6749889,47.5972839 35,44 C35,44 34.3752564,45.3637024 27.6144895,46.4466992 C19.9870263,47.6678301 10.5796255,47.5252587 5,46.7426517 C5.00013375,46.7425379 6.14222024,47.5468776 12.0155595,47.8672935 Z"/>
    <path fill="#E76F00" d="M20.9832978,23.7164107 C13.6534929,14.2816711 29,10 29,10 C19.2231007,16.3342332 21.029091,18.1713754 23.3841158,21.8688755 C25.9056393,25.8337607 20.4151727,29 20.4151727,29 C20.4151727,29 23.1456047,26.4974319 20.9832978,23.7164107 Z M22.6557806,0 C22.6557806,0 27.8949796,5.11546134 17.686628,12.9815958 C9.50056632,19.2915889 15.8199509,22.889378 17.6832303,27 C12.9048905,22.7920114 9.39822865,19.0877027 11.7507717,15.6400756 C15.2037505,10.579267 24.7696717,8.12560185 22.6557806,0 Z"/>
  </g>
</svg>
