<svg xmlns="http://www.w3.org/2000/svg" width="48" height="48" viewBox="0 0 48 48">
  <path fill="#F4511E" d="M32.9855769,13 L36,18.8404255 C35.0913462,19.6884498 34.4567308,20.7826748 34.1971154,22 L31.9471154,22 C31.6730769,20.7142857 30.9807692,19.5790274 30,18.7173252 L32.9855769,13 Z M26.9364272,16.9257885 C26.7171011,16.8664193 26.4831532,16.8070501 26.2638271,16.7625232 L21,1 L44,1 L38.7215512,16.8070501 C38.502225,16.8664193 38.2828989,16.9257885 38.0635728,17 L32.5073109,5.49721707 L26.9364272,16.9257885 Z M24.513834,27 C22.5909091,27 21.027668,25.4103586 21,23.5 C21,21.8545817 22.1343874,20.4601594 23.6561265,20.0836653 C23.7252964,20.0697211 23.7806324,20.0557769 23.8498024,20.0418327 L23.8913043,20.0418327 C23.9466403,20.0278884 24.0019763,20.0278884 24.0573123,20.0139442 L24.1126482,20.0139442 C24.1679842,20.0139442 24.2094862,20 24.2648221,20 L24.3201581,20 L24.527668,20 L24.7351779,20 L24.8043478,20 C24.8458498,20 24.9011858,20.0139442 24.9426877,20.0139442 C24.9703557,20.0278884 24.9841897,20.0278884 25.0118577,20.0278884 C25.0671937,20.0418327 25.1086957,20.0418327 25.1640316,20.0557769 C25.1916996,20.0697211 25.2055336,20.0697211 25.2193676,20.0697211 C25.2885375,20.0836653 25.3438735,20.0976096 25.4130435,20.1115538 L25.4268775,20.1115538 C25.4822134,20.125498 25.5375494,20.1533865 25.5928854,20.1673307 C25.6205534,20.1673307 25.6343874,20.1812749 25.6482213,20.1812749 C25.6897233,20.1952191 25.7450593,20.2231076 25.7865613,20.2370518 C25.8003953,20.2370518 25.8142292,20.250996 25.8280632,20.250996 C25.8833992,20.2649402 25.9387352,20.2928287 25.9940711,20.3207171 L26.0079051,20.3207171 C26.0632411,20.3486056 26.1324111,20.3904382 26.187747,20.4183267 L26.201581,20.4183267 C26.256917,20.4462151 26.312253,20.4880478 26.3675889,20.5159363 C26.3814229,20.5159363 26.3814229,20.5298805 26.3952569,20.5298805 C26.4505929,20.5577689 26.5059289,20.5996016 26.5474308,20.62749 L26.5612648,20.6414343 C26.7272727,20.752988 26.8932806,20.8924303 27.0316206,21.0458167 L27.0454545,21.059761 C27.1837945,21.2131474 27.3221344,21.3804781 27.4328063,21.561753 C27.7924901,22.1195219 28,22.7749004 28,23.4860558 C28,25.4243028 26.4367589,27 24.513834,27 Z M40.875,20.0138614 C40.9861111,20.0277228 41.0972222,20.0415842 41.1805556,20.0693069 C42.7777778,20.3881188 44,21.8158416 44,23.5069307 C44,25.4336634 42.4305556,27 40.5,27 C38.5694444,27 37,25.4336634 37,23.5069307 C37,22.8831683 37.1666667,22.2871287 37.4583333,21.7742574 C37.5694444,21.580198 37.6944444,21.3861386 37.8472222,21.219802 C38,21.0534653 38.1527778,20.9009901 38.3333333,20.7623762 L38.3472222,20.7485149 C38.4583333,20.6514851 38.5833333,20.5683168 38.7083333,20.4990099 C38.7083333,20.4851485 38.7222222,20.4851485 38.7222222,20.4851485 C38.7777778,20.4435644 38.8333333,20.4158416 38.8888889,20.3881188 C38.9027778,20.3881188 38.9166667,20.3742574 38.9305556,20.3742574 C39,20.3465347 39.0555556,20.3188119 39.125,20.2910891 C39.1805556,20.2633663 39.25,20.2356436 39.3194444,20.2079208 C39.3333333,20.2079208 39.3472222,20.1940594 39.3611111,20.1940594 C39.4166667,20.1663366 39.4722222,20.1524752 39.5277778,20.1386139 C39.5416667,20.1386139 39.5694444,20.1247525 39.5833333,20.1247525 C39.6527778,20.1108911 39.7083333,20.0970297 39.7777778,20.0831683 L39.7916667,20.0831683 L40,20.0415842 C40.0138889,20.0277228 40.0416667,20.0277228 40.0555556,20.0277228 C40.1111111,20.0277228 40.1666667,20.0138614 40.2222222,20.0138614 L40.2916667,20.0138614 C40.375,20 40.4444444,20 40.5138889,20 L40.6944444,20 C40.75,20 40.7916667,20.0138614 40.8472222,20.0138614 L40.875,20.0138614 Z M9.5,27 C7.56944444,27 6,25.4305556 6,23.5 C6,21.5694444 7.56944444,20 9.5,20 C11.4305556,20 13,21.5694444 13,23.5 C13,25.4305556 11.4305556,27 9.5,27 Z M40.2812553,30.8786408 C41.5021237,30.8786408 42.6347366,30.5436893 43.6055476,29.9902913 C43.9879883,31.0533981 44.1056624,32.2038835 43.8997328,33.3398058 C43.5761291,35.2038835 42.4140977,36.8349515 40.7078238,37.8106796 C39.1045146,38.7281553 37.133474,39.0194175 35.0594686,39.3106796 C33.9268557,39.4708738 32.7501151,39.6456311 31.5880837,39.9223301 C28.528558,40.6650485 25.5867064,42.1213592 22.7331103,43.5194175 C19.0852142,45.3106796 15.6432478,47 12.4513388,47 C10.7891926,47 9.30355756,46.5194175 7.89146877,45.5582524 C4.65543198,43.3446602 4.81723382,39.1941748 5.19967453,36.9223301 C5.55269672,34.7961165 6.53821702,32.815534 7.47960954,30.8932039 C7.53844658,30.776699 7.58257435,30.6601942 7.64141138,30.5582524 C7.96501506,30.6747573 8.303328,30.7621359 8.6563502,30.8203883 C8.09739839,33.907767 9.68599827,37.0970874 12.7749425,38.6699029 L13.3338943,38.961165 L13.9369739,38.7427184 C16.5110941,37.8252427 18.8939939,36.368932 20.9974178,34.4029126 C22.1888677,33.2961165 23.2038065,32.1019417 24.0569435,30.8058252 C24.3805472,30.8495146 24.7188601,30.8786408 25.0718823,30.8786408 C28.131408,30.8786408 30.7055282,28.7961165 31.4409911,26 L33.9121465,26 C34.6476094,28.7961165 37.2217296,30.8786408 40.2812553,30.8786408 Z"/>
</svg>
