<svg xmlns="http://www.w3.org/2000/svg" width="24" height="24" viewBox="0 0 24 24">
  <path fill="#616161" d="M11.2575916,8.00286156 C10.5388991,7.98996237 9.78257391,7.96072168 8.98861616,7.91513948 L8.91941803,9.88167539 L11.2575916,9.88167539 L11.2575916,8.00286156 Z M12.6335079,8.00715639 L12.6335079,9.88167539 L14.88727,9.88167539 L14.8187494,7.93439515 C14.0541515,7.97449915 13.3257377,7.99875307 12.6335079,8.00715691 Z M8.87100253,11.2575916 L8.61256545,18.6020942 L5.9895288,18.6125654 L6.74594267,11.2575916 L3,11.2575916 L3,9.88167539 L6.8874472,9.88167539 L7.10337731,7.78208367 C5.85272892,7.67846117 4.52088762,7.53958162 3.1078534,7.36544503 L3.1078534,5 C6.61989529,5.43280977 9.63036649,5.6478185 12.139267,5.64502618 C14.608377,5.64223386 17.5619546,5.42722513 21,5 L21,7.36544503 C19.4725088,7.55525713 18.0406486,7.70317897 16.7044196,7.80921053 L16.912,9.88167539 L20.8921466,9.88167539 L20.8921466,11.2575916 L17.0498133,11.2575916 L17.7842932,18.5905759 L15.1937173,18.5905759 L14.9356855,11.2575916 L8.87100253,11.2575916 Z"/>
</svg>
