<svg xmlns="http://www.w3.org/2000/svg" width="48" height="48" viewBox="0 0 48 48">
  <path fill="#616161" d="M22,14.2230371 C20.1557592,14.1902403 18.214949,14.1158947 16.1775697,14 L16,19 L22,19 L22,14.2230371 Z M26,14.1868279 L26,19 L32,19 L31.8175834,14 C29.7820592,14.1029744 27.8428648,14.1652508 26,14.1868292 L26,14.1868279 Z M16.3513395,22.6295385 L15.7196044,40.9738462 L9.30773707,41 L11.1567487,22.6295385 L2,22.6295385 L2,19.1929231 L11.5026487,19.1929231 L12.0304779,13.948789 C8.97333736,13.6899719 5.71772529,13.3430935 2.26364164,12.9081539 L2.26364164,7 C10.8486329,8.08102564 18.2075625,8.61805129 24.3404304,8.61107693 C30.3760327,8.60410258 37.595889,8.06707692 46,7 L46,12.9081539 C42.2661326,13.3822461 38.7660299,13.7517093 35.4996924,14.0165436 L36.0071111,19.1929231 L45.7363584,19.1929231 L45.7363584,22.6295385 L36.3439881,22.6295385 L38.1393834,40.945077 L31.8068645,40.945077 L31.1761201,22.6295385 L16.3513395,22.6295385 Z"/>
</svg>
