<svg xmlns="http://www.w3.org/2000/svg" width="48" height="48" viewBox="0 0 48 48">
  <g fill="none" transform="translate(5 1)">
    <path fill="#F57C00" d="M21,5.00016663 C12.4410332,5.00950973 5.00294422,10.7148799 3.00685976,18.8017663 C6.08073242,14.8557578 13.1617222,12.2948517 21,12.294379 C28.85601,12.2992511 35.9446096,14.8755814 39,18.8364252 C37.0174406,10.733288 29.5720926,5.01012132 21,5 L21,5.00016663 Z M3,27.1635748 C4.98255939,35.266712 12.4279074,40.9898787 21,41 C29.5589668,40.9906569 36.9970558,35.2852867 38.9931402,27.1984004 C35.9192676,31.1444088 28.8382778,33.7053149 21,33.7057876 C13.14399,33.7009156 6.05539044,31.1245852 3,27.1637414 L3,27.1635748 Z"/>
    <circle cx="4.5" cy="42.5" r="3.5" fill="#9E9E9E"/>
    <circle cx="2.5" cy="5.5" r="2.5" fill="#616161"/>
    <circle cx="35.5" cy="3.5" r="3.5" fill="#757575"/>
  </g>
</svg>
