<svg xmlns="http://www.w3.org/2000/svg" width="48" height="48" viewBox="0 0 48 48">
  <path fill="#26A69A" d="M13.5454545,28.3333333 C11.2359001,28.3333333 9.36363636,26.3932339 9.36363636,24 C9.36363636,21.6067661 11.2359001,19.6666667 13.5454545,19.6666667 C15.855009,19.6666667 17.7272727,21.6067661 17.7272727,24 C17.7272727,26.3932339 15.855009,28.3333333 13.5454545,28.3333333 Z M25.3590909,19.6666667 C23.6445455,14.6183333 19.0027273,11 13.5454545,11 C6.61679132,11 1,16.8202983 1,24 C1,31.1797017 6.61679132,37 13.5454545,37 C19.0027273,37 23.6445455,33.3816667 25.3590909,28.3333333 L34.4545455,28.3333333 L34.4545455,37 L42.8181818,37 L42.8181818,28.3333333 L47,28.3333333 L47,19.6666667 L25.3590909,19.6666667 Z"/>
</svg>
