<svg xmlns="http://www.w3.org/2000/svg" width="48" height="48" viewBox="0 0 48 48">
  <path fill="#90A4AE" d="M2,9.48686557 L9.34336525,16.8299642 C9.99651942,17.4831183 9.99651942,18.5347937 9.34336525,19.1879859 L2,26.5313512 L2,9.48686557 Z M10.9700601,37.8385946 L3.62669483,30.495496 C2.97354067,29.8423419 2.97354067,28.7906665 3.62669483,28.1374742 L10.9700601,20.794109 L10.9700601,37.8385946 Z M46,16.2763165 L34.6753087,27.6008173 L25.5681033,18.493612 L25.6350759,18.4266394 L46,16.2763165 Z M13.0314291,9 L31.833888,27.8018494 C32.6253303,28.5932917 32.6253303,29.8675994 31.833888,30.6590417 L24.8097664,37.6831633 C24.0183241,38.4746056 22.7511403,38.4674436 21.9525741,37.6831633 C21.9525741,37.6831633 17.9118184,33.8507541 15.86104,31.7005836 C14.4353391,30.2060815 12.9446809,29.2225978 13.019086,25.9606746 C13.1188363,21.5887894 13.0314291,9 13.0314291,9 Z"/>
</svg>
