<svg xmlns="http://www.w3.org/2000/svg" width="48" height="48" viewBox="0 0 48 48">
  <path fill="#29B6F6" d="M24.0324127,2.06676092 C23.4980202,2.06150254 22.964481,2.30047367 22.4776416,2.78690766 C15.9085107,9.34579831 9.34748666,15.9134359 2.7945695,22.489607 C2.48838553,22.796687 2.3064928,23.2289542 2.06680657,23.6025533 L2.06680657,24.4772853 C2.4088528,24.9532231 2.6932122,25.487957 3.10173483,25.8974183 C9.44408651,32.265584 15.7985985,38.6209493 22.1652708,44.9641544 C22.5764175,45.372741 23.1100634,45.6570364 23.5868118,46 L24.4616292,46 C24.8990166,45.6981681 25.3906774,45.4550472 25.759839,45.0867176 C32.2579281,38.5995088 38.7528171,32.1095266 45.2449327,25.6165577 C46.2465801,24.6148036 46.2527029,23.4720752 45.257093,22.4764226 C38.7037491,15.9211587 32.1486986,9.36610817 25.591728,2.8114843 C25.1018379,2.32153022 24.5666133,2.07207306 24.0322207,2.06682492 L24.0324127,2.06676092 Z M21.7665405,11.7640799 L24.7232041,13.5392514 C26.221739,14.4386455 27.7176286,15.3425623 29.2223078,16.2313748 C29.2227131,16.2315792 29.2229158,16.2319815 29.223319,16.2321859 C29.2534425,16.2500424 29.2814752,16.2680268 29.3073319,16.2865489 C29.3205589,16.2958078 29.3312471,16.3054934 29.3431088,16.3150105 C29.3548424,16.3242694 29.3672801,16.3332936 29.377883,16.3428683 C29.5094278,16.4609727 29.5676906,16.6036324 29.5670506,16.8200647 C29.5570237,19.5177349 29.5570237,22.2151917 29.5670506,24.9128619 C29.5670506,24.9909653 29.5625705,25.0578043 29.5506235,25.1139125 L29.5506235,25.1141151 C29.5199667,25.2612336 29.4360392,25.3342169 29.249005,25.3469959 C29.2197136,25.3491293 29.1897608,25.3510493 29.1551146,25.3504093 C29.0585787,25.3472092 28.9616162,25.3463558 28.8649523,25.3440091 C28.1762944,25.3316355 27.4813643,25.3424645 26.736193,25.3424645 L26.736193,24.21915 C26.736193,23.2665705 26.7344393,22.3136924 26.7344393,21.3608356 L26.7344393,21.3584889 C26.7344372,20.8816978 26.7349449,20.4048427 26.736193,19.928073 C26.7361994,19.9257263 26.7361887,19.9233796 26.736193,19.9210328 C26.7375327,19.4458418 26.7396064,18.9706721 26.7430198,18.4955664 L26.7430198,18.4948069 C26.7430027,18.1831188 26.660799,18.0037861 26.3819864,17.8394512 C24.4766355,16.7133846 22.5834876,15.564832 20.6869049,14.4275224 C20.575798,14.3610332 20.4690646,14.2873929 20.3151192,14.1885189 L20.318106,14.1835694 C20.3169731,14.1828616 20.3162521,14.1823325 20.3151192,14.1815235 L21.7665405,11.7640799 Z M22.5387845,18.9966947 C22.684495,18.9898039 22.7919965,19.0866384 22.9089915,19.290057 C23.0900949,19.6051586 23.2789211,19.9156307 23.4713315,20.2274468 C23.4826384,20.2455806 23.4933054,20.2634157 23.5043563,20.2814002 C23.5043862,20.2814492 23.5043243,20.2815004 23.5043563,20.2816028 C23.7088203,20.6116168 23.9171671,20.9435507 24.1257912,21.2838476 L20.0414182,23.7929262 C19.3214635,24.2356257 18.6059889,24.6837014 17.8773086,25.1106565 C17.635873,25.2524202 17.548212,25.4159018 17.548212,25.7011359 C17.5693326,27.7860328 17.5719567,29.8710577 17.5798289,31.9560186 L17.5798289,32.4974727 L14.7865828,32.4974727 C14.7865291,32.4968668 14.7864807,32.4962353 14.7863798,32.4957233 L14.7829877,32.4957233 C14.7734301,32.3819923 14.7532248,32.2578078 14.7523522,32.1335592 C14.7418559,29.4659698 14.7392745,26.7966737 14.719146,24.1299376 C14.719146,23.8289805 14.8163795,23.658352 15.0691924,23.5034893 C17.4602947,22.0523156 19.8447834,20.5916269 22.2224452,19.121082 C22.2350322,19.1133378 22.2458698,19.108175 22.2582222,19.1010708 C22.2816468,19.0873104 22.3046874,19.0741602 22.3264479,19.0631221 C22.3379682,19.0575326 22.3486565,19.0527965 22.3596435,19.0476337 C22.3843268,19.0362414 22.4080927,19.0269825 22.430792,19.0195604 C22.4393255,19.0167443 22.4480724,19.0133096 22.4564566,19.0113895 C22.4656302,19.0088081 22.4750171,19.0066534 22.4839347,19.0049467 C22.4943883,19.002901 22.5046286,19.0015119 22.5149542,19.0004239 C22.5228477,18.9995119 22.5311679,18.9972025 22.5388695,18.9969892 L22.5387845,18.9966947 Z M34.651313,25.6643882 L35.3199811,26.8158635 L36.0588163,28.0843765 C36.0582083,28.0847819 36.0576814,28.0849845 36.0570605,28.0853878 L36.0580739,28.0869366 C35.7204011,28.2864085 35.4229214,28.4650371 35.1237563,28.6382683 C32.9210323,29.9156135 30.7189483,31.1940681 28.517291,32.4738881 C28.2915998,32.6060088 28.1140805,32.6269374 27.8778717,32.4947953 C27.2432099,32.1420181 26.6076307,31.790521 25.9724568,31.4384691 C24.8882473,30.8388375 23.8038671,30.2394406 22.7194655,29.6401717 C22.0834383,29.2895066 21.4478378,28.9381801 20.8112985,28.5883043 C20.7360539,28.5462979 20.6669108,28.4938378 20.5365607,28.4072223 L20.5379005,28.4048755 C20.5377981,28.4047795 20.5376978,28.4047795 20.5374951,28.4046729 L20.8304308,27.871539 L21.8855196,25.9479263 C22.9352749,26.5253493 23.9543307,27.0854279 24.9716799,27.6436291 C25.9147017,28.1633226 26.861201,28.6759973 27.79458,29.2114352 C28.0517813,29.358447 28.2460477,29.3636738 28.5067478,29.2114352 C30.4129308,28.089806 32.3287139,26.9846039 34.241937,25.8760951 C34.3644149,25.8043279 34.4938263,25.744849 34.6512917,25.6643562 L34.651313,25.6643882 Z"/>
</svg>
