<svg xmlns="http://www.w3.org/2000/svg" width="48" height="48" viewBox="0 0 48 48">
  <path fill="#FF5722" d="M43.4834676,23.0579933 C43.1927738,23.1283494 38.4235576,24.4248859 38.4235576,24.4248859 L34.523502,18.5621515 C34.4145613,18.3925455 34.3228257,18.2229478 34.5963184,18.183374 C34.8692432,18.1431714 39.3012537,17.2662541 39.5014594,17.215988 C39.7021398,17.1657342 39.8741422,17.1060581 40.1206975,17.4754297 C40.3660965,17.8441703 43.738599,22.5196508 43.8659842,22.699904 C43.99327,22.8795611 43.7753927,22.9888621 43.4841329,23.0579523 L43.4834676,23.0579933 Z M42.6521941,33.1615523 C42.7714534,33.366959 42.8907168,33.497622 42.5163057,33.6464948 C42.1424667,33.7960004 29.8907705,38.3263178 29.6524304,38.4375422 C29.4144757,38.5493565 29.2281444,38.5870478 28.9208175,38.1021074 C28.6146468,37.6184144 24.628667,30.0595386 24.628667,30.0595386 L37.6164792,26.3571794 C37.9971946,26.2252628 38.0866279,26.2742609 38.2460419,26.5255297 C38.4639152,26.8697723 42.5347441,32.9579051 42.6530014,33.1621238 L42.6521941,33.1615523 Z M21.6182183,28.8428071 C21.4599706,28.8842674 13.9982312,30.8366325 13.6008625,30.9364068 C13.2023781,31.0356566 13.2023781,30.9866605 13.1570833,30.8358992 C13.1112145,30.6870224 4.28717979,10.7513944 4.16445999,10.5019076 C4.04176047,10.2531582 4.04806685,10.0559039 4.16445999,10.0559039 C4.28027909,10.0559039 11.2099967,9.37747604 11.4554363,9.3630353 C11.7002674,9.34859456 11.6744658,9.40512237 11.7650553,9.57473036 L21.7094164,28.3821005 C21.8797048,28.705614 21.9605559,28.7527256 21.6176788,28.842545 L21.6182183,28.8428071 Z M40.8041596,16.5994628 C40.094332,15.6616137 39.7491749,15.8312155 39.3117042,15.9009407 C38.8748014,15.9700392 33.7787652,16.9079005 33.1870731,17.0171995 C32.5953608,17.1271293 32.2221101,17.3865546 32.5861924,17.9450117 C32.9101321,18.441261 36.2602813,23.6444941 36.9982229,24.7907404 L23.6789658,28.286423 L13.083277,8.8827835 C12.662419,8.19806724 12.5747099,7.95812569 11.615467,8.00585181 C10.6550882,8.05296549 3.30520634,8.72196899 2.78166946,8.7703301 C2.25819342,8.81806851 1.68311422,9.07311446 2.20659025,10.4274508 C2.73063424,11.7817871 11.0777108,31.4883952 11.3103713,32.0619281 C11.5431536,32.6360754 12.1474827,33.5664071 13.5637504,33.1938975 C15.0154952,32.8107161 20.0484271,31.3721934 22.7971479,30.5839135 C24.250049,33.4659159 27.2132353,39.3136975 27.7613162,40.1510554 C28.492929,41.2691986 28.9963439,41.0851561 30.1195648,40.7120115 C30.9967985,40.4211689 43.8418703,35.3599261 44.4203775,35.0993784 C44.999473,34.8386872 45.356111,34.6521252 44.9650709,34.0189245 C44.6772372,33.5521916 41.2887507,28.5789657 39.5134718,25.977175 C40.7290064,25.6222606 45.0520904,24.3615126 45.5125432,24.2245816 C46.049204,24.0650248 46.1226128,23.7760584 45.8313307,23.4173751 C45.540069,23.0580568 41.5122021,17.5345671 40.8028614,16.5972506 L40.8041596,16.5994628 Z"/>
</svg>
