<svg xmlns="http://www.w3.org/2000/svg" width="48" height="48" viewBox="0 0 48 48">
  <path fill="#0277BD" d="M15.765144,2.00013134 L15.7648695,2.00018763 L15.7648695,2 L19.1287058,2 L19.1287058,5.56451991 L17.6101106,5.5539378 C16.6496671,5.81141705 15.9582328,6.12931188 15.5695136,6.51563394 C14.8531146,7.22711197 14.4396376,8.47283644 14.4396376,10.2510812 L14.4396376,15.6344481 C14.4396376,17.3662367 14.2610501,18.7432994 13.7903499,19.764473 C12.9914059,21.4814391 11.4247237,22.8734556 9.08973927,23.9408415 C11.205531,24.7928514 12.6274446,25.7817534 13.3561003,26.909461 C14.0847749,28.0397204 14.4073358,29.6017074 14.4395812,31.5986116 L14.4395812,37.4698063 C14.4395812,39.1850837 14.9159774,40.4200948 15.7571997,41.1804869 C16.2246477,41.6279563 16.8729955,42.023397 18.0401117,42.364351 L18.0401117,45.9900371 L16.5438869,46 C14.3081596,45.9390215 12.350352,45.3116187 10.6704265,44.05019 C8.99068901,42.7880295 8.41326867,40.9479807 8.41326867,38.5322951 L8.41326867,31.2610348 C8.41326867,29.3087856 7.55486443,27.8145504 6.36383628,26.7760214 C5.6444107,26.1386557 4.34737678,25.6367935 3,25.2660444 L3,22.4535297 C4.52024947,21.9425301 5.857005,21.377119 6.48320792,20.7580281 C7.59490562,19.6887471 8.41458458,18.055087 8.41458458,15.8566725 L8.41458458,9.63048923 C8.41458458,8.84043342 8.37817905,8.04962709 8.55022836,7.14481918 C8.8521352,5.60197007 9.81571808,4.45020873 10.9414208,3.56772832 C11.9729045,2.76208077 13.1589134,1.98934284 14.5757701,2.00168863 C14.9032244,2.00086308 15.3127537,2.00251419 15.765144,2.00500962 L15.765144,2.00013134 Z M32.2348579,2.00013134 L32.2348579,2.00500962 C32.6872482,2.00251419 33.0967775,2.00086308 33.4242318,2.00168863 C34.8411261,1.98934284 36.0270974,2.76208077 37.0585811,3.56772832 C38.1843026,4.45020873 39.1478667,5.60197007 39.4497735,7.14481918 C39.6218228,8.04962709 39.5854154,8.84043342 39.5854154,9.63048923 L39.5854154,15.8566725 C39.5854154,18.055087 40.4050944,19.6887471 41.5167921,20.7580281 C42.142995,21.377119 43.4797505,21.9425301 45,22.4535297 L45,25.2660444 C43.6526232,25.6367935 42.3555893,26.1386557 41.6361637,26.7760214 C40.4451168,27.8145504 39.5867313,29.3087856 39.5867313,31.2610348 L39.5867313,38.5322951 C39.5867313,40.9479807 39.009311,42.7880295 37.3293855,44.05019 C35.6494224,45.3116187 33.6916524,45.9390215 31.4559251,46 L29.9597003,45.9900371 L29.9597003,42.364351 C31.1268165,42.023397 31.7751643,41.6279563 32.2426124,41.1804869 C33.0838346,40.4200948 33.5602496,39.1850837 33.5602496,37.4698063 L33.5602496,31.5986116 C33.5924969,29.6017074 33.9150748,28.0397204 34.6437493,26.909461 C35.3724238,25.7817534 36.7943186,24.7926638 38.9101103,23.9408415 C36.575126,22.8734556 35.0084437,21.4814391 34.2094997,19.764473 C33.7387995,18.7432994 33.5601932,17.3662367 33.5601932,15.6344481 L33.5601932,10.2510812 C33.5601932,8.47283644 33.1466974,7.22711197 32.4303172,6.51563394 C32.041598,6.12931188 31.3501637,5.81141705 30.3897202,5.5539378 L28.871125,5.56451991 L28.871125,2 L32.2349613,2 L32.2349613,2.00018763 L32.2348579,2.00013134 Z"/>
</svg>
