<svg xmlns="http://www.w3.org/2000/svg" width="48" height="48" viewBox="0 0 48 48">
  <path fill="#FFD54F" d="M24.3571429,35.7142857 C26.7536642,35.7142857 28.6964286,33.7715213 28.6964286,31.375 C28.6964286,28.9666964 26.74375,27.0357143 24.3571429,27.0357143 C21.9606215,27.0357143 20.0178571,28.9784787 20.0178571,31.375 C20.0178571,33.7715213 21.9606215,35.7142857 24.3571429,35.7142857 Z M37.375,16.1875 C39.7715213,16.1875 41.7142857,18.1302644 41.7142857,20.5267857 L41.7142857,42.2232143 C41.7142857,44.6197356 39.7715213,46.5625 37.375,46.5625 L11.3392857,46.5625 C8.94276439,46.5625 7,44.6197356 7,42.2232143 L7,20.5267857 C7,18.1184821 8.95267857,16.1875 11.3392857,16.1875 L13.5089286,16.1875 L13.5089286,11.8482143 C13.5089286,5.85691097 18.3658395,1 24.3571429,1 C30.3484462,1 35.2053571,5.85691097 35.2053571,11.8482143 L35.2053571,16.1875 L37.375,16.1875 Z M24.3571429,5.33928571 C20.7623609,5.33928571 17.8482143,8.2534323 17.8482143,11.8482143 L17.8482143,16.1875 L30.8660714,16.1875 L30.8660714,11.8482143 C30.8660714,8.2534323 27.9519248,5.33928571 24.3571429,5.33928571 Z"/>
</svg>
