<svg xmlns="http://www.w3.org/2000/svg" width="48" height="48" viewBox="0 0 48 48">
  <path fill="#42A5F5" fill-rule="evenodd" d="M36.0541104,5.55888027 C36.804165,5.03598721 37.7203034,4.72868713 38.7093583,4.72868713 C41.2494933,4.72868713 43.3086797,6.75560197 43.3086797,9.25592813 C43.3086797,10.2442756 42.9869274,11.1586515 42.4409019,11.9031045 C44.7415657,15.3839115 46.08101,19.5557862 46.08101,24.040505 C46.08101,36.2131398 36.2131398,46.08101 24.040505,46.08101 C11.8678702,46.08101 2,36.2131398 2,24.040505 C2,11.8678702 11.8678702,2 24.040505,2 C28.4721827,2 32.5983728,3.30794834 36.0541104,5.55888027 Z M34.8672747,6.76636476 C31.7302142,4.79602858 28.0184276,3.65656537 24.040505,3.65656537 C12.782766,3.65656537 3.65656537,12.782766 3.65656537,24.040505 C3.65656537,35.298244 12.782766,44.4244446 24.040505,44.4244446 C35.298244,44.4244446 44.4244446,35.298244 44.4244446,24.040505 C44.4244446,19.9948818 43.2458661,16.2245304 41.2133248,13.0540665 C40.4928048,13.5152495 39.6328677,13.7831691 38.7093583,13.7831691 C36.1692232,13.7831691 34.1100369,11.7562543 34.1100369,9.25592813 C34.1100369,8.33625558 34.388629,7.48063193 34.8672747,6.76636476 Z M24.2913053,11.4888404 C27.6871058,11.4881702 30.9440708,12.8154479 33.3455992,15.1786446 C35.7471276,17.5418413 37.0964663,20.7473443 37.0967323,24.0898751 C37.0964663,27.432406 35.7471276,30.637909 33.3455992,33.0011056 C30.9440708,35.3643023 27.6871058,36.6915801 24.2913053,36.6909099 C17.2214126,36.6901585 11.4903817,31.0488628 11.4898278,24.0898751 C11.4903817,17.1308874 17.2214126,11.4895918 24.2913053,11.4888404 Z M27.9632581,15.2725672 C25.4234254,15.2735333 23.3651599,17.300767 23.3657141,19.8007956 C23.3673747,22.299282 25.4249918,24.3241095 27.9632581,24.3250744 C30.5030666,24.3262557 32.5630903,22.3008001 32.5647518,19.8007956 C32.5650181,18.599555 32.0802674,17.4474557 31.2172286,16.5981582 C30.3541898,15.7488607 29.1836241,15.2719999 27.9632581,15.2725672 Z"/>
</svg>
