<svg xmlns="http://www.w3.org/2000/svg" width="48" height="48" viewBox="0 0 48 48">
  <path fill="#EF5350" d="M6.32429738,4 C3.93605388,4 2,5.93605388 2,8.32429738 L2,34.2700816 C2,36.6484977 3.9242861,38.594379 6.32429738,38.594379 L23.0764638,38.594379 L26.7671745,42.0655694 C27.0006089,42.28467 27.3556399,42.2968212 27.6033033,42.1077946 L30.2679771,39.9583428 C31.0840846,40.2676859 31.8811362,40.4336482 32.7173279,40.515769 L34.1573263,43.6406798 C34.2926482,43.9081545 34.6125895,44.0703393 34.9174415,43.9700651 L39.8159333,42.49206 C40.1207853,42.3918278 40.3137365,42.097616 40.2677757,41.7910642 L39.7525957,38.3916481 C40.0703754,38.1279299 40.3755211,37.8551666 40.664738,37.5470617 C40.953934,37.2389358 41.2149238,36.9029817 41.4755359,36.5504691 L44.874952,36.8798544 C45.1838334,36.9062976 45.4697974,36.6962423 45.5506169,36.3857869 L46.7119127,31.4027189 C46.7926693,31.0921585 46.62039,30.772469 46.336084,30.6637163 L43.1352015,29.4137519 C42.991401,28.5938039 42.7864665,27.804916 42.4173114,27.0193861 L44.3936234,24.2195583 C44.5665743,23.9604152 44.5298057,23.6067484 44.2964972,23.3876478 L40.9182776,20.2205538 L40.9182776,8.32469612 C40.9182776,5.9462801 38.9939915,4.00039875 36.5939803,4.00039875 L6.32429738,4 Z M6.32429738,12.6483849 L36.5933297,12.6483849 L36.5933297,21.8457803 C35.9412328,21.6356411 35.2901642,21.4932887 34.621257,21.4192688 L33.172801,18.3069499 C33.0461676,18.0301571 32.7133195,17.8772904 32.4084676,17.9775646 L27.5099757,19.4555698 C27.1958057,19.5470506 27.0121935,19.8500137 27.0581333,20.1565656 L27.6028835,23.5263905 C27.267559,23.8088077 26.9503669,24.0923792 26.661171,24.4005261 C26.3719751,24.7086519 26.1187922,25.033714 25.875725,25.3675695 L22.450915,25.0677544 C22.1420336,25.0413112 21.8509489,25.2425521 21.7794684,25.5618219 L20.6139543,30.5448899 C20.5331977,30.8554712 20.7141865,31.1658217 20.9897831,31.2838925 L24.1992701,32.5212019 C24.296858,33.1203705 24.4572589,33.6979228 24.6637884,34.269473 L6.32377271,34.269473 L6.32429738,12.6483849 Z M33.5880427,26.4909634 C34.7530701,26.4711773 35.8800071,26.9058809 36.7299527,27.702921 C37.5979707,28.516255 38.1070595,29.6412915 38.1450775,30.8302078 C38.1830954,32.0191242 37.7469235,33.1743873 36.9326417,34.0415161 C35.2381073,35.8451899 32.402381,35.9340489 30.5982438,34.2400078 C28.7933598,32.5466553 28.7026204,29.7108861 30.3955549,27.9056099 C31.2247064,27.0218501 32.3763907,26.5115113 33.5880427,26.4909424 L33.5880427,26.4909634 Z"/>
</svg>
