<svg xmlns="http://www.w3.org/2000/svg" width="48" height="48" viewBox="0 0 48 48">
  <g fill="none" fill-rule="evenodd">
    <path fill="#2196F3" fill-rule="nonzero" d="M9.58613385,12 C8.32458353,13.9991283 7.04304285,15.9952677 5.78160809,17.994396 C4.52005778,19.9763387 3.26162735,21.9971357 2,23.996264 L2.00385171,24 L2,24.003736 C3.26155031,26.0028643 4.51998074,28.0199253 5.78160809,30.001868 C7.0431584,32.0009963 8.32469909,34.0008717 9.58613385,36 L16,36 C14.720674,34.0006849 13.4607607,32.0009963 12.1991334,30.001868 C10.9398941,28.0062889 9.68050072,25.9955791 8.42137699,24 C9.68061627,22.0044209 10.9400096,19.9899751 12.1991334,17.994396 C13.4606837,15.9952677 14.7206548,13.9991283 16,12 L9.58613385,12 Z"/>
    <path fill="#26A69A" fill-rule="nonzero" d="M10.0038517,12 L10,12.0034247 C11.2615503,13.8359875 12.521714,15.68653 13.7831488,17.5033391 C15.0446991,19.3359019 16.323351,21.167266 17.5847857,23 L24,23 C22.720674,21.1674372 21.4597978,19.3360731 20.198363,17.5035103 C18.9391237,15.674201 17.6818488,13.8296518 16.4225325,12.0003425 L10.0038517,12 Z"/>
    <path fill="#8BC34A" fill-rule="nonzero" d="M30.9963408,12 L31,12.0034247 C29.7384323,13.8359875 28.4782513,15.68653 27.2167992,17.5033391 C25.9552315,19.3359019 24.676562,21.167266 23.4151099,23 L17,23 C18.2793435,21.1674372 19.5402372,19.3360731 20.8016893,17.5033391 C22.0609459,15.6740298 23.3182381,13.8294805 24.5775717,12.0001712 L30.9963408,12 Z"/>
    <path fill="#FFC107" fill-rule="nonzero" d="M24,12 C25.2793084,13.9994395 26.5392044,15.9958898 27.8008144,17.9953293 C29.0600363,19.9912191 30.3194123,22.0059785 31.5785188,24.0018683 C30.3192968,25.9977581 29.0599208,28.0087809 27.8008144,30.0046707 C26.5392814,32.0041102 25.2793276,34.0005605 24,36 L30.4137779,36 C31.6753109,34.0005605 32.9529823,32.0041102 34.2145923,30.0046707 C35.4761252,28.0224194 36.73839,26.0050444 38,24.0056049 L37.9961483,24.0018683 L38,23.9981317 C36.738467,21.9986922 35.4762023,19.9775806 34.2145923,17.9953293 C32.9530593,15.9958898 31.6753879,13.9994395 30.4137779,12 L24,12 Z"/>
    <path fill="#F44336" fill-rule="nonzero" d="M33,12 C34.2793084,13.9991283 35.5392044,15.9952677 36.8008144,17.994396 C38.0600363,19.9899751 39.3155607,22.0044209 40.5746671,24 C39.3154451,25.9955791 38.0599208,28.0062889 36.8008144,30.001868 C35.5392814,32.0009963 34.2793276,34.0008717 33,36 L39.4137779,36 C40.6753109,34.0008717 41.9529823,32.0009963 43.2145923,30.001868 C44.4761252,28.0199253 45.73839,26.0028643 47,24.003736 L46.9961483,24 L47,23.996264 C45.738467,21.9971357 44.4762023,19.9763387 43.2145923,17.994396 C41.9530593,15.9952677 40.6753879,13.9991283 39.4137779,12 L33,12 Z"/>
  </g>
</svg>
