<svg xmlns="http://www.w3.org/2000/svg" width="48" height="48" viewBox="0 0 48 48">
  <path fill="#231F20" d="M42.8236518,9 L5.17634821,9 C3.4245,9 2,10.4031375 2,12.1298375 L2,36.8667719 C2,38.5946344 3.4245,40 5.17634821,40 L42.8236518,40 C44.5755,40 46,38.5946344 46,36.866675 L46,12.1298375 C46,10.4031375 44.5755,9 42.8236518,9 Z M26.7522589,33.8 L21.2475446,33.8 L21.2475446,24.5 L17.1186161,29.7194312 L12.9914554,24.5 L12.9914554,33.8 L7.48713393,33.8 L7.48713393,15.2 L12.9914554,15.2 L17.1186161,21.7855625 L21.2475446,15.2 L26.7522589,15.2 L26.7522589,33.8 Z M34.9685714,33.8 L28.1294196,24.5 L32.2544196,24.5 L32.2544196,15.2 L37.7586429,15.2 L37.7586429,24.5 L41.8862946,24.5 L34.9668036,33.8 L34.9685714,33.8 Z"/>
</svg>
