<svg xmlns="http://www.w3.org/2000/svg" width="48" height="48" viewBox="0 0 48 48">
  <path fill="#F44336" fill-rule="evenodd" stroke="#F44336" stroke-linejoin="round" stroke-width=".775" d="M24.4428746,2.00615216 L24.2855812,2.05962547 L23.2978861,3.76451401 L22.3227745,5.40337154 L19.70902,9.88897098 L19.6712696,9.88897098 L11.3923764,6.24964218 L11.1784853,6.14898515 L11.1407392,6.14898515 L11.1407392,6.34715979 L11.1942125,6.6963189 L11.1942125,6.88189933 L11.4773191,9.51476518 L11.4773191,9.69092304 L11.5465218,10.2319693 L11.5465218,10.4081272 L12.018359,14.9974437 L12.018359,15.1578657 L12.0561051,15.3340236 L12.0561051,15.4629934 L7.0136978,16.5513563 L6.92877011,16.5828085 L5.94734526,16.7967018 L5.89387195,16.8187164 L5.80265896,16.8187164 L3.44980755,17.3440227 L3.36487771,17.3598057 L3,17.4352915 L3,17.6114493 L3.03774612,17.633464 L7.02945506,22.1126214 L7.14269341,22.2258511 L7.38804962,22.5089577 L9.11499145,24.4591381 L9.11499145,24.4718074 L9.0017531,24.5787669 L8.52991588,25.1292401 L3.02217783,31.3039451 L3.0001589,31.3196207 L3.0001589,31.4957893 L3.15428925,31.508244 L3.78655498,31.6686725 L7.43232583,32.4550535 L7.43232583,32.4677229 L12.0248633,33.4805849 L12.0563177,33.4805849 L12.0563177,33.5812312 L11.9808255,34.1222776 L11.9808255,34.2952895 L11.8801684,35.1791818 L11.8801684,35.3553504 L11.8046762,35.8806566 L11.8046762,36.0568252 L11.707165,36.9407174 L11.707165,37.1137294 L11.6002184,37.9913084 L11.6002184,38.1643204 L11.5215803,38.6896266 L11.5215803,38.8657952 L11.4240691,39.7496874 L11.4240691,39.925856 L11.3171225,40.8002355 L11.3171225,40.9764041 L11.2479199,41.508002 L11.2479199,41.6841491 L11.1409711,42.5586145 L11.1409711,42.7819389 L11.2196092,42.7819389 L19.039399,39.3470378 L19.6716647,39.0576395 L19.7094152,39.0576395 L20.0900329,39.7276556 L21.2475834,41.6841062 L21.2790421,41.7533153 L23.112922,44.8987536 L23.4557894,45.4618102 L24.323963,46.9528012 L24.3398534,47 L24.5380323,47 L24.5474806,46.9528012 L24.585231,46.8993322 L25.7868237,44.8673379 L25.8182824,44.7761184 L27.1048027,42.5583353 L27.7842457,41.4007848 L29.1682987,39.0573818 L29.2752582,39.0857053 L37.6610895,42.7817242 L37.7365688,42.7817242 L37.7365688,42.5992853 L37.4409002,39.7652128 L37.4409002,39.5890656 L37.3716911,39.0637594 L37.3716911,38.8875908 L37.2962118,38.3622846 L37.2962118,38.1798457 L37.2270027,37.6545395 L37.2270027,37.4815275 L37.1577936,36.9562213 L37.1577936,36.7800527 L37.0885201,36.2547679 L37.0885201,36.072329 L37.0130407,35.5470228 L37.0130407,35.3708542 L36.9438316,34.8455695 L36.9438316,34.6694223 L36.8746225,34.1441161 L36.8746225,33.9616772 L36.8211535,33.5967995 L36.8211535,33.4835698 L40.3251993,32.7223342 L40.4164187,32.7066585 L41.4009787,32.4770209 L41.4607394,32.4770209 L41.4607394,32.4550535 L41.954587,32.348094 L42.0175043,32.3260837 L42.1087238,32.3260837 L42.9297201,32.1341965 L42.9831891,32.1121862 L43.0744085,32.1121862 L43.4927553,32.0052266 L43.5619644,32.0052266 L45.7417394,31.5113791 L45.8927195,31.4954887 L45.8927195,31.357092 L45.8612609,31.3287684 L43.3039817,28.4474542 L43.244221,28.3876935 L42.8227176,27.9158562 L39.7558724,24.4715068 L39.7558724,24.4588374 L40.3881381,23.7636758 L41.2468634,22.782251 L45.8613038,17.6110027 L45.8927625,17.588988 L45.8927625,17.4505806 L45.8172831,17.4347976 L43.0523553,16.8339905 L42.2533907,16.6515517 L42.1527444,16.629537 L36.8243101,15.4625382 L36.8243101,15.3650206 L37.7522445,6.2085054 L37.7522445,6.16446754 L37.6610251,6.16446754 L37.0128904,6.45405916 L36.9908801,6.48551355 L36.937411,6.48551355 L29.8378424,9.59960054 L29.1993064,9.8889989 L29.1678478,9.8889989 L24.8113041,2.40891986 L24.6005631,2.09751116 L24.5691044,2 L24.4428746,2.00615216 Z M24.4396536,4.39679693 L27.3712158,9.38573521 L28.1009713,10.6565369 L28.0850809,10.7100103 L25.5499194,13.9561593 L24.4395462,15.3716495 L24.4143793,15.3496348 L23.860771,14.6324629 L23.7758433,14.5255141 L20.7749216,10.6879849 L20.8378283,10.5527276 L23.7977355,5.47274168 L24.4142612,4.41899408 L24.4396536,4.39679693 Z M34.9803506,8.77545834 L34.9646749,8.82893165 L34.6029324,9.31333086 L33.448517,9.45487988 L34.9803506,8.77545834 Z M13.8987419,8.78490668 L14.0119802,8.82894453 L15.4652208,9.47063714 L14.3957546,9.47063714 L13.9144905,8.82892306 L13.8987419,8.78490668 Z M36.1130777,9.47061996 L35.8488678,12.1507275 L35.6066682,10.1596616 L36.0910674,9.49909382 L36.1130777,9.47061996 Z M16.2296903,9.8071956 L16.3429286,9.85752304 L17.85593,10.521226 L16.2296345,10.1468999 L16.2296903,9.8071956 Z M32.0925943,10.0556869 L32.136615,10.4174295 L29.3055487,11.2824465 L29.311776,11.2761548 L29.6546434,11.1220245 L31.8344184,10.1689231 L32.0925943,10.0556869 Z M20.485738,12.452559 L22.5114407,15.0381832 L22.5114407,15.0601978 L20.0862235,14.1951808 L20.485738,12.452559 Z M28.1073274,12.8205933 L28.5571543,14.2864174 L28.057015,14.4657168 L27.8651493,14.5129006 L26.3584397,15.0602171 L26.3741153,15.0130291 L28.0413179,12.9055124 L28.1073274,12.8205933 Z M17.371651,14.6166369 L19.4886805,15.3810076 L21.4169578,16.0510238 L21.5207607,16.0950552 L23.7823498,16.8940197 L23.8075167,23.5216008 L23.0305625,23.2699528 L21.5899054,22.7886887 L21.4169041,22.7069069 L19.8378503,22.1816007 L18.1864308,21.6311275 L17.5604783,21.4172364 L17.5384636,20.8699198 L17.4692588,18.3031924 L17.4472442,17.6866667 L17.415792,15.7679021 L17.3874791,15.1293661 L17.371651,14.6166369 Z M31.5076562,14.6166369 L31.4824892,15.1041927 L31.4227285,17.0387403 L31.4070528,17.6867247 L31.3378437,20.8542807 L31.3158334,21.4173373 L30.5923482,21.6689853 L29.0164295,22.1942915 L27.3619393,22.7447647 L25.8331979,23.2700709 L25.0719623,23.5217189 L25.0939726,16.8941378 L28.5980184,15.6547947 L31.5076562,14.6166369 Z M32.7627393,15.5539981 L32.954605,17.133052 L34.6532018,16.9254397 L32.6872599,19.7217189 L32.6495095,19.7342809 L32.6715199,19.3411011 L32.7092703,17.4569733 L32.7627393,15.5539981 Z M12.4670607,16.7052569 L12.794188,17.1770941 L15.9020476,21.5776585 L10.3030472,23.6568301 L10.1961006,23.6882888 L5.96217056,18.9353443 L5.3613635,18.2653281 L5.36765524,18.2433135 L5.61301145,18.2055631 L6.52522721,17.991672 L6.82405244,17.944484 L7.54753761,17.7777637 L7.63875918,17.7557491 L12.4670607,16.7052569 Z M36.4014239,16.7115486 L43.4537508,18.2434252 L43.5166682,18.2654398 L43.4694694,18.3189088 L39.2733327,23.0246116 L38.6788174,23.6946278 L38.4806385,23.6191484 L32.9759067,21.5776628 L33.9950605,20.1149953 L34.3221878,19.6526064 L36.4014239,16.7115486 Z M14.2944555,17.0324057 L16.1439681,17.0324057 L16.2194517,19.7344162 L16.1911389,19.7218542 L14.5522814,17.4067961 L14.2944555,17.0324057 Z M17.2103421,22.6691994 L17.5374694,22.7981693 L19.1919596,23.3392156 L20.7207011,23.8645218 L22.3217652,24.3961198 L23.3723777,24.7547272 L23.2339595,24.9529062 L19.5347196,29.9637474 L17.3549446,29.3157631 L17.1787868,29.2780127 L17.103301,29.246554 L13.0203297,28.0449614 L15.0334703,25.4247649 L17.140987,22.6819547 L17.2103421,22.6691994 Z M31.664155,22.6691994 L31.7333641,22.6818688 L35.5708933,27.6800407 L35.854,28.0449184 L35.5803417,28.1203978 L35.5111326,28.1518564 L30.7959814,29.5295962 L30.5695219,29.5988053 L29.3585024,29.963683 L29.320752,29.9574557 L27.0591629,26.8654864 L26.6848369,26.3527637 L25.5115463,24.792585 L25.4958706,24.7548346 L26.502441,24.4119672 L28.1538605,23.8646507 L29.685737,23.3393444 L31.3371566,22.7982981 L31.664155,22.6691994 Z M14.9874054,23.3234755 L14.9716653,23.3674962 L14.1034917,24.4904529 L13.4775391,23.8645004 L14.8898727,23.3391941 L14.9874054,23.3234755 Z M33.8883802,23.3234755 L33.9795996,23.3393659 L35.2220778,23.7954631 L36.7539543,24.3742598 L35.335329,25.2204016 L34.5300728,24.1918209 L34.4671554,24.1006015 L33.9040988,23.3676895 L33.8883802,23.3234755 Z M10.604664,24.933988 L9.16714199,26.3683319 L9.92837757,25.5158769 L10.3718912,25.0220294 L10.604664,24.933988 Z M38.3291,24.9685818 L38.4737884,25.0220509 L38.5712996,25.1132703 L39.7603088,26.4595728 L39.8515282,26.5507923 L40.2887501,27.0415047 L39.7414336,27.3309031 L38.3291,24.9685818 Z M24.4288739,25.5379302 L24.4760512,25.5693889 L27.4389647,29.5894429 L27.5081738,29.6964024 L28.244221,30.6966809 L28.2601114,30.7627549 L28.0713808,31.0144028 L27.1654568,32.3638405 L27.0648105,32.5242691 L26.5395042,33.2603162 L24.4540408,36.3301678 L24.4288739,36.3460582 L21.8937125,32.6530456 L21.6892633,32.3101783 L20.6292239,30.7877501 L20.6134409,30.7091141 L24.0861354,26.0034113 L24.1020258,25.9814009 L24.4288739,25.5379302 Z M41.2361824,28.1014367 L42.4503586,29.4603012 L42.5856201,29.6364698 L42.0005532,29.4382909 L41.9219172,29.4099673 L41.2361824,28.1014367 Z M7.3402625,28.4191371 L7.9787985,29.0608297 L6.6104856,29.5295103 L6.2833583,29.6364483 L6.36514227,29.5137702 L7.3402625,28.4191371 Z M35.7389664,29.4288425 L33.9020158,30.3913707 L34.6443547,31.8068609 L34.2480184,31.6841828 L33.6692216,31.4954522 L31.3225975,30.7468216 L31.3477645,30.7248112 L35.7389664,29.4288425 Z M14.9375868,29.9761591 L17.5610044,30.7405298 L17.5484424,30.7562055 L16.5638824,31.0676142 L15.6139377,31.3570125 L15.544735,31.3790229 L14.4909874,31.7155985 L14.9375868,29.9761591 Z M8.99887565,30.079962 L9.6814538,30.7656968 L13.9907558,31.87607 L12.7734231,32.262958 L12.6570367,32.2724064 L8.14008596,31.2658361 L6.54215692,30.9292819 L6.55789699,30.9166125 L8.99887565,30.079962 Z M41.1361159,30.5203406 L42.3125416,30.9229687 L42.3125416,30.929196 L41.3311383,31.1430935 L41.2399188,31.1745522 L38.9435427,31.6683998 L41.1361159,30.5203406 Z M19.166578,31.608682 L19.182361,32.0962593 L19.2043756,32.8417548 L19.2578446,35.7670897 L19.3113136,37.251789 L19.2955306,37.7991055 L18.7796727,38.0287431 L12.6333128,40.7245263 L12.7025154,39.9255618 L12.7717181,39.3782453 L12.8094642,38.8906894 L12.875521,38.3402163 L12.9541591,37.4657509 L13.0516703,36.5661401 L13.0894164,36.0722925 L13.158619,35.5312462 L13.2278217,34.647354 L13.3347704,33.7571701 L13.3630811,33.4583448 L16.4866164,32.47692 L16.4928867,32.4454613 L17.140871,32.2346989 L19.166578,31.608682 Z M29.707275,31.608682 L32.3811552,32.4453969 L32.3811552,32.4768556 L33.0511714,32.6907531 L35.5109608,33.4677073 L35.5581381,33.9615548 L35.624212,34.5088714 L35.7154315,35.3864719 L35.8003592,36.2860827 L35.8381096,36.7799303 L35.9073187,37.3209766 L35.9765277,38.2048688 L36.0677472,38.9031655 L36.2344674,40.7245049 L36.0677472,40.6395772 L29.5722281,37.7990626 L29.5627798,37.1447865 L29.6917496,32.0585733 L29.707275,31.608682 Z M20.4844067,32.9329527 L20.5158589,32.9488431 L20.6605473,33.1784807 L21.9470677,35.0563383 L20.5756196,36.1981702 L20.5001339,33.1092072 L20.4844067,32.9329527 Z M28.3671138,32.9329527 L28.3830042,32.9329527 L28.3735559,33.0619226 L28.3295352,34.5182983 L28.3200869,34.977552 L27.2915062,34.4994231 L28.3671138,32.9329527 Z M22.1640638,40.6741495 L23.8029214,42.6400914 L23.8061424,43.4358993 L23.768392,43.4202237 L23.714923,43.3132642 L22.7177795,41.6146673 L22.6926126,41.5769169 L22.1640638,40.6741495 Z M25.4512272,41.9827017 L25.844407,42.1620054 L25.1083599,43.4202237 L25.0706094,43.4358993 L25.0738305,42.2940674 L25.4512272,41.9827017 Z"/>
</svg>
