<svg xmlns="http://www.w3.org/2000/svg" width="48" height="48" viewBox="0 0 48 48">
  <g fill="none" fill-rule="evenodd">
    <polygon fill="#4DB6AC" fill-rule="nonzero" points="12.51 22 1 26.42 9.901 33 17 25.655 12.51 22"/>
    <path fill="#00897B" fill-rule="nonzero" d="M31.8282952,3.00423418 C30.8456557,3.13304123 31.1120533,3.07737405 29.7017264,4.16602467 C28.3532273,5.20695026 24.4657997,11.4114213 22.3879773,13.4987597 C20.5393601,15.3558484 19.8076407,14.3795429 17.8875888,15.9291264 C15.9646914,17.4810203 13,20.5835085 13,20.5835085 L17.7906202,24 L25.3856156,13.9293681 C27.1788222,11.5516361 27.159728,11.2387158 28.1369013,8.74380125 C28.6149749,7.52316673 29.4667556,6.58505574 30.2152478,5.43640587 C31.1503391,4.001478 32.4755508,2.9198309 31.82837,3.00466738 L31.8282952,3.00423418 Z"/>
    <path fill="#FFB74D" fill-rule="nonzero" d="M32.1500425,3.0000141 C29.882111,2.9862744 27.6479804,13.0195346 23.767973,20.7168624 C19.8117319,28.5660343 12,33.6250709 12,33.6250709 C13.3170062,34.2268335 14.5156363,33.9834741 15.933973,35.332952 C16.90412,36.5129559 19.7123599,42.3393162 21.3866703,46 C21.3866703,46 22.7622842,45.2482987 24.5052121,43.9782834 C26.2482125,42.7081951 28.3585269,40.9197198 29.8280729,38.8461719 C31.7780863,36.0945816 33.3022506,34.3899856 34.5937973,33.3512405 C35.8853439,32.3124955 36.9442004,31.9396744 37.9636707,31.85178 C41.6075788,31.5375284 47,38.1147651 47,38.1147651 C47,38.1147651 35.7085777,3.02198769 32.1493171,3.0000871 L32.1500425,3.0000141 Z"/>
  </g>
</svg>
