<svg xmlns="http://www.w3.org/2000/svg" width="48" height="48" viewBox="0 0 48 48">
  <path fill="#3162AC" d="M43.1031555,7.8139389 L27.7984993,7.81395391 L27.7984993,4 L24.9455752,4 L3,7.82348893 L3,41.1860471 L24.8167605,45 L27.7984993,45 L27.7984993,41.200324 L42.1203727,41.200349 C42.9314051,41.1622139 43.8330804,41.2241871 44.5296151,40.7283761 C45.0877946,39.8750025 44.944673,38.8070927 44.9923802,37.844072 L44.9923802,9.66372338 C45.0925711,8.57674581 44.1908882,7.70428617 43.1031555,7.8139389 Z M18.9153144,30.9789565 C18.1185926,31.3937192 16.9259013,30.9598864 15.981284,31.0266278 C15.346771,27.870585 14.6072993,24.7336072 14.0395794,21.5632563 C13.4813999,24.6430252 12.7562414,27.6941865 12.1169576,30.7548841 C11.2009653,30.7072078 10.2802066,30.6499977 9.35944845,30.5880244 C8.56749816,26.3926757 7.63719773,22.2259308 6.89772674,18.0210458 C7.71352625,17.9829057 8.53410224,17.9495325 9.34990677,17.9209324 C9.84129381,20.9577931 10.3994777,23.9803494 10.8288444,27.021977 C11.5015235,23.9040692 12.1885153,20.7861628 12.8564242,17.66826 C13.7628754,17.6158168 14.669321,17.5776767 15.5757665,17.5300016 C16.2102846,20.7480227 16.8591045,23.9612794 17.5461012,27.1650035 C18.0851973,23.8563941 18.6815424,20.5573273 19.2588103,17.253486 C20.2129643,17.2201141 21.1671183,17.1676759 22.1165071,17.1104657 C21.0383111,21.7301147 20.0936975,26.3879075 18.9153144,30.9789565 Z M42.7217508,38.9360813 L27.7984993,38.9360813 L27.7984993,35.9418649 L40.2025217,35.9418649 L40.2025217,34.034886 L27.7984993,34.034886 L27.7984993,31.651166 L40.2025217,31.651166 L40.2025217,29.744192 L27.7984993,29.744192 L27.7984993,27.3604646 L40.2025217,27.3604646 L40.2025217,25.4534906 L27.7984993,25.4534906 L27.7984993,23.0697706 L40.2025217,23.0697706 L40.2025217,21.1627904 L27.7984993,21.1627904 L27.7984993,18.7790705 L40.2025217,18.7790705 L40.2025217,16.8720952 L27.7984993,16.8720952 L27.7984993,14.4883753 L40.2025217,14.4883753 L40.2025217,12.5813951 L27.7984993,12.5813951 L27.7984993,10.0639265 L42.7217508,10.0639265 L42.7217508,38.9360813 Z"/>
</svg>
