<svg xmlns="http://www.w3.org/2000/svg" width="48" height="48" viewBox="0 0 48 48">
  <path fill="#AB2A25" d="M46.9888557,35.286507 L46.9888557,11.685115 C47.1626977,9.55674561 45.2044383,8.16511643 43.4200156,7.55627809 C38.6803082,5.87813742 33.516227,5.83209216 28.5771161,6.46139365 L28.5771161,2 L25.5195775,2 L2,6.10325479 L2,41.9069718 L25.3917488,46 L28.5771161,46 L28.5771161,40.4897611 C33.5008901,41.1906893 38.6087281,41.00139 43.3535451,39.4255731 C45.158417,38.8218604 47.1678046,37.4404611 46.9888557,35.286507 Z M17.5075777,32.1451098 L16.5258906,28.3130236 L11.8219786,28.1799961 L10.9016456,31.8074387 L7.90545852,31.592556 L12.4355319,15.4506994 L16.0094835,15.1897654 L21.0406304,32.4162724 L17.5075777,32.1451098 Z M28.5771161,8.01674139 C33.1429842,7.38743989 37.8980285,7.40790773 42.3360706,8.76372087 C43.5580662,9.21906989 45.1942111,9.76650943 45.4703069,11.2246517 C45.2657858,12.4167409 44.023341,12.9539519 43.0416552,13.3837188 C38.4042123,14.9493005 33.3884037,15.0976748 28.5771161,14.3711632 L28.5771161,8.01674139 Z M28.5771161,24.1841861 C32.0590392,24.6293012 35.5971974,24.6190672 39.0791205,24.1586026 C41.3237057,23.8260472 43.6552078,23.3400018 45.465192,21.8818588 C45.3629381,24.076742 45.6236917,26.2920916 45.3220291,28.4716266 C44.4272683,29.566511 42.97519,29.9553463 41.6713843,30.3288347 C37.391842,31.3469768 32.9231235,31.3725602 28.5771161,30.8200011 L28.5771161,24.1841861 Z M45.3118072,36.6679036 C43.8648412,38.2437178 41.5691278,38.5353483 39.5801866,38.9395331 C35.9346596,39.4972078 32.2073171,39.5074418 28.556667,38.9804634 L28.5771215,32.3702318 C32.0539269,32.8153469 35.5818659,32.8051184 39.0586687,32.3446511 C41.3083688,32.0172086 43.6449913,31.5260422 45.4651973,30.067906 C45.3578285,32.2627877 45.6339244,34.4883686 45.3118072,36.6679036 Z M45.3118072,20.300929 C44.3965892,21.3906992 42.9445136,21.7795344 41.6355956,22.1530215 C37.3662833,23.1609297 32.9129016,23.1865118 28.5771161,22.628833 L28.5771161,15.9981389 C32.0488119,16.4381398 35.5767483,16.4330255 39.0484414,15.9776711 C41.2981415,15.6451144 43.6449859,15.1590689 45.4651973,13.6958117 C45.3527108,15.8958145 45.6390367,18.1213941 45.3118072,20.300929 Z M12.4610973,25.4172083 C12.4610973,25.4172083 13.7444479,20.6846513 14.0870156,18.2544189 C14.5471807,20.6795357 15.2578816,23.0432557 15.8407578,25.4376734 L12.4610973,25.4172083 Z"/>
</svg>
