<svg xmlns="http://www.w3.org/2000/svg" width="48" height="48" viewBox="0 0 48 48">
  <g fill="none" transform="translate(2 2)">
    <path fill="#EC603E" d="M41.997486,4.50000166 L25.9729802,4.50000166 L25.9729802,0 L23.139828,0 L0,4.01000327 L0,39.0000025 L22.8650184,43 L25.9729802,43 L25.9729802,38.0000018 L40.9681584,38.0000018 C41.8226107,37.9600019 42.7719856,38.0450011 43.5014997,37.5150008 C44.0811268,36.6200018 43.9406627,35.4999961 43.9906338,34.4899994 L43.9906338,6.46000049 C44.1055642,5.30999944 43.1467217,4.39000286 41.997486,4.50000166 Z"/>
    <path fill="#FFF" d="M14.9674149 23.4881456C13.7782356 24.0852792 12.4161869 24.0029186 11.1222359 23.9617343L11.117002 30 8 29.7426108 8.00523384 13.2441978C10.8498258 13.3780408 14.2968672 12.1374423 16.6542643 14.2325568 18.9121374 16.9248115 18.3149212 21.8769099 14.9674149 23.4881456zM42 36L26.005102 36 26.005102 32.8358029 38.2772122 32.8358029 38.2772122 30.8205524 26.005102 30.8205524 26.005102 28.301484 38.2772122 28.301484 38.2772122 26.2862282 26.0102173 26.2862282C26.0102173 26.2862282 26.005102 24.3112801 26 23.323802 28.0248888 23.9434949 30.3310325 23.9283825 32.1411719 22.7293018 34.0995849 21.5856478 35.1222614 19.4041359 35.2910127 17.2276587L28.5617893 17.2276799 28.5617893 10.6478553 26.005102 11.156708 26.005102 7 42 7 42 36z"/>
    <path fill="#EC603E" d="M29.4897461 9.32666016C33.1835243 9.4973247 35.8033541 12.3040383 36 16L29.4897461 16 29.4897461 9.32666016zM11.0084129 16.0434508C11.902851 15.9991087 13.0106836 15.8217362 13.6145429 16.7332291 14.1321352 17.6989181 14.1048947 18.9700824 13.6735684 19.9653333 13.1559762 20.9802934 11.9845797 20.8817538 11.0810592 21 10.9857103 19.3494604 10.9947927 17.6989181 11.0084129 16.0434508z"/>
  </g>
</svg>
