<svg xmlns="http://www.w3.org/2000/svg" width="48" height="48" viewBox="0 0 48 48">
  <path fill="#43A047" fill-rule="evenodd" d="M23.9997945,1 C23.4162683,3.28237846 18.4328721,4.74031324 18.0880985,7.63428744 L17.5255299,5.9037136 C14.5914614,9.73266085 14.8509662,11.6725036 14.8509662,11.6725036 L14.6044058,10.2844655 C12.4630289,13.9531978 12.9164946,15.7505103 13.1636713,16.2985254 L13.2674322,16.48632 C13.2674322,16.48632 13.2212021,16.4258973 13.1636713,16.2985254 L12.5990481,15.2782868 C10.3750735,21.5818283 12.3173528,23.5170394 12.3173528,23.5170394 L11.1211241,22.0930003 C10.5924575,26.9226066 11.9655934,28.9075032 11.9655934,28.9075032 L11.1034539,28.0780067 C10.9937345,31.3585179 13.0917579,33.3061503 13.0917579,33.3061503 L11.7089651,32.3345447 C14.369968,44.2464507 19.6535515,44.5673016 20.33488,44.5582487 L18.2288434,44.6279349 C19.6334157,46.1686087 21.4263206,46.7660988 22.6389867,47 C23.3001795,43.4068487 23.9079508,34.7059782 23.9997945,11.9064048 C24.0916383,34.7049255 24.6998205,43.4062171 25.3610133,47 C26.5738849,46.7658883 28.3667898,46.1681877 29.7711566,44.6279349 L27.665531,44.5584593 C28.3476813,44.5673016 33.6302375,44.2451875 36.2910349,32.3345447 L34.9082421,33.3063608 C34.9082421,33.3063608 37.0062655,31.3589389 36.8965461,28.0782173 L36.0344066,28.9077137 C36.0344066,28.9077137 37.4075425,26.9230276 36.8788759,22.0932108 L35.6826472,23.5172499 C35.6826472,23.5172499 37.6249265,21.5820389 35.4009519,15.2784974 L34.8367396,16.2974727 C34.7790034,16.4256867 34.7323624,16.4858989 34.7323624,16.4858989 L34.8367396,16.2976832 C35.0841218,15.748405 35.5359437,13.951303 33.3953887,10.284676 L33.1490338,11.6727141 C33.1490338,11.6727141 33.4087441,9.73266085 30.4744701,5.9037136 L29.9114906,7.63449797 C29.5669224,4.7407343 24.5837317,3.28279953 24,1.0006316 L23.9997945,1 Z"/>
</svg>
