<svg xmlns="http://www.w3.org/2000/svg" width="48" height="48" viewBox="0 0 48 48">
  <g fill="none" transform="translate(1 3)">
    <path fill="#FF5722" d="M5.34709029,0 L26.477316,0 C29.4274348,0 31.8244063,2.39473684 31.8244063,5.34210526 C31.8244063,8.28947368 29.4274348,10.6842105 26.477316,10.6842105 L5.34709029,10.6842105 C2.39697151,10.6842105 0,8.28947368 0,5.34210526 C0,2.39473684 2.39697151,0 5.34709029,0 Z M40.2691213,10.6842105 C37.254906,10.6842105 34.8114016,8.29246853 34.8114016,5.34210526 C34.8114016,2.39174199 37.254906,0 40.2691213,0 C43.2833367,0 45.7268411,2.39174199 45.7268411,5.34210526 C45.7268411,8.29246853 43.2833367,10.6842105 40.2691213,10.6842105 Z M19.397031,15.9526316 L40.2691213,15.9526316 C43.2192401,15.7315789 45.7637176,17.9789474 45.9849765,20.9263158 C46.2062354,23.8736842 43.9567698,26.4157895 41.006651,26.6368421 L40.4903802,26.6368421 L19.397031,26.6368421 C16.4469122,26.8578947 13.9024347,24.6105263 13.6811758,21.6631579 C13.4599169,18.7157895 15.7093825,16.1736842 18.6595013,15.9526316 L19.1757721,15.9526316 L19.397031,15.9526316 Z M5.34709029,31.3157895 L26.477316,31.3157895 C29.4274348,31.3157895 31.8244063,33.7105263 31.8244063,36.6578947 C31.8244063,39.6052632 29.4274348,42 26.477316,42 L5.34709029,42 C2.39697151,42 0,39.6052632 0,36.6578947 C0,33.7105263 2.39697151,31.3157895 5.34709029,31.3157895 Z M40.2691213,42 C37.254906,42 34.8114016,39.608258 34.8114016,36.6578947 C34.8114016,33.7075315 37.254906,31.3157895 40.2691213,31.3157895 C43.2833367,31.3157895 45.7268411,33.7075315 45.7268411,36.6578947 C45.7268411,39.608258 43.2833367,42 40.2691213,42 Z"/>
    <path fill="#FF1744" d="M5.5,15 C8.5472973,15 11,17.4527027 11,20.5 C11,23.5472973 8.5472973,26 5.5,26 C2.4527027,25.9628378 0,23.5101351 0,20.5 C0,17.4527027 2.4527027,15 5.5,15 Z"/>
  </g>
</svg>
