<svg xmlns="http://www.w3.org/2000/svg" width="48" height="48" viewBox="0 0 48 48">
  <path fill="#A1887F" d="M31.5843023,31.0406977 C31.0610465,34.5726744 30.0145349,38.627907 27.7906977,41.244186 C27.5290698,41.505814 27.2674419,41.6366279 27.005814,41.6366279 L20.4651163,41.6366279 C20.2034884,41.6366279 19.8110465,41.505814 19.6802326,41.244186 C18.1104651,39.2819767 17.0639535,36.6656977 16.4098837,33.9186047 C16.4098837,33.9186047 23.997093,34.9651163 28.3139535,33.3953488 C31.4534884,32.2180233 31.5843023,31.0406977 31.5843023,31.0406977 Z M37.2093023,19.3982558 C37.2093023,18.744186 36.6860465,18.0901163 35.9011628,18.0901163 L11.3081395,18.0901163 C10.6540698,18.0901163 10,18.6133721 10,19.3982558 C10,23.8459302 10.6540698,39.1511628 17.1947674,46.6075581 C17.4563953,46.869186 17.7180233,47 18.1104651,47 L29.0988372,47 C29.4912791,47 29.752907,46.869186 30.0145349,46.6075581 C36.5552326,39.2819767 37.2093023,23.9767442 37.2093023,19.3982558 Z M27.5290698,43.2063953 L19.8110465,43.2063953 C19.4186047,43.2063953 19.1569767,43.0755814 18.8953488,42.8139535 C14.4476744,37.5813953 13.9244186,27.1162791 13.7936047,23.4534884 C13.7936047,22.7994186 14.3168605,22.1453488 15.1017442,22.1453488 L32.369186,22.1453488 C33.0232558,22.1453488 33.6773256,22.6686047 33.6773256,23.4534884 C33.6773256,27.1162791 33.0232558,37.4505814 28.5755814,42.8139535 C28.1831395,43.0755814 27.9215116,43.2063953 27.5290698,43.2063953 Z M26.0901163,15.4738372 C26.2209302,14.6889535 25.6976744,12.2034884 24.6511628,11.0261628 C21.5116279,6.31686047 24.3895349,4.09302326 26.0901163,2 C25.4360465,2.91569767 26.2209302,5.13953488 27.9215116,7.75581395 C30.7994186,12.7267442 26.0901163,15.4738372 26.0901163,15.4738372 Z M20.8575581,15.8662791 C20.8575581,15.3430233 20.5959302,13.6424419 19.9418605,12.9883721 C17.8488372,9.71802326 19.6802326,8.27906977 20.8575581,6.84011628 C20.3343023,7.36337209 20.8575581,8.93313953 22.0348837,10.6337209 C23.997093,14.0348837 20.8575581,15.8662791 20.8575581,15.8662791 Z"/>
</svg>
