<svg xmlns="http://www.w3.org/2000/svg" width="48" height="48" viewBox="0 0 48 48">
  <path fill="#090" d="M12.3665659,4 L11.1988029,6.13666667 L2.16776294,22.2299999 L1,24.2616666 L2.16776294,26.2916666 L11.1988029,41.8649999 L12.4192595,44 L36.0583848,44 L37.2261474,41.6566666 L43.9726556,28.3233333 L47,22.2816666 L40.1481045,22.2816666 L22.8849311,22.3333333 C20.6394946,22.3033333 18.5742369,24.2983333 18.5742369,26.4999999 C18.5742369,28.7016666 20.6394946,30.6983333 22.8849311,30.6666666 L33.296209,30.6149999 L30.7465082,35.6666666 L17.3605795,35.6666666 L10.719459,24.2083333 L17.4132735,12.3333333 L31.6525021,12.3333333 L34.9722121,19.0133333 L43.5256082,19.0133333 L38.1338413,6.34499999 L36.9643787,4 L12.3665659,4"/>
</svg>
