<svg xmlns="http://www.w3.org/2000/svg" width="48" height="48" viewBox="0 0 48 48">
  <path fill="#F3C14F" d="M24.0007359,1 L3,8.62710814 L6.18331786,36.9536351 L24,47 L41.8166821,36.9536351 L45,8.62710814 L24.0007359,1 Z M19.1828797,8.00054136 C19.9740702,7.98637516 20.828708,8.25029989 21.7799462,8.78442606 C22.1985354,9.01957439 23.4612759,9.3524403 24.5849236,9.52220324 C28.5785619,10.1255476 33.3191867,13.3045375 34.8184396,16.3882386 C35.8501659,18.510133 35.6391781,19.6535235 34.0574345,20.5060382 C32.6934512,21.24114 29.9024923,20.885505 25.8502311,19.4593027 L22.4302596,18.2558207 L21.2135618,18.7399686 C19.4506516,19.4416567 17.6878142,21.1832874 16.9661338,22.9313885 C16.4457374,24.1921919 16.3665419,24.7847588 16.4617585,26.8600145 C16.5571154,28.9386476 16.7012385,29.5391837 17.4085727,30.8440454 C18.213818,32.3295044 20.0622594,34.2248838 20.3817723,33.8920748 C20.4678314,33.8023625 20.2772306,33.1999498 19.9614535,32.554862 C19.6456728,31.9097552 19.4620485,31.2598669 19.5499828,31.1115829 C19.6379226,30.9633197 20.4702892,31.514407 21.3993344,32.3335269 C23.4655179,34.1551533 25.8794334,35.3200796 28.0934484,35.5612428 C29.9113585,35.7593154 30.3267617,35.4066024 28.9650542,34.8188549 C28.5264021,34.6295105 27.9556483,34.2329289 27.6996738,33.9381254 C27.1705022,33.3287093 27.1404443,33.3460897 29.4030508,32.8176179 C30.8115293,32.4886797 33.595133,30.9488784 33.7609884,30.4059861 C33.8138382,30.2331683 33.3613697,30.1600224 32.619499,30.2215997 C31.9448807,30.2775529 31.3939531,30.205073 31.3939531,30.0601152 C31.3939531,29.9161004 31.9459002,29.2019462 32.619499,28.4692731 C35.147019,25.7200887 36.0094308,23.6649837 36.2785135,19.7589371 L36.4643407,17.0613628 L37.0572147,18.3432656 C37.7128624,19.7572673 37.8337494,21.7969652 37.3669328,23.5492406 C36.9771089,25.0123857 37.2372907,25.1741226 37.9509405,23.9135279 C38.8330146,22.3553974 39.1144591,22.6032775 38.959691,24.7988681 C38.7913141,27.1871615 38.0050665,28.9764368 36.2299038,31.0008034 C34.7825012,32.6513386 34.9553113,32.9464267 36.7077349,31.8215931 C38.39591,30.7379147 38.6213532,30.9079243 37.7518958,32.6100885 C36.107706,35.8288865 32.6320428,38.5583376 29.0225483,39.4713803 C26.8349317,40.0248033 25.28361,40.1280424 23.2796906,39.8541106 C18.0402251,39.1378313 13.0842249,35.4602351 10.7189191,30.5350795 C10.1040342,29.2546947 9.2345222,27.690075 8.78545636,27.0536774 C7.85845019,25.7399358 7.77896339,25.1490386 8.40495381,24.153268 C8.71716617,23.656654 8.7902263,23.1464544 8.66156546,22.3872173 C8.06577857,18.8710923 8.08522243,18.7612311 9.44024846,17.3288623 C10.6178037,16.0839783 10.6923567,15.9171184 10.6923567,14.4652629 C10.6923567,13.2058636 10.8145727,12.7931539 11.3604391,12.22421 C11.7282158,11.8409104 12.3128607,11.5221234 12.6567876,11.518708 C13.6564352,11.5092645 15.3823875,10.5445112 16.4042826,9.425275 C17.2577007,8.49052575 18.1655543,8.01791422 19.1828615,8.00045787 L19.1828797,8.00054136 Z"/>
</svg>
