<svg xmlns="http://www.w3.org/2000/svg" width="48" height="48" viewBox="0 0 48 48">
  <path fill="#8BC34A" d="M24.1059113,1 C23.502734,1 22.8772167,1.15637931 22.363399,1.44679803 L5.74251232,11.0529557 C4.67019704,11.6784729 4,12.8401478 4,14.0911823 L4,33.2588177 C4,34.5098522 4.67019704,35.6715271 5.74251232,36.2970443 L10.0987931,38.7991133 C12.2210837,39.8267488 12.9359606,39.8490887 13.9189163,39.8490887 C17.0465025,39.8490887 18.8560345,37.950197 18.8560345,34.6438916 L18.8560345,15.7219951 C18.8560345,15.4539163 18.6326355,15.2305172 18.3645567,15.2305172 L16.2869458,15.2305172 C15.9965271,15.2305172 15.7731281,15.4539163 15.7731281,15.7219951 L15.7731281,34.6438916 C15.7731281,36.1183251 14.2540148,37.5704187 11.8189655,36.3417241 L7.23928571,33.7279557 C7.0829064,33.6162562 6.9935468,33.4375369 6.9935468,33.2588177 L6.9935468,14.0911823 C6.9935468,13.8901232 7.0829064,13.7114039 7.23928571,13.6220443 L23.8601724,4.0382266 C23.9942118,3.948867 24.2176108,3.948867 24.3516502,4.0382266 L40.9725369,13.6220443 C41.1289163,13.7114039 41.2182759,13.8901232 41.2182759,14.0911823 L41.2182759,33.2588177 C41.2182759,33.4375369 41.1289163,33.6162562 40.9725369,33.7279557 L24.3516502,43.3117734 C24.2176108,43.401133 23.9942118,43.401133 23.8378325,43.3117734 L19.637931,40.7650246 C19.4592118,40.6980049 19.2804926,40.675665 19.1687931,40.7426847 C17.9847783,41.4128818 17.7613793,41.5469212 16.6667241,41.8820197 C16.3986453,41.9713793 15.9741872,42.1277586 16.8231034,42.5968966 L22.363399,45.8808621 C22.8995567,46.1936207 23.4803941,46.35 24.1059113,46.35 C24.7314286,46.35 25.312266,46.1936207 25.8484236,45.8808621 L42.4693103,36.2970443 C43.5416256,35.6715271 44.2118227,34.5098522 44.2118227,33.2588177 L44.2118227,14.0911823 C44.2118227,12.8401478 43.5416256,11.6784729 42.4693103,11.0529557 L25.8484236,1.44679803 C25.3346059,1.15637931 24.7314286,1 24.1059113,1 Z M28.5738916,14.7390394 C23.8378325,14.7390394 21.000665,16.7272906 21.000665,20.0782759 C21.000665,23.675 23.8154926,24.7249754 28.3728325,25.1717734 C33.8014286,25.707931 34.2258867,26.5121675 34.2258867,27.5844828 C34.2258867,29.4386946 32.7291133,30.2205911 29.2440887,30.2205911 C24.8207882,30.2205911 23.8825123,29.125936 23.5474138,26.9366256 C23.502734,26.7132266 23.3016749,26.5345074 23.055936,26.5345074 L20.9113054,26.5345074 C20.6432266,26.5345074 20.4421675,26.7355665 20.4421675,27.0259852 C20.4421675,29.796133 21.9612808,33.1471182 29.2440887,33.1471182 C34.4939655,33.1471182 37.5098522,31.0695074 37.5098522,27.4504433 C37.5098522,23.8537192 35.0971429,22.9154433 29.9813054,22.2229064 C24.8207882,21.5527094 24.3069704,21.1952709 24.3069704,19.9889163 C24.3069704,18.9836207 24.7537685,17.6432266 28.5738916,17.6432266 C31.9248768,17.6432266 33.242931,18.3804433 33.7567488,20.6814532 C33.8014286,20.9048522 34.0024877,21.0612315 34.2258867,21.0612315 L36.3928571,21.0612315 C36.5045567,21.0612315 36.6385961,21.0165517 36.7279557,20.9048522 C36.8173153,20.8154926 36.884335,20.6814532 36.8396552,20.5474138 C36.5268966,16.5709113 33.8907882,14.7390394 28.5738916,14.7390394 Z"/>
</svg>
