<svg xmlns="http://www.w3.org/2000/svg" width="48" height="48" viewBox="0 0 48 48">
  <path fill="#EC670F" d="M23.8552286,40.6258469 L23.8553984,40.6261458 C23.9835135,40.9036719 24.1783286,41.5351721 24.3332827,41.8578442 C24.4247159,42.0494394 24.6620651,42.6392376 24.834297,43.1485054 L19.2776608,43.3204724 C15.758605,43.5086712 16.4098115,42.6445769 14.1550943,42.4909509 L11.7356139,42.6613215 C11.8908295,42.2942643 12.0338246,40.737 12.0840585,40.5886894 C12.3493233,39.8090961 12.7011983,39.1675016 13.2426307,38.5641514 C13.7704976,37.976493 13.7431118,37.218739 14.0514338,36.5343149 C14.3852735,35.7901129 14.8341858,35.1949822 15.2578624,34.4954438 C16.0234962,33.2304599 16.5284844,31.6338542 18.1564498,31.3088012 C18.3302814,31.2731722 19.3269776,31.9919006 19.7692668,32.4190076 C20.2758514,32.9059605 20.8292326,33.4699455 21.1619922,34.1413271 C21.8062359,35.4421778 22.3529872,37.3273923 22.5595066,38.366884 C22.6783153,38.9638488 22.7726695,38.9994779 23.1766804,39.4723014 C23.3627054,39.6892004 23.7332305,40.3659077 23.8552286,40.6258469 Z M30.8985028,29.1202813 L30.8977623,29.1201828 C32.5650249,27.9179319 33.3286684,25.9524036 33.3289266,25.9526624 C33.6040072,25.338919 33.6029204,24.2436231 34.1927186,23.7529681 C34.8876378,23.1740793 36.0547352,23.2155435 36.8526355,22.8601701 C37.3193454,22.6536507 37.6561061,22.5398925 38.1332092,22.6387674 C38.487224,22.7126577 39.1246137,23.1227721 39.2710629,22.5470693 C39.1527874,22.4705263 39.1065376,22.3309854 39.0432816,22.2536409 C39.7008599,22.1885304 39.0555021,20.6623609 38.795563,20.3577614 C38.3936579,19.8873154 37.7230914,19.6717648 37.0096954,19.4825233 C36.1626141,19.258186 35.3936856,18.9987733 34.5957853,19.1553237 C33.2025165,19.4280608 33.3069921,18.6306699 32.48569,18.6306699 C31.5005079,18.6306699 29.7476269,18.6790697 29.4443487,19.6369781 C29.3032251,20.0842941 29.1578355,20.1029407 28.9133096,20.4460528 C28.7041307,20.7400179 28.9497198,20.9994544 28.8447347,21.3348769 C28.736309,21.6795853 28.5770923,22.8937239 28.4109706,23.3174005 C28.130014,24.0342609 27.7951214,24.9294363 27.1768947,24.9294363 C26.309876,25.0333617 25.6289164,25.0665827 24.9259136,24.8111608 C24.5027805,24.6572665 23.7936301,24.4169963 23.442808,24.269219 C21.8249505,23.5879876 21.5588841,22.8427326 21.5588841,22.8427326 C21.3850864,22.5556964 20.9276421,22.0929264 20.7567381,21.4890667 C20.5685733,20.8240366 20.2509518,20.2693579 20.1223102,19.9232909 C19.9891004,19.5647248 19.6707079,18.9903466 19.4205981,18.3694706 C19.100582,17.5744912 18.6498084,16.9812422 18.3199697,16.686754 C17.8160345,16.2372983 17.3508869,15.5422636 16.3278681,15.7442657 C16.1450018,15.7804042 15.480515,15.810463 14.9712812,16.23757 C14.6260294,16.5272555 14.5170432,17.1253071 14.1972921,17.6292424 C14.0125917,17.920796 13.6878002,18.7561935 13.3898476,19.4533543 C13.1830633,19.9365711 13.0868615,20.2988291 12.8635975,20.4766449 C12.6887129,20.6159208 12.4723709,20.7958594 12.2108286,20.6977827 C12.0487147,20.6369179 11.8748831,20.5340589 11.6997267,20.3969092 C11.4631961,20.2121748 10.9252451,19.2973338 10.5951245,18.6211631 C10.3091072,18.0350671 9.69804703,17.1585383 9.34430395,16.6840844 C8.83581739,16.0018069 8.537335,15.8285119 7.78569466,15.8285119 C6.17314931,15.8285119 6.05114785,16.7313973 5.34175968,18.0444074 C5.03026878,18.6208914 4.91675853,19.5363099 4.29136523,20.2539175 C3.93388603,20.6642799 2.79311133,22.3518024 2,22.638584 L2,10.54339 C2,7.48221327 4.48207741,5 7.54305035,5 L40.4569497,5 C43.5191114,5 46,7.48190758 46,10.54339 L46,43.1186606 C42.0532938,44.0266068 39.6682877,41.8112887 35.2739259,42.2243002 C33.5376469,42.3869711 30.8338814,42.2383922 28.8899078,42.5267769 C27.8296636,42.6835922 27.0120976,42.9770139 26.196128,43.1141636 C26.1902793,43.1040761 26.1852287,43.0921205 26.1804465,43.0809461 C25.5197298,41.756422 25.0971028,40.222607 24.8791543,38.7551931 C24.8236049,38.3766897 24.9317793,38.0000883 24.8174912,37.6449866 C24.7199444,37.3350955 24.4961675,37.3063783 24.349185,37.054679 C23.9619527,36.3936566 23.5616711,35.5372689 23.5247242,34.7279564 C23.4909802,34.0010424 23.2235959,33.3442657 23.1871823,32.6237031 C23.1696395,32.2763114 23.2105705,31.9175076 23.1980782,31.5733086 C23.1911664,31.4058318 23.1818634,31.2609856 23.1486391,31.0789175 C23.1403992,31.0340024 23.110894,30.8487348 23.0968089,30.7745795 L23.1871755,30.5491893 C23.1470631,30.4715798 23.9585086,30.4973523 24.2003786,30.4992204 C24.6110466,30.5045358 24.997226,30.5255329 25.4068072,30.5452019 C26.2435292,30.586931 27.0058006,30.5765649 27.8207173,30.4505794 C29.6365418,30.1701323 30.4713958,29.4286033 30.8985028,29.1202813 Z M12.4600485,31.911506 L12.4600519,31.9112547 C12.8005147,31.9452738 14.076048,31.9875362 14.154724,32.0792342 C13.5064724,32.4099152 13.1263761,33.3380365 12.8829133,33.9948133 C12.6290606,34.6792373 12.4520532,35.4409992 12.1453343,36.1105127 C11.8051432,36.8504692 11.0925589,37.1582579 11.1776101,38.0199441 C11.2100363,38.3638714 11.2730273,38.7245772 11.2153518,39.1030466 C11.154222,39.5014534 10.993161,39.8124688 10.8759486,40.2026221 C10.7255187,40.7116181 10.5463749,42.3563281 10.3143412,42.8390014 L10.0299406,42.8767465 C6.99790561,43.2235947 6.24358205,43.1536952 3.15207478,42.3289287 C2.73318728,42.2170318 2.35896346,42.1418134 2.00121254,42.0806802 L2.00121254,34.6087706 C2.05250953,34.4519451 2.10726414,34.3015151 2.16892718,34.1670248 C2.47562904,33.5134408 3.18742871,32.9066262 3.58291449,32.2357881 C3.79794544,31.8700554 4.04352431,31.5117611 4.18572121,31.1279592 C4.30825591,30.7973122 4.368326,30.3042626 4.54534019,30.017481 C4.7622392,29.6658472 5.10192086,29.5462437 5.45063715,29.4893629 C5.99685857,29.3992543 6.46091921,30.2745162 7.15967641,30.5966483 C7.45761536,30.7335263 8.82907878,31.2191376 9.24079972,31.3188072 C9.9188384,31.4811894 10.6710222,31.6164779 11.3594201,31.7552205 C11.7280737,31.8296441 12.0805261,31.8729662 12.4600485,31.911506 Z"/>
</svg>
