<svg xmlns="http://www.w3.org/2000/svg" width="48" height="48" viewBox="0 0 48 48">
  <path fill="#F44336" d="M27,17 L39,17 L27,5 L27,17 Z M11.375,2 L28.875,2 L42,15.2 L42,41.6 C42,44.0300529 40.0412458,46 37.625,46 L11.375,46 C8.946875,46 7,44.02 7,41.6 L7,6.4 C7,3.9699471 8.95875422,2 11.375,2 Z M22.5014493,25 C23.4521739,27.0930233 24.657971,28.8139535 26.0492754,30 L27,30.744186 C24.9826087,31.1162791 22.2,31.7674419 19.2550725,32.9069767 L19,33 L20.1594203,30.5813953 C21.2028986,28.5581395 21.9681159,26.7209302 22.5014493,25 Z M36.3714466,33.4879032 C36.7634126,33.0959677 36.9593956,32.5951613 36.9811715,32.0508065 C37.0464992,31.6153226 36.9376197,31.2016129 36.7198608,30.8532258 C36.08836,29.8298387 34.4551681,29.3508065 31.7549576,29.3508065 L28.9458676,29.5032258 L27.0513651,28.2403226 C25.6794839,27.1080645 24.4382581,25.1266129 23.5672224,22.666129 L23.654326,22.3612903 C24.3729304,19.4653226 25.047983,15.9596774 23.6107742,14.5225806 C23.26236,14.1741935 22.7832903,14 22.2824448,14 L21.7598235,14 C20.9541155,14 20.2355111,14.8491935 20.039528,15.6766129 C19.2338201,18.5725806 19.7128897,20.1620968 20.5185976,22.7967742 L20.5185976,22.8185484 C19.9742004,24.7346774 19.2773718,26.9556452 18.1668014,29.1983871 L16.0763158,33.1177419 L14.1382615,34.1846774 C11.5251545,35.8177419 10.2839287,37.6467742 10.0443939,38.8008065 C9.95729033,39.2145161 10.0008421,39.5846774 10.1532734,39.9766129 L10.218601,40.0854839 L11.2638438,40.7604839 L12.221983,41 C13.9858302,41 15.9892122,38.9314516 18.6894228,34.3153226 L19.0813888,34.1629032 C21.3243056,33.4443548 24.1116197,32.9435484 27.857073,32.5298387 C30.0999898,33.6403226 32.7348727,34.141129 34.3898404,34.141129 C35.3479797,34.141129 36.0012564,33.9016129 36.3714466,33.4879032 Z M35.7972973,31.7 L36,31.92 C35.9774775,32.12 35.9099099,32.14 35.7972973,32.18 L35.7072072,32.18 L35.2792793,32.22 C34.2432432,32.22 32.6441441,31.84 31,31.2 C31.2027027,31 31.2927928,31 31.518018,31 C34.6711712,31 35.5720721,31.5 35.7972973,31.7 Z M16,35 C14.4615385,37.38 13.0650888,38.7 12,39 C12.1183432,38.24 13.183432,36.92 14.8639053,35.62 L16,35 Z M22.3730101,20 C21.9130101,17.9262673 21.8930101,16.2442396 22.2330101,15.2764977 L22.3730101,15 L22.6730101,15.1152074 C23.0130101,15.6682028 23.0530101,16.40553 22.8530101,17.6497696 L22.7930101,18.0184332 L22.4730101,19.9078341 L22.3730101,20 Z"/>
</svg>
