<svg xmlns="http://www.w3.org/2000/svg" width="48" height="48" viewBox="0 0 48 48">
  <path fill="#9575CD" d="M26,28 C23.6666667,28 19,30.25 19,32.5 C19,37 26,37 26,37 L26,34.75 C24.7113356,34.75 23.6666667,33.7426407 23.6666667,32.5 C23.6666667,31.2573593 24.7113356,30.25 26,30.25 L26,28 Z M25,39.7647059 C25,39.7647059 16.2,38.6470588 16.2,34.1764706 C16.2,27.4705882 22.8,25.7941176 25,25.7941176 L25,23 C22.8,23 14,26.3529412 14,33.0588235 C14,42 25,42 25,42 L25,39.7647059 Z M21.31,13.066 L23.9646154,14.232 C24.9238462,8.864 27.4892308,5.3 27.4892308,5.3 C26.53,7.566 25.9053846,9.436 25.5038462,10.91 C28.2030769,5.41 33.6684615,2 33.6684615,2 C31.0361538,4.596 29.0953846,7.412 27.7792308,9.766 C31.3038462,6.07 36.1892308,3.65 36.1892308,3.65 C30.1884615,7.434 27.4892308,13.44 26.82,15.112 L28.0469231,15.288 C28.0469231,16.432 28.0469231,17.488 28.6046154,18.324 C30.3,22.482 39,22.834 39,32.8 C39,42.766 30.01,46 25.2361538,46 C20.4623077,46 10,43.866 10,32.8 C10,21.734 21.0423077,21.646 23.0053846,17.224 C23.2730769,16.388 21.31,13.066 21.31,13.066 Z"/>
</svg>
