<svg xmlns="http://www.w3.org/2000/svg" width="48" height="48" viewBox="0 0 48 48">
  <path fill="#1E88E5" d="M24.25,35.5466667 C11.956875,35.5466667 2,30.5033333 2,24.2733333 C2,18.0433333 11.956875,13 24.25,13 C36.543125,13 46.5,18.0433333 46.5,24.2733333 C46.5,30.5033333 36.543125,35.5466667 24.25,35.5466667 Z M14.626875,20.8060417 C15.628125,20.8060417 16.3141667,20.9914583 16.6479167,21.3808333 C16.9816667,21.7516667 17.0558333,22.4191667 16.8889583,23.290625 C16.7035417,24.2733333 16.35125,24.90375 15.8135417,25.3116667 C15.294375,25.7195833 14.4970833,25.9235417 13.4216667,25.9235417 L11.8085417,25.9235417 L12.79125,20.8060417 L14.626875,20.8060417 Z M8.13729167,31.0966667 L10.8072917,31.0966667 L11.4377083,27.851875 L13.7183333,27.851875 C14.7195833,27.851875 15.5354167,27.740625 16.184375,27.5366667 C16.8333333,27.3141667 17.4266667,26.961875 17.964375,26.46125 C18.409375,26.0533333 18.7616667,25.6083333 19.0397917,25.1077083 C19.3179167,24.625625 19.521875,24.069375 19.6145833,23.4760417 C19.91125,22.0297917 19.7072917,20.89875 19.0027083,20.1014583 C18.2795833,19.285625 17.1670833,18.89625 15.628125,18.89625 L10.510625,18.89625 L8.13729167,31.0966667 Z M21.58,15.6514583 L19.2066667,27.851875 L21.8395833,27.851875 L23.2116667,20.8616667 L25.3254167,20.8616667 C25.9929167,20.8616667 26.4379167,20.9729167 26.641875,21.1954167 C26.8458333,21.4179167 26.8829167,21.8258333 26.7716667,22.4191667 L25.7147917,27.851875 L28.4033333,27.851875 L29.4972917,22.1595833 C29.7383333,21.01 29.5529167,20.175625 28.9966667,19.6379167 C28.4404167,19.1372917 27.420625,18.89625 25.9372917,18.89625 L23.5825,18.89625 L24.25,15.6514583 L21.58,15.6514583 Z M35.375,20.8060417 C36.3947917,20.8060417 37.0622917,20.9914583 37.3960417,21.3808333 C37.7297917,21.7516667 37.8039583,22.4191667 37.6370833,23.290625 C37.4516667,24.2733333 37.099375,24.90375 36.5802083,25.3116667 C36.0425,25.7195833 35.2452083,25.9235417 34.1697917,25.9235417 L32.59375,25.9235417 L33.5208333,20.8060417 L35.375,20.8060417 Z M28.8854167,31.0966667 L31.5554167,31.0966667 L32.1858333,27.851875 L34.4479167,27.851875 C35.4677083,27.851875 36.3020833,27.740625 36.9510417,27.5366667 C37.6,27.3141667 38.15625,26.961875 38.7125,26.46125 C39.1575,26.0533333 39.5283333,25.6083333 39.7879167,25.1077083 C40.0660417,24.625625 40.27,24.069375 40.38125,23.4760417 C40.659375,22.0297917 40.4554167,20.89875 39.7508333,20.1014583 C39.0833333,19.285625 37.9152083,18.89625 36.37625,18.89625 L31.2772917,18.89625 L28.8854167,31.0966667 Z"/>
</svg>
