<svg xmlns="http://www.w3.org/2000/svg" width="48" height="48" viewBox="0 0 48 48">
  <path fill="#0288D1" d="M16.836111,32.0390321 C16.6151699,30.7134164 15.952362,29.6087731 14.6266994,29.1669221 C14.1848327,28.9459809 13.5220093,28.5041142 13.0801426,28.2831731 C12.4173347,28.0622319 11.7545269,27.8413064 11.3125821,27.6203652 C10.8706372,27.3994241 10.4288331,27.6203652 9.98696637,28.0622319 C9.76602522,28.5040986 9.98696637,28.9459809 10.2079075,29.1669064 C10.4288487,29.6087888 10.6497742,29.8297143 11.0916565,30.2715966 C11.5335232,30.9344044 11.9754055,31.3762868 12.6382134,32.0391571 C13.0800801,32.701965 13.5219624,33.1438473 13.3010212,34.027565 C13.0800801,35.5741219 12.4172722,37.1206787 11.3126133,38.2253845 C11.0916722,38.4463257 10.8707466,38.4463257 10.8707466,38.4463257 C10.2079388,38.4463257 9.32418979,38.004459 8.88233873,37.5625767 C8.21953089,36.8997688 8.44047205,36.236961 9.10327989,35.7950161 C9.32422105,35.7950161 9.54514658,35.574075 9.54514658,35.3531495 C9.98701326,34.9112828 10.2079544,34.4694005 9.98701326,33.8065926 C9.76607211,33.5856515 9.76607211,33.3647259 9.54514658,33.1437848 C8.66139757,32.2600358 7.55673867,31.3762242 6.45203288,30.4925221 C3.57992287,28.2831106 2.2542134,25.6318479 2.03336602,22.5387342 C1.81242487,19.0037695 2.69617387,15.6896521 4.46362498,12.5965384 C5.12643283,11.4918483 6.01018183,10.3871268 7.335735,9.7244284 C8.219484,9.28256171 9.10329552,9.06162055 9.98699763,8.8406794 C12.4172566,8.17787155 15.0685192,7.73598924 17.7197819,8.17787155 C19.9291934,8.61973824 21.6965977,9.7244284 22.3594524,11.93384 C22.8013347,13.4803968 23.0222602,14.80595 22.8013347,16.3525068 C22.5803936,19.4456205 20.1500721,22.0968832 17.2779621,22.9805853 C15.9523464,23.422452 15.2895542,23.2015264 14.6266994,22.0968363 C14.1848327,21.4340284 13.5220093,20.5502794 13.0801426,19.6665773 L13.0801426,19.4456362 C13.0801426,19.224695 12.8592014,19.224695 12.8592014,19.0037538 C13.0801426,20.3293695 13.3010681,21.6550165 13.9638916,22.7597223 C14.4057583,23.4225301 14.8476406,23.8643968 15.7314521,23.8643968 C18.6035621,24.085338 20.8129737,23.201589 22.5805342,20.9922868 C24.3480947,18.5620278 24.7899458,15.6897615 24.3480947,12.5966478 C24.3480947,11.93384 24.1271536,11.4919577 23.9062124,10.8290873 C23.9062124,10.3872206 23.9062124,10.1662795 24.3480947,9.9453383 C24.5690359,9.9453383 24.7899614,9.9453383 24.7899614,9.72439714 C26.999373,9.28253045 29.429632,9.0615893 31.6390436,9.28253045 C34.2903062,9.50347161 36.7205651,10.1662795 38.9299767,11.7127894 C42.4649415,13.922201 44.6743531,17.2361621 45.7790588,21.2131342 C46,21.875942 46,22.3178243 46,22.9806947 C46,23.4225614 45.7790588,23.4225614 45.3371922,23.2016358 C44.8953255,22.9806947 44.6743843,22.538828 44.4534432,22.3178868 C44.232502,22.0969457 44.0115765,21.655079 43.7906353,21.4341378 C43.5696942,21.2131967 43.348753,21.2131967 43.348753,21.4341378 C43.348753,21.655079 43.1278118,21.8760045 43.1278118,22.0969457 C42.465004,24.3063573 41.581255,26.2947652 40.0346981,27.841322 C39.813757,28.0622632 39.5928158,28.5041299 39.5928158,28.725071 C39.5928158,29.60882 39.3718747,30.4926315 39.5928158,31.3763337 C39.813757,33.1438942 40.0346981,35.1323021 40.2556237,36.8997063 C40.4765648,38.0043808 40.0346825,38.4462631 39.1509491,38.8881142 C38.4881413,39.1090554 37.8253335,39.3299809 36.9415376,39.3299809 L33.4065728,39.3299809 C33.4065728,38.0043652 33.4065728,36.6787183 32.3018827,36.0158635 C32.5228238,35.1321145 32.7437493,34.248303 32.9646905,33.1437535 C33.1856317,32.2600045 32.9646905,31.5971967 32.5228238,30.9343419 C32.0809415,30.2715341 31.4181337,30.2715341 30.7552633,30.4924752 C28.9877028,31.5971654 27.2202985,31.5971654 25.2318906,30.9343419 C24.3481416,30.7134008 23.6853338,30.7134008 23.2434827,31.5971498 C22.8016161,32.4808988 22.5806749,33.3647103 22.5806749,34.2484124 C22.5806749,35.3531026 22.8016161,36.6786714 23.0225416,37.7833772 C23.0225416,38.446185 23.0225416,38.6671262 22.3597337,38.8880673 C20.8131769,39.329934 19.26662,39.329934 17.9410669,39.1090085 L17.7201257,39.1090085 C17.7201257,37.7833928 17.7201257,36.4577458 16.1735689,35.7948911 C17.0573179,34.9111421 17.0573179,33.3646321 16.8363767,32.0389227 L16.836111,32.0390321 Z M7.77777361,26.9575105 C7.99871477,26.7365693 8.2196403,26.5156438 8.2196403,26.0737615 C8.44058145,25.4109536 7.77777361,24.306201 7.11495014,24.0853536 C6.67308345,23.8644124 6.45214229,24.0853536 6.23120113,24.3062947 C5.56839329,24.9691026 5.12651097,25.6319104 4.46364061,26.2947026 C4.46364061,26.5156438 4.24269945,26.5156438 4.24269945,26.7365693 C4.0217583,27.178436 4.24269945,27.6203183 4.68456614,27.6203183 C4.9055073,27.6203183 5.34737398,27.6203183 5.56831514,27.8412595 C6.45206414,27.8412595 7.11487199,27.6203183 7.77772672,26.9575105 L7.77777361,26.9575105 Z M7.77777361,19.6665773 C7.77777361,19.2247106 7.33590692,18.7828283 6.89402461,18.7828283 C6.45215792,18.7828283 5.78933445,19.224695 6.01027561,19.8875185 C6.01027561,20.3293852 6.45214229,20.7712675 7.11496577,20.7712675 C7.33590692,20.5503263 7.77777361,20.1084596 7.77777361,19.6665773 Z"/>
</svg>
