<svg xmlns="http://www.w3.org/2000/svg" width="48" height="48" viewBox="0 0 48 48">
  <path fill="#03A9F4" d="M13.5823278,8 C11.5070026,8 9.39642652,9.61780274 8.85031367,11.6283029 L2.12944907,36.3716971 C1.58330868,38.3821973 2.81482345,40 4.89016932,40 L34.4175795,40 C36.4929047,40 38.6034808,38.3821973 39.1495936,36.3716971 L45.8704582,11.6283029 C46.4165986,9.61780274 45.1864264,8 43.111115,8 L13.5823278,8 Z M17.4065051,12.0036214 C17.8616204,12.0308846 18.3068451,12.2264687 18.6339751,12.5845866 L24.1867457,18.6629584 L21.4267169,20.8524457 L24.1867457,18.6643074 L27.5570917,22.3542825 C27.5824879,22.3820988 27.5992629,22.4136721 27.6224828,22.4425473 C27.6407366,22.4653184 27.6624011,22.4832263 27.6796992,22.5070968 C27.693447,22.5260839 27.7022565,22.545759 27.7151185,22.5650631 C27.7541788,22.6235623 27.7877009,22.684085 27.8186562,22.7455452 C27.838863,22.7855969 27.8577375,22.8244885 27.8745125,22.8654305 C27.9011293,22.9306274 27.9232402,22.9972341 27.9412637,23.0643534 C27.9528842,23.1073728 27.9631724,23.1500146 27.9712355,23.193459 C27.9827653,23.2557961 27.9899287,23.3176138 27.9943927,23.3805242 C27.9978105,23.429857 28.00074,23.4788255 27.9998333,23.5280706 C27.9986475,23.5888766 27.9926559,23.6481852 27.9848508,23.7085527 C27.9785035,23.757818 27.9710333,23.8062402 27.9603265,23.8547838 C27.9476529,23.9121229 27.9300339,23.9686998 27.9112849,24.0247236 C27.8941682,24.0760731 27.8775396,24.1264716 27.8554287,24.1762225 C27.8329202,24.2266952 27.8054594,24.2751916 27.7777754,24.3237689 C27.7490731,24.374336 27.7193036,24.423399 27.6851397,24.4713153 C27.6538357,24.5151105 27.6188977,24.5563897 27.5829692,24.5977836 C27.5420814,24.6450052 27.500245,24.6900752 27.453547,24.7334724 C27.4347702,24.7509419 27.4201365,24.7719525 27.4004181,24.7888014 C27.3747359,24.8107293 27.3465985,24.8251838 27.3200445,24.8454457 C27.2932603,24.8658561 27.2706751,24.8895174 27.2423912,24.9086799 L12.8089123,34.6862001 C11.9995271,35.2344858 10.8910515,35.0460446 10.3240494,34.2633237 C9.75706122,33.4806364 9.95329738,32.4087245 10.7627175,31.8604253 L23.5619413,23.1904305 L21.4272261,20.8520815 L15.9602486,14.8672625 C15.3059955,14.1510133 15.3762483,13.0667581 16.1169153,12.4340791 C16.4872488,12.1177397 16.951899,11.9760277 17.4070213,12.0032976 L17.4065051,12.0036214 Z M33.5202347,32.0000003 C34.5278444,31.9994618 35.169935,32.6668243 34.9603668,33.496981 C34.7507328,34.3271377 33.7706925,34.9958101 32.7630828,34.9963646 L25.4797653,34.9999997 C24.4721556,35.0005382 23.830065,34.3331757 24.0396332,33.503019 C24.2492672,32.6728623 25.2293075,32.0041899 26.2369172,32.0036354 L33.5202347,32.0000003 Z"/>
</svg>
