<svg xmlns="http://www.w3.org/2000/svg" width="48" height="48" viewBox="0 0 48 48">
  <g fill="none" transform="translate(5 1)">
    <rect width="4" height="2" x="33" y="9" fill="#56B3B4" rx="1"/>
    <rect width="13" height="2" y="44" fill="#EA5E5E" rx="1"/>
    <rect width="9" height="2" x="26" y="26" fill="#BF85BF" rx="1"/>
    <rect width="11" height="2" x="13" y="26" fill="#EA5E5E" rx="1"/>
    <rect width="11" height="2" y="26" fill="#56B3B4" rx="1"/>
    <rect width="13" height="2" y="35" fill="#BF85BF" rx="1"/>
    <rect width="13" height="2" y="18" fill="#BF85BF" rx="1"/>
    <rect width="24" height="2" x="11" y="4" fill="#F7BA3E" rx="1"/>
    <rect width="9" height="2" y="4" fill="#EA5E5E" rx="1"/>
    <rect width="4" height="2" x="9" y="39" fill="#F7BA3E" rx="1"/>
    <rect width="4" height="2" x="9" y="13" fill="#56B3B4" rx="1"/>
    <rect width="6" height="2" y="39" fill="#56B3B4" rx="1"/>
    <rect width="6" height="2" y="13" fill="#F7BA3E" rx="1"/>
    <rect width="20" height="2" x="17" y="22" fill="#56B3B4" rx="1"/>
    <rect width="9" height="2" x="6" y="22" fill="#F7BA3E" rx="1"/>
    <rect width="4" height="2" y="22" fill="#EA5E5E" rx="1"/>
    <rect width="11" height="2" x="20" y="9" fill="#BF85BF" rx="1"/>
    <rect width="17" height="2" y="9" fill="#56B3B4" rx="1"/>
    <rect width="22" height="2" x="6" y="31" fill="#F7BA3E" rx="1"/>
    <rect width="4" height="2" y="31" fill="#BF85BF" rx="1"/>
    <rect width="13" height="2" x="26" y="13" fill="#EA5E5E" rx="1"/>
    <rect width="13" height="2" x="26" y="18" fill="#F7BA3E" rx="1"/>
    <rect width="28" height="2" fill="#56B3B4" rx="1"/>
  </g>
</svg>
