<svg xmlns="http://www.w3.org/2000/svg" width="48" height="48" viewBox="0 0 48 48">
  <path fill="#455A64" d="M10,16.0321619 L15.0577486,16.0321619 L20.5971875,16.0321619 L20.5971875,42.7659757 C22.2831036,43.0068208 23.9690198,43.247666 25.654936,43.4885112 L25.654936,46.3786532 L10.2408452,46.3786532 L10.2408452,43.247666 C11.9267614,43.0068208 13.6126775,42.7659757 15.2985937,42.5251305 L15.2985937,19.4039942 C14.5760582,19.4039942 13.6126775,19.4039942 12.6492969,19.1631491 C11.6859162,18.9223039 10.9633807,18.9223039 10.2408452,18.6814587 C10.2408452,17.9589232 10,16.9955425 10,16.0321619 Z M21.0788778,9.04765193 L21.0788778,2.30398718 C22.0422585,2.06314201 23.2464843,1.58145167 24.6915553,1.34060651 C25.8957812,1.09976134 27.8225426,0.858916166 29.9901491,1.09976134 C31.1943749,1.34060651 32.6394459,1.58145167 34.084517,2.54483235 C34.5662073,3.02652269 35.7704331,3.98990337 36.4929687,5.67581956 C37.6971945,8.32511642 36.7338138,10.9744133 36.2521235,11.937794 C34.8070525,15.3096263 31.4352201,16.5138522 30.9535298,16.7546974 C31.9169104,16.9955425 33.3619815,17.2363877 34.8070525,18.4406135 C37.4563493,20.6082201 37.6971945,23.4983621 37.9380397,24.2208976 C38.41973,28.3152655 35.2887428,31.2054075 34.8070525,31.927943 C32.8802911,33.8547044 30.9535298,34.3363947 29.7493039,34.8180851 C27.8225426,35.5406206 25.8957812,35.5406206 24.6915553,35.5406206 L24.6915553,31.6870979 L26.8591619,31.6870979 C27.8225426,31.4462527 29.5084587,31.2054075 31.1943749,30.0011817 C31.6760653,29.5194913 33.1211363,28.3152655 33.1211363,25.9068138 C33.1211363,25.4251235 33.3619815,23.2575169 31.6760653,21.5716008 C30.7126846,20.6082201 29.7493039,20.3673749 28.3042329,19.8856846 C26.8591619,19.4039942 25.4140909,19.4039942 24.6915553,19.4039942 L24.6915553,16.0321619 C25.4140909,16.0321619 26.3774715,15.7913167 27.5816974,15.3096263 C28.7859232,14.827936 29.9901491,14.5870908 30.9535298,13.382865 C31.4352201,12.9011746 32.8802911,11.2152585 32.6394459,8.80680676 C32.6394459,8.32511642 32.3986008,6.88004541 31.1943749,5.91666473 C29.9901491,4.71243888 28.3042329,4.71243888 27.3408522,4.71243888 C25.8957812,4.71243888 24.6915553,5.19412922 24.209865,5.43497439 C23.9690198,6.63920024 23.9690198,8.08427125 23.7281747,9.2884971 C23.0056392,9.04765193 22.0422585,9.04765193 21.0788778,9.04765193 Z"/>
</svg>
