<svg xmlns="http://www.w3.org/2000/svg" width="24" height="24" viewBox="0 0 24 24">
  <g fill="none" transform="translate(2 2)">
    <path fill="#E53935" d="M21,10.50017 C21,4.70070098 16.2995629,0 10.5,0 C4.70009713,0 0,4.70104094 0,10.50017 C0,16.299299 4.69975716,21 10.5,21 C16.2995629,21 21,16.299299 21,10.50017"/>
    <path fill="#D51C2F" d="M16.046403,18.9616706 L12.563985,18.9929584 L10.5278777,21 L8.13766061,19.4352167 L8.55025288,19.028743 L7.58191258,19.0372561 L4.29549663,13.5855802 L3.00600074,13.5855802 L3.81460865,12.7881231 L3,11.436348 L10.5417027,4.00263074 C10.614368,4.001317 10.6875438,4 10.7606169,4 C16.4105948,4 20.9910486,8.5117994 21,14.0788357 L16.0462405,18.9618798" transform="matrix(1 0 0 -1 0 25)"/>
    <path fill="#F5F5F5" d="M6,5 C6,7.76201117 8.2388354,10 11.0004929,10 C13.7617561,10 16,7.76197831 16,5 L6,5 Z M16.5838492,4.58497997 L16.5838492,5.01727661 L17.994044,5.01727661 C17.9380046,6.84350372 17.1752563,8.49817867 15.9583205,9.73911564 L14.9047834,8.72669943 L14.5867871,9.03264641 L15.6401,10.0448164 C14.3484493,11.213827 12.6258106,11.94654 10.7250032,12 L10.7245226,10.6457414 L10.2748558,10.6457414 L10.2748558,12 C8.37363194,11.9465492 6.65124952,11.2134577 5.35975907,10.0448164 L6.41342432,9.03264641 L6.09480328,8.72729959 L5.04126618,9.73913103 C3.8245867,8.49834795 3.06186723,6.84354988 3.00579905,5.017292 L4.41557734,5.017292 L4.41532103,4.58536469 L3,4.58536469 L3,3 L18,3 L18,4.58499536 L16.5840062,4.58499536 L16.5838492,4.58497997 Z" transform="matrix(1 0 0 -1 0 15)"/>
  </g>
</svg>
