<svg xmlns="http://www.w3.org/2000/svg" width="48" height="48" viewBox="0 0 48 48">
  <g fill="none" transform="translate(2 2)">
    <path fill="#E53935" d="M44,22.0003562 C44,9.84908777 34.1514651,0 22,0 C9.84782256,0 0,9.84980006 0,22.0003562 C0,34.1509122 9.84711024,44 22,44 C34.1514651,44 44,34.1509122 44,22.0003562"/>
    <path fill="#D51C2F" d="M26.1065065,41.3207736 L21.8921863,44 L16.8461724,40.6863412 L17.7172005,39.8255734 L15.6729266,39.8436012 L8.84001599,31.3555102 L6.11774689,31.3555102 L7.82480803,29.6667775 L6.10507866,26.8041949 L21.9213724,8.00557098 C22.0747769,8.00278894 22.2292591,8 22.3835246,8 C34.3112557,8 43.9811026,17.5543987 44,29.3434168 L33.5420633,39.6839808 L26.1065065,41.3207736 Z" transform="matrix(1 0 0 -1 0 52)"/>
    <path fill="#F5F5F5" d="M12.2,10.2222222 C12.2,16.0531347 16.8269265,20.7777778 22.534352,20.7777778 C28.2409626,20.7777778 32.8666667,16.0530653 32.8666667,10.2222222 L12.2,10.2222222 Z M34.0732883,9.34606883 L34.0732883,10.2586951 L36.9876909,10.2586951 C36.8718762,14.1140634 35.2955297,17.6072661 32.780529,20.2270219 L30.603219,18.0896988 L29.9460267,18.7355869 L32.1228733,20.8723902 C29.4534619,23.3403014 25.8933419,24.88714 21.9650066,25 L21.9640134,22.1410096 L21.034702,22.1410096 L21.034702,25 C17.105506,24.8871594 13.5459157,23.3395218 10.8768354,20.8723902 L13.0544103,18.7355869 L12.3959268,18.0909658 L10.2186168,20.2270544 C7.70414585,17.6076234 6.12785894,14.1141609 6.0119847,10.2587276 L8.9255265,10.2587276 L8.9249968,9.34688101 L6,9.34688101 L6,6 L37,6 L37,9.34610132 L34.0736128,9.34610132 L34.0732883,9.34606883 Z" transform="matrix(1 0 0 -1 0 31)"/>
  </g>
</svg>
