<svg xmlns="http://www.w3.org/2000/svg" width="48" height="48" viewBox="0 0 48 48">
  <g fill="none" transform="translate(0 8)">
    <path fill="#EFCCA3" d="M41.508946,9.4980695 C41.4319812,7.7992278 41.6628755,6.29343629 40.8932277,5.01930502 C39.0460729,1.85328185 34.4281859,0 25.192412,0 L25.192412,0.27027027 L25,0.27027027 L25.192412,0.27027027 L25.192412,0 C15.956638,0 11.1078566,1.85328185 9.26070185,5.05791506 C8.52953641,6.37065637 8.6065012,7.83783784 8.49105402,9.53667954 C8.41408924,10.8880309 7.79837097,12.3166023 8.06774771,13.8610039 C8.37560685,15.8687259 8.49105402,17.8764479 8.79891315,19.7297297 C9.0298075,21.2355212 11.1078566,22.5096525 11.3002686,23.9382239 C11.8390221,27.8764479 15.9181556,29.6911197 25.1539296,29.6911197 L25.1539296,30 L24.9230352,30 L25.192412,30 L25.192412,29.6911197 C34.4281859,29.6911197 38.3533899,27.8764479 38.853661,23.9382239 C39.0460729,22.4710425 40.9701925,21.2355212 41.2010868,19.7297297 C41.508946,17.8764479 41.6243932,15.8687259 41.9322523,13.8610039 C42.201629,12.3166023 41.5859108,10.8494208 41.508946,9.4980695 Z"/>
    <path fill="#CCAC8D" d="M25.071599,11 C26.6109785,11.0383838 27.6849642,12.0747475 28.6873508,13.0343434 C29.8687351,14.1474747 31.8735084,14.9151515 32.6968974,15.8747475 C33.5202864,16.8343434 34.5942721,17.7939394 34.9880668,19.2909091 C35.3818616,20.7878788 35.4892601,22.7070707 35.4892601,23.2060606 C35.4892601,23.7050505 35.7398568,23.589899 36.4558473,23.2060606 C38.1384248,22.3232323 40,19.9434343 40,19.9434343 C39.7852029,21.440404 37.9594272,22.7838384 37.7804296,24.2040404 C37.3508353,28.1191919 33.8066826,30 25.0357995,30 L25,30 L25.2147971,30"/>
    <path fill="#CCAC8D" d="M30.8161755,7.94151123 C31.165965,9.11722006 32.409661,13.0994596 30,11.7720464 C30,11.7720464 31.010503,12.3409378 31.632351,14.502725 C32.2930645,16.6645122 33.88655,16.9299949 33.88655,16.9299949 C33.88655,16.9299949 36.4905385,17.423034 38.4338135,15.7922121 C40.0661645,14.4268728 40.338223,11.999603 39.638644,10.1412245 C38.939065,8.32077215 37.695369,7.75188078 35.8686905,7.37261987 C34.042012,6.95543286 30.388655,6.61409804 30.8161755,7.94151123 Z"/>
    <ellipse cx="35" cy="12.5" fill="#000" rx="3" ry="3.5"/>
    <circle cx="35" cy="11" r="1" fill="#FFF"/>
    <path fill="#EFCCA3" d="M29.9578848,12 C29.9578848,12 32.8683808,14.0543478 34.4525749,16.0706522 C36.0367689,18.0869565 35.9999272,18.4673913 35.9999272,18.4673913 L34.8578338,19 C34.8578338,19 33.2367981,15.8423913 31.2473451,14.6630435 C29.2210503,13.4836957 29,12.4945652 29,12.4945652 L29.9578848,12 Z"/>
    <path fill="#CCAC8D" d="M24.9623529,11 C23.3435294,11.0383838 22.1388235,12.0747475 21.0470588,13.0343434 C19.8047059,14.1474747 17.6211765,14.9151515 16.7552941,15.8747475 C15.8894118,16.8343434 14.7223529,17.7939394 14.3082353,19.2909091 C13.8941176,20.7878788 13.7435294,22.7070707 13.7435294,23.2060606 C13.7435294,23.7050505 13.8188235,23.7434343 12.7270588,23.2060606 C10.9576471,22.3616162 9,19.9434343 9,19.9434343 C9.22588235,21.440404 11.1458824,22.7838384 11.3341176,24.2040404 C11.8611765,28.1191919 15.5882353,30 24.8117647,30 L25,30"/>
    <path fill="#56332B" d="M33.2516386,17.5476877 C31.4435348,15.1940598 28.5430349,13 24.5124701,13 L24.4748013,13 C20.4442365,13 17.5437366,15.1940598 15.7356328,17.5476877 C13.8521913,19.9810995 14.0028666,20.9385074 14.0028666,23.2522432 C14.0028666,31.6295626 16.79036,29.2360428 18.6361327,30.2732347 C20.5195741,31.2705347 22.4783533,30.9513987 24.4748013,30.9513987 L24.5124701,30.9513987 C26.5465869,30.9513987 28.4676972,31.2306427 30.3511387,30.2333427 C32.1969114,29.2360428 34.9844048,31.7093466 34.9844048,23.3320272 C35.0220736,21.0182914 35.1350801,19.9810995 33.2516386,17.5476877 Z"/>
    <path fill="#442823" d="M23.8076923 16C23.8076923 16 23.5384615 19.3448276 23 20L24 19.7931034 23.8076923 16zM25.1923077 16C25.1923077 16 25.4615385 19.3448276 26 20L25 19.7931034 25.1923077 16z"/>
    <path fill="#56332B" d="M21.0589643,13.9677419 C20.7046227,13.2258065 21.9802526,12.0322581 24,12 C26.0197474,12 27.2953773,13.1935484 26.9410357,13.9677419 C26.586694,14.7419355 25.3110641,14.9677419 24,15 C22.7243701,14.9677419 21.413306,14.7419355 21.0589643,13.9677419 Z"/>
    <path fill="#000" d="M24.159292,14.9370295 C24.159292,14.7928711 25.3628319,14.7568315 26,14.3243564 C26,14.3243564 24.6902655,14.7568315 24.4070796,14.5766336 C24.1238938,14.4324752 24.0530973,14 24.0530973,14 C24.0530973,14 23.9469027,14.4324752 23.7345133,14.5766336 C23.4867257,14.720792 22,14.3243564 22,14.3243564 C22,14.3243564 23.9823009,14.8289107 23.9823009,14.9370295 C23.9823009,15.0451483 23.9469027,15.4055443 23.9469027,15.6578215 C23.9469027,16.5588114 23.9469027,18.7932665 24.0884956,18.9734645 C24.300885,19.2978208 24.2300885,16.5588114 24.2300885,15.6578215 C24.1946903,15.3695047 24.1946903,15.0811879 24.159292,14.9370295 Z"/>
    <path fill="#7F4A41" d="M24.1719745,20.6666667 C24.8216561,20.6666667 25.9681529,21.1111111 27,21.8148148 C26.0063694,20.7407407 24.8216561,20 24.1719745,20 C23.4840764,20 22.0318471,20.8148148 21,22 C22.0700637,21.1851852 23.4458599,20.6666667 24.1719745,20.6666667 Z"/>
    <g fill="#442823" transform="translate(14 22)">
      <path d="M10.3125,5.20434783 C8.8875,5.20434783 7.5,4.73478261 6.225,4.3826087 C5.9625,4.30434783 5.7,4.5 5.4375,4.42173913 C3.075,3.63913043 1.1625,2.30869565 0,0.626086957 L0,1.0173913 C0,9.23478261 2.775,6.92608696 4.6125,7.90434783 C6.4875,8.8826087 8.4375,8.56956522 10.425,8.56956522 L10.4625,8.56956522 C12.4875,8.56956522 14.4,8.84347826 16.275,7.86521739 C18.1125,6.88695652 20.8875,9.27391304 20.8875,1.05652174 C20.8875,0.743478261 20.8875,0.430434783 20.925,0.156521739 C19.8375,1.99565217 17.85,3.44347826 15.375,4.30434783 C15.15,4.3826087 14.625,4.18695652 14.4,4.22608696 C13.05,4.69565217 11.85,5.20434783 10.3125,5.20434783 Z"/>
      <path d="M6.75.782608696C6.75.782608696 5.8125 3.7173913 6.45 5.00869565L5.5875 4.6173913C5.5875 4.6173913 6.225 1.64347826 6.75.782608696zM14.175.782608696C14.175.782608696 15.1125 3.7173913 14.475 5.00869565L15.3375 4.6173913C15.3375 4.6173913 14.6625 1.64347826 14.175.782608696z"/>
    </g>
    <path fill="#CCAC8D" d="M18.1838245,7.94151123 C17.834035,9.11722006 16.590339,13.0994596 19,11.7720464 C19,11.7720464 17.989497,12.3409378 17.367649,14.502725 C16.745801,16.6645122 15.11345,16.9299949 15.11345,16.9299949 C15.11345,16.9299949 12.5094615,17.423034 10.5661865,15.7922121 C8.93383548,14.4268728 8.66177698,11.999603 9.36135599,10.1412245 C10.060935,8.28284606 11.304631,7.75188078 13.1313095,7.37261987 C14.957988,6.95543286 18.5724795,6.61409804 18.1838245,7.94151123 Z"/>
    <path fill="#000" d="M24,20.2919708 C24.9642857,20.2919708 27.9642857,22.4087591 28,25 L28,24.8540146 C28,22.1532847 25.5714286,20 24,20 C22.4285714,20 20,22.189781 20,24.8540146 L20,25 C20.0357143,22.4087591 23.0357143,20.2919708 24,20.2919708 Z"/>
    <g fill="#331712" transform="translate(23 12)">
      <ellipse cx="2.441" cy=".961" rx="1" ry="1" transform="rotate(-14.46 2.599 .961)"/>
      <ellipse cx=".588" cy="1.049" rx="1" ry="1" transform="rotate(17.235 .745 1.05)"/>
    </g>
    <ellipse cx="14" cy="12.5" fill="#000" rx="3" ry="3.5"/>
    <circle cx="15" cy="11" r="1" fill="#FFF"/>
    <path fill="#7F4A41" d="M25,12.0029008 C25,11.95771 24.2068966,12.4548092 24,12.5 C23.7931034,12.4548092 23,11.95771 23,12.0029008 L24,12.0029008 L25,12.0029008 Z"/>
    <path fill="#EFCCA3" d="M19.0421152,12 C19.0421152,12 16.1316192,14.0543478 14.5474251,16.0706522 C12.9632311,18.0869565 13.0000728,18.4673913 13.0000728,18.4673913 L14.1421662,19 C14.1421662,19 15.7632019,15.8423913 17.7526549,14.6630435 C19.7421079,13.4836957 20,12.4945652 20,12.4945652 L19.0421152,12 Z"/>
    <path fill="#CCAC8D" d="M3.32962963 1.4C3.32962963 1.4 2.2962963 4.2 3.55271368e-15 5.37297297 3.55271368e-15 5.37297297 3.59753086 4.95675676 3.32962963 1.4zM27.4790123 1.4C27.4790123 1.4 28.5123457 4.2 30.808642 5.37297297 30.808642 5.37297297 27.2111111 4.95675676 27.4790123 1.4zM20.9345679 6.62162162C20.9345679 6.62162162 18.6765432 4.27567568 15.6530864 4.2L15.691358 4.2 15.7296296 4.2C12.6679012 4.27567568 10.4481481 6.62162162 10.4481481 6.62162162 13.0888889 4.80540541 15.3469136 4.84324324 15.7296296 4.84324324 15.691358 4.84324324 18.2938272 4.80540541 20.9345679 6.62162162zM18.2938272 1.7027027C18.2938272 1.7027027 17.145679.113513514 15.6148148.0756756757L15.6530864.0756756757 15.691358.0756756757C14.5432099.113513514 13.0506173 1.7027027 13.0506173 1.7027027 14.3518519.454054054 15.691358.491891892 15.691358.491891892 15.691358.491891892 16.954321.454054054 18.2938272 1.7027027zM5.05185185 13.3189189C5.05185185 13.3189189 3.25308642 14.1891892 1.95185185 13.6594595L1.91358025 13.6594595C.765432099 13.0162162.191358025 11.0864865.191358025 11.0864865.191358025 11.0864865 1.33950617 14.4918919 5.05185185 13.3189189zM26.0246914 13.3189189C26.0246914 13.3189189 27.8234568 14.1891892 29.1246914 13.6594595 30.6555556 13.0162162 30.8851852 11.0864865 30.8851852 11.0864865 30.8851852 11.0864865 29.737037 14.4918919 26.0246914 13.3189189z" transform="translate(9 5)"/>
    <path fill="#CCAC8D" d="M16,5.27546955 C16.962963,5.10231362 18.5555556,5.06768244 19.8148148,5.44862547 C21.4074074,5.96809325 20.1111111,7.87280842 20.4444444,7.97670197 C20.7777778,8.08059552 21.2222222,6.66071694 24.1851852,6.79924168 C27.1851852,6.93776642 27.5185185,8.18448908 27.9259259,7.97670197 C28.3333333,7.76891486 27.5185185,4.51358348 32,5.27546955 C32,5.27546955 27.2962963,4.09800926 27.5185185,7.28407827 C27.5185185,7.28407827 24.8148148,5.34473192 21.037037,7.07629116 C21.0740741,7.07629116 22.037037,4.09800926 16,5.27546955 Z"/>
    <path fill="#CCAC8D" d="M26.4884211 5.28C26.5912782 5.28 26.6427068 5.33263158 26.6941353 5.33263158 26.7455639 5.33263158 26.6427068 5.28 26.4884211 5.28zM8.37473684.36C8.37473684.36 4.28210526 5.8 3.67578947 7.88 3.06947368 10 2.61473684 18.68 2.08421053 19.92L.189473684 11.36 3.67578947 2.44 8.37473684.36zM27.6252632.36C27.6252632.36 31.7178947 5.8 32.3242105 7.88 32.9305263 10 33.3852632 18.68 33.9157895 19.92L35.8105263 11.36 32.3242105 2.44 27.6252632.36z" transform="translate(7 1)"/>
    <path fill="#56332B" d="M34.0125094,1.1426451 C34.0125094,1.1426451 38.1823037,4.97971613 39.4044847,9.41014865 C40.6266658,13.8405812 40.1234148,19.2203921 41.0580239,19.8928685 C42.3880444,20.8422469 43.8977975,15.1855339 44.4010486,14.5921724 C45.1918716,13.642794 47.8159663,11.2297906 47.9956988,10.7946588 C48.1754313,10.359527 42.6756165,3.7534357 40.2672008,2.4480404 C37.3555341,0.944857938 33.7608839,0.826185639 34.0125094,1.1426451 Z"/>
    <path fill="#442823" d="M38,3 C38,3 43.0473684,9.67938931 42.9736842,18 L45,13.7251908 C44.9631579,13.7251908 43.1947368,8.26717557 38,3 Z"/>
    <path fill="#56332B" d="M13.9874906,1.1426451 C13.9874906,1.1426451 9.81769634,4.97971613 8.59551526,9.41014865 C7.37333418,13.8405812 7.87658521,19.2203921 6.94197615,19.8928685 C5.61195556,20.8422469 4.10220247,15.1855339 3.59895143,14.5921724 C2.80812838,13.642794 0.184033713,11.2297906 0.00430120129,10.7946588 C-0.17543131,10.359527 5.32438355,3.7534357 7.7327992,2.4480404 C10.6444659,0.944857938 14.2391161,0.826185639 13.9874906,1.1426451 Z"/>
    <path fill="#442823" d="M11,3 C11,3 5.92592593,9.67938931 6,18 L4,13.7251908 C4,13.7251908 5.77777778,8.26717557 11,3 Z"/>
    <path fill="#CCAC8D" d="M8 18.8875403C8 18.8875403 8.28829261 21.0927704 8.74956077 21.7870095 9.21082894 22.4812485 8.89370708 21.2561208 8.89370708 21.2561208 8.89370708 21.2561208 8.40360965 20.8885824 8.49009743 18.0707885 8.57658521 15.2529946 8 18.8875403 8 18.8875403zM41 18.8875403C41 18.8875403 40.7117074 21.0927704 40.2504392 21.7870095 39.7891711 22.4812485 40.1062929 21.2561208 40.1062929 21.2561208 40.1062929 21.2561208 40.5963904 20.8885824 40.5099026 18.0707885 40.4234148 15.2529946 41 18.8875403 41 18.8875403z"/>
    <g fill="#442823" transform="translate(18 17)">
      <ellipse cx="2.5" cy=".563" rx="1" ry="1"/>
      <ellipse cx=".967" cy="2.362" rx="1" ry="1"/>
      <ellipse cx=".467" cy=".563" rx="1" ry="1"/>
    </g>
    <g fill="#442823" transform="translate(28 17)">
      <circle cx=".375" cy=".563" r="1"/>
      <circle cx="2.1" cy="2.362" r="1"/>
      <circle cx="2.663" cy=".563" r="1"/>
    </g>
  </g>
</svg>
