<svg xmlns="http://www.w3.org/2000/svg" width="48" height="48" viewBox="0 0 48 48">
  <g fill="none" transform="translate(2 2)">
    <path fill="#3C78AA" d="M17.2904767,0.00013199912 C13.8144999,0.00013199912 10.9998387,2.81479323 10.9998387,6.29077006 L10.9998387,9.98608543 L20.4357958,9.98608543 C21.29379,9.98608543 21.9998533,11.2421451 21.9998533,12.1001393 L6.29063806,12.1001393 C2.81466124,12.1001393 0,14.9148006 0,18.3907774 L0,26.7093619 C0,30.1853388 2.81466124,33 6.29063806,33 L8.88596076,33 L8.88596076,27.1046993 C8.88596076,23.6287225 11.6834621,20.8140612 15.1594389,20.8140612 L26.7093619,20.8140612 C30.1853388,20.8140612 33,18.0165599 33,14.5405831 L33,6.29063806 C33,2.81466124 30.1853388,0 26.7093619,0 L17.2904767,0.00013199912 Z M15.7092373,3.54078839 C16.5892314,3.54078839 17.2904767,3.80685462 17.2904767,5.10484597 C17.2904767,6.40283731 16.5892314,7.06419691 15.7092373,7.06419691 C14.851243,7.06419691 14.1451797,6.40283731 14.1451797,5.10484597 C14.1451797,3.80685462 14.851243,3.54078839 15.7092373,3.54078839 Z"/>
    <path fill="#FDD835" d="M35.1097676,11 L35.1097676,16.89534 C35.1097676,20.37134 32.3166514,23.18602 28.8406562,23.18602 L17.290672,23.18602 C13.8146768,23.18602 11.0000007,25.97914 11.0000007,29.45514 L11.0000007,37.70514 C10.999242,39.3741489 11.6616302,40.9750785 12.8414042,42.1556381 C14.0211782,43.3361977 15.6216652,43.99965 17.290672,44 L26.7092991,44 C28.3783059,43.99965 29.9787929,43.3361977 31.1585669,42.1556381 C32.3383409,40.9750785 33.0007291,39.3741489 32.9999704,37.70514 L32.9999704,34.0098 L23.5597834,34.0098 C22.7017846,34.0098 22.0000296,32.758044 22.0000296,31.900044 L37.709328,31.900044 C39.3783348,31.899694 40.9788218,31.2362417 42.1585958,30.0556821 C43.3383698,28.8751225 44.000758,27.2741929 43.9999993,25.605184 L43.9999993,17.290724 C43.9992706,13.8167793 41.183268,11.0007727 37.709328,11.000044 L35.1097676,11 Z M13.9046567,20.93014 L13.8960767,20.93872 C13.9224326,20.93344 13.9512306,20.9352 13.9777186,20.93014 L13.9046567,20.93014 Z M28.2906569,36.93602 C29.1486557,36.93602 29.8547228,37.597384 29.8547228,38.895384 C29.8534843,39.7579843 29.1532562,40.4562829 28.2906569,40.45514 C27.4106581,40.45514 26.7094091,40.193384 26.7094091,38.895384 C26.7094091,37.597384 27.4106581,36.93602 28.2906569,36.93602 Z"/>
  </g>
</svg>
