<svg xmlns="http://www.w3.org/2000/svg" width="48" height="48" viewBox="0 0 48 48">
  <path fill="#1976D2" d="M24.0008499,7.00015346 C11.9008074,7.00015346 2,13.8095705 2,22.2303076 C2,29.6752643 9.8320391,35.8489224 20.1278589,37.1653819 L20.1278589,42 L27.6299065,42 L27.6299065,37.1879623 C29.4998938,36.9836864 31.2379269,36.6205145 32.8878844,36.0984687 L35.9238912,41.9998465 L44.4159133,41.9998465 L39.3119881,33.1250898 C43.4259388,30.3560307 46,26.4746125 46,22.2301541 C46,13.8091978 36.1000425,7 23.9991501,7 L24.0008499,7.00015346 Z M27.3651484,12.9467578 C36.6051229,12.9467578 43.4250889,16.1244566 43.4250889,23.3650935 C43.4250889,27.2465116 41.4010914,29.9701907 38.1010277,31.6496905 C37.9030328,31.5361966 37.7270302,31.4227027 37.617026,31.3092307 C36.8250251,30.9460588 35.5050379,30.537507 35.5050379,30.537507 C35.5050379,30.537507 42.0610957,30.0381512 42.0610957,23.29687 C42.0610957,16.5556327 35.197145,16.442073 35.197145,16.442073 L20.127179,16.442073 L20.127179,32.6936068 C14.517111,31.0139754 10.6451824,27.4503491 10.6451824,23.3648304 C10.6451824,17.5995927 18.1251314,12.9464948 27.3651059,12.9464948 L27.3651484,12.9467578 Z M27.6950974,21.9801913 L32.2491076,21.9801913 C32.2491076,21.9801913 34.3391033,21.8666973 34.3391033,24.1137983 C34.3391033,26.3154974 32.2491076,26.3154974 32.2491076,26.3154974 L27.6950974,26.3154974 L27.6950974,21.9802789 L27.6950974,21.9801913 Z M27.6290991,31.9899751 L29.6530965,31.9899751 C30.0490863,31.9899751 30.2470812,32.1034471 30.5990863,32.4439289 C30.8850931,32.6709168 31.1930923,33.1021586 31.4570855,33.4880205 C30.2470812,33.6469164 28.9709937,33.7150084 27.6291416,33.7150084 L27.6290991,31.9899751 Z"/>
</svg>
