<svg xmlns="http://www.w3.org/2000/svg" width="48" height="48" viewBox="0 0 48 48">
  <g fill="none" transform="translate(1 1)">
    <path fill="#0288D1" d="M41.0764126,36.9993672 C44.1605683,33.110411 46,28.2072039 46,22.8784995 C46,10.2428495 35.6583308,0 22.9007761,0 C20.1256565,0 17.4649881,0.485159062 15,1.37375857 C24.3778706,6.24605003 36.7822149,22.1423992 41.0764126,37 L41.0764126,36.9993672 Z"/>
    <path fill="#E53935" d="M19.9994466 15.1254272C16.3580774 11.1935851 12.2801791 8.07098157 7.96146592 6 3.08180422 10.2882991 0 16.5818533 0 23.5972884 0 29.496392 2.1790479 34.8844753 5.77337939 39 8.94197291 29.4581209 14.8987996 20.2619755 20 15.124965L19.9994466 15.1254272zM24.813646 20.0003619C19.8016964 25.3433582 14.8074924 34.6962934 13 43.3254708 16.239857 45.0316718 19.9372583 46 23.8641637 46 27.9010187 46 31.695838 44.9770213 35 43.1803392 33.0954555 34.4756101 29.5003202 26.5037776 24.8145607 20L24.813646 20.0003619z"/>
  </g>
</svg>
