<svg xmlns="http://www.w3.org/2000/svg" width="48" height="48" viewBox="0 0 48 48">
  <path fill="#42A5F5" d="M31.5871187,23.7981171 C31.3451161,18.9617905 27.7370778,16.051241 23.3810316,16.051241 L23.2050297,16.051241 C18.1669762,16.051241 15.3949468,19.9903306 15.3949468,24.4546321 C15.3949468,29.4660293 18.7609825,32.6391848 23.1830295,32.6391848 C28.133082,32.6391848 31.3671164,29.0283527 31.6091189,24.7828895 L31.5871187,23.7981171 Z M23.2270299,11.7182425 C26.5930657,11.7182425 29.7610993,13.206343 32.0711238,15.5260291 C32.0711238,14.4099537 32.7971315,13.5783681 33.8971432,13.5783681 L34.1391458,13.5783681 C35.7671631,13.5783681 36.0971666,15.1102363 36.0971666,15.5916806 L36.0971666,32.8799069 C36.0091656,34.0178661 37.2851792,34.5868457 38.0111869,33.8427955 C40.8052165,31.0197813 44.1272518,19.2025127 36.2731684,12.3747575 C28.9470907,5.98467885 19.1129863,7.03510273 13.8769307,10.624051 C8.33287183,14.4318376 4.768834,22.9008801 8.22287066,30.800943 C11.9849106,39.4450562 22.765025,42.0273482 29.167093,39.4450562 C32.4231276,38.1539102 33.8971432,42.5087925 30.5971082,43.9312415 C25.4490535,46.0977408 11.3029034,45.8789025 4.68083306,34.4774266 C0.214785652,26.7743181 0.434787988,13.2282269 12.2929139,6.20351716 C21.3790103,0.841978607 33.3251371,2.3300791 40.4972133,9.77058159 C48.0872939,17.6487607 47.6472892,32.3109273 40.2772109,38.0226072 C36.9551757,40.6048992 32.0051231,38.0882587 32.0491236,34.3023559 L32.0051231,33.0768614 C29.6950986,35.3746637 26.5930657,36.7095773 23.2270299,36.7095773 C16.5829594,36.7095773 10.796898,30.8884783 10.796898,24.2795614 C10.796898,17.604993 16.5829594,11.7182425 23.2270299,11.7182425 Z"/>
</svg>
