<svg xmlns="http://www.w3.org/2000/svg" width="48" height="48" viewBox="0 0 48 48">
  <path fill="#00BCD4" d="M24,20.4712106 C26.107907,20.4712106 27.8269767,22.2617837 27.8269767,24.5 C27.8269767,26.6316346 26.107907,28.443524 24,28.443524 C21.892093,28.443524 20.1730233,26.6316346 20.1730233,24.5 C20.1730233,22.2617837 21.892093,20.4712106 24,20.4712106 Z M14.5246512,41.5530767 C15.8139535,42.3630978 18.6381395,41.1267498 21.892093,37.9292979 C20.827907,36.6716335 19.784186,35.3073873 18.8018605,33.8791922 C17.1237209,33.7086614 15.4660465,33.4528653 13.8902326,33.1118037 C12.8465116,37.6735017 13.2353488,40.8070046 14.5246512,41.5530767 Z M15.9776744,29.3174942 L15.384186,28.2303605 C15.1590698,28.8485346 14.9339535,29.4667086 14.7906977,30.0635663 C15.3432558,30.1914643 15.9572093,30.2980461 16.5916279,30.4046278 L15.9776744,29.3174942 Z M29.3618605,27.6974519 L31.0195349,24.5 L29.3618605,21.3025481 C28.747907,20.1727818 28.0930233,19.1709135 27.4995349,18.1690453 C26.3944186,18.1050962 25.227907,18.1050962 24,18.1050962 C22.772093,18.1050962 21.6055814,18.1050962 20.5004651,18.1690453 C19.9069767,19.1709135 19.252093,20.1727818 18.6381395,21.3025481 L16.9804651,24.5 L18.6381395,27.6974519 C19.252093,28.8272182 19.9069767,29.8290865 20.5004651,30.8309547 C21.6055814,30.8949038 22.772093,30.8949038 24,30.8949038 C25.227907,30.8949038 26.3944186,30.8949038 27.4995349,30.8309547 C28.0930233,29.8290865 28.747907,28.8272182 29.3618605,27.6974519 Z M24,13.3728675 C23.6111628,13.8418271 23.2018605,14.332103 22.7925581,14.9076444 L24,14.9076444 L25.2074419,14.9076444 C24.7981395,14.332103 24.3888372,13.8418271 24,13.3728675 Z M24,35.6271325 C24.3888372,35.1581729 24.7981395,34.667897 25.2074419,34.0923556 L24,34.0923556 L22.7925581,34.0923556 C23.2018605,34.667897 23.6111628,35.1581729 24,35.6271325 Z M33.4548837,7.44692332 C32.1860465,6.63690218 29.3618605,7.87325024 26.107907,11.0707021 C27.172093,12.3283665 28.215814,13.6926127 29.1981395,15.1208078 C30.8762791,15.2913386 32.5339535,15.5471347 34.1097674,15.8881963 C35.1534884,11.3264983 34.7646512,8.19299543 33.4548837,7.44692332 Z M32.0223256,19.6825058 L32.615814,20.7696395 C32.8409302,20.1514654 33.0660465,19.5332914 33.2093023,18.9364337 C32.6567442,18.8085357 32.0427907,18.7019539 31.4083721,18.5953722 L32.0223256,19.6825058 Z M34.9897674,4.65448202 C37.9981395,6.44505507 38.3255814,11.1559675 37.0567442,16.6555847 C42.2548837,18.2543107 46,20.8975376 46,24.5 C46,28.1024624 42.2548837,30.7456893 37.0567442,32.3444153 C38.3255814,37.8440325 37.9981395,42.5549449 34.9897674,44.345518 C32.0018605,46.136091 27.9293023,44.0897218 24,40.1888305 C20.0706977,44.0897218 15.9981395,46.136091 12.9897674,44.345518 C10.0018605,42.5549449 9.6744186,37.8440325 10.9432558,32.3444153 C5.74511628,30.7456893 2,28.1024624 2,24.5 C2,20.8975376 5.74511628,18.2543107 10.9432558,16.6555847 C9.6744186,11.1559675 10.0018605,6.44505507 12.9897674,4.65448202 C15.9981395,2.86390897 20.0706977,4.91027817 24,8.81116946 C27.9293023,4.91027817 32.0018605,2.86390897 34.9897674,4.65448202 Z M34.3962791,24.5 C35.092093,26.0987259 35.7060465,27.6974519 36.2176744,29.3174942 C40.5153488,27.9745644 42.9302326,26.0560932 42.9302326,24.5 C42.9302326,22.9439068 40.5153488,21.0254356 36.2176744,19.6825058 C35.7060465,21.3025481 35.092093,22.9012741 34.3962791,24.5 Z M13.6037209,24.5 C12.907907,22.9012741 12.2939535,21.3025481 11.7823256,19.6825058 C7.48465116,21.0254356 5.06976744,22.9439068 5.06976744,24.5 C5.06976744,26.0560932 7.48465116,27.9745644 11.7823256,29.3174942 C12.2939535,27.6974519 12.907907,26.0987259 13.6037209,24.5 Z M32.0223256,29.3174942 L31.4083721,30.4046278 C32.0427907,30.2980461 32.6567442,30.1914643 33.2093023,30.0635663 C33.0660465,29.4667086 32.8409302,28.8485346 32.615814,28.2303605 L32.0223256,29.3174942 Z M26.107907,37.9292979 C29.3618605,41.1267498 32.1860465,42.3630978 33.4548837,41.5530767 C34.7646512,40.8070046 35.1534884,37.6735017 34.1097674,33.1118037 C32.5339535,33.4528653 30.8762791,33.7086614 29.1981395,33.8791922 C28.215814,35.3073873 27.172093,36.6716335 26.107907,37.9292979 Z M15.9776744,19.6825058 L16.5916279,18.5953722 C15.9572093,18.7019539 15.3432558,18.8085357 14.7906977,18.9364337 C14.9339535,19.5332914 15.1590698,20.1514654 15.384186,20.7696395 L15.9776744,19.6825058 Z M21.892093,11.0707021 C18.6381395,7.87325024 15.8139535,6.63690218 14.5246512,7.44692332 C13.2353488,8.19299543 12.8465116,11.3264983 13.8902326,15.8881963 C15.4660465,15.5471347 17.1237209,15.2913386 18.8018605,15.1208078 C19.784186,13.6926127 20.827907,12.3283665 21.892093,11.0707021 Z"/>
</svg>
