<svg xmlns="http://www.w3.org/2000/svg" width="48" height="48" viewBox="0 0 48 48">
  <path fill="#42A5F5" d="M26.65,18.05 L22.35,18.05 L22.35,13.75 L26.65,13.75 L26.65,18.05 Z M26.65,35.25 L22.35,35.25 L22.35,22.35 L26.65,22.35 L26.65,35.25 Z M24.5,3 C12.6258779,3 3,12.6258779 3,24.5 C3,30.2021545 5.26517207,35.6707637 9.2972042,39.7027958 C13.3292363,43.7348279 18.7978455,46 24.5,46 C30.2021545,46 35.6707637,43.7348279 39.7027958,39.7027958 C43.7348279,35.6707637 46,30.2021545 46,24.5 C46,18.7978455 43.7348279,13.3292363 39.7027958,9.2972042 C35.6707637,5.26517207 30.2021545,3 24.5,3 Z"/>
</svg>
