<svg xmlns="http://www.w3.org/2000/svg" width="48" height="48" viewBox="0 0 48 48">
  <path fill="#F44336" d="M2,2 L2,46 L46,46 L46,2 L2,2 Z M14.5138826,23.9843564 L21.3528137,23.9843564 C22.2870529,23.9843564 23.0883462,24.0450975 23.7607266,24.1678507 C24.433107,24.2906039 25.0665007,24.555298 25.6539414,24.9645242 C26.2484706,25.3737503 26.7169713,25.9075874 27.0637698,26.5623443 C27.4176568,27.2089128 27.5963846,28.0239431 27.5963846,29.0060663 C27.5963846,30.356498 27.3223043,31.4535526 26.7773457,32.3046609 C26.2394511,33.1558425 25.4684429,33.8658897 24.4634165,34.4305983 L29.74019,42.2628965 L24.758689,42.2628965 L20.4486395,35.5584023 L18.5688684,35.5584023 L18.5688684,42.2628965 L14.5138826,42.2628965 L14.5138826,23.9843564 Z M30.6306761,23.9843564 L42.0614855,23.9843564 L42.0614855,27.5200489 L34.6855397,27.5200489 L34.6855397,30.6754069 L41.5332704,30.6754069 L41.5332704,34.2110994 L34.6855397,34.2110994 L34.6855397,38.7269596 L42.0614855,38.7269596 L42.0614855,42.2626521 L30.6306761,42.2626521 L30.6306761,23.9843564 Z M18.5687462,27.3455252 L18.5687462,32.2688517 L19.8219188,32.2688517 C20.4730582,32.2688517 21.0211944,32.2350958 21.4600211,32.1614244 C21.8988234,32.0877773 22.2637831,31.9175801 22.5610355,31.6556725 C22.8441353,31.4019532 23.0512905,31.1260152 23.1786634,30.8231898 C23.3131248,30.512176 23.3800744,30.0990389 23.3800744,29.5834365 C23.3800744,29.1251042 23.2966991,28.7292484 23.1339081,28.4018577 C22.9711172,28.0744914 22.693297,27.8158102 22.2969524,27.627574 C22.0209166,27.4966324 21.6982434,27.4193923 21.3302039,27.3948514 C20.9621643,27.3621221 20.5340437,27.345623 20.0456952,27.345623 L18.5687462,27.3455252 Z"/>
</svg>
