<svg xmlns="http://www.w3.org/2000/svg" width="48" height="48" viewBox="0 0 48 48">
  <path fill="#8CC64A" fill-rule="evenodd" stroke="#8CC64A" stroke-width=".5" d="M32.9257322,32.3351192 C29.8018993,38.7751545 24.2925939,43.1065057 17.0225828,44.5312923 C15.8866435,44.8162496 14.7507043,44.9302326 13.614765,44.9302326 C9.4117898,44.9302326 5.60639333,43.1634972 3.73209357,40.3139241 C1.23302722,36.495496 0.381072789,28.4027083 8.61663233,22.4186047 C8.78702322,23.3304681 9.12780499,24.5842802 9.35499284,25.3251693 C8.27585056,26.1230497 6.57194169,27.7188107 5.4927994,29.8844863 C3.95928142,32.9050339 4.1296723,35.9255814 5.9471751,38.7181631 C7.19670827,40.5988814 9.18460196,41.7387106 11.7404653,42.0806594 C14.8642982,42.4795996 17.9881311,41.909685 20.9983701,40.3139241 C25.4285332,37.9772741 28.3819752,35.1846924 30.313072,31.3662644 C29.8018993,30.8533412 29.4611175,30.1124522 29.4043206,29.2575802 C29.3475236,27.4908449 30.7106507,26.0090668 32.4713565,25.9520754 L32.5849504,25.9520754 C34.2888593,25.9520754 35.7087834,27.3198705 35.7655803,29.0296144 C35.8223773,30.7393583 34.5728441,32.1641448 32.9257322,32.3351192 Z M42.4069813,26.2800594 C46.5316776,30.8223652 46.6416695,36.1662543 45.0467869,39.26571 C43.5618963,42.0979713 39.6571838,44.9302326 34.3775725,44.9302326 C32.0677426,44.9302326 29.6479208,44.3424048 27.2830949,43.2736269 C28.0530382,42.739238 29.1529572,41.8842157 29.7579127,41.3498268 C30.8578317,41.8307768 32.9476778,42.4720435 35.1475158,42.4720435 C38.5572648,42.4720435 41.1420744,40.9223157 42.681961,38.0900544 C43.6718882,36.2196932 43.7268841,34.0286987 42.7919529,31.7842652 C41.6920339,29.0054429 39.7121797,26.7075705 36.9623822,24.9440871 C33.3876454,22.6462147 29.427937,21.4705591 25.2482447,21.4705591 L24.2583176,21.4705591 C23.81835,22.4858981 22.773427,23.2340426 21.563516,23.2874814 L21.4535241,23.2874814 C19.8036456,23.2874814 18.4287469,22.004948 18.3737509,20.4017813 C18.318755,18.7451757 19.6386578,17.3557645 21.3435322,17.3023256 L21.4535241,17.3023256 C22.6084391,17.3023256 23.6533622,17.9435923 24.1483257,18.9054923 L25.0282609,18.9054923 C32.0677426,18.9054923 38.227289,21.523998 42.4069813,26.2800594 Z M14.2030527,32.827467 C14.1491389,32.2380578 14.3108801,31.6486486 14.5804488,31.2735701 C11.5612796,26.0760528 9.94386754,19.4853865 12.4238994,12.626807 C14.2030527,7.48287241 18.6778928,4 23.530129,4 C28.7058476,4 34.0972212,8.5009428 34.744186,17.1813325 C33.93548,16.9134192 32.7493778,16.5383407 32.0484993,16.3775927 C31.886758,13.5377121 29.4606399,6.46480201 23.7457839,6.57196732 C21.697062,6.62554997 18.6778928,7.59003771 17.1143944,9.57259585 C15.2274137,11.8766499 14.1491389,14.6629478 13.933484,17.877907 C13.6100016,22.1645192 14.5265351,26.1296354 16.7369983,29.7732558 C16.8448257,29.7196732 17.0065669,29.7196732 17.1143944,29.7196732 L17.2222219,29.7196732 C18.839634,29.7196732 20.1874774,31.0056568 20.2413911,32.6131364 C20.2953048,34.2741986 19.0013752,35.6673476 17.3300494,35.7209302 L17.2222219,35.7209302 C15.6048098,35.7209302 14.2569664,34.4349466 14.2030527,32.827467 Z"/>
</svg>
