<svg xmlns="http://www.w3.org/2000/svg" width="48" height="48" viewBox="0 0 48 48">
  <path fill="#2D7EBC" d="M28.6772226,21.8389894 L20.2833472,26.9826615 L17.3242011,21.8277388 L26.083676,17.0343421 L17.3242011,12.1696884 L20.2983795,7.10879386 L28.6772226,12.2297854 L28.6772226,2 L34.6575237,2 L34.6575237,12.2297855 L43.1136341,7.10879394 L46.1063834,12.1696884 L37.3075243,17.0343421 L46.1063834,21.8277388 L43.1018433,27.0060959 L34.6575237,21.8389894 L34.6575237,32.029482 L28.6772226,32.029482 L28.6772226,21.8389894 Z M14.5059507,39.7470244 C14.5059507,34.951326 9.27867086,31.9377424 5.11942961,34.3355902 C0.960189363,36.7334407 0.960190345,42.7606081 5.11943126,45.1584586 C9.27867217,47.5563065 14.5059507,44.5427228 14.5059507,39.7470244 Z"/>
</svg>
