<svg xmlns="http://www.w3.org/2000/svg" width="48" height="48" viewBox="0 0 48 48">
  <g fill="none" transform="translate(3)">
    <path fill="#83E8C2" d="M43,13.8004262 C42.7549936,12.2592453 41.8257284,10.8815344 40.4494209,10.0885045 L24.1510946,0.980190747 C23.3560175,0.522374525 22.450876,0.280679653 21.5334214,0.280679653 C20.6159668,0.280679653 19.7108253,0.522374525 18.9162508,0.979689305 L2.61792447,10.088003 C1.00289274,11.0189294 0,12.7519117 0,14.6117588 L0,33.3882412 C0,35.2480883 1.00289274,36.9813213 2.6174219,37.9117463 L18.8825781,47.007252 C19.6779065,47.4653189 20.583048,47.7070138 21.5002513,47.7070138 C22.4174546,47.7070138 23.3225961,47.4653189 24.1174219,47.0075027 L40.4489183,37.9122477 C41.8257284,37.1184656 42.7552449,35.7410054 43,34.1995738 L43,13.8004262 Z M22.5187239,44.2435564 C22.203608,44.4250782 21.851804,44.5160899 21.5,44.5160899 C21.148196,44.5160899 20.796392,44.4250782 20.4812761,44.2435564 L4.21662245,35.1485521 C3.58639068,34.7852576 3.19814981,34.1143287 3.19814981,33.3882412 L3.19814981,14.6117588 C3.19814981,13.8856713 3.58639068,13.2147424 4.21662245,12.8514479 L20.5144462,3.74363565 C20.8295621,3.56186305 21.1813661,3.47135284 21.5331701,3.47135284 C21.8849741,3.47135284 22.2367781,3.56186305 22.551894,3.74363565 L38.8497177,12.8514479 C39.4799495,13.2144917 39.8681904,13.8854206 39.8681904,14.6117588 L39.8681904,33.3882412 C39.8681904,34.1143287 39.4799495,34.7852576 38.8497177,35.1485521 L22.5187239,44.2435564 Z"/>
    <path fill="#111D5A" d="M40,14.7513811 C40,14.0360824 39.6082657,13.3751227 38.9723631,13.0172264 L22.5278905,3.768237 C22.2099391,3.58916534 21.8549696,3.5 21.5,3.5 C21.1450304,3.5 20.7900609,3.58916534 20.4721095,3.768237 L4.02763692,13.0172264 C3.39173428,13.3748757 3,14.0358354 3,14.7513811 L3,33.2488659 C3,33.9641646 3.39173428,34.6251243 4.02763692,34.9830206 L20.4721095,44.231516 C20.7900609,44.4103407 21.1450304,44.5 21.5,44.5 C21.8549696,44.5 22.2099391,44.4103407 22.5278905,44.231516 L38.9723631,34.9830206 C39.6082657,34.6251243 40,33.9641646 40,33.2488659 L40,14.7513811 Z"/>
    <g fill="#83E8C2" transform="translate(7.5 7)">
      <path d="M7.46715789 15.128381C7.52097039 15.1421587 7.57522039 15.1639365 7.62728289 15.1946032 7.57478289 15.1639365 7.52140789 15.1426032 7.46715789 15.128381zM16.119534 23.4245079C16.0893465 23.3933968 16.062659 23.3587302 16.0385965 23.3213968 16.062659 23.3587302 16.0893465 23.3933968 16.119534 23.4245079z"/>
      <path d="M16.2047467 23.4764444C16.1636217 23.4511111 16.1242467 23.4226667 16.0896842 23.3884444 16.1246842 23.4226667 16.1640592 23.4511111 16.2047467 23.4764444zM11.9988213 23.2406349C11.9874463 23.2761905 11.9730088 23.3104127 11.9555088 23.3424127 11.9734463 23.3104127 11.9874463 23.2761905 11.9988213 23.2406349zM11.8503322 23.4488889C11.8188322 23.4653333 11.7860197 23.4795556 11.7518947 23.4911111 11.7860197 23.4795556 11.8188322 23.4653333 11.8503322 23.4488889zM11.9427982 23.3879365C11.9082357 23.4217143 11.8688607 23.4510476 11.8272982 23.476381 11.8688607 23.4506032 11.9077982 23.4217143 11.9427982 23.3879365z"/>
      <path d="M12.0091217 23.1238095C12.0091217 23.180254 12.0003717 23.2331429 11.9876842 23.2838095 12.0008092 23.2331429 12.0091217 23.180254 12.0091217 23.1238095zM11.7811689 23.4793651C11.7413564 23.4891429 11.7006689 23.4958095 11.6595439 23.4975873 11.7011064 23.4958095 11.7413564 23.4900317 11.7811689 23.4793651zM16.0033509 23.2834286C15.9911009 23.2327619 15.9823509 23.1803175 15.9823509 23.1243175 15.9823509 23.1803175 15.9911009 23.2327619 16.0033509 23.2834286zM11.8216491 26.0342857L8.01733333 23.7633016 8.01733333 24.2694603C8.01733333 24.4995556 7.83484211 24.664381 7.63564912 24.664381 7.57203509 24.664381 7.50719298 24.647619 7.44578947 24.6107937L7.02185965 24.3578413 7.02185965 28.9000635C7.02185965 29.031873 7.08964912 29.1532698 7.20017544 29.2193016L11.4652632 31.7655873C11.5227368 31.799873 11.5836491 31.8153651 11.6433333 31.8153651 11.8295088 31.8153651 11.9999649 31.6614603 11.9999649 31.4463492L11.9999649 26.3535238C11.9997193 26.2217143 11.9319298 26.1003175 11.8216491 26.0342857zM16.0451206 23.3426667C16.0280581 23.3106667 16.0140581 23.2768889 16.0022456 23.2408889 16.0140581 23.2768889 16.0280581 23.3106667 16.0451206 23.3426667zM19.9635088 20.5220317C19.9635088 20.4420317 19.9810088 20.3664762 20.0063838 20.2935873 19.9810088 20.3664762 19.9635088 20.4420317 19.9635088 20.5220317zM16.0862456 17.7726984C16.1078596 17.7500952 16.1326667 17.7300317 16.1606667 17.7137778L20.4257544 15.1674921 16.1606667 17.7137778C16.1329123 17.7300317 16.1078596 17.7500952 16.0862456 17.7726984zM11.9795482 23.3219048C11.9554857 23.3596825 11.9283607 23.3947937 11.8972982 23.4263492 11.9283607 23.3947937 11.9550482 23.3596825 11.9795482 23.3219048zM7.1294386 15.259746C7.1640011 15.2259683 7.2029386 15.1966349 7.2445011 15.1713016 7.2029386 15.1966349 7.1640011 15.2255238 7.1294386 15.259746zM7.21466667 15.1782222C7.24616667 15.1613333 7.27897917 15.1471111 7.31266667 15.136 7.27897917 15.1475556 7.24616667 15.1613333 7.21466667 15.1782222zM7.38210636 15.1164444C7.37991886 15.1164444 7.37773136 15.1168889 7.37554386 15.1168889 7.41185636 15.1164444 7.44860636 15.1235556 7.48535636 15.1297778 7.45079386 15.1244444 7.41623136 15.1164444 7.38210636 15.1164444z"/>
      <path d="M7.07835088 15.3321905C7.10197588 15.2948571 7.12910088 15.259746 7.16016338 15.2281905 7.12953838 15.259746 7.10197588 15.2948571 7.07835088 15.3321905zM7.29375439 15.1361905C7.33356689 15.1268571 7.37425439 15.1201905 7.41537939 15.1179683 7.37425439 15.1201905 7.33356689 15.1264127 7.29375439 15.1361905zM7.02185965 15.5549841C7.02185965 15.4985397 7.03060965 15.4456508 7.04329715 15.3945397 7.03017215 15.4452063 7.02185965 15.4985397 7.02185965 15.5549841zM11.6246513 23.5102857C11.5704013 23.4960635 11.5165888 23.4742857 11.4645263 23.4440635 11.5165888 23.4742857 11.5704013 23.4960635 11.6246513 23.5102857zM7.04175439 15.4127619C7.05312939 15.3772063 7.06756689 15.3434286 7.08506689 15.3109841 7.06756689 15.3429841 7.05312939 15.3772063 7.04175439 15.4127619zM11.4645263 23.4438095L8.01733333 21.384127 11.4645263 23.4438095zM11.6870603 23.4977778C11.6892478 23.4977778 11.6914353 23.4973333 11.6936228 23.4973333 11.6577478 23.4977778 11.6209978 23.4902222 11.5851228 23.4844444 11.6192478 23.4897778 11.6533728 23.4977778 11.6870603 23.4977778zM20.4252632 15.1943492C20.4773257 15.1636825 20.5311382 15.1419048 20.5849507 15.128127 20.5311382 15.1419048 20.4773257 15.1632381 20.4252632 15.1943492zM12.0541535 17.9476825C11.999466 17.8507937 11.919841 17.7690159 11.8214035 17.7112381 11.919841 17.7690159 11.999466 17.8512381 12.0541535 17.9476825zM20.7887719 15.1705397C20.8298969 15.195873 20.8692719 15.2247619 20.9038344 15.2589841 20.8688344 15.2247619 20.8294594 15.195873 20.7887719 15.1705397zM16.5822785 23.4438095C16.5315285 23.4726984 16.479466 23.4944762 16.4274035 23.5086984 16.479466 23.4944762 16.5315285 23.4726984 16.5822785 23.4438095zM20.7126316 15.135746C20.7458816 15.1468571 20.7782566 15.1610794 20.8101941 15.1779683 20.7782566 15.1606349 20.7463191 15.1468571 20.7126316 15.135746zM20.6483114 15.1161905C20.6154989 15.1161905 20.5822489 15.1241905 20.5485614 15.1290794 20.5839989 15.1228571 20.6194364 15.1161905 20.6544364 15.1166349 20.6522489 15.1166349 20.6504989 15.1161905 20.6483114 15.1161905zM27.5726316 10.9554286C27.5134386 10.9554286 27.4525263 10.9711746 27.394807 11.0054603L23.1297193 13.5514921C23.0194386 13.6175238 22.9511579 13.7389206 22.9511579 13.8707302L22.9511579 18.4129524 23.3753333 18.16C23.4367368 18.1231746 23.5018246 18.1064127 23.565193 18.1066667 23.7641404 18.1066667 23.9468772 18.2709841 23.9468772 18.5013333L23.9468772 19.0074921 27.751193 16.736254C27.8614737 16.6704762 27.9295088 16.5490794 27.9295088 16.4172698L27.9295088 11.3244444C27.9295088 11.1093333 27.758807 10.9554286 27.5726316 10.9554286z"/>
      <path d="M20.6217544 15.1177143C20.6620044 15.1199365 20.7022544 15.1261587 20.7411919 15.1354921 20.7022544 15.1261587 20.6624419 15.1199365 20.6217544 15.1177143zM16.341477 23.4975873C16.373852 23.4975873 16.407102 23.4895873 16.4399145 23.4846984 16.4049145 23.4904762 16.370352 23.4971429 16.3357895 23.4971429 16.337977 23.4971429 16.3401645 23.4975873 16.341477 23.4975873z"/>
      <path d="M16.3736831 23.499873C16.3329956 23.4976508 16.2931831 23.4914286 16.2542456 23.4816508 16.2936206 23.491873 16.3329956 23.4976508 16.3736831 23.499873zM13.8128421 14.1460317C13.9112796 14.2038095 14.0206546 14.232254 14.1304671 14.232254 14.0206546 14.2326984 13.9112796 14.2038095 13.8128421 14.1460317zM16.2724748 23.4921905C16.2387873 23.4815238 16.2064123 23.4668571 16.1749123 23.4504127 16.2064123 23.4673016 16.2387873 23.4810794 16.2724748 23.4921905zM27.5726316 19.2761905C27.5134386 19.2761905 27.4525263 19.2919365 27.394807 19.3259683L23.9468772 21.384381 23.9468772 22.3453968C23.9468772 22.4863492 23.8741754 22.616381 23.7562807 22.6867302L20.5362807 24.6092698C20.4746316 24.6458413 20.4097895 24.6626032 20.3461754 24.6626032 20.1472281 24.6626032 19.9647368 24.4980317 19.9647368 24.2676825L19.9647368 23.7617778 16.1606667 26.0325079C16.050386 26.0985397 15.9821053 26.2199365 15.9821053 26.351746L15.9821053 31.4445714C15.9821053 31.6596825 16.152807 31.8135873 16.3389825 31.8135873 16.3984211 31.8135873 16.4593333 31.7978413 16.516807 31.7638095L27.7514386 25.0567619C27.8617193 24.9909841 27.9297544 24.8693333 27.9297544 24.7377778L27.9297544 19.6449524C27.9295088 19.4303492 27.758807 19.2761905 27.5726316 19.2761905zM9.54726316 2.64025397C9.30975439 2.78222222 9.30975439 3.13650794 9.54726316 3.27847619L12.995193 5.33663492 13.8003158 4.85587302C13.8592632 4.82057143 13.9250877 4.80330159 13.9906667 4.80330159 14.0562456 4.80330159 14.1223158 4.82057143 14.1810175 4.85587302L17.4012632 6.7784127C17.6554737 6.93003175 17.6554737 7.30920635 17.4012632 7.46107937L16.9770877 7.71403175 20.7816491 9.98526984C20.8369123 10.0180317 20.8983158 10.0342857 20.9599649 10.0342857 21.021614 10.0342857 21.0830175 10.0180317 21.1382807 9.98526984L25.403614 7.43873016C25.6411228 7.29701587 25.6411228 6.94247619 25.403614 6.8007619L14.1689825.0934603175C14.1137193.0604444444 14.0523158.0439365079 13.9906667.0439365079 13.9290175.0439365079 13.867614.0604444444 13.8123509.0934603175L9.54726316 2.64025397zM2.57821053 6.80101587C2.34045614 6.94273016 2.34045614 7.29726984 2.57821053 7.43898413L6.84354386 9.98552381C6.89880702 10.0182857 6.96021053 10.0345397 7.02185965 10.0345397 7.08350877 10.0345397 7.14491228 10.0182857 7.20017544 9.98552381L11.0042456 7.71428571 10.5800702 7.46133333C10.3261053 7.30946032 10.3261053 6.93028571 10.5800702 6.77866667L11.0042456 6.52546032 7.19992982 4.25447619C7.14466667 4.22171429 7.08326316 4.20520635 7.02161404 4.20520635 6.96021053 4.20520635 6.89880702 4.22171429 6.84354386 4.25447619L2.57821053 6.80101587zM5.03042105 27.2838095L5.03042105 23.1672381 4.22529825 22.6862222C4.10740351 22.616127 4.03494737 22.4858413 4.03494737 22.3448889L4.03494737 18.5000635C4.03494737 18.2699683 4.2174386 18.1051429 4.41663158 18.1053968 4.48024561 18.1053968 4.54508772 18.1219048 4.60649123 18.1587302L5.03066667 18.4119365 5.03066667 13.8694603C5.03066667 13.7376508 4.96287719 13.616254 4.85235088 13.5502222L.587017544 11.0044444C.529789474 10.9701587.468877193 10.9544127.409192982 10.9544127.223017544 10.9544127.0525614035 11.1083175.0525614035 11.3234286L.0525614035 24.7372698C.0525614035 24.8688254.120350877 24.9904762.230877193 25.056254L4.49596491 27.6025397C4.5534386 27.6368254 4.61435088 27.6523175 4.67378947 27.6523175 4.8597193 27.6525714 5.03042105 27.4986667 5.03042105 27.2838095zM20.9607018 19.6012698L20.1555789 20.0820317 20.9607018 19.6012698 20.9607018 15.4846984C20.9607018 15.4524444 20.9555439 15.4222222 20.9486667 15.3930159 20.9555439 15.4222222 20.9607018 15.4524444 20.9607018 15.4846984L20.9607018 19.6012698zM20.9402851 15.331873C20.9162226 15.2940952 20.8890976 15.2589841 20.8580351 15.2274286 20.8890976 15.2589841 20.9166601 15.2940952 20.9402851 15.331873zM20.9164912 15.3099683C20.9339912 15.3419683 20.9479912 15.375746 20.9598037 15.411746 20.9479912 15.3761905 20.9339912 15.3419683 20.9164912 15.3099683z"/>
    </g>
    <path fill="#DE5941" d="M23.604243,25.1103391 C23.6259515,25.0886514 23.6511136,25.0694005 23.6787426,25.0535612 L27.9624683,22.6104087 C27.9918241,22.5935947 28.0221666,22.5816543 28.0525092,22.5741001 C28.0633634,22.5711759 28.0742176,22.5716633 28.0848252,22.5697138 C28.1048069,22.566546 28.1247886,22.5626471 28.1445235,22.5628908 C28.1494573,22.5631344 28.1538977,22.5641092 28.1590781,22.5643529 C28.1815266,22.5655713 28.2042219,22.5689828 28.2264237,22.5741001 C28.2348111,22.5762933 28.2429518,22.5787301 28.2510925,22.5814106 C28.2700874,22.5877463 28.2883423,22.5953004 28.3061037,22.6045603 C28.313011,22.6079719 28.3201649,22.6111397 28.3268255,22.6150386 C28.3500141,22.6286848 28.372216,22.6447678 28.3917043,22.6635313 C28.3934311,22.6652371 28.3949112,22.6674302 28.3968847,22.6693797 C28.4143995,22.6866811 28.4296941,22.7059319 28.4432619,22.7266449 C28.4477023,22.7337116 28.4514026,22.7410221 28.4555963,22.7485762 C28.4654638,22.7661213 28.4736045,22.7846411 28.4800183,22.8043793 C28.4827319,22.8126645 28.4856921,22.8204623 28.4879123,22.8285038 C28.4948196,22.8565272 28.5,22.8855253 28.5,22.9164729 L28.5,26.8663093 L27.6913589,27.3275987 C27.6111855,27.3731672 27.5542007,27.4462717 27.5241049,27.5298545 C27.509797,27.5698183 27.4999295,27.6112442 27.4999295,27.6551069 L27.4999295,28.577442 L24.0369326,30.5522384 C24.0361926,30.5527258 24.0352058,30.5527258 24.0344657,30.5532131 C24.00585,30.5692961 23.9764942,30.5812365 23.9471384,30.5887906 C23.9360375,30.5917148 23.9249366,30.5914711 23.9138356,30.5931769 C23.8941006,30.5961011 23.8746123,30.6 23.855124,30.6 C23.8501903,30.5997563 23.8455032,30.5987816 23.8405695,30.5985379 C23.8178743,30.5973195 23.7954257,30.593908 23.7732239,30.588547 C23.7645898,30.5865975 23.7566958,30.5841607 23.7485551,30.5812365 C23.7295602,30.5751445 23.7110586,30.5673467 23.6935438,30.5583304 C23.6863899,30.5546752 23.6794827,30.551751 23.6728221,30.5476084 C23.6496335,30.5339623 23.6274316,30.518123 23.6079433,30.4993595 C23.6059698,30.4976537 23.6044897,30.4949732 23.6022695,30.4927801 C23.5850014,30.4757223 23.5702002,30.4567152 23.5566324,30.4362459 C23.5519453,30.4291791 23.548245,30.421625 23.5440513,30.4143146 C23.5344305,30.3965258 23.5262898,30.378006 23.519876,30.3585115 C23.5169157,30.3499826 23.5142021,30.3421848 23.5117353,30.3338996 C23.504828,30.3061199 23.4998943,30.2773655 23.4998943,30.2466616 C23.4998943,30.2466616 23.4996476,30.2464179 23.4996476,30.2461742 L23.4996476,25.3596254 C23.4996476,25.2650769 23.5381308,25.1758894 23.604243,25.1103391 Z M19.320764,25.0518555 C19.3762687,25.0835341 19.4211658,25.1286152 19.4520017,25.1814941 C19.4828376,25.234373 19.499859,25.2952935 19.499859,25.3586507 L19.499859,30.2437374 C19.499859,30.274685 19.4949253,30.3036831 19.4877714,30.3314628 C19.4855512,30.3402353 19.4828376,30.3480331 19.4798774,30.3560746 C19.4732168,30.3755692 19.4653228,30.3943327 19.4554553,30.4118777 C19.4512616,30.4191882 19.4475613,30.4267423 19.4431209,30.4338091 C19.4295531,30.454522 19.4140118,30.4737729 19.3967437,30.4910743 C19.3950169,30.4927801 19.3935368,30.4952169 19.3915633,30.4971663 C19.372075,30.5156861 19.3498731,30.5315254 19.3264378,30.545659 C19.320024,30.5495579 19.31287,30.5524821 19.3062095,30.5561373 C19.2882013,30.5651535 19.2696997,30.573195 19.2507048,30.5792871 C19.2423175,30.5817239 19.2346701,30.5844044 19.2262828,30.5863538 C19.2040809,30.5917148 19.181139,30.59537 19.1577037,30.5963448 C19.1532633,30.5965885 19.1488229,30.5978069 19.1441359,30.5978069 C19.1239075,30.5980505 19.1031858,30.5941516 19.0829574,30.5907401 C19.0723499,30.5890343 19.0622357,30.5895217 19.0521215,30.5865975 C19.0215323,30.5787997 18.9911897,30.5668593 18.9618339,30.5502889 L15.4995771,28.5754926 L15.4995771,27.6534011 C15.4995771,27.5859013 15.4813222,27.5208383 15.4482661,27.4645478 C15.4154567,27.4080136 15.3673527,27.3600084 15.3081477,27.3261366 L14.5,26.8650909 L14.5,22.9159855 C14.5,22.8850379 14.5049337,22.8560398 14.5120877,22.8280164 C14.5143079,22.8194876 14.5170214,22.8116898 14.5199817,22.8036483 C14.5266422,22.7841537 14.5345362,22.7656339 14.5444037,22.7478452 C14.5485974,22.7405347 14.5522977,22.7327369 14.5569848,22.7256701 C14.5703059,22.7052009 14.5858472,22.68595 14.6031153,22.6686486 C14.6048421,22.6669428 14.6063222,22.664506 14.6082957,22.6625566 C14.627784,22.6440368 14.6497392,22.6281975 14.6731745,22.6140639 C14.6798351,22.610165 14.686989,22.6069971 14.6938963,22.6035856 C14.7119044,22.5943257 14.730406,22.5862842 14.7491542,22.5804358 C14.7575416,22.577999 14.7651889,22.5753185 14.7735763,22.5731254 C14.7957781,22.5680081 14.81872,22.5643529 14.8421553,22.5631344 C14.8468424,22.5631344 14.8510361,22.561916 14.8557231,22.561916 C14.8761982,22.5616724 14.8969199,22.5653276 14.9176417,22.5689828 C14.9275092,22.5706886 14.9376233,22.5702012 14.9477375,22.5731254 C14.9780801,22.5806795 15.0086693,22.5926199 15.0380251,22.609434 L19.320764,25.0518555 Z M21.6788483,21.6305646 C21.6235904,21.6622433 21.5619185,21.6778389 21.5,21.6778389 C21.4380815,21.6778389 21.3764096,21.6622433 21.320905,21.6305646 L17.0369326,19.1874121 C16.977481,19.1532967 16.9325839,19.1065098 16.9027347,19.0533872 C16.8430364,18.947142 16.8430364,18.8153102 16.9027347,18.709065 C16.9325839,18.6556987 16.977481,18.6091555 17.0369326,18.57504 L20.4999295,16.6002437 L21.3083239,17.0612894 C21.4269805,17.1285456 21.5727728,17.1285456 21.690936,17.0612894 L22.4995771,16.6 L25.962574,18.57504 C26.2013674,18.7110144 26.2013674,19.051194 25.962574,19.1874121 L21.6788483,21.6305646 Z"/>
  </g>
</svg>
