<svg xmlns="http://www.w3.org/2000/svg" width="48" height="48" viewBox="0 0 48 48">
  <path fill="#FF1744" d="M27.08,2.09777778 L28.4977778,2.22 L29.8177778,2.39111111 L31.0888889,2.61111111 L32.2866667,2.88 L33.4111111,3.19777778 L34.4866667,3.54 L35.4888889,3.93111111 L36.4422222,4.34666667 L37.3222222,4.81111111 L38.1288889,5.32444444 L38.9111111,5.86222222 L39.62,6.42444444 L40.2555556,7.03555556 L40.7933333,7.57333333 L41.2822222,8.11111111 L41.7466667,8.69777778 L42.1622222,9.28444444 L42.5288889,9.89555556 L42.8955556,10.5311111 L43.1888889,11.1911111 L43.4822222,11.8755556 L43.7266667,12.5844444 L43.9222222,13.3422222 L44.0933333,14.1 L44.2155556,14.8822222 L44.3133333,15.7133333 L44.3622222,16.5688889 L44.3866667,17.4733333 L44.3866667,17.5955556 L44.3377778,18.8422222 L44.2155556,20.04 L43.9955556,21.2133333 L43.6777778,22.3133333 L43.3111111,23.3644444 L42.8466667,24.3422222 L42.3088889,25.2955556 L41.6733333,26.2 L40.9888889,27.0311111 L40.2311111,27.8377778 L39.4244444,28.5711111 L38.52,29.2555556 L37.5666667,29.9155556 L36.5644444,30.5022222 L35.4888889,31.04 L46,46 L28.7911111,46 L20.2844444,33.4355556 L17.0822222,33.4355556 L17.0822222,46 L2,46 L2,2 L24.0244444,2 L25.5888889,2.02444444 L27.08,2.09777778 Z M17,23 L23.3459245,23 L25.7077535,22.71875 L27.4970179,21.8238636 L28.6182903,20.4176136 L29,18.5255682 L29,18.3977273 L28.5944334,16.4801136 L27.473161,15.0994318 L25.7077535,14.28125 L23.417495,14 L17,14 L17,23 Z"/>
</svg>
