<svg xmlns="http://www.w3.org/2000/svg" width="48" height="48" viewBox="0 0 48 48">
  <path fill="#FF5722" d="M23.9159259,4 C26.1165643,4 27.9005343,5.78396995 27.9005343,7.98460841 C27.9005343,9.45889568 27.1036349,10.7538154 25.9082746,11.4312925 L25.9082746,13.961521 L27.9005343,13.961521 C35.6026457,13.961521 41.8464408,20.205316 41.8464408,27.9074275 L43.8387004,27.9074275 C44.938995,27.9074275 45.83096,28.7993925 45.83096,29.8996871 L45.83096,35.8763768 C45.83096,36.9766714 44.938995,37.8686364 43.8387004,37.8686364 L41.8464408,37.8686364 L41.8464408,39.8608961 C41.8464408,42.0615345 40.0624708,43.8455045 37.8618324,43.8455045 L9.96912764,43.8455045 C7.76848919,43.8455045 5.98451924,42.0615345 5.98451924,39.8608961 L5.98451924,37.8686364 L3.99225962,37.8686364 C2.89196501,37.8686364 2,36.9766714 2,35.8763768 L2,29.8996871 C2,28.7993925 2.89196501,27.9074275 3.99225962,27.9074275 L5.98451924,27.9074275 C5.98451924,20.205316 12.2283143,13.961521 19.9304257,13.961521 L21.9226854,13.961521 L21.9226854,11.4312925 C20.7273251,10.7539269 19.9304257,9.45894027 19.9304257,7.98460841 C19.9304257,5.78396995 21.7143957,4 23.9150341,4 L23.9159259,4 Z M14.9497767,25.9149004 C12.1990402,25.9149004 9.96912764,28.1448129 9.96912764,30.8955494 C9.96912764,33.6462859 12.1990402,35.8761985 14.9497767,35.8761985 C17.7005132,35.8761985 19.9304257,33.6462859 19.9304257,30.8955494 C19.9304257,28.1448129 17.7005132,25.9149004 14.9497767,25.9149004 Z M32.8800687,25.9149004 C30.1293322,25.9149004 27.8994196,28.1448129 27.8994196,30.8955494 C27.8994196,33.6462859 30.1293322,35.8761985 32.8800687,35.8761985 C35.6308052,35.8761985 37.8607177,33.6462859 37.8607177,30.8955494 C37.8607177,28.1448129 35.6308052,25.9149004 32.8800687,25.9149004 Z"/>
</svg>
