<svg xmlns="http://www.w3.org/2000/svg" width="48" height="48" viewBox="0 0 48 48">
  <defs>
    <linearGradient id="rollup-a" x1="51.564%" x2="48.517%" y1="78.345%" y2="41.663%">
      <stop offset="0%" stop-color="#FF6533"/>
      <stop offset="15.7%" stop-color="#FF5633"/>
      <stop offset="43.4%" stop-color="#FF4333"/>
      <stop offset="71.4%" stop-color="#FF3733"/>
      <stop offset="100%" stop-color="#F33"/>
    </linearGradient>
    <linearGradient id="rollup-b" x1="55.227%" x2="40.93%" y1="5.891%" y2="128.024%">
      <stop offset="0%" stop-color="#FFF"/>
      <stop offset="100%" stop-color="#FFF" stop-opacity="0"/>
    </linearGradient>
  </defs>
  <g fill="none" transform="translate(6)">
    <path fill="#FC0505" d="M37,15.5252115 C37,12.7623435 36.2783069,10.1721547 35.0071429,7.92732444 C31.6365079,4.44907096 24.3047619,3.64323446 22.484127,7.9108788 C20.6142857,12.2854198 25.6251323,17.1533301 27.8148148,16.7668575 C30.6031746,16.2734882 27.3227513,9.85968749 27.3227513,9.85968749 C31.5873016,17.9180525 30.6031746,15.4512061 22.8941799,22.8517454 C15.1851852,30.2522847 7.31216931,45.8674227 6.16402116,46.5252484 C6.11481481,46.5581397 6.06560847,46.5828082 6.00820106,46.6074766 L36.2455026,46.6074766 C36.7785714,46.6074766 37.1230159,46.040102 36.8851852,45.5631783 L28.9793651,29.8740349 C28.8071429,29.5368993 28.9301587,29.1175354 29.2582011,28.9284105 C33.8835979,26.2642163 37,21.2647409 37,15.5252115 Z"/>
    <path fill="#F33" d="M6.07761111,47 C7.23820706,46.3363214 15.1962601,30.5742752 22.9889393,23.10763 C30.7816186,15.6409848 31.7760959,18.1300405 27.4655024,10 C27.4655024,10 10.9683535,33.1461528 5,44.5943626"/>
    <path fill="url(#rollup-a)" d="M8.19796954,26.3142857 C19.4548223,6.29339019 20.928934,4.27590618 26.7918782,4.27590618 C29.8741117,4.27590618 32.9814721,5.62089552 34.9916244,8.01108742 C32.2527919,3.74115139 27.4032995,0.881023454 21.8502538,0.8 L2.7286802,0.8 C2.32664975,0.8 2,1.11599147 2,1.50490405 L2,38.7918977 C3.13908629,35.9479744 5.07385787,31.880597 8.19796954,26.3142857 Z"/>
    <path fill="#FB8840" d="M6.20379953,47.2150023 C5.04987401,47.8816815 3.94730526,48.1502027 2.08262638,46.7981929 C0.217947488,45.4461831 -1.25182942,43.0403752 8.19780651,26.3152594 C19.6452737,6.05413857 21.0395933,3.7 26.8092209,3.7 C29.842386,3.7 32.9002886,5.08377147 34.8785525,7.54291908 C34.9857017,7.71797857 35.0928508,7.90137529 35.2,8.08476453 C31.8124361,4.55855555 24.443607,3.74161127 22.6142128,8.0680923 C20.7349733,12.5029327 25.7709916,17.4375578 27.9716713,17.0457901 C30.7740513,16.5456233 27.477135,10.0434105 27.477135,10.0434105 C31.7548805,18.2046135 30.7658227,15.7036673 23.0180794,23.2062061 C15.2700398,30.7098214 7.35772506,46.548323 6.20379953,47.2150023 Z"/>
    <path fill="url(#rollup-b)" d="M9.55585873,26.9945507 C20.8194602,6.65503264 22.2939626,4.60547431 28.1603432,4.60547431 C30.6996049,4.60547431 33.25566,5.53557882 35.2,7.21472256 C33.1887125,4.95939479 30.2052174,3.7 27.238591,3.7 C21.3722103,3.7 19.8972561,5.74955833 8.63410649,26.0890764 C-0.75210256,43.0454548 0.982960474,45.0291847 2.09734688,46.2555173 C2.25657506,46.4283725 2.4409481,46.5765309 2.63369523,46.7 C1.65320388,45.3007382 1.21740484,42.0494035 9.5560244,26.9943584 L9.55585873,26.9945507 Z" opacity=".3"/>
  </g>
</svg>
