<svg xmlns="http://www.w3.org/2000/svg" width="48" height="48" viewBox="0 0 48 48">
  <path fill="#FF7043" d="M23,7.5 C23,6.67157288 23.6715729,6 24.5,6 C25.3284271,6 26,6.67157288 26,7.5 C26,8.32842712 25.3284271,9 24.5,9 C23.6715729,9 23,8.32842712 23,7.5 Z M7,19.5 C7,18.6715729 7.67157288,18 8.5,18 C9.32842712,18 10,18.6715729 10,19.5 C10,20.3284271 9.32842712,21 8.5,21 C7.67157288,21 7,20.3284271 7,19.5 Z M38,19.5 C38,18.6715728 38.6715729,18 39.5,18 C40.3284271,18 41,18.6715728 41,19.5 C41,20.3284271 40.3284271,21 39.5,21 C38.6715729,21 38,20.3284271 38,19.5 Z M10.788926,21.0879722 C11.3653792,20.8022156 11.6257787,20.0480186 11.3698118,19.4031382 L10.8139036,18 L13,18 L13,29 L8.58953171,29 C8.04511311,26.8653107 7.87551976,24.6332587 8.09008672,22.4267047 L10.788926,21.0879722 Z M21,21 L21,18 L26.862016,18 C27.1647825,18 29,18.3210245 29,19.579741 C29,20.6248592 27.5923714,20.9996003 26.4348629,20.9996003 L21,21 Z M13,37.5 C13,36.6715729 13.6715729,36 14.5,36 C15.3284271,36 16,36.6715729 16,37.5 C16,38.3284271 15.3284271,39 14.5,39 C13.6715729,39 13,38.3284271 13,37.5 Z M32,37.5 C32,36.6715729 32.6715729,36 33.5,36 C34.3284271,36 35,36.6715729 35,37.5 C35,38.3284271 34.3284271,39 33.5,39 C32.6715729,39 32,38.3284271 32,37.5 Z M32.7316213,34.3891688 C32.0857073,34.2461635 31.4503235,34.6708228 31.3119213,35.3396205 L30.6537465,38.5136268 C26.3707433,40.5184984 21.4547492,40.494141 17.1905463,38.4469201 L16.5328134,35.2729138 C16.3944296,34.6049723 15.7590642,34.1794378 15.1135552,34.3228807 L12.4019902,34.9245417 C11.8981723,34.3883792 11.4297872,33.8178376 11,33.2167726 L24.1936858,33.2167726 C24.343038,33.2167726 24.4426074,33.188883 24.4426074,33.0484802 L24.4426074,28.2254517 C24.4426074,28.0850641 24.343038,28.0571594 24.1936858,28.0571594 L20.3350648,28.0571594 L20.3350648,25 L24.5084875,25 C24.8894527,25 26.5454197,25.1124866 27.0749123,27.2998419 C27.2407189,27.9725775 27.60481,30.1608232 27.8537426,30.8614483 C28.101821,31.6471119 29.1118445,33.2166508 30.1881347,33.2166508 L37,33.2166508 C36.5431356,33.8485741 36.0434768,34.4462174 35.5047843,35.0050828 L32.7316213,34.3891688 Z M39.9212584,22.6913105 C40.0133161,23.6504725 40.0246789,24.6161123 39.9552185,25.5773143 L38.3089228,25.5773143 C38.1441322,25.5773143 38.0778698,25.6894014 38.0778698,25.85666 L38.0778698,26.6399503 C38.0778698,28.4837155 37.0744004,28.8847253 36.1950611,28.986826 C35.3576595,29.0845742 34.4292464,28.623631 34.3147775,28.0927528 C33.8207827,25.2141421 32.9976531,24.5994147 31.6977283,23.537082 C33.3109056,22.475735 34.9895146,20.9100265 34.9895146,18.8142132 C34.9895146,16.5512019 33.4920871,15.1258108 32.4714181,14.4268777 C31.0393857,13.4489402 29.4538742,13.2530039 29.0261528,13.2530039 L12,13.2530039 C14.3536776,10.5280086 17.5089332,8.68306173 20.9771,8.00389749 L22.9840386,10.1852434 C23.4377424,10.6774727 24.1892191,10.695709 24.6638918,10.2252117 L26.9094294,8 C31.542383,8.89914902 35.5594103,11.8632739 37.8941267,16.1054999 L36.3568472,19.7026827 C36.0914096,20.3252203 36.3622999,21.0533466 36.9615417,21.3292422 L39.9212584,22.6913105 Z M43.8704004,22.3156679 L43.817801,21.7770738 L45.4066534,20.295068 C45.7298183,19.9937865 45.6090496,19.3874229 45.1958481,19.233413 L43.1647256,18.4739025 L43.0056715,17.949593 L44.272626,16.1898626 C44.5309816,15.8321953 44.2936305,15.2611761 43.8585578,15.1896427 L41.7167944,14.8412329 L41.4592761,14.3602915 L42.3593124,12.3847122 C42.5436124,11.9824282 42.2010918,11.4678133 41.7584436,11.4846685 L39.584696,11.5604102 L39.2413382,11.1438416 L39.7408199,9.02644388 C39.8418105,8.59639853 39.4054599,8.15963314 38.9754401,8.26061723 L36.8585002,8.75966226 L36.4410905,8.41630166 L36.5172539,6.24253641 C36.5341089,5.80239265 36.0190575,5.45860607 35.6176214,5.64122203 L33.6424621,6.54170638 L33.1615247,6.2837673 L32.8122768,4.14154581 C32.7415848,3.70731421 32.17017,3.46998323 31.8125056,3.72751103 L30.051541,4.99447583 L29.5280804,4.835839 L28.768576,2.80429608 C28.614571,2.39026129 28.0077864,2.27117351 27.7073704,2.59264076 L26.2253766,4.18279139 L25.6867869,4.1301952 L24.5422609,2.28086431 C24.3108329,1.90637856 23.691027,1.90637856 23.4604179,2.28086431 L22.3158918,4.1301952 L21.7768615,4.18279139 L20.2944638,2.59264076 C19.9940257,2.27116249 19.3872668,2.39024293 19.2332581,2.80429608 L18.4737537,4.835839 L17.9498892,4.99447583 L16.1893285,3.72751103 C15.8316641,3.46914965 15.259805,3.70731421 15.1891167,4.14154581 L14.8398688,6.2837673 L14.3589314,6.54170638 L12.3837721,5.64122203 C11.982336,5.45776148 11.4673213,5.80238163 11.4841396,6.24253641 L11.5598807,8.41630166 L11.142471,8.75966226 L9.0255311,8.26061723 C8.59548925,8.16047039 8.15872742,8.5964022 8.25971069,9.02644388 L8.75834773,11.1438416 L8.41583083,11.5604102 L6.24208327,11.4846685 C5.80363226,11.4720436 5.45815931,11.982465 5.64077378,12.3847122 L6.5412508,14.3602915 L6.28331382,14.8412329 L4.14155042,15.1896427 C3.70647776,15.2603352 3.47083789,15.8321953 3.727519,16.1898626 L4.9944735,17.949593 L4.83541934,18.4739025 L2.80389295,19.233413 C2.39151398,19.3874193 2.27077471,19.9937682 2.59308027,20.295068 L4.18237337,21.7770738 L4.12977393,22.3156679 L2.28086202,23.4602032 C1.90637933,23.6916331 1.90637933,24.3114441 2.28086202,24.542055 L4.12977393,25.6865904 L4.18237337,26.2251845 L2.59308027,27.7075942 C2.27076369,28.0080348 2.391525,28.613954 2.80389295,28.7688085 L4.83541934,29.5283191 L4.9944735,30.0526285 L3.727519,31.8127629 C3.47000064,32.1712711 3.70690373,32.7426979 4.14199107,32.8125422 L6.28335054,33.1609556 L6.54128752,33.6427416 L5.64081051,35.6174763 C5.45735144,36.0189157 5.80365429,36.5352198 6.24211999,36.51752 L8.41502296,36.4413597 L8.75838078,36.8587728 L8.25974374,38.9765745 C8.15875679,39.4057753 8.59552597,39.8416961 9.02556415,39.740712 L11.142504,39.2420709 L11.5599138,39.5845906 L11.4841727,41.7587965 C11.4673397,42.1989402 11.9823691,42.5431308 12.3838051,42.3596702 L14.3589645,41.4596265 L14.8399019,41.7175619 L15.1891498,43.8585349 C15.2598417,44.2944557 15.8316972,44.5300975 16.1893616,44.2734143 L17.9490777,43.0056049 L18.4733828,43.1650789 L19.2328872,45.1957773 C19.3868922,45.6081596 19.9936768,45.7297444 20.2940929,45.4065917 L21.7764906,43.8172856 L22.3155209,43.871145 L23.460047,45.720072 C23.690634,46.0928685 24.3104363,46.0937499 24.54189,45.720072 L25.686416,43.871145 L26.2250057,43.8172856 L27.7069995,45.4065917 C28.0074376,45.7297518 28.6141965,45.6081486 28.7682052,45.1957773 L29.5277095,43.1650789 L30.0520147,43.0056049 L31.8121348,44.2734143 C32.1697991,44.5300938 32.7412176,44.2936478 32.8119059,43.8585349 L33.1611538,41.7175619 L33.6420912,41.4596265 L35.6172506,42.3596702 C36.0186866,42.5431344 36.5328567,42.1997702 36.516883,41.7587965 L36.4411382,39.5845906 L36.858144,39.2420709 L38.9750839,39.740712 C39.4051258,39.8416998 39.8414837,39.4057679 39.7405004,38.9765745 L39.2418633,36.8587728 L39.5843802,36.4413597 L41.7581278,36.51752 C42.1965788,36.5352198 42.5433003,36.0188789 42.3589966,35.6174763 L41.4589235,33.6427416 L41.7164456,33.1609556 L43.858209,32.8125422 C44.2941262,32.7426942 44.5306107,32.1712748 44.2722404,31.8127629 L43.0052859,30.0526285 L43.1643401,29.5283191 L45.1954625,28.7688085 C45.6086861,28.6139614 45.7294253,28.0080127 45.4062789,27.7075942 L43.8174264,26.2251845 L43.8700185,25.6865904 L45.7189304,24.542055 C46.0934131,24.3114661 46.0938538,23.6916588 45.7192683,23.4602032 L43.8704004,22.3156679 Z"/>
</svg>
