<svg xmlns="http://www.w3.org/2000/svg" width="48" height="48" viewBox="0 0 48 48">
  <path fill="#EC407A" d="M43.759823,6.62747518 C42.3704687,1.22309281 33.3321959,-0.552696305 24.7779562,2.45977663 C19.6866448,4.25333844 14.1770332,7.06734955 10.2136385,10.7418556 C5.50178521,15.1109781 4.75033873,18.9128552 5.06107604,20.502031 C6.15313843,26.1078373 13.9021502,29.773457 17.0872077,32.4911993 L17.0872077,32.507491 C16.1475261,32.965138 9.27395693,36.4145232 7.66499497,39.9409234 C5.96789118,43.6613423 7.93539619,46.3302097 9.23810262,46.6901069 C13.2746998,47.8038629 17.4158721,45.8014718 19.6433208,42.5090788 C21.7915913,39.3322084 21.6123198,35.2311575 20.6786139,33.1902589 C21.966381,32.8540586 23.4677801,32.7029907 25.3755279,32.9236684 C30.7596495,33.547194 31.8158575,36.8795756 31.6141771,38.2747327 C31.4124966,39.6698897 30.283086,40.437078 29.9051218,40.6681232 C29.5271577,40.8991683 29.4121251,40.9806265 29.4434977,41.1524293 C29.4898095,41.4027282 29.6645992,41.3938418 29.985794,41.3390426 C30.4294911,41.2649897 32.8123084,40.2045519 32.9153896,37.6304722 C33.0453614,34.3617762 29.8857008,30.7050428 24.2909352,30.8013116 C21.9872961,30.8413002 20.5381845,31.0575347 19.49094,31.444091 C19.4132557,31.3567085 19.3355714,31.2693261 19.2534053,31.1834247 C15.7949587,27.5252103 9.40094093,24.9378011 9.67134215,20.0192059 C9.76994149,18.2315683 10.3973918,13.5232834 21.9574175,7.81232196 C31.4274359,3.13365824 39.0091276,4.42217911 40.3193036,7.27469773 C42.1911972,11.3505707 36.2677671,18.9261848 26.4332299,20.0192059 C22.686455,20.4353833 20.7129743,18.9957945 20.2229654,18.4596513 C19.7060659,17.8953681 19.6298755,17.8701901 19.4356647,17.9753452 C19.1219395,18.1486291 19.3206321,18.6462647 19.4356647,18.9439575 C19.7299687,19.7022594 20.9340758,21.0455794 22.9882288,21.7135368 C24.7958833,22.301517 29.1940114,22.6243878 34.5153879,20.5849702 C40.4731784,18.2967349 45.1267684,11.9400319 43.759823,6.62747518 Z M18.693512,34 C19.1353867,35.6797124 19.0866179,37.2455203 18.6299648,38.6624929 C18.5797182,38.8204405 18.5235602,38.9753507 18.4629687,39.1302609 C18.4023771,39.2836523 18.3373521,39.4355251 18.2664157,39.5858791 C17.9146894,40.3361304 17.44178,41.0377824 16.8639438,41.686279 C15.0994007,43.6636619 12.6358384,44.4123945 11.5791816,43.7821227 C10.4382877,43.1017328 11.0102125,40.3133495 13.0540677,38.0929701 C15.2545741,35.7024933 18.4201112,34.1655413 18.4201112,34.1655413 L18.4156777,34.1564289 C18.5073039,34.1047922 18.5989301,34.0531555 18.693512,34 Z"/>
</svg>
