<svg xmlns="http://www.w3.org/2000/svg" width="48" height="48" viewBox="0 0 48 48">
  <path fill="#0277BD" d="M16.0212856,34.6642433 C14.6104876,34.6642433 13.6112515,33.3166694 13.6112515,31.910436 L13.6112515,31.8518446 C13.6112515,30.445665 14.6105593,29.3909765 16.0212856,29.3909765 L45.4121645,29.3909765 C45.6766914,28.5121231 45.8824365,27.3402231 46,26.1684665 L21.3102285,26.1684665 C19.8994304,26.1684665 18.7531055,25.0845378 18.7531055,23.678394 C18.7531055,22.2722143 19.8993767,21.1883215 21.3102285,21.1883215 L45.910421,21.1883215 C45.763463,20.0165111 45.5577304,18.844629 45.2344218,17.9658115 L26.6001925,17.9658115 C25.1893945,17.9658115 24.0430696,16.8818829 24.0430696,15.4757391 C24.0430696,14.0695594 25.1893407,12.9856666 26.6001925,12.9856666 L43.059443,12.9856666 C39.2385392,6.24770747 32.1551672,2 24.0436071,2 C11.8755503,2 2,11.7553221 2,23.9122078 C2,36.0698102 11.8755503,46 24.0436071,46 C32.39076,46 39.6504235,41.4299699 43.3837191,34.6920108 L16.0209094,34.6920108 L16.0212856,34.6642433 Z"/>
</svg>
