<svg xmlns="http://www.w3.org/2000/svg" width="48" height="48" viewBox="0 0 48 48">
  <path fill="#42A5F5" d="M23.7319269,31.6125 C19.5276592,31.6125 16.1194269,28.2042677 16.1194269,24 C16.1194269,19.7957323 19.5276592,16.3875 23.7319269,16.3875 C27.9361945,16.3875 31.3444269,19.7957323 31.3444269,24 C31.3444269,28.2042677 27.9361945,31.6125 23.7319269,31.6125 Z M39.8921769,26.10975 C39.9791769,25.41375 40.0444269,24.71775 40.0444269,24 C40.0444269,23.28225 39.9791769,22.5645 39.8921769,21.825 L44.4814269,18.27975 C44.8946769,17.9535 45.0034269,17.36625 44.7424269,16.88775 L40.3924269,9.36225 C40.1314269,8.88375 39.5441769,8.688 39.0656769,8.88375 L33.6499269,11.05875 C32.5189269,10.2105 31.3444269,9.471 29.9741769,8.92725 L29.1694269,3.1635 C29.0824269,2.6415 28.6256769,2.25 28.0819269,2.25 L19.3819269,2.25 C18.8381769,2.25 18.3814269,2.6415 18.2944269,3.1635 L17.4896769,8.92725 C16.1194269,9.471 14.9449269,10.2105 13.8139269,11.05875 L8.39817688,8.88375 C7.91967688,8.688 7.33242688,8.88375 7.07142688,9.36225 L2.72142688,16.88775 C2.43867688,17.36625 2.56917688,17.9535 2.98242688,18.27975 L7.57167688,21.825 C7.48467688,22.5645 7.41942688,23.28225 7.41942688,24 C7.41942688,24.71775 7.48467688,25.41375 7.57167688,26.10975 L2.98242688,29.72025 C2.56917688,30.0465 2.43867688,30.63375 2.72142688,31.11225 L7.07142688,38.63775 C7.33242688,39.11625 7.91967688,39.29025 8.39817688,39.11625 L13.8139269,36.9195 C14.9449269,37.7895 16.1194269,38.529 17.4896769,39.07275 L18.2944269,44.8365 C18.3814269,45.3585 18.8381769,45.75 19.3819269,45.75 L28.0819269,45.75 C28.6256769,45.75 29.0824269,45.3585 29.1694269,44.8365 L29.9741769,39.07275 C31.3444269,38.50725 32.5189269,37.7895 33.6499269,36.9195 L39.0656769,39.11625 C39.5441769,39.29025 40.1314269,39.11625 40.3924269,38.63775 L44.7424269,31.11225 C45.0034269,30.63375 44.8946769,30.0465 44.4814269,29.72025 L39.8921769,26.10975 Z"/>
</svg>
