<svg xmlns="http://www.w3.org/2000/svg" width="48" height="48" viewBox="0 0 48 48">
  <path fill="#F5A623" fill-rule="evenodd" d="M22.5014467,45.9006333 L9.79625094,21.5755855 L1.20464225,14.8629644 L22.5014467,45.9006333 Z M46.8868865,14.8629644 L38.2952763,21.5755855 L25.5900792,45.9006333 L46.8868865,14.8629644 Z M36.1501964,21.8360714 L11.8498036,21.8360714 L23.9990308,46 L36.1501964,21.8341177 L36.1501964,21.8360714 Z M10.1713818,19.7208507 L1,12.6505292 L6.57282777,6.05025687 L14.4892595,9.97516609 L10.1733151,19.7208507 L10.1713818,19.7208507 Z M16.0400612,10.6214841 L11.8498056,20.1086407 L36.1501964,20.1086407 L31.9599402,10.6214841 L16.0400612,10.6214841 Z M37.8247509,19.7208507 L47,12.6505292 L41.4310365,6.05025756 L33.5107374,9.97516644 L37.8228124,19.7208504 L37.8247509,19.7208504 L37.8247509,19.7208507 Z M31.9599402,8.89797109 L16.0400612,8.89797109 L8.33053082,5.01614824 L15.3265371,2 L32.6715286,2 L39.6714008,5.01614824 C39.6714008,5.01614824 31.9599402,8.89796969 31.9599402,8.89797109 Z"/>
</svg>
