<svg xmlns="http://www.w3.org/2000/svg" width="48" height="48" viewBox="0 0 48 48">
  <path fill="#F57F17" d="M12.5834454,2 C6.72049366,2 2,6.72049366 2,12.5834454 L2,35.4165546 C2,41.2795063 6.72049366,46 12.5834454,46 L35.4165546,46 C41.2795063,46 46,41.2795063 46,35.4165546 L46,12.5834454 C46,6.72049366 41.2795063,2 35.4165546,2 L12.5834454,2 Z M23.90598,8.17184194 C28.0486638,8.17238926 32.0214499,9.81862032 34.9503397,12.7483702 C37.8792294,15.6781201 39.5242939,19.6513894 39.5236251,23.7940732 L27.4218706,23.7940732 L19.4136569,12.9776416 L21.0170883,23.7940732 L8.2881514,23.7940732 C8.28748254,19.6513894 9.93254704,15.6781201 12.8614368,12.7483702 C15.7903266,9.81862032 19.7631127,8.17238926 23.9057965,8.17184194 L23.90598,8.17184194 Z"/>
</svg>
