<svg xmlns="http://www.w3.org/2000/svg" width="48" height="48" viewBox="0 0 48 48">
  <path fill="#FFCE00" d="M17.7997553,43.8000496 C17.7997553,45.0833444 18.7163878,46 19.9997057,46 L28.799461,46 C30.0827558,46 30.9994114,45.0833675 30.9994114,43.8000496 L30.9994114,41.6000993 L17.799663,41.6000993 L17.7997553,43.8000496 Z M24.3996295,2 C15.9664441,2 9,8.9664441 9,17.3996295 C9,22.7160473 11.5666819,27.2993254 15.5998742,30.0492922 L15.5998742,34.9991401 C15.5998742,36.2824349 16.5165067,37.1990905 17.7998246,37.1990905 L30.999573,37.1990905 C32.2828677,37.1990905 33.1995233,36.2824349 33.1995233,34.9991401 L33.1995233,30.0492922 C37.2327157,27.2993254 39.7993975,22.7160473 39.7993975,17.3996295 C39.7993975,8.9664441 32.8329534,2 24.399768,2 L24.3996295,2 Z M30.632703,26.3833623 L28.7994148,27.666657 L28.7994148,32.7997899 L19.9996595,32.7997899 L19.9996595,27.666657 L18.1663714,26.3833623 C15.2331196,24.366743 13.3998084,21.0669444 13.3998084,17.400322 C13.3998084,11.3505335 18.3496563,6.40068559 24.3994448,6.40068559 C30.4492333,6.40068559 35.3990813,11.3505335 35.3990813,17.400322 C35.3990813,21.0669444 33.5657931,24.3667661 30.6325183,26.3833623 L30.632703,26.3833623 Z"/>
</svg>
