<svg xmlns="http://www.w3.org/2000/svg" width="48" height="48" viewBox="0 0 48 48">
  <g fill="none" transform="translate(4)">
    <path fill="#607D8B" d="M31.164242,15 C30.2707063,18.1397603 28.3284251,27.3966397 28.3284251,27.3966397 C28.3284251,27.3966397 24.756495,26.1017383 20.6931391,26.095484 L20.6634733,26.095484 C20.440281,26.0965877 20.2198032,26.1018434 20,26.1088177 L20,47.9983182 L23.6031232,47.9983182 L23.6031232,48 L26.7412646,48 L26.7412646,47.9983182 L37.9977527,47.9983182 C38.0576834,43.7010406 36.8990336,33.7732175 36.8990336,33.7732175 C36.3115461,32.5757568 37.1466137,29.7431401 37.1466137,29.7431401 C32.3607983,24.9647025 31.1643445,15.0003521 31.1643445,15.0003521 L31.164242,15 Z M29.3523996,38.1030436 C32.307646,38.1030436 30.098119,40.5417449 29.8378728,40.8191938 L24.2511835,40.8191938 C24.7603698,40.1987574 26.6819762,38.1030436 29.3523295,38.1030436 L29.3523996,38.1030436 Z"/>
    <path fill="#90A4AE" d="M9.70953524,15.0001051 C9.70953524,15.0001051 8.53533598,24.9650525 3.83800936,29.7433502 C3.83800936,29.7433502 4.65802114,32.5767462 4.08152913,33.7737907 C4.08152913,33.7737907 2.943024,43.7040518 3.00223178,47.9983182 L13.208953,47.9983182 L13.208953,48 L16.958002,48 L16.958002,47.9983182 L20,47.9983182 L20,26.0955099 L19.9865644,26.0955099 C15.9977716,26.1021528 12.4923854,27.3977169 12.4923854,27.3977169 C12.4923854,27.3977169 10.585662,18.1401593 9.70956702,15 L9.70953524,15.0001051 Z M11.4382116,38.1032689 C14.0594531,38.1032689 15.9447282,40.1988983 16.4440224,40.8193097 L10.9617426,40.8193097 C10.707827,40.541851 8.53962563,38.1032689 11.4381428,38.1032689 L11.4382116,38.1032689 Z"/>
    <g transform="translate(9 42)">
      <g transform="translate(15.022)">
        <path fill="#455A64" d="M6.30608571,0.047268 L0.152057143,0.047268 L0.152057143,0.1078416 C0.152057143,2.1120016 2.01034286,3.7356016 4.19014286,3.7356016 C6.37071429,3.7356016 8.229,2.1116816 8.229,0.1078416 L8.229,0.047268 L6.30608571,0.047268 Z"/>
        <path fill="#FFF" d="M1.69045714,0.047268 L1.69045714,0.1078416 C1.69045714,1.3000816 2.71954286,2.2660816 3.99865714,2.2660816 C5.27777143,2.2660816 6.30651429,1.3000816 6.30651429,0.1078416 L6.30651429,0.047268 L1.69045714,0.047268 Z"/>
        <path fill="#37474F" d="M4.71068571,0.047268 L3.62905714,0.047268 C3.61854086,0.047268 3.609528,0.05216992 3.60013886,0.05392056 C3.73421314,0.08018056 3.80857886,0.36379256 3.77965886,0.55251256 C3.73646829,0.84102456 3.47281886,1.04130456 3.17086457,1.04620056 C3.25874743,1.42329656 3.58849029,1.72651256 4.02640457,1.78393656 C4.58599886,1.85781496 5.10314743,1.49997656 5.18243314,0.97865656 C5.23951886,0.59490456 5.041596,0.04729656 4.71072171,0.04729656 L4.71068571,0.047268 Z"/>
      </g>
      <path fill="#455A64" d="M6.47322857,0.047268 L0.319628571,0.047268 L0.319628571,0.1078416 C0.319628571,2.1120016 2.17834286,3.7356016 4.35771429,3.7356016 C6.53828571,3.7356016 8.39691429,2.1116816 8.39691429,0.1078416 L8.39691429,0.047268 L6.47322857,0.047268 Z"/>
      <path fill="#FFF" d="M1.85828571,0.047268 L1.85828571,0.1078416 C1.85828571,1.3000816 2.88805714,2.2660816 4.16537143,2.2660816 C5.44491429,2.2660816 6.47357143,1.3000816 6.47357143,0.1078416 L6.47357143,0.047268 L1.85828571,0.047268 Z"/>
      <path fill="#37474F" d="M4.8786,0.047268 L3.79585714,0.047268 C3.786468,0.047268 3.776328,0.05216992 3.76768971,0.05392056 C3.90138686,0.08018056 3.97537543,0.36379256 3.94720971,0.55251256 C3.90364371,0.84102456 3.64150114,1.04130456 3.33766971,1.04620056 C3.42667543,1.42329656 3.75642686,1.72651256 4.19358686,1.78393656 C4.752804,1.85781496 5.27110114,1.49997656 5.34918686,0.97865656 C5.40702429,0.59490456 5.20947257,0.04729656 4.87860686,0.04729656 L4.8786,0.047268 Z"/>
    </g>
    <path fill="#607D8B" d="M9.86599668,0 L7.64365666,4.19632149 C6.86448385,5.69100107 0,18.9354244 0,23.720536 L0,24.0017062 L3.14260371,32.6223207 C2.71952673,36.5786234 1.97733476,44.4204716 2.20092256,47.9997656 L5.23173237,47.9997656 C5.04416823,45.935866 5.57425322,38.7288164 6.23782458,32.5999706 L6.27806827,32.2312259 L5.70931548,30.654832 C7.66285305,28.546014 9.03309512,25.6433844 9.97874247,22.8807974 L10.0708534,23.5537548 L13.1741125,28.8028772 L14.3859182,28.2672696 C14.4163151,28.2539085 17.5246614,26.8918635 20.5430438,26.8918635 C23.5423356,26.8918635 26.701756,28.2548407 26.7313703,28.2681963 L27.9422769,28.8001134 L31.0410409,23.5528445 L31.1626657,22.6761737 C32.0983182,25.4659624 33.4674498,28.4196158 35.4302947,30.5755871 L34.8346775,32.2294433 L34.8749212,32.5991147 C35.5405021,38.751401 36.0728187,45.9895772 35.8881526,48 L38.8903529,48 C39.1049929,44.4201064 38.3352967,36.5785308 37.9128702,32.6231002 L41,24.0008504 L41,23.7206014 C41,18.9353808 34.1908314,5.691121 33.4129278,4.19638691 L31.2352736,6.54150585e-05 L28.1168372,22.4750442 L26.6770016,24.9161706 C25.2872987,24.4356207 22.9224929,23.7656833 20.541029,23.7656833 C18.162315,23.7656833 15.8131624,24.4339526 14.4293824,24.9152439 L12.9895468,22.4750442 L11.894929,14.5968906 C11.8964626,14.5839166 11.8985251,14.5661946 11.8985251,14.5581703 L11.8895826,14.5563169 L9.86599668,0 Z M8.19183809,10.0254028 L8.82949696,14.6080003 C8.58632143,16.3213842 7.47501392,23.0405464 4.49391379,27.2761715 L3.12028724,23.4660714 C3.29228802,20.9839515 5.79979768,15.0373411 8.19189098,10.0254574 L8.19183809,10.0254028 Z M32.9213466,10.0254028 C35.3130697,15.0369595 37.8218221,20.9840605 37.9938494,23.4660169 L36.6523755,27.1857352 C33.4313997,22.5230043 32.4212884,14.9427618 32.3337676,14.2499073 L32.9213466,10.0254028 Z"/>
  </g>
</svg>
