<svg xmlns="http://www.w3.org/2000/svg" width="48" height="48" viewBox="0 0 48 48">
  <path fill="#1E88E5" d="M48,8 C48,8 40.4304898,12.4307322 40.2456776,12.492192 C40.0610645,12.6152674 39.876763,12.7385289 39.7536962,12.8616087 C39.1383192,13.4769858 38.9536801,14.3381155 39.1382759,15.1381316 C39.2613513,15.5073622 39.4459947,15.9386672 39.7536962,16.2463557 C40.0613848,16.5540486 40.4303167,16.7386833 40.861098,16.861776 C41.6611141,17.0463892 42.5230662,16.8617483 43.1384432,16.2463557 C43.3230607,16.0617426 43.4454739,15.8772723 43.5070116,15.6926548 L43.5687224,15.5075223 L44.6769898,13.4770117 L48,8 Z M31.0760486,12.0001674 C19.1991586,12.0001674 17.2302809,17.661394 17.2302809,24.6769003 C17.2302809,26.3384357 17.4765616,28.1231072 16.3688915,29.8460158 C14.7073561,32.4306168 12.492293,32.3685078 11.9385921,32.3685078 C11.2001223,32.3685078 8.49264502,31.9385315 8.3695523,31.1385327 L8.79983149,31.1385327 C11.692121,31.1385327 13.8455945,28.7999873 13.8455945,25.6616854 L13.8455945,24.5534614 L11.384822,24.5534614 C9.6001939,24.5534614 7.99968549,25.3537372 6.953657,26.7690872 C5.90749867,25.3536939 4.30781261,24.5534614 2.52335761,24.5534614 L0,24.5534614 L0,25.6616854 C0,28.7386141 2.46176796,31.1995597 5.53873987,31.1995597 L6.33845306,31.1995597 C6.33845306,32.9841878 8.8000479,39.9995643 26.9538878,39.9995643 C34.030854,39.9995643 44.5538971,38.768637 44.5538971,25.4149806 C44.5538971,22.891926 43.7541406,20.5540298 42.5233865,18.5847193 C42.0926225,18.7077947 41.6614777,18.8307143 41.1691501,18.8307143 C39.0153303,18.8307143 37.2924217,17.1078057 37.2924217,14.9539859 C37.2924217,14.5232177 37.3536305,14.092207 37.4767059,13.661469 C35.6305747,12.4922613 33.7843136,12.0003665 31.0766632,12.0003665 L31.0760486,12.0001674 Z"/>
</svg>
