<svg xmlns="http://www.w3.org/2000/svg" width="48" height="48" viewBox="0 0 48 48">
  <path fill="#455A64" d="M33.6376812,30.6956522 C33.6376812,32.9275362 30.3913043,34.7536232 28.1594203,34.7536232 L19.4347826,34.7536232 C17.2028986,34.7536232 13.9565217,32.9275362 13.9565217,30.6956522 L13.9565217,30.4927536 L33.6376812,30.4927536 L33.6376812,30.6956522 Z M33.6376812,26.0289855 L19.4347826,26.0289855 C17.2028986,26.0289855 13.9565217,24.2028986 13.9565217,21.9710145 L28.1594203,21.9710145 C30.3913043,21.9710145 33.6376812,23.7971014 33.6376812,26.0289855 Z M33.6376812,17.5072464 L14.1594203,17.5072464 L14.1594203,17.3043478 C14.1594203,15.0724638 17.4057971,13.2463768 19.6376812,13.2463768 L28.5652174,13.2463768 C30.7971014,13.2463768 34.0434783,15.0724638 34.0434783,17.3043478 L34.0434783,17.5072464 L33.6376812,17.5072464 Z M30.3913043,5.02898551 C37.0869565,5.02898551 42.7681159,10.5072464 42.7681159,17.4057971 L42.7681159,30.5942029 C42.7681159,37.2898551 37.2898551,42.9710145 30.3913043,42.9710145 L17.4057971,42.9710145 C10.7101449,42.9710145 5.02898551,37.4927536 5.02898551,30.5942029 L5.02898551,17.4057971 C5.02898551,10.7101449 10.5072464,5.02898551 17.4057971,5.02898551 L30.3913043,5.02898551 Z M30.3913043,3 L17.4057971,3 C9.49275362,3 3,9.49275362 3,17.4057971 L3,30.5942029 C3,38.5072464 9.49275362,45 17.4057971,45 L30.5942029,45 C38.5072464,45 45,38.5072464 45,30.5942029 L45,17.4057971 C44.7971014,9.49275362 38.3043478,3 30.3913043,3 Z"/>
</svg>
