<svg xmlns="http://www.w3.org/2000/svg" width="48" height="48" viewBox="0 0 48 48">
  <g fill="none" transform="translate(6 2)">
    <path fill="#EC407A" d="M36.9985054,0 L33.8970556,0.237176431 L33.8970556,6.531739 L31.1382002,5.30553513 L28.3793447,6.531739 L28.3793447,0.65899566 L7,2.29394564 L8.8368567,42.601882 L37,44 L36.9985054,0 Z M22.515386,8.28842921 L22.515386,8.2887737 C27.7735357,8.2887737 30.7942774,11.2666555 30.64515,17.3004446 L24.6415298,17.4555291 C24.7534035,14.2065392 23.4104157,13.8970214 22.6646794,13.8970214 C21.956142,13.8970214 20.7630569,14.1292201 20.7630569,15.8697023 C20.7630569,20.1629919 30.9809356,19.9308105 30.9809356,28.594726 C30.9809356,33.4681246 27.3261537,35.7110523 22.6646794,35.7110523 C17.8540778,35.7110523 13.6401515,34.0091866 14.1248983,26.5441919 L20.4272714,26.5441919 C20.3526878,29.5611726 20.9868808,30.6447433 22.5902818,30.6447433 C23.8208978,30.6447433 24.3799758,29.9097203 24.3799758,28.6720624 C24.3799758,24.2626821 14.3115565,24.1074926 14.3115565,16.0236862 C14.3115565,11.3822967 17.2572363,8.28832415 22.51522,8.28832415 L22.515386,8.28842921 Z"/>
    <polygon fill="#BA68C8" points="3.849 2 0 2 1.613 41 6 41"/>
  </g>
</svg>
