<svg xmlns="http://www.w3.org/2000/svg" width="48" height="48" viewBox="0 0 48 48">
  <path fill="#C0CA33" d="M32.0154987,39.087675 C36.0571386,34.3623726 36.5328368,29.4821688 33.4023673,20.4190875 C31.4211106,14.686926 28.1321395,10.2714264 30.5492826,6.70815439 C33.1248997,2.91253029 38.593082,6.59195945 34.0362634,11.6658089 L34.9476271,12.2855224 C40.4158094,12.905236 43.1104201,5.58482237 39.0290236,3.49338357 C28.2511331,-2.00642582 18.8202718,8.56734903 22.9809053,20.8064489 C24.7640418,25.9964555 27.2605323,31.4965347 25.2395191,35.873174 C23.4960287,39.6302077 20.1277653,41.8379575 17.8693724,41.9154082 C13.1540798,42.1477981 16.2843836,31.5739855 21.7130578,28.9403917 C22.1885627,28.7080019 22.8621878,28.3981559 22.2281812,27.6235139 C15.5316872,26.8875973 11.6087647,29.9086874 9.35009567,34.1304523 C2.77231909,46.4084125 21.8319962,50.9399531 32.0157471,39.0881068 L32.0154987,39.087675 Z"/>
</svg>
