<svg xmlns="http://www.w3.org/2000/svg" width="48" height="48" viewBox="0 0 48 48">
  <g fill="#546E7A" fill-rule="evenodd" transform="translate(1 2)">
    <path d="M32.5230408,13.0278369 L33.3978126,13.5340153 C33.873062,13.8090952 34.2620853,13.5841519 34.2620853,13.0354469 L34.2620853,6.90423074 C35.2274393,3.51665155 35.9839292,0.899027595 36.2055262,0.111949815 L40.146802,0.111949815 L46.6939639,6.18922435 L42.3940451,9.91253982 L45.6453994,13.4347493 L24.2161713,43.9968239 L23.998707,43.9968239 C27.2563904,31.921807 30.097835,21.5988114 32.5230408,13.0278369 Z M26.0997824,5.50796454 L26.0997824,8.6501205 C26.0997824,8.78284825 25.9417383,8.89073151 25.7482877,8.89073151 L20.4545334,8.89073151 C20.259966,8.89073151 20.1023685,8.7832959 20.1023685,8.6501205 L20.1023685,5.50796454 C20.1023685,5.37534871 20.2598543,5.26768927 20.4545334,5.26768927 L25.7482877,5.26768927 C25.9417383,5.26768927 26.0997824,5.37490106 26.0997824,5.50796454 Z"/>
    <path d="M32.7028905,1.64236125 L26.8272658,5.04476771 C26.8954429,5.14876153 26.9369126,5.26858049 26.9369126,5.39925099 L26.9369126,8.57309712 C26.9369126,8.73779168 26.8732431,8.88620894 26.7683293,9.00602791 L32.7028905,12.4425715 C33.1074454,12.6768967 33.4393157,12.4851863 33.4393157,12.0171011 L33.4393157,2.06828376 C33.4393157,1.59974639 33.1075581,1.40860123 32.7028905,1.64236125 Z M19.274019,5.39925099 C19.274019,5.26925871 19.3154886,5.14943975 19.3828769,5.04544593 L13.5072522,1.64247429 C13.1029227,1.40871427 12.7713905,1.59997247 12.7713905,2.0683968 L12.7713905,12.0171011 C12.7713905,12.4850733 13.1024719,12.6772358 13.5072522,12.4421193 L19.4414754,9.00523665 C19.337125,8.88541768 19.2739063,8.73733953 19.2739063,8.57264497 L19.274019,5.39925099 Z"/>
    <path d="M21.7891976 44L22 44C17.1224194 25.9216047 17.262846 25.8396954 13.7368045 12.949638L12.8887227 13.4571391C12.4282487 13.7329379 12.0510347 13.5074068 12.0510347 12.9572679L12.0510347 6.81003007C11.1150373 3.41359868 10.3820468.78913452 10.1665887 0L6.3464849 0 0 6.09315527 4.16776003 9.82620027 1.01600925 13.3576137 21.7891976 44zM23 15.9984596C23.8284271 15.9984596 24.5 15.3268868 24.5 14.4984596 24.5 13.6700325 23.8284271 12.9984596 23 12.9984596 22.1715729 12.9984596 21.5 13.6700325 21.5 14.4984596 21.5 15.3268868 22.1715729 15.9984596 23 15.9984596zM23 24.9984596C23.8284271 24.9984596 24.5 24.3268868 24.5 23.4984596 24.5 22.6700325 23.8284271 21.9984596 23 21.9984596 22.1715729 21.9984596 21.5 22.6700325 21.5 23.4984596 21.5 24.3268868 22.1715729 24.9984596 23 24.9984596zM23 33.9984596C23.8284271 33.9984596 24.5 33.3268868 24.5 32.4984596 24.5 31.6700325 23.8284271 30.9984596 23 30.9984596 22.1715729 30.9984596 21.5 31.6700325 21.5 32.4984596 21.5 33.3268868 22.1715729 33.9984596 23 33.9984596z"/>
  </g>
</svg>
