<svg xmlns="http://www.w3.org/2000/svg" width="48" height="48" viewBox="0 0 48 48">
  <path fill="#FFB74D" fill-rule="evenodd" d="M21.579098,29.2385538 L7.82906145,24.7913462 C7.4507936,24.6687731 7.13872262,24.2444811 7.13241815,23.8453326 L7.0000244,13.310322 C6.99687218,12.9111733 7.29948646,12.4900243 7.68090656,12.3674511 L40.0827004,2.03358639 C40.4672727,1.91101318 40.7761916,2.13415928 40.7761916,2.53645084 L40.7761916,13.0683185 C40.7761916,13.4674671 40.4672727,13.8949019 40.0858526,14.020618 L26.7172362,18.4646828 L40.306509,22.6950302 C40.6910813,22.8144604 41,23.2356093 41,23.6347581 L41,34.0189093 C41,34.4180578 40.6942335,34.8454927 40.3159657,34.9743517 L7.82906145,45.9619403 C7.4507936,46.0939422 7.14187485,45.870796 7.13872262,45.4747904 L7.07252575,34.6349181 C7.06937352,34.2357696 7.37829228,33.8146205 7.75656013,33.6920474 L21.579098,29.2385538 Z"/>
</svg>
