<svg xmlns="http://www.w3.org/2000/svg" width="24" height="24" viewBox="0 0 24 24">
  <path fill="#FFB74D" fill-rule="evenodd" d="M10.860752,15.0002189 L4.39014656,12.877688 C4.21213816,12.8191872 4.06528123,12.6166842 4.06231442,12.4261815 L4.00001148,7.39810824 C3.99852808,7.20760546 4.1409348,7.00660254 4.32042661,6.94810168 L19.5683296,2.01602987 C19.7493048,1.95752902 19.8946784,2.06403057 19.8946784,2.25603336 L19.8946784,7.28260655 C19.8946784,7.47310933 19.7493048,7.6771123 19.569813,7.73711317 L13.2786994,9.85814406 L19.6736513,11.8771735 C19.8546265,11.9341743 20,12.1351772 20,12.32568 L20,17.2817522 C20,17.4722549 19.8561099,17.6762579 19.6781015,17.7377588 L4.39014656,22.9818352 C4.21213816,23.0448361 4.06676463,22.9383345 4.06528123,22.7493318 L4.03412976,17.5757564 C4.03264636,17.3852537 4.17801989,17.1842507 4.35602829,17.1257499 L10.860752,15.0002189 Z"/>
</svg>
