<svg xmlns="http://www.w3.org/2000/svg" width="48" height="48" viewBox="0 0 48 48">
  <path fill="#D92F3C" d="M11.3334178,5 C10.3411956,5 9.47530222,5.44498049 8.88410667,6.16275907 L5.97309555,9.70879634 C5.36087333,10.4265749 5,11.3333615 5,12.3888549 L5,38.7777731 C5,41.1096447 6.89035328,43 9.22222222,43 L38.7777778,43 C41.1096467,43 43,41.1096447 43,38.7777731 L43,12.3888549 C43,11.3332981 42.6391267,10.4265116 42.0269045,9.70879634 L39.0952045,6.16275907 C38.5252045,5.44498049 37.6588255,5 36.6665822,5 L11.3332489,5 L11.3334178,5 Z M11.1849813,7.11111346 L36.5183147,7.11111346 L38.501598,9.22222691 L9.47382022,9.22222691 L11.1849813,7.11111346 Z M21.1276791,23.1363636 L21.1273526,23.1364662 L21.1273526,23.1384034 L22.2707597,23.1384034 L22.2707597,25.9138909 L22.2727273,25.9138909 L22.2727273,25.9177092 L21.1119098,25.9177092 C21.0195923,25.9408399 20.9157018,25.9573791 20.8333039,25.9881866 C20.4356627,26.1474691 20.082374,26.3747372 19.7730907,26.6720405 C19.4638074,26.969364 19.1857525,27.329287 18.9353746,27.7540204 C18.7136124,28.1302013 18.4668267,28.5691428 18.2098561,29.037907 L20.5238165,29.037907 L20.5238165,29.0398422 L20.9107625,29.0398422 L20.9107625,31.8115115 L19.5951707,31.8115115 L19.5951707,31.8095741 L16.6370488,31.8095741 L16.5944925,31.885779 L16.5906144,31.8914059 L16.5828583,31.8894686 C16.4458413,32.1328539 16.3120696,32.3601018 16.1707664,32.6228396 C15.7731252,33.3448763 15.3747085,33.9812831 14.9770674,34.5334265 C14.5646896,35.0749591 14.1080411,35.5332933 13.6073056,35.9049325 C13.0918335,36.2659609 12.5082918,36.5405153 11.8602726,36.7316503 C11.4484868,36.8463595 10.9760609,36.9108282 10.4750396,36.9526081 L10.4750396,36.9545455 L10.4654466,36.9545455 L9.31818182,36.9545455 L9.31818182,34.1752397 L10.4731822,34.1752397 C10.4737802,34.1750849 10.4745109,34.1753944 10.4751131,34.1752397 C10.568839,34.1511443 10.6734438,34.1343037 10.7575767,34.1028532 C11.1552178,33.9435705 11.5085065,33.7163226 11.8177898,33.4189992 C12.1270731,33.1216758 12.405128,32.7617527 12.6555059,32.3370193 C12.8935967,31.9331056 13.1551597,31.4673558 13.4332555,30.9578767 L13.4391746,30.959814 L15.0062668,28.2034179 C15.0062668,28.2032049 15.0100265,28.2036269 15.0101449,28.2034179 L15.0101449,28.2014806 C15.1474681,27.9574926 15.2786884,27.7313901 15.4202978,27.4680895 C15.817939,26.7460528 16.2182947,26.1096461 16.6159359,25.5575027 C17.0283136,25.01595 17.4830231,24.5576158 17.9837586,24.1859766 C18.4992307,23.8249482 19.0827725,23.5503938 19.7307916,23.3592588 C20.1409649,23.2450118 20.6133092,23.1800809 21.112167,23.1383009 C21.1174738,23.1378227 21.1223724,23.1368057 21.1276791,23.1363636 Z"/>
</svg>
