<svg xmlns="http://www.w3.org/2000/svg" width="48" height="48" viewBox="0 0 48 48">
  <path fill="#FE5E2F" d="M35.1878854,41.2342711 C29.9974673,44.270159 22.8936323,44.5826768 15.7018241,41.4574982 C9.89559368,38.9573553 5.0790616,34.5821052 2,29.5818194 C3.47355091,30.8095681 5.21102139,31.8140898 7.05845835,32.706998 C14.4701995,36.2116626 21.8599473,35.9661129 27.0723588,32.706998 C19.6606176,26.9254175 13.3485413,19.4026661 8.66396904,13.2639224 C7.67427067,12.2594007 6.94849186,11.0093292 6.20071976,9.89319399 C24.4111698,23.3984302 23.6194111,26.8361267 11.5011044,7.63860084 C22.2558267,18.6660169 32.2407836,24.9163741 32.2407836,24.9163741 C32.5926764,25.1172785 32.790616,25.2735374 33.0325423,25.4074736 C33.2524753,24.849406 33.450415,24.2690157 33.604368,23.6663027 C35.3418385,17.3043319 33.3624418,10.0048075 29.0297622,4 C39.0367124,10.1387437 44.9749027,21.6572593 42.4896601,31.3229903 C42.4236802,31.5685401 42.3577003,31.8140898 42.3796936,32.1935758 C47.3061922,38.5109012 45.9865943,45.096099 45.3487887,43.8460276 C42.6875998,38.5109012 37.6951213,40.1627813 35.1878854,41.2342711 Z"/>
</svg>
