<svg xmlns="http://www.w3.org/2000/svg" width="48" height="48" viewBox="0 0 48 48">
  <path fill="#7CB342" d="M24,2 C29.8347628,2 35.4305489,4.31785049 39.5563492,8.44365081 C43.6821495,12.5694511 46,18.1652372 46,24 C46,36.1502645 36.1502645,46 24,46 C18.1652372,46 12.5694511,43.6821495 8.44365081,39.5563492 C4.31785049,35.4305489 2,29.8347628 2,24 C2,18.1652372 4.31785049,12.5694511 8.44365081,8.44365081 C12.5694511,4.31785049 18.1652372,2 24,2 Z M21.8,33.9 L37.2,18.5 L34.098,15.398 L21.8,27.674 L15.002,20.898 L11.9,24 L21.8,33.9 Z"/>
</svg>
