<svg xmlns="http://www.w3.org/2000/svg" width="48" height="48" viewBox="0 0 48 48">
  <path fill="#9BB92F" d="M5.40744954,46.5485326 C5.27757685,46.3182962 5.10019177,44.3052487 5.21720343,44.3894715 C5.25328159,44.4154522 5.39483683,44.665244 5.53177637,44.9445862 C5.66871591,45.2239284 5.82358641,45.4485154 5.87594108,45.4436628 C6.00272009,45.4319295 5.9529728,44.2061887 5.77287687,42.9046682 C5.42963303,40.4238224 4.55588944,38.3163917 3.33207313,37.0173543 C3.12514802,36.797713 2.97703396,36.6027592 3.00294228,36.5841143 C3.09898723,36.5149564 4.37533825,37.4562438 4.90861093,37.9895164 C5.211999,38.2928942 5.66877799,38.8432287 5.92369144,39.212505 C6.26224819,39.7029007 6.40431973,39.8516769 6.45079744,39.7644743 C6.5320403,39.6120456 6.23354625,29.5177546 6.06219334,26.623038 C5.98531681,25.3241041 6.12703656,25.56477 6.6926843,27.6935151 C7.79430521,31.8393635 8.61604592,35.8902286 9.11682974,39.6440379 C9.20482904,40.303655 9.29537365,40.8577143 9.31802274,40.8752004 C9.34067182,40.8927175 9.41381316,40.8772697 9.48059123,40.8409422 C10.399395,40.3405102 11.0574394,40.1506159 12.1189149,40.0795853 C12.8710011,40.0292482 13.0963331,40.1434869 12.4804932,40.2628991 C11.2920629,40.4933113 10.4213819,41.3112341 10.0561408,42.5406377 C9.72991742,43.6384303 9.71778066,45.3415091 10.0308533,46.093823 C10.188176,46.471894 10.0691467,46.5344403 8.92716304,46.673801 C8.18578572,46.7642628 7.91621089,46.7724988 7.68306706,46.711815 C7.31478402,46.6159315 6.52660824,46.6102097 6.44714503,46.7028133 C6.41478032,46.740517 6.19592538,46.77134 5.96076392,46.77134 C5.56761759,46.77134 5.52309543,46.7533987 5.40756336,46.5486154 L5.40744954,46.5485326 Z M7.44907479,43.2040417 C7.60673891,42.9919328 7.52370606,42.7786548 7.23879732,42.6638884 C7.00575695,42.5700225 6.96641852,42.5722367 6.78668473,42.6893415 C6.56960943,42.8307922 6.52585293,43.1341079 6.70403471,43.2623975 C6.8903387,43.3965434 7.3316803,43.3619748 7.44907479,43.2040417 Z M8.74097286,43.2921859 C8.79855265,43.2644979 8.89798514,43.1703836 8.96189716,43.0830465 C9.21175103,42.741603 8.59771144,42.4396014 8.19163164,42.7042098 C7.7711181,42.978213 8.27414716,43.5166281 8.74098321,43.2921962 L8.74097286,43.2921859 Z M11.1080041,46.4936843 C11.0740357,46.4541286 11.2294131,46.093585 11.4532759,45.692513 C11.6771387,45.2914514 11.8789732,45.0036145 11.9017775,45.0528755 C11.9746291,45.2102292 11.6935797,46.3762278 11.5595476,46.4726597 C11.4055152,46.5835564 11.1936444,46.5934065 11.1080041,46.4936119 L11.1080041,46.4936843 Z M3.82853199,46.0687838 C3.52776165,45.7136101 3.59923715,45.6199511 3.97234179,45.8803276 C4.15556244,46.0081931 4.30547684,46.1530168 4.30547684,46.202164 C4.30547684,46.3716855 4.01662597,46.2909083 3.82853199,46.0687838 Z M12.7766282,45.9184038 C12.7766282,45.8639694 12.8823515,45.7328965 13.0115724,45.6271421 C13.2696209,45.4159438 13.3347124,45.5101615 13.1597071,45.8415893 C13.0611748,46.028183 12.7766282,46.0852455 12.7766282,45.9184038 Z M21.1222318,45.0629222 C20.8699154,45.0372829 20.6242934,44.9717051 20.5763878,44.9171983 C20.4630389,44.7882154 20.4589002,41.7684683 20.5721456,41.7684683 C20.6193062,41.7684683 20.7092197,41.9226663 20.7720039,42.1111224 C20.9030768,42.5045274 21.0080034,42.5464939 21.0932401,42.239619 C21.190117,41.8908396 21.16037,38.6473229 21.0524221,37.7936106 C20.588121,34.1206097 19.1223351,31.4573503 16.5594394,29.6303172 C15.4359868,28.8294356 13.8149579,28.1437963 12.3721004,27.8593635 C11.5818035,27.7035515 11.8321851,27.6272957 12.9907754,27.6709488 C15.4367525,27.7631075 17.3032069,28.401969 19.0411543,29.7418554 C19.9156325,30.4160511 20.8144877,31.3853368 21.4412952,32.3302041 C21.909673,33.0361644 22.104482,33.2135805 22.104482,32.9341659 C22.104482,32.8622145 22.1687355,32.0218392 22.2472675,31.0666769 C22.9499582,22.5204493 24.7261473,15.4430497 27.4038922,10.5179858 C29.3290128,6.97763046 32.6894377,3.46459063 35.5631504,1.98810613 C37.0080773,1.24571482 38.1894718,0.965979468 39.7222427,1.00325889 C40.6873794,1.02672537 40.7663356,1.04044623 41.5535181,1.321298 C42.0555746,1.50042133 42.6052676,1.76721287 42.9639902,2.00589223 C43.596685,2.42684034 44.3178654,3.04481171 44.2409889,3.10016694 C44.2150392,3.11884804 43.8869016,2.92960039 43.5118415,2.67957062 C40.7624969,0.846846724 38.2748223,1.10613685 36.1456634,3.44725979 C34.9983097,4.70884182 33.4016992,7.09946371 32.3847149,9.07880138 C29.4590613,14.7725271 27.6867626,20.9403419 26.9104442,28.1303145 C26.7419263,29.6912286 26.6191515,32.0204942 26.7084959,31.961621 C26.7424644,31.9392203 26.9837822,31.4234647 27.2446864,30.8154055 C28.8975834,26.9634054 30.947486,24.163879 33.2355714,22.6333844 C33.9308021,22.1683487 34.9031608,21.6973532 35.0096291,21.7740331 C35.0331887,21.7909915 34.8323475,22.0022209 34.563321,22.2434145 C32.538561,24.0587558 31.2020684,26.134215 30.1840494,29.0436241 C29.2140084,31.8160419 28.7711975,34.8257112 28.7684039,38.6652952 C28.7670588,40.4677031 28.9634406,43.202769 29.1473441,43.9442188 C29.2769478,44.4666791 29.2312254,44.5093699 28.5427201,44.5088939 C27.9730992,44.5084842 26.1565473,44.6522899 25.0073312,44.7887224 C24.5792232,44.8395561 24.1626414,44.8300991 23.3434667,44.7510498 C22.7424433,44.6930354 22.1749021,44.628244 22.0822985,44.6070848 C21.9118872,44.5681602 21.8965326,44.5914612 21.8766254,44.919009 C21.8649128,45.1116038 21.7744096,45.1288208 21.1220145,45.0625394 L21.1222318,45.0629222 Z M23.7157539,38.1045105 C24.0199594,37.9912444 24.1032819,37.87624 24.1032819,37.5696651 C24.1032819,36.9176321 22.7494067,36.8392553 22.5266407,37.4783962 C22.4502712,37.6975098 22.6609625,38.0067852 22.9610913,38.1160885 C23.2688664,38.2281751 23.3885165,38.2263437 23.7157332,38.1045208 L23.7157539,38.1045105 Z M26.1664906,38.0505727 C26.4535514,37.8209572 26.4955386,37.6740433 26.3471556,37.4183435 C25.9324672,36.703754 24.5314004,37.1007493 24.8690156,37.8371912 C24.9949979,38.1120636 25.1787152,38.1999077 25.6333938,38.202691 C25.8682966,38.2040361 26.0334518,38.15701 26.1665009,38.0505727 L26.1664906,38.0505727 Z M29.2822143,44.9638726 C29.2546608,44.9121387 29.3737832,44.6868895 29.5469468,44.4632854 C30.4563661,43.2890301 30.8090462,42.8649159 30.8761968,42.8649159 C30.9170251,42.8649159 30.9333627,42.9034369 30.9125139,42.9505768 C30.8916548,42.997696 30.6950351,43.4464149 30.4755801,43.9477367 C30.256125,44.4490585 30.0144865,44.9039441 29.9386032,44.958575 C29.7638462,45.0844021 29.3482474,45.0877545 29.2822247,44.9638519 L29.2822143,44.9638726 Z M31.813035,44.3470601 C31.813035,44.2216882 32.6953457,43.6399305 32.7398058,43.7359796 C32.7588956,43.7772219 32.6819777,43.9527756 32.568846,44.1260633 C32.3941718,44.3936102 32.321672,44.4411329 32.0880936,44.4411329 C31.9183858,44.4411329 31.813035,44.4051054 31.813035,44.3470704 L31.813035,44.3470601 Z M18.320843,44.2183979 C18.1383363,44.0543705 17.8108609,43.5394841 17.8438051,43.4683397 C17.8620464,43.4289495 18.1003636,43.5726869 18.3733943,43.7877859 C18.6464249,44.002885 18.8456313,44.2070372 18.8160913,44.2414712 C18.7380249,44.332409 18.4318432,44.3181512 18.3208534,44.2183876 L18.320843,44.2183979 Z"/>
</svg>
