<svg xmlns="http://www.w3.org/2000/svg" width="48" height="48" viewBox="0 0 48 48">
  <path fill="#0288D1" fill-rule="evenodd" d="M2,2 L2,46 L46,46 L46,2 L2,2 Z M35.4507885,23 L35.4507885,23.000639 C35.8678929,23.0019759 36.3419062,23.023928 36.6984556,23.0634681 C38.1503891,23.2241367 39.281104,23.8648481 40.243054,25.0716616 C40.7220993,25.672822 40.8859922,25.9358848 40.8510665,26.0483877 C40.828563,26.1209732 40.4998902,26.3617863 39.4548904,27.0713385 C38.4283663,27.7683723 38.0976274,27.9771411 38.0208675,27.9771411 C37.9429936,27.9771411 37.7808118,27.8064076 37.5469502,27.4785495 C37.0965832,26.8472597 36.6367812,26.559138 35.9259318,26.4630574 C35.1614892,26.3595072 34.4758107,26.6059624 34.1399864,27.1051974 C33.852958,27.5316986 33.8095993,28.2181221 34.0377477,28.7167901 C34.3020574,29.2944728 34.7805163,29.6138253 36.6141061,30.4362294 C38.7288394,31.3846581 39.800492,32.0338642 40.5809902,32.839497 C41.421489,33.7071007 41.8473142,34.7088747 41.9781257,36.1258201 C42.0419931,36.816431 41.9639635,37.6350185 41.7707356,38.300527 C41.2968822,39.9319661 40.0181594,41.1265664 38.1438336,41.6888082 C37.6257367,41.8441772 37.1436317,41.9369972 36.6667399,41.9727098 C35.9387795,42.0275317 34.8966795,41.9973237 34.2694877,41.903917 C32.6826915,41.6675377 30.8914155,40.7230565 29.9982296,39.6521145 C29.5597604,39.1264576 29,38.2613402 29,38.1091118 C29,38.0356681 29.0355782,37.9939918 29.1765689,37.9023058 C29.5946222,37.630661 31.9904564,36.2297563 32.0369387,36.2297563 C32.0650254,36.2297563 32.1901705,36.3806543 32.3149159,36.5649859 C32.5975627,36.9823927 33.2925377,37.699829 33.6458461,37.9391852 C33.9344844,38.1346831 34.3035393,38.2916986 34.7416993,38.4049757 C34.9926506,38.468964 35.1255198,38.4803713 35.6730839,38.4803713 C36.2325245,38.4801794 36.3473231,38.4705463 36.5976027,38.4017807 C37.2596136,38.2195319 37.7763992,37.8424504 37.9953779,37.3818177 C38.0913693,37.1827649 38.0932435,37.1579133 38.0932435,36.6751443 L38.0932435,36.1746444 L37.9755984,35.9358988 C37.6905849,35.3572237 37.0764636,34.9602195 35.1349516,34.0999982 C34.2430984,33.7048478 33.1508166,33.1476984 32.7243731,32.8705032 C31.7512077,32.2379266 31.076702,31.5147327 30.6340537,30.6294962 C30.1937508,29.7491668 30.1280891,29.4214832 30.127023,28.0977723 C30.1259388,27.0615724 30.1242597,27.0742872 30.3339974,26.4129006 C30.5242978,25.8127325 30.9138539,25.1422951 31.3438902,24.6748144 C32.202225,23.7415758 33.4561715,23.1418439 34.7987223,23.0225475 C34.9704511,23.0059245 35.200432,22.999421 35.4506691,23.0001843 L35.4507885,23 Z M23.9020909,24.0001913 L23.9025033,24.0001913 C26.4603506,24.0014888 27.9266331,24.010364 27.9501519,24.025182 C27.9944852,24.0527074 28,24.275882 28,25.7003928 L28,27.3437743 L25.4476369,27.3530683 L22.8952738,27.3623622 L22.8952738,34.6284117 C22.8952738,38.6248289 22.8872015,41.9182539 22.8761171,41.9473338 C22.8580668,41.9962397 22.6617591,42 21.0010515,42 L19.1461297,42 L19.126973,41.9248217 C19.1145861,41.8835696 19.1055551,38.5900504 19.1053442,34.6058997 L19.1047262,27.3619508 L16.5523631,27.3528631 L14,27.3435692 L14,25.7196447 C14,24.4316718 14.0088738,24.0867319 14.0430509,24.0524706 C14.0781708,24.0161641 15.3807714,24.0068025 20.9934179,24.0012509 C22.0755962,24.0001575 23.0494618,23.999689 23.9021479,24.0002178 L23.9020909,24.0001913 Z"/>
</svg>
