<svg xmlns="http://www.w3.org/2000/svg" width="48" height="48" viewBox="0 0 48 48">
  <path fill="#42A5F5" d="M33.3333333,11 L27,11 L27,15.275 L33.3333333,15.275 C38.1044444,15.275 41.9888889,19.3925 41.9888889,24.5 C41.9888889,26.9466221 41.0769669,29.293037 39.4537354,31.0230601 C37.8305038,32.7530831 35.6289294,33.725 33.3333333,33.725 L27,33.725 L27,38 L33.3333333,38 C40.3289402,38 46,31.9558441 46,24.5 C46,17.03 40.3211111,11 33.3333333,11 Z M6.01111111,24.5 C6.01111111,19.3925 9.89555556,15.275 14.6666667,15.275 L21,15.275 L21,11 L14.6666667,11 C7.67105984,11 2,17.0441559 2,24.5 C2,31.9558441 7.67105984,38 14.6666667,38 L21,38 L21,33.725 L14.6666667,33.725 C9.89555556,33.725 6.01111111,29.585 6.01111111,24.5 Z M15,26 L32,26 L32,22 L15,22 L15,26 Z"/>
</svg>
