<svg xmlns="http://www.w3.org/2000/svg" width="48" height="48" viewBox="0 0 48 48">
  <g fill="#0288D1" transform="translate(2 2)">
    <path d="M5.21855319,28.6857475 L0,33.8428738 L5.21855319,39 L5.21855319,35.8162287 L21.9255018,35.8162287 L21.9255018,31.8694773 L5.21855319,31.8694773 L5.21855319,28.6857475 Z M21.925766,8 C18.1929919,7.99995829 14.6130904,9.46532424 11.9736206,12.0737252 C9.33415071,14.6821262 7.85133067,18.2198891 7.85137288,21.9087252 C7.85137288,25.597534 9.33421154,29.1352565 11.9736768,31.7436234 C14.6131421,34.3519904 18.1930195,35.8173348 21.925766,35.8172931 C29.6987508,35.8172931 36,29.5902151 36,21.9087252 C36.0000422,18.2199164 34.517244,14.6821773 31.8778086,12.0737808 C29.2383731,9.46538435 25.6585125,8 21.925766,8 Z M21.9275801,11.9442677 C27.4952926,11.9442677 32.0088155,16.4046624 32.0088155,21.9068381 C32.0088155,27.4090138 27.4952926,31.8694085 21.9275801,31.8694085 C16.3598675,31.8694085 11.8463447,27.4090138 11.8463447,21.9068381 C11.8463447,16.4046624 16.3598675,11.9442677 21.9275801,11.9442677 Z"/>
    <polygon points="9.944 .045 4.444 5.282 7.839 5.282 7.839 22.045 11.821 22.045 11.821 5.282 15.216 5.282"/>
    <polygon points="38.797 4.615 38.797 8.01 22.033 8.01 22.033 11.967 38.797 11.967 38.797 15.615 44.033 10.115"/>
    <polygon points="32.032 22.003 32.032 38.767 28.421 38.767 33.921 44.003 39.421 38.767 36.026 38.767 36.026 22.003"/>
  </g>
</svg>
