<svg xmlns="http://www.w3.org/2000/svg" width="48" height="48" viewBox="0 0 48 48">
  <path fill="#F05223" d="M40.8257667,5 L40.8264,5.00084446 C42.0270168,5.00142781 43.0000002,5.97585026 43,7.17765951 L43,40.8231849 C43,42.0254067 42.0263736,43 40.8253445,43 L27.2734889,43 C32.0980111,40.4150981 35.1815,35.4445876 35.1815,28.8353964 C35.1844555,19.3206182 28.3391778,11.7805962 17.5564667,11.7738616 C12.5212555,11.7738616 8.26821111,13.3960755 5,15.9068757 L5,7.17681504 C5,5.97459329 5.97362646,5 7.17465555,5 L40.8257667,5 Z M5,36.0909091 L5,36.0911198 C6.03259822,38.7859266 8.10770524,41.3316307 11.0454545,43 L7.1721042,43 C5.97248418,43 5,42.0271147 5,40.8269999 L5,36.0909091 Z M17.3800364,16.239757 C24.9796112,16.5109404 30.035032,22.7734933 30.0454393,29.2769551 C30.0548057,36.4597708 25.7591134,41.3691983 18.517964,41.2712889 C13.5870137,41.2077336 8.7790853,37.7220723 8.89667879,32.4229394 C8.9942987,28.2076811 11.8808508,24.8002399 16.4677377,24.6876655 C20.1746717,24.5966269 21.6682355,27.2412335 21.6682355,28.877373 C21.6682355,30.4282496 20.7788328,32.4286079 18.5976835,32.9103394 C16.8366744,33.2989711 14.3445567,31.3897374 16.2269141,28.7852608 C14.3066535,28.6950811 12.6234303,29.9513706 12.5285974,32.1779512 C12.3350227,36.4949194 16.6658915,38.1702226 19.4340092,37.7119807 C24.5101405,36.8709474 26.3904999,33.4587181 26.3668962,28.8234798 C26.3423351,23.9737427 22.093059,19.68321 16.5834662,19.6264354 C12.1739186,19.5815603 6.90985342,22.1937666 5,27.8914079 L5,21.1010887 C7.80891406,18.0864017 11.99762,16.0478588 17.3800364,16.239757 Z"/>
</svg>
