<svg xmlns="http://www.w3.org/2000/svg" width="48" height="48" viewBox="0 0 48 48">
  <path fill="#4255E5" d="M21.8862786,44.9382605 C17.9227374,44.4863891 14.4329862,43.0983407 11.2477107,40.7067239 C8.7115666,38.8025157 6.333799,35.8768367 4.98888258,33.0058475 L4.55006035,32.0691235 L7.41757842,29.1258098 C8.9946464,27.5069929 10.4893452,25.9942071 10.7389081,25.7641753 L11.1927867,25.3458098 L12.5879283,26.6141658 C14.428957,28.2878957 15.5811207,29.2056792 17.169573,30.2635354 C18.8371578,31.374184 19.8334004,31.8906116 21.1738524,32.3391793 C23.7211576,33.1915583 25.8725774,33.0078677 28.5493517,31.7094434 C30.5393816,30.7441357 33.5047828,28.557639 35.9356774,26.2631245 L36.9265292,25.3278849 L40.1796644,28.5799167 C41.9689055,30.3684951 43.4327996,31.9104116 43.4327996,32.0063977 C43.4327996,32.1023838 43.2543331,32.5546235 43.0361999,33.0114839 C40.9827748,37.3122197 37.5157924,40.8057793 33.2370607,42.8853296 C31.2579688,43.8472221 29.4494189,44.4241209 27.2588235,44.7921049 C26.1247409,44.9826373 23.0170352,45.0671609 21.8861893,44.9382382 L21.8862786,44.9382605 Z M22.5894299,31.1330022 C20.6410311,30.7079176 18.2057837,29.3029042 15.4647212,27.0224528 C14.0136624,25.81526 12.4941859,24.3693297 12.4941859,24.1956618 C12.4941859,24.0545064 14.3683632,22.2869891 15.8090422,21.0695281 C18.0778771,19.1521497 19.9315179,18.0019905 21.8084855,17.3467179 C22.5088801,17.1022212 22.7293124,17.074095 23.9455075,17.074095 C25.161178,17.074095 25.38228,17.1022714 26.0813018,17.3463049 C28.6052802,18.2274686 31.7377635,20.377457 34.9196907,23.412404 C35.3478541,23.8208137 35.6981797,24.1961194 35.6981797,24.2464228 C35.6981797,24.3691734 33.2733121,26.5632597 32.0819728,27.5184331 C29.9163784,29.2547772 27.4172893,30.6743672 25.8128765,31.0796294 C24.890208,31.3126748 23.5174781,31.335332 22.5894299,31.1328504 L22.5894299,31.1330022 Z M26.7717294,28.8528856 C28.3567218,28.0510221 28.8310699,27.7650281 28.9792897,27.5219154 C29.1530016,27.2370375 29.1681138,26.971223 29.1681138,24.1987869 C29.1681138,21.418538 29.1533933,21.1611613 28.9778946,20.8733146 C28.8282126,20.6278469 28.3520006,20.3394979 26.7432127,19.5201337 C24.7146769,18.4870552 24.6931359,18.4789299 23.9739126,18.4759945 C23.255158,18.4730591 23.2336951,18.4808943 21.4124328,19.4108769 C20.2829262,19.9876418 19.4500825,20.4801733 19.2492937,20.6901709 L18.9228306,21.0316024 L18.9232771,24.0716834 C18.9236119,26.8802817 18.9381727,27.1356494 19.1143333,27.4245006 C19.2595396,27.6626243 19.6930715,27.9381156 20.9322585,28.5796823 C23.1812267,29.7441278 23.4909481,29.8674588 24.1734513,29.871142 C24.7114848,29.8739992 24.8974963,29.8011123 26.7717629,28.8529079 L26.7717294,28.8528856 Z M22.2099514,27.4702391 C21.3935593,27.0452104 20.6569915,26.6288539 20.5731714,26.5449888 C20.4413361,26.413153 20.4302196,26.0707505 20.4910489,24.0150851 L20.5613998,21.6376431 L22.1113462,20.8338822 C23.0149849,20.3652802 23.7839535,20.0301213 23.9552768,20.0301213 C24.2848093,20.0301213 27.149258,21.4258263 27.4624394,21.7390089 C27.6500804,21.9266506 27.6620786,22.077438 27.6620786,24.2477064 L27.6620786,26.556842 L27.2759257,26.8006132 C27.0635405,26.9346813 26.3410023,27.319474 25.6702852,27.6557044 C24.7740017,28.1049975 24.3504814,28.2638434 24.0725692,28.2550037 C23.8125818,28.2467445 23.2302609,28.0013883 22.2099994,27.4702168 L22.2099514,27.4702391 Z M3.85323738,30.0193401 C3.6885772,29.5878155 3.3853404,28.264022 3.18724146,27.1118538 C2.91884972,25.5508517 2.94280151,22.2749351 3.23460819,20.6327913 C3.50359148,19.1191126 3.70515036,18.3305755 3.86107138,18.1819087 C3.94720184,18.0998138 4.75135025,18.8613899 6.97926848,21.1350442 C8.63044638,22.8201585 9.98183626,24.2216673 9.9822827,24.2496819 C9.98272915,24.2776518 8.62933026,25.6538694 6.97458081,27.307844 L3.96598602,30.3151112 L3.85323738,30.0193401 Z M41.0856582,27.2456763 C39.5041257,25.6296496 38.2102157,24.2679862 38.2102157,24.2198815 C38.2102157,24.044227 43.9890035,18.2196335 44.1367769,18.2463087 C44.3034126,18.2763947 44.5093466,19.0022551 44.8036657,20.5968523 C45.0663206,22.0200138 45.0652045,25.9801106 44.801746,27.4132055 C44.5373387,28.8514346 44.203766,30.1030489 44.0732812,30.1465775 C44.0115679,30.1671486 42.6670901,28.8617029 41.0856693,27.2456763 L41.0856582,27.2456763 Z M7.78753647,19.6920158 C4.7859732,16.6894363 4.44477739,16.3155369 4.51129773,16.1009075 C4.66029885,15.6201287 5.44102004,14.0328532 5.91369399,13.2496735 C9.12899294,7.9222211 14.3774037,4.34205075 20.5816539,3.24401428 C22.2816059,2.9431313 25.6265972,2.91544043 27.2070135,3.18915487 C31.8753803,3.99767044 35.7158143,5.96080964 38.9161573,9.17433537 C40.6552849,10.9207245 42.0092419,12.8305133 43.0425395,14.9950001 C43.7325988,16.4403724 44.0171184,15.9490798 40.3159865,19.7033421 C38.5319911,21.5129035 37.0361762,23.0080547 36.9919781,23.0258009 C36.9477521,23.0436086 36.3563405,22.5520648 35.6777548,21.933479 C32.0450295,18.6220697 28.7734784,16.4941916 26.1778455,15.7545405 C25.3104805,15.5073651 25.1368914,15.4915608 23.7168159,15.5303571 C22.3252459,15.5683754 22.1065994,15.6003477 21.2652732,15.8888429 C18.6117141,16.7987466 15.7209808,18.8028027 12.2853611,22.1145467 C11.7551962,22.6255946 11.2802342,23.0437146 11.2298975,23.0437146 C11.1795608,23.0437146 9.63061887,21.5355049 7.78791595,19.6921251 L7.78753647,19.6920158 Z"/>
</svg>
