<svg xmlns="http://www.w3.org/2000/svg" width="48" height="48" viewBox="0 0 48 48">
  <g fill="none" transform="translate(5 3)">
    <path fill="#8ED6FB" d="M19,0 C18.5566672,0 18.133791,0.125342073 17.7960136,0.377347113 L1.11740987,9.7002505 C0.441855065,10.0572487 0,10.7520512 0,11.5500472 L0,30.4499528 C0,31.2479488 0.441855065,31.9427513 1.11740987,32.2997495 L17.7960136,41.6226529 C18.133791,41.8746516 18.5566672,42 19,42 C19.4433328,42 19.866209,41.8746516 20.2039864,41.6226529 L36.8825901,32.2997495 C37.5581449,31.9427513 38,31.2479488 38,30.4499528 L38,11.5500472 C38,10.7520512 37.5581449,10.0572487 36.8825901,9.7002505 L20.2039864,0.377347113 C19.866209,0.125348373 19.4433328,9.32582678e-16 19,0 Z M19,4.51581742 L33.7777614,12.7887261 L33.7777614,17.206054 L33.7447647,17.206054 L33.7447647,28.0791696 L33.7777614,28.0791696 L33.7777614,29.2111899 L19,37.4840986 L4.22223864,29.2111899 L4.22223864,12.7886421 L19,4.51573342 L19,4.51581742 Z"/>
    <path fill="#1C78C0" d="M8.40803665,14.8361544 L19.1889167,20.7704681 L29.9697967,14.8361544 L19.1889167,8.90184071 L8.40803665,14.8361544 Z M8.39149769,19.6307911 L8.39149769,27.1377472 L17.1914977,31.9785502 L17.1914977,24.4715941 L8.39149769,19.6307911 Z M29.8079724,19.5376933 L21.0079724,24.3784963 L21.0079724,31.8854524 L29.8079724,27.0446494 L29.8079724,19.5376933 Z"/>
  </g>
</svg>
