<svg xmlns="http://www.w3.org/2000/svg" width="48" height="48" viewBox="0 0 48 48">
  <path fill="#4CAF50" d="M23.9998477,2 C11.849668,2 2.00000116,11.8496668 2.00000116,23.9998465 L2.00000116,42.9022399 C2.00000116,44.6186024 3.38139877,46 5.09776126,46 L23.99862,46 C23.9991486,46 23.9996772,46 24.0002058,46 C36.1503855,46 46.0000523,36.1503332 46.0000523,24.0001535 C46.0000523,11.8499737 36.1503855,2.00030693 24.0002058,2.00030693 L23.9998477,2 Z M23.9998477,7.80561452 C32.9436751,7.80561452 40.1940797,15.0560192 40.1940797,23.9998465 C40.1940797,32.9436739 32.9436751,40.1940785 23.9998477,40.1940785 C15.0560203,40.1940785 7.80561569,32.9436739 7.80561569,23.9998465 C7.80561569,15.0560192 15.0560203,7.80561452 23.9998477,7.80561452 Z"/>
</svg>
