<svg xmlns="http://www.w3.org/2000/svg" width="48" height="48" viewBox="0 0 48 48">
  <g fill="none" transform="translate(1 2)">
    <circle cx="23" cy="23" r="23" fill="#212121"/>
    <path fill="#E53935" d="M35.1321406,42.5299548 C35.130317,42.5317738 32.5247532,39.117729 27.3154492,32.2878204 L33.8495452,32.999066 C33.8495452,32.999066 36.9873048,33.3196519 37.7021328,32.999066 C38.3560585,32.7436072 41.8840058,27.8348089 41.8840058,27.8348089 C41.8840058,27.8348089 31.7561571,21.5085175 28.2940153,18.0224145 C28.6894158,12.1469627 27.8378156,4.33300213 27.8378156,4.39802709 C25.2880731,6.91252968 24.963536,7.30324047 22.4138966,9.62730916 C21.3037713,6.07592615 20.7816371,4.84886684 19.671486,1.29748383 C16.3360519,4.00736731 13.7913157,8.59557974 11.9614076,13.9551667 C11.5609749,14.390936 11.1757161,14.8517462 10.7955411,15.3426465 C10.5471629,15.6682048 10.2987486,15.9988121 10.0605328,16.3394154 C9.56882397,17.0306435 9.09739875,17.7569341 8.64628291,18.5182872 C8.32693284,19.0542459 8.01264076,19.6052496 7.70849046,20.1662492 C5.58454799,24.108292 3.84093533,28.6263795 2.33024821,32.6936272 C-1.82586778,24.2254645 -0.313890359,14.1659751 6.11414266,7.29729897 C12.5424337,0.428622822 22.5732517,-1.8457209 31.3888619,1.56643218 C40.2044722,4.97858527 46.0033533,13.3803206 45.9999985,22.7357553 C46.0028604,30.5630779 42.2583007,38.0479529 35.1321406,42.5299548 Z"/>
    <path fill="#FFF" d="M24.4036626,15.5187117 C24.4036626,15.5187117 24.0037407,13.2179873 23.7336529,12.3660428 C25.5410807,10.651975 25.811112,10.3918181 27.5510248,8.74908546 C27.6860687,12.0343289 27.6185453,13.7433767 27.4159838,17.7580579 C26.4136236,16.7684078 24.4036513,15.518573 24.4036513,15.518573 L24.4036626,15.5187117 Z M16.5715416,26.8286026 C16.5715416,26.8286026 14.6966272,25.711398 13.2892625,25.5175284 C13.69438,24.5941933 14.7642832,23.4106459 15.0343428,23.0841739 C14.4942237,23.2780185 10.6146738,24.987008 10.2094716,26.4357047 C11.3080355,26.7008761 12.3831061,27.0523154 13.424264,27.4865943 C12.0250034,29.0508916 11.1587742,31.0059235 10.9468549,33.0777487 C10.9468549,33.0777487 17.1064932,32.1543858 21.7289044,32.7461457 C21.8089114,32.7926994 21.9008429,32.8157224 21.9937768,32.8124691 L24.4036428,32.8787897 L32.0589996,45.3976613 L32.1213273,45.4945794 C32.1109079,45.4997105 32.1057122,45.504786 32.1005448,45.504786 C17.6620748,50.6316518 7.22790621,41.1941694 5,37.8936715 C5.0093493,37.8653732 5.01629845,37.8363732 5.0207712,37.8069489 C7.02551971,29.4813736 9.49776144,19.5185851 13.4916151,16.5750402 C15.5690741,13.0193778 16.1715406,7.75993734 19.9161173,5 C20.8561864,7.75985413 22.3312072,13.4836663 23.333652,16.2433263 C27.7536033,20.5847291 34.4480521,25.9767441 38.930125,28.211098 C39.3975617,28.4763831 40,30.3179528 40,30.3179528 L38.1926287,32.5523621 L18.9137572,30.6444524 C18.4826898,30.6087433 18.0515942,30.5934445 17.6205268,30.5934445 C16.2809593,30.6119162 14.9451757,30.7381561 13.6266731,30.9709493 C14.5615466,28.670225 16.571519,26.8286858 16.571519,26.8286858 L16.5715416,26.8286026 Z M22.7986665,24.3952204 C23.8685697,24.2676798 25.0059879,24.6604889 26.2783228,25.3848983 C27.4832558,25.0533231 27.6182856,24.987008 28.8232468,24.6605084 C27.2807112,23.5433037 25.6084544,22.359784 23.3333922,22.6862837 C23.1156645,23.2433189 22.9369153,23.8142773 22.7984124,24.3952204 L22.7986665,24.3952204 Z"/>
  </g>
</svg>
