<svg xmlns="http://www.w3.org/2000/svg" width="48" height="48" viewBox="0 0 48 48">
  <path fill="#42A5F5" d="M24,3 C29.5695463,3 34.9109785,5.21249365 38.8492424,9.1507576 C42.7875064,13.0890215 45,18.4304537 45,24 C45,35.5979797 35.5979797,45 24,45 C18.4304537,45 13.0890215,42.7875064 9.1507576,38.8492424 C5.21249365,34.9109785 3,29.5695463 3,24 C3,18.4304537 5.21249365,13.0890215 9.1507576,9.1507576 C13.0890215,5.21249365 18.4304537,3 24,3 Z M23.6666667,7 C14.4619208,7 7,14.6111593 7,24 C7,33.3888407 14.4619208,41 23.6666667,41 C19.0642938,41 15.3333333,37.1944204 15.3333333,32.5 C15.3333333,27.8055796 19.0642938,24 23.6666667,24 C28.2690396,24 32,20.1944204 32,15.5 C32,10.8055796 28.2690396,7 23.6666667,7 Z M24,12 C25.6568542,12 27,13.3431458 27,15 C27,16.6568542 25.6568542,18 24,18 C22.3431458,18 21,16.6568542 21,15 C21,13.3431458 22.3431458,12 24,12 Z M24,29 C22.3431458,29 21,30.3431458 21,32 C21,33.6568542 22.3431458,35 24,35 C25.6568542,35 27,33.6568542 27,32 C27,30.3431458 25.6568542,29 24,29 Z"/>
</svg>
