<svg xmlns="http://www.w3.org/2000/svg" width="48" height="48" viewBox="0 0 48 48">
  <path fill="#2C8EBB" d="M43.6994218,38.0141305 C41.3727685,38.5648534 40.1948874,39.0720972 37.3155389,40.941624 C32.8075895,43.8401065 27.8924898,45.1880899 27.8924898,45.1880899 C27.8924898,45.1880899 27.4853208,45.7967974 26.3074397,46.0721589 C24.2716885,46.5649159 16.6081369,46.9852014 15.9100846,46.9996882 C14.0342075,47.0141937 12.885379,46.5214367 12.5655557,45.7533183 C11.5912685,43.4344949 13.9615665,42.4200447 13.9615665,42.4200447 C13.9615665,42.4200447 13.4380742,42.1012042 13.1326927,41.8113559 C12.8564015,41.5359945 12.5655745,40.9852716 12.4783227,41.1881616 C12.1147796,42.0722119 11.9257402,44.2316992 10.9514529,45.2027264 C9.61362258,46.5505601 7.08333784,46.1012822 5.58563343,45.3186695 C3.94242164,44.449106 5.70196797,42.4055879 5.70196797,42.4055879 C5.70196797,42.4055879 4.81493258,42.9273372 4.10238211,41.854865 C3.46254776,40.869351 2.86633933,39.1882836 3.02628853,37.1157731 C3.22986365,34.7245157 5.87652801,32.4347033 5.87652801,32.4347033 C5.87652801,32.4347033 5.41119735,28.9419627 6.93806709,25.362189 C8.31952334,22.1013494 12.0422813,19.4781909 12.0422813,19.4781909 C12.0422813,19.4781909 8.91578811,16.0434723 10.0792086,12.9275007 C10.835385,10.8986004 11.1407477,10.9130124 11.3879676,10.8259793 C12.2604672,10.4926519 13.1038955,10.1303322 13.7292692,9.44917201 C16.8557624,6.08688742 20.8401256,6.72456854 20.8401256,6.72456854 C20.8401256,6.72456854 22.701467,1.02886142 24.4464476,2.14494376 C24.9844944,2.49277663 26.918458,6.78259059 26.918458,6.78259059 C26.918458,6.78259059 28.9833182,5.57969977 29.2160023,6.02895894 C30.4665808,8.44922738 30.6119943,13.0724623 30.0594118,15.8840988 C29.1287505,20.5217457 26.8020221,23.0146353 25.8714734,24.5797335 C25.6533438,24.9420531 28.3725928,26.086978 30.0885208,30.8260886 C31.6735709,35.1594004 30.2630188,38.7971962 30.5102255,39.2029762 C30.5538514,39.2754402 30.5683909,39.3044287 30.5683909,39.3044287 C30.5683909,39.3044287 32.3861064,39.4493547 36.0359979,37.2029073 C37.98461,36.0000165 40.2968027,34.6521828 42.9288186,34.6231718 C45.4736954,34.5796945 45.6044042,37.5652644 43.6995307,38.0144674 L43.6994218,38.0141305 Z"/>
</svg>
