<svg width="145" height="145" viewBox="0 0 145 145">
  <g fill="none" fill-rule="evenodd">
    <path fill="#F8E71C" d="M78,59.7218254 L78,0.85971532 C87.1067062,2.02752692 95.9111931,6.10863194 102.905592,13.1030304 L131.89697,42.0944084 C139.019301,49.2167398 143.120792,58.215981 144.201441,67.5 L85.7781746,67.5 L105.026912,48.2512627 C107.174796,46.1033791 107.174796,42.6209717 105.026912,40.4730881 C102.879028,38.3252045 99.3966209,38.3252045 97.2487373,40.4730881 L78,59.7218254 Z"/>
    <path fill="#4A90E2" d="M67,86.2781746 L67,144.140285 C57.8932938,142.972473 49.0888069,138.891368 42.0944084,131.89697 L13.1030304,102.905592 C6.23672035,96.0392816 2.17797848,87.4285723 0.926804778,78.5 L59.2218254,78.5 L39.9730881,97.7487373 C37.8252045,99.8966209 37.8252045,103.379028 39.9730881,105.526912 C42.1209717,107.674796 45.6033791,107.674796 47.7512627,105.526912 L67,86.2781746 Z"/>
    <path fill="#7ED321" d="M78,86.2781746 L97.2487373,105.526912 C99.3966209,107.674796 102.879028,107.674796 105.026912,105.526912 C107.174796,103.379028 107.174796,99.8966209 105.026912,97.7487373 L85.7781746,78.5 L144.073195,78.5 C142.822022,87.4285723 138.76328,96.0392816 131.89697,102.905592 L102.905592,131.89697 C95.9111931,138.891368 87.1067062,142.972473 78,144.140285 L78,86.2781746 Z"/>
    <path fill="#D0021B" d="M67,59.7218254 L47.7512627,40.4730881 C45.6033791,38.3252045 42.1209717,38.3252045 39.9730881,40.4730881 C37.8252045,42.6209717 37.8252045,46.1033791 39.9730881,48.2512627 L59.2218254,67.5 L0.798558759,67.5 C1.87920849,58.215981 5.98069903,49.2167398 13.1030304,42.0944084 L42.0944084,13.1030304 C49.0888069,6.10863194 57.8932938,2.02752692 67,0.85971532 L67,59.7218254 Z"/>
  </g>
</svg>
